<svg width="60" height="60" viewBox="0 0 60 60" fill="none" xmlns="http://www.w3.org/2000/svg">
<path id="Vector" fill-rule="evenodd" clip-rule="evenodd" d="M44.3252 0.224042C44.0149 0.475422 43.9502 1.08352 44.2017 1.38654C44.2859 1.48811 44.8963 1.7486 45.558 1.96559C46.2197 2.18259 46.7611 2.39485 46.7611 2.43725C46.7611 2.47965 43.4408 3.7894 39.3826 5.34798C15.0889 14.6774 10.6447 16.404 10.4349 16.5938C9.95453 17.0288 10.3151 17.9817 10.9603 17.9817C11.11 17.9817 13.5284 17.1 16.3348 16.0224C19.1411 14.9449 27.2546 11.8272 34.3647 9.09449C41.4748 6.36163 47.3342 4.14053 47.3855 4.15875C47.437 4.17686 47.2094 4.65641 46.8798 5.22441C46.233 6.33916 46.1294 6.87715 46.4974 7.2103C46.7882 7.47358 47.4023 7.46739 47.6417 7.19876C47.7459 7.08175 48.383 6.01549 49.0573 4.82906C50.3179 2.61136 50.4731 2.14699 50.0709 1.79635C49.8486 1.60268 45.147 0 44.8008 0C44.6914 0 44.4774 0.100843 44.3252 0.224042ZM49.7144 8.38215C49.5685 8.44204 49.3908 8.59999 49.3196 8.73303C49.2304 8.89997 49.1903 13.155 49.1903 22.4747V35.9745L49.4885 36.2726L49.7865 36.5709H54.5951H59.4038L59.7018 36.2726L60 35.9745V22.4353C60 9.28779 59.9933 8.88794 59.7679 8.60947L59.5358 8.32261L54.7578 8.29783C52.1299 8.28422 49.8604 8.32213 49.7144 8.38215ZM50.8907 22.4164V34.8699H54.5951H58.2996V22.4164V9.96283H54.5951H50.8907V22.4164ZM33.0917 14.0275L32.7935 14.3257V21.6839V29.0421L32.2031 28.7428C30.8905 28.0775 29.1095 28.0775 27.7969 28.7428L27.2065 29.0421V24.4176V19.7931L26.9083 19.495L26.6102 19.1967H21.8016H16.993L16.6949 19.495L16.3968 19.7931V26.8317V33.8704L15.8797 33.9479C14.2408 34.1938 12.6227 35.6445 12.0324 37.3972C11.0112 40.4297 12.9622 43.5821 16.2036 44.1374C18.366 44.508 20.6416 43.2392 21.6557 41.0978C22.017 40.3348 22.0444 40.1861 22.0427 39.0009C22.0413 37.9504 21.9941 37.6232 21.7762 37.148L21.5116 36.5709H23.6412H25.7707L26.4327 37.161C28.5857 39.0807 31.4828 39.0755 33.5926 37.148L34.2243 36.5709H36.3564H38.4884L38.2238 37.148C38.0059 37.6232 37.9587 37.9504 37.9573 39.0009C37.9556 40.1989 37.9805 40.33 38.3671 41.155C39.3568 43.2673 41.6467 44.5062 43.8594 44.1266C47.0438 43.5804 48.9811 40.4068 47.9676 37.3972C47.3773 35.6445 45.7592 34.1938 44.1203 33.9479L43.6032 33.8704V24.098V14.3257L43.3051 14.0275L43.007 13.7293H38.1984H33.3898L33.0917 14.0275ZM34.4939 23.1225C34.4939 30.4531 34.5049 30.8375 34.7266 31.2965C35.1755 32.2261 35.3061 33.6944 35.0254 34.6573C34.9677 34.855 35.1398 34.8699 37.4641 34.8699C39.91 34.8699 39.9747 34.8635 40.4175 34.5736C40.6666 34.4107 41.1028 34.2059 41.3866 34.1188L41.9028 33.9603V24.6953V15.4302H38.1984H34.4939V23.1225ZM18.0972 27.429V33.9603L18.6134 34.1188C18.8973 34.2059 19.3334 34.4107 19.5825 34.5736C20.0254 34.8635 20.0898 34.8699 22.5408 34.8699C24.588 34.8699 25.0348 34.84 24.9837 34.7067C24.6726 33.8959 24.813 32.2601 25.2766 31.2933C25.49 30.8483 25.5061 30.4677 25.5061 25.8562V20.8977H21.8016H18.0972V27.429ZM0.298178 24.9624L0 25.2605V30.6175V35.9745L0.298178 36.2726L0.596235 36.5709H5.40486H10.2135L10.5115 36.2726L10.8097 35.9745V30.6175V25.2605L10.5115 24.9624L10.2135 24.6641H5.40486H0.596235L0.298178 24.9624ZM1.7004 30.6175V34.8699H5.40486H9.10931V30.6175V26.3651H5.40486H1.7004V30.6175ZM29.0891 30.0513C27.9913 30.4147 27.3372 30.9661 26.8312 31.954C26.4177 32.7614 26.4344 34.0979 26.8682 34.9307C27.2461 35.6558 27.7985 36.2004 28.5425 36.5818C28.9698 36.8008 29.2879 36.8619 30 36.8619C31.0205 36.8619 31.6849 36.6022 32.4096 35.9199C33.7945 34.6164 33.8145 32.2724 32.452 30.9446C31.5901 30.1046 30.1132 29.7123 29.0891 30.0513ZM16.0179 35.6384C14.5696 36.046 13.4818 37.4476 13.4818 38.9062C13.4818 39.8727 13.6608 40.4309 14.1994 41.1437C15.6825 43.1066 18.7781 42.8622 19.9823 40.6871C20.3047 40.1049 20.344 39.921 20.3427 39.0009C20.3415 38.1786 20.2879 37.868 20.0796 37.4767C19.7536 36.8642 18.8657 36.0341 18.2705 35.7853C17.6287 35.517 16.6709 35.4546 16.0179 35.6384ZM42.3279 35.5894C41.6078 35.7876 41.2886 35.9647 40.7396 36.4709C39.8764 37.267 39.659 37.7749 39.6573 39.0009C39.656 39.921 39.6953 40.1049 40.0177 40.6871C41.2219 42.8622 44.3175 43.1066 45.8006 41.1437C47.4843 38.9152 46.1101 35.7904 43.3389 35.5462C42.9833 35.5148 42.5283 35.5343 42.3279 35.5894ZM28.8249 39.5057C27.5837 39.6313 26.0487 40.1406 24.8172 40.8357C23.4725 41.5945 21.8655 43.2239 21.0935 44.6113L20.5069 45.6656L20.0611 45.5084C18.5487 44.9753 15.6107 44.9413 14.0283 45.4385C9.7879 46.7711 6.78462 50.6576 6.75073 54.8563C6.74283 55.8356 6.78753 56.1656 6.98101 56.5573C7.71935 58.0511 9.94543 59.1922 13.1781 59.7341C14.9453 60.0302 18.9526 60.0346 20.6492 59.742C23.2024 59.3019 24.9587 58.6059 26.0187 57.6139C26.8734 56.8142 27.1318 56.2626 27.1394 55.2208L27.1457 54.3703H30H32.8543L32.8606 55.2208C32.8652 55.852 32.9357 56.2034 33.1342 56.5834C34.1678 58.564 37.4554 59.7949 42.2065 59.9802C47.4946 60.1865 51.9499 58.7671 53.0212 56.5351C53.6677 55.1879 53.1325 52.1818 51.8667 50.0502C51.2875 49.0751 50.0377 47.6929 49.122 47.015C48.3193 46.4207 47.034 45.7786 45.9717 45.4413C44.3957 44.9409 41.4561 44.9736 39.9389 45.5084L39.4931 45.6656L38.9065 44.6165C38.2165 43.3824 36.7689 41.8322 35.6138 41.09C33.6141 39.8053 31.2701 39.2582 28.8249 39.5057ZM28.9455 41.2022C26.5177 41.4778 24.1334 42.9712 22.8333 45.0304C22.0012 46.3484 22.0004 46.3159 22.87 46.9381C23.854 47.6422 24.8682 48.7178 25.5343 49.7637C26.0736 50.6108 26.7206 51.997 26.7206 52.3055C26.7206 52.5654 27.6572 52.6693 30 52.6693C32.3428 52.6693 33.2794 52.5654 33.2794 52.3055C33.2794 51.997 33.9264 50.6108 34.4657 49.7637C35.1318 48.7178 36.146 47.6422 37.13 46.9381C37.9999 46.3156 37.9994 46.3493 37.1626 45.024C35.4691 42.3414 32.2199 40.8302 28.9455 41.2022ZM14.7417 47.0172C11.2722 47.9271 8.66016 51.0586 8.42174 54.5939C8.36077 55.4993 8.38008 55.6223 8.6451 56.0106C9.223 56.8575 10.9362 57.6085 13.2831 58.0436C14.8494 58.334 19.05 58.3298 20.6158 58.0363C23.279 57.5373 24.8606 56.7877 25.3278 55.8031C25.4914 55.458 25.5182 55.1941 25.454 54.5638C25.3296 53.3453 25.1634 52.7695 24.5916 51.5759C23.4814 49.2583 21.3721 47.5355 18.9474 46.9658C17.8443 46.7066 15.8319 46.7312 14.7417 47.0172ZM40.9928 46.9729C39.3497 47.3702 37.7081 48.414 36.4838 49.8399C35.8845 50.5379 34.9614 52.3418 34.7562 53.2161C34.4809 54.3882 34.4512 55.3371 34.6749 55.8086C35.4191 57.3773 39.432 58.4521 43.9069 58.2811C47.6218 58.1393 50.5018 57.2613 51.3547 56.0106C51.6223 55.6181 51.6389 55.5068 51.5695 54.5686C51.3055 50.9979 48.703 47.905 45.2106 47.0115C44.1028 46.728 42.082 46.7097 40.9928 46.9729Z" fill="white"/>
</svg>
