<svg width="59" height="59" viewBox="0 0 59 59" fill="none" xmlns="http://www.w3.org/2000/svg">
<path id="Vector" fill-rule="evenodd" clip-rule="evenodd" d="M30.3551 0.176767C30.5721 0.275538 37.0652 6.69699 44.7842 14.4466C60.0452 29.7682 59.1383 28.7685 58.9052 30.014C58.7838 30.6631 57.9969 31.4519 57.3494 31.5736C56.1086 31.807 57.0262 32.6391 42.6879 18.2763L29.5 5.06575L16.3121 18.2763C1.97384 32.6391 2.89141 31.807 1.65062 31.5736C1.00313 31.4519 0.21619 30.6631 0.0947723 30.014C-0.138336 28.7685 -1.04524 29.7682 14.2158 14.4465C22.4346 6.19482 28.4256 0.279495 28.6736 0.171492C29.2022 -0.0590179 29.8414 -0.0570402 30.3551 0.176767ZM51.4097 33.9314C51.9374 34.1617 52.4912 34.8347 52.5898 35.365C52.6332 35.5987 52.6465 39.0833 52.6194 43.1086C52.5753 49.643 52.5449 50.5123 52.3364 51.2187C51.4429 54.2442 49.4014 56.6971 46.6902 58.0024C44.4761 59.0686 45.6737 58.9991 29.5 58.9991C13.3347 58.9991 14.5221 59.0675 12.3224 58.0086C10.1742 56.9743 8.43271 55.2286 7.40096 53.0752C6.38854 50.9619 6.41288 51.2171 6.41288 42.7029V35.1101L6.79201 34.6118C7.69155 33.4292 9.29568 33.4796 10.2197 34.7195C10.4842 35.0745 10.4925 35.2673 10.5567 42.5577C10.6216 49.9229 10.6268 50.0419 10.9161 50.723C11.7899 52.7799 13.2785 54.1115 15.3098 54.6535C16.3421 54.929 42.6365 54.9347 43.6667 54.6597C45.6933 54.1189 47.2188 52.7593 48.0839 50.723C48.3732 50.042 48.3784 49.9224 48.4433 42.5707L48.5091 35.1095L48.8882 34.6115C49.4999 33.8079 50.5057 33.5365 51.4097 33.9314Z" fill="white"/>
</svg>
