<svg width="76" height="61" viewBox="0 0 76 61" fill="none" xmlns="http://www.w3.org/2000/svg">
<path id="Vector" fill-rule="evenodd" clip-rule="evenodd" d="M35.4213 0.176362C30.9321 0.81138 26.9766 2.20119 23.4199 4.39315L22.2593 5.10856L17.0081 5.15089C12.0861 5.19042 11.7375 5.21063 11.4448 5.47408C10.7553 6.09449 11.2394 7.33193 12.1716 7.33193H12.6169V19.87V32.4081H7.42154H2.2262V19.87V7.33193H4.82387C7.22367 7.33193 7.4441 7.30951 7.71841 7.03692C8.1186 6.63924 8.11059 5.84078 7.70268 5.47408C7.41649 5.21683 7.13074 5.19308 4.32571 5.19308C1.53032 5.19308 1.22379 5.21845 0.832956 5.48131C-0.0287275 6.06116 -0.00037582 5.56819 0.000217933 19.9759C0.000663248 32.8508 0.00882735 33.2326 0.290563 33.6916C0.832511 34.5752 1.07224 34.6207 5.1724 34.6207H8.87549L9.04797 35.6164C10.4728 43.8401 15.2769 51.1921 22.2851 55.875C26.4642 58.6673 31.2102 60.3588 36.3587 60.8904C38.4637 61.1079 42.4485 60.9884 44.3827 60.6498C48.6085 59.9102 52.5686 58.3806 56.0351 56.1491L57.3982 55.2717H58.7435H60.0889L60.2886 55.8986C60.604 56.8893 61.0598 57.0414 63.7167 57.0415C65.8249 57.0418 65.9062 57.053 65.9062 57.3442C65.9062 57.7707 66.3019 58.4802 66.6402 58.66C66.8155 58.7533 68.4507 58.8119 70.8765 58.8119C75.1661 58.8119 75.4757 58.7613 75.8226 58.0047C75.9543 57.7177 76 55.1825 76 48.1771C76 38.0653 76.0034 38.1149 75.266 37.7228C75.0987 37.6337 73.8025 37.5709 72.1342 37.5709H69.2881L69.3696 37.239C69.5091 36.6711 69.8885 34.2953 69.9885 33.3634C70.0712 32.5927 70.0415 32.4216 69.7654 32.0727C69.5296 31.7746 69.3155 31.6706 68.9383 31.6706C68.4206 31.6706 67.8359 32.0833 67.8359 32.4488C67.8359 32.902 67.5038 35.2316 67.2953 36.2413C67.0973 37.2003 66.991 37.4156 66.4867 37.878C66.0477 38.2808 65.9062 38.5239 65.9062 38.8757V39.341L63.6425 39.3416C61.6623 39.342 61.3196 39.378 60.9055 39.6289C60.3588 39.9602 60.1192 40.624 60.118 41.8117C60.1171 42.5285 60.0908 42.5861 59.7643 42.5861C59.4978 42.5861 59.1304 42.2426 58.2653 41.1847C55.8054 38.1764 54.3626 37.4234 51.0584 37.4234C49.0941 37.4234 48.8358 37.5463 48.8358 38.4816C48.8358 39.3724 49.1688 39.5307 51.2533 39.6305C53.9222 39.7584 54.6458 40.1941 56.9799 43.0782C57.9704 44.3022 58.7236 44.7894 59.6347 44.7955L60.1171 44.7987V48.9289V53.0591L48.6503 53.0582C40.7455 53.0578 36.9989 53.0069 36.5896 52.8947C35.5294 52.6038 23.6867 47.1506 23.3044 46.7771C23.0162 46.4955 22.9333 46.2644 22.9333 45.742C22.9333 45.1688 23.0049 45.006 23.4181 44.6391C23.7474 44.3468 24.0609 44.2087 24.3954 44.2087C24.6718 44.2087 27.7325 45.2775 31.3652 46.6426L37.8423 49.0764H42.3645C44.8517 49.0764 47.0507 49.0145 47.2511 48.9388C47.7731 48.7416 48.6623 47.9297 48.9416 47.3951C49.2482 46.8084 49.2513 45.4489 48.9473 44.8725C48.6259 44.2633 47.9768 43.6783 47.3191 43.4052C46.8824 43.2239 46.1454 43.1762 43.7862 43.1762C41.4448 43.1762 40.7143 43.1294 40.3806 42.9578C39.2639 42.384 38.9745 41.0755 39.7685 40.1915L40.2011 39.7097L42.6476 39.636C45.4516 39.5515 45.7186 39.4488 45.7186 38.4559C45.7186 37.4951 45.5129 37.4234 42.7553 37.4234C39.7601 37.4234 39.3705 37.5257 38.2876 38.5977C37.3284 39.5472 37.0363 40.3251 37.1375 41.6601C37.2158 42.6919 37.5423 43.4073 38.2694 44.1401C39.3322 45.2112 39.7416 45.309 43.3841 45.3622L46.6161 45.4094L46.8524 45.7679C47.0689 46.0964 47.0683 46.157 46.8455 46.4951L46.6024 46.8638H42.4242H38.2461L35.8592 45.967C25.7225 42.1579 25.2577 41.9961 24.4619 41.9976C22.8334 42.0005 21.3076 43.1564 20.8451 44.7375C20.4304 46.1555 20.8577 47.5826 21.9845 48.5419C22.8618 49.2887 35.1556 54.8791 36.4314 55.1114C36.9884 55.2127 40.2351 55.2765 45.2635 55.2847L53.2147 55.2978L51.5819 56.0821C47.4016 58.09 43.2269 58.9332 38.2967 58.7651C32.9891 58.5842 28.1974 57.0756 23.7668 54.191C17.1288 49.8688 12.5508 42.9334 11.2143 35.1739L11.119 34.6207H24.2773C35.6647 34.6207 37.4985 34.5909 37.9045 34.3995C38.8073 33.9738 38.8091 33.9634 38.8904 28.7942L38.9647 24.074H41.4139H43.8631L43.9373 25.8202C44.0092 27.51 44.0251 27.5779 44.4281 27.9221C44.7263 28.1769 45.0212 28.2773 45.4671 28.276C46.0447 28.2742 46.4488 28.0135 51.0624 24.6646C53.7973 22.6792 56.155 20.8713 56.3017 20.6468C56.5945 20.1987 56.5593 19.4228 56.2277 19.0189C56.0171 18.7621 53.8541 17.1516 49.0841 13.6995C45.8216 11.3385 45.5737 11.2239 44.7011 11.6723C44.0879 11.9874 43.9373 12.4851 43.9373 14.1979V15.7398H41.4139H38.8904V11.031V6.32195L38.5098 5.8725C38.3004 5.62527 37.883 5.35504 37.5821 5.27199C37.2584 5.18261 34.9136 5.11918 31.8396 5.11667L26.6443 5.11239L27.906 4.55009C31.2738 3.04921 34.4636 2.33719 38.382 2.21166C42.0779 2.09307 45.0238 2.49886 48.3218 3.58083C51.3364 4.56986 54.7276 6.39069 57.1414 8.31639C58.2931 9.23522 60.5842 11.4962 61.523 12.6401C64.7105 16.525 66.8415 21.3827 67.599 26.4909C67.8617 28.2635 68.0542 28.573 68.8946 28.573C70.0344 28.573 70.1588 27.6499 69.4706 24.3014C67.5966 15.1833 61.5191 7.35111 53.0663 3.16072C50.2313 1.75528 47.7518 0.942071 44.6053 0.385527C42.2977 -0.0226253 37.5866 -0.13001 35.4213 0.176362ZM14.8434 19.87V32.4081H25.7537H36.6639V28.2042V24.0002H34.3089C30.9134 24.0002 30.8764 23.9558 30.8764 19.87C30.8764 15.8077 30.8568 15.8316 34.2298 15.7668L36.6639 15.7199V11.526V7.33193H34.0027H31.3416L31.2937 10.4271L31.2459 13.5222L30.7608 14.0041L30.2758 14.486L26.2073 14.5315C21.598 14.5831 21.0773 14.5127 20.6263 13.7778C20.3645 13.3511 20.3367 13.0205 20.3363 10.3189L20.3357 7.33193H17.5896H14.8434V19.87ZM22.5622 9.83955V12.3529L25.7908 12.3132L29.0193 12.2734V9.83955V7.40568L25.7908 7.36586L22.5622 7.32618V9.83955ZM46.1639 15.5136C46.1639 16.2315 46.0823 16.7963 45.9387 17.0723C45.4854 17.9434 45.4136 17.9524 38.9721 17.9524H33.1013V19.8624V21.7721L39.076 21.8168C46.4234 21.8716 46.0003 21.7316 46.1566 24.1609L46.2381 25.4278L49.944 22.7379C51.9822 21.2584 53.6672 19.9913 53.6884 19.9221C53.7216 19.814 46.6569 14.5725 46.2951 14.4369C46.223 14.4098 46.1639 14.8943 46.1639 15.5136ZM68.1328 48.1914V56.5993H70.9531H73.7734V48.1914V39.7835H70.9531H68.1328V48.1914ZM62.3793 48.1545L62.4179 54.7555L64.162 54.7971L65.9062 54.8385V48.1961V41.5536H64.1235H62.3406L62.3793 48.1545Z" fill="white"/>
</svg>
