<svg width="63" height="17" viewBox="0 0 63 17" fill="none" xmlns="http://www.w3.org/2000/svg">
<path fill-rule="evenodd" clip-rule="evenodd" d="M18.0738 8.95516L12.5262 12.2737L12.5189 15.7745H17.2114L17.2041 13.5821H18.9288V15.7965H23.7746L23.782 8.93318H21.5236V10.9727L18.0738 8.95516ZM0 5.01737C0 7.50988 2.02452 9.53474 4.51704 9.53474C7.00922 9.53474 9.03374 7.50988 9.03374 5.01737C9.03374 2.52485 7.00922 0.5 4.51704 0.5C2.02486 0.500333 0 2.52485 0 5.01737Z" fill="white"/>
<path fill-rule="evenodd" clip-rule="evenodd" d="M9.43292 2.98025C9.67979 3.59614 9.80632 4.25365 9.80565 4.91717C9.80565 7.31476 8.20482 9.32495 6.01974 9.9535C6.429 10.5826 6.98907 11.0995 7.64901 11.4569C8.30894 11.8144 9.04778 12.0012 9.79832 12.0003C12.2905 12.0003 14.3154 9.97581 14.3154 7.48297C14.3154 4.99045 12.2908 2.9656 9.79832 2.9656C9.67374 2.9656 9.54983 2.97293 9.43292 2.98025ZM39.8234 11.4098C39.8157 10.2796 38.8897 8.89593 36.8133 8.95323C34.6911 9.01118 33.7941 10.1757 33.7791 11.4028C33.7642 12.6888 35.0725 13.6615 37.0241 13.6688C38.5077 13.6688 39.8377 12.6675 39.8234 11.4098ZM38.608 11.3292C38.5866 12.974 37.7459 13.2951 36.679 13.2881C35.5092 13.2731 35.0416 12.4034 35.0416 11.3878C35.0476 10.5414 35.4989 9.31196 36.657 9.31196C37.9651 9.31163 38.6229 10.1593 38.608 11.3292ZM5.20867 15.7343V10.0548H3.74707V15.7343H5.20867ZM9.15246 12.5066V15.7739H10.5411V12.5066H9.15246ZM15.9372 1.9147C16.2733 2.00963 16.668 2.39701 16.668 3.22308V6.27851C16.668 7.09725 16.2733 7.49196 15.9372 7.58689L15.3526 7.75477C15.1404 7.79874 15.1404 8.09119 15.4985 8.09119H21.258C22.2695 8.09119 23.3125 7.1672 23.2458 6.14694C23.2169 5.59868 22.6393 4.55344 21.3969 4.37057C22.2812 4.07112 22.3688 3.49355 22.3615 3.07685C22.3398 1.86307 21.3812 1.4104 20.0811 1.4104H15.4985C15.1404 1.4104 15.1404 1.70285 15.3526 1.74649L15.9372 1.9147ZM21.6873 5.55937C21.8115 5.96874 21.8702 6.58995 21.6217 7.0213C21.3732 7.45998 20.9419 7.66483 20.1671 7.66483H19.3267C18.2375 7.66483 18.0256 7.23348 18.0256 6.45871L18.033 4.68967L20.0575 4.68268C21.3219 4.67502 21.607 5.30389 21.6873 5.55937ZM19.4882 1.87739C20.1881 1.87739 20.8536 1.98631 20.9575 2.7764C21.0085 3.17111 20.782 4.23834 19.8903 4.23834H18.0047L18.012 1.87739H19.4882ZM29.805 3.39761C29.6225 3.65343 29.4323 3.79233 29.0816 3.79233H28.8111C28.4967 3.79233 28.4967 4.25999 28.8111 4.25999H29.2788V6.59162C29.2611 7.0706 29.4177 7.48596 29.7464 7.83404C30.5652 8.60881 31.8589 8.17013 32.3046 7.51261L32.144 7.31509C31.8785 7.68415 31.4602 7.85969 31.0112 7.79041C30.7187 7.71713 30.5215 7.36639 30.5215 6.59162V4.5671C30.5259 4.48587 30.5606 4.40924 30.6188 4.35237C30.6769 4.29551 30.7543 4.26254 30.8356 4.25999H32.0854C32.2389 4.25999 32.3852 4.43553 32.3852 4.58875V6.59162C32.3852 7.21283 32.5167 7.61487 32.6993 7.83404C33.3641 8.62313 34.8554 8.18479 35.2138 7.49063L35.0525 7.30043C34.9645 7.47642 34.8208 7.61841 34.6438 7.70436C34.4668 7.79031 34.2663 7.8154 34.0736 7.77575C33.8031 7.72479 33.6209 7.37371 33.6353 6.59162L33.6572 4.53745C33.6572 4.41321 33.7888 4.26698 33.942 4.25965H34.8777C35.0968 4.25965 35.1335 3.79199 34.8777 3.79199H33.942C33.7885 3.79932 33.6349 3.6461 33.6349 3.47789V2.54957C33.6349 2.44731 33.3791 2.36703 33.3208 2.54957C33.2349 2.85598 33.1016 3.14706 32.9258 3.41227C32.826 3.53976 32.6967 3.64101 32.549 3.70724C32.4012 3.77346 32.2396 3.80267 32.0781 3.79233H30.8306C30.7897 3.79202 30.7492 3.78365 30.7115 3.7677C30.6739 3.75174 30.6397 3.72852 30.611 3.69935C30.5823 3.67017 30.5596 3.63563 30.5442 3.59769C30.5289 3.55975 30.5212 3.51915 30.5215 3.47822V2.5499C30.5215 2.44764 30.2511 2.38935 30.1998 2.5499C30.1179 2.85305 29.9843 3.13982 29.805 3.39761ZM42.4898 3.78367C42.4898 3.78367 42.1354 4.07445 42.0141 4.17805C41.8379 3.84396 41.5638 3.68874 41.3713 3.68874L40.1795 3.69606C40.0409 3.69606 39.9167 3.76901 39.9237 3.87893C39.9237 3.98119 40.1795 4.03215 40.2894 4.0981C40.4499 4.18571 40.6401 4.33193 40.6694 4.5148C40.8277 5.53439 40.834 6.41675 40.6914 7.43867C40.6471 7.74544 40.3037 7.82605 40.0259 7.86236C39.7338 7.90632 39.7338 8.16913 40.0479 8.16913L42.7673 8.1618C43.0814 8.1618 43.0814 7.87701 42.8695 7.87701C42.5917 7.87701 42.0798 7.67249 42.0434 7.36539C41.9262 6.47004 41.9419 5.69694 42.0947 4.80692C42.1384 4.58042 42.241 4.27331 42.4455 4.22235C43.096 4.04681 42.8768 4.4635 43.2715 4.71199C43.6886 4.98346 44.3881 4.66103 44.2798 4.11276C44.1849 3.75436 43.8191 3.54284 43.4464 3.48422C43.2748 3.46343 43.1008 3.47938 42.9359 3.53101C42.771 3.58264 42.6189 3.66876 42.4898 3.78367ZM55.1182 11.9953V13.5156C55.1182 13.5156 55.2205 13.8447 55.6951 13.2891C55.9879 13.4496 56.7844 13.6325 57.6034 13.6841C58.8825 13.764 59.6353 13.0186 59.6423 12.2515C59.6493 11.5567 59.1523 11.0091 58.2753 10.8768L56.1851 10.5997C55.4547 10.4754 55.7245 9.68569 56.1708 9.49583C56.5069 9.34308 56.879 9.28747 57.245 9.33528C58.0341 9.35593 58.6946 9.78928 59.0284 10.5044C59.1603 10.7609 59.3212 10.695 59.3798 10.6L59.3578 9.24735C59.4091 9.0868 59.0943 9.00585 58.9338 9.27666C58.8832 9.36459 58.693 9.40823 58.4152 9.32029C57.9701 9.16252 57.5049 9.06898 57.0335 9.04249C55.6159 9.05748 55.0676 9.89087 55.0826 10.585C55.1039 11.2649 55.4333 11.5933 56.2517 11.7762L57.1028 11.9024L58.0571 12.0177C59.0077 12.1349 59.3581 12.8074 58.3642 13.1945C57.9985 13.3337 56.9466 13.4066 56.2374 13.0629C55.7834 12.8061 55.4776 12.443 55.3018 11.9517C55.2718 11.8861 55.1182 11.8861 55.1182 11.9953Z" fill="white"/>
<path fill-rule="evenodd" clip-rule="evenodd" d="M42.1645 9.25461C41.9993 9.35853 41.7708 9.55572 41.5346 9.32556C41.3654 9.16034 41.3128 9.01145 41.001 9.01145H39.9554C39.7656 9.01145 39.634 9.06275 39.634 9.172C39.634 9.32555 39.8319 9.37685 40.051 9.43547C40.4048 9.53041 40.526 10.1213 40.526 10.4218V12.4686C40.526 12.8343 40.1603 13.1561 39.7 13.2364C39.6563 13.2434 39.5614 13.3536 39.5757 13.4119C39.605 13.4775 39.6786 13.5068 39.8322 13.5068H42.2075C42.3537 13.5068 42.441 13.4412 42.434 13.3463C42.427 13.2657 42.3753 13.222 42.2005 13.2071C41.7035 13.1707 41.5713 12.8493 41.5713 12.4836V10.8611C41.5643 10.3268 41.7398 9.75724 42.2075 9.52341C42.6238 9.31123 43.1651 9.2163 43.5522 9.48644C43.9179 9.7186 44.1227 10.0843 44.1291 10.5177L44.1367 12.5495C44.1367 12.893 43.9319 13.1271 43.274 13.2507C43.1648 13.2727 43.1498 13.5435 43.3763 13.5435H46.0663C46.2492 13.5435 46.2492 13.317 46.0587 13.273C45.3645 13.0901 45.2552 12.893 45.2622 12.5202V10.5177C45.2622 10.1156 45.613 9.65498 45.9927 9.50875C46.4097 9.34088 47.1039 9.33322 47.418 9.59669C47.6885 9.82319 47.7981 10.1816 47.7981 10.7878V12.5202C47.7981 12.9223 47.6888 13.1781 47.0233 13.295C46.8847 13.317 46.899 13.5435 47.0969 13.5435H49.5601C49.7643 13.5435 49.7573 13.317 49.5821 13.2877C49.0195 13.1927 48.9022 12.9149 48.9022 12.5565V10.6926C48.9022 10.3641 48.7707 9.92478 48.6608 9.76423C47.7864 8.69535 46.3225 8.83724 45.3935 9.54506C45.16 9.73626 44.9288 9.4951 44.9288 9.4951C44.2906 8.81859 42.9549 8.75864 42.1645 9.25461ZM27.8486 13.6094L27.8603 12.4103L31.8464 12.418L31.854 13.5941C31.8474 14.4795 31.9127 14.8002 31.4883 15.1C31.2168 15.2919 31.0063 15.3731 30.7282 15.4141C30.4944 15.4504 30.5163 15.7575 30.7791 15.7575H34.3092C34.5727 15.7575 34.5577 15.4504 34.3242 15.4141C33.8942 15.3588 33.7257 15.2169 33.5638 15.1C33.1837 14.8249 33.1987 14.6323 33.1917 13.5868C33.1841 13.5868 33.1917 12.4686 33.1917 11.1602C33.213 10.4804 33.1637 9.9118 33.5638 9.63999C33.8539 9.4428 34.0251 9.36419 34.3242 9.32589C34.5577 9.28958 34.5727 8.98247 34.3092 8.98247H30.7795C30.5163 8.98247 30.4947 9.28958 30.7285 9.32589C31.0819 9.38251 31.2951 9.50876 31.4886 9.63999C31.8853 9.91013 31.8464 10.1007 31.8544 11.1459L31.8467 12.0079L27.8606 11.9969L27.849 11.1602C27.8563 10.1146 27.8116 9.9098 28.2144 9.65465C28.5058 9.46978 28.6654 9.38984 28.9745 9.33988C29.2083 9.30357 29.1863 8.99646 28.9232 8.99646H25.3927C25.1296 8.99646 25.1443 9.30357 25.3784 9.33988C25.7075 9.38218 25.8821 9.47978 26.1385 9.65465C26.5379 9.92645 26.4893 10.049 26.4969 11.0943L26.5113 13.6014C26.5039 14.6463 26.5296 14.8402 26.1385 15.114C25.8754 15.2989 25.7029 15.3865 25.3784 15.4281C25.1446 15.4651 25.1299 15.7722 25.3927 15.7722H28.9232C29.1863 15.7722 29.2083 15.4651 28.9745 15.4281C28.5648 15.3681 28.4618 15.2682 28.2144 15.114C27.805 14.8605 27.8559 14.6547 27.8486 13.6094ZM36.2268 15.0334C36.5359 15.0151 36.6282 15.066 36.6119 15.3938L36.6066 15.501C36.3041 15.5407 36.1745 15.5817 35.9307 15.6546C35.7935 15.6956 35.6516 15.7788 35.5676 15.8668C35.4258 16.0163 35.4108 16.2668 35.6563 16.3861C35.9127 16.5513 36.426 16.52 36.6432 16.2911C36.6712 16.3404 36.7068 16.3661 36.7604 16.4004C36.8387 16.4542 36.9298 16.4866 37.0245 16.4941C37.1192 16.5017 37.2143 16.4843 37.3001 16.4436C37.386 16.4028 37.4596 16.3403 37.5137 16.2621C37.5677 16.184 37.6003 16.093 37.6082 15.9984H37.4476C37.4346 16.0613 37.4273 16.1253 37.3833 16.1596C37.3104 16.2175 37.2318 16.2089 37.2251 16.0816C37.2128 15.8585 37.2238 15.2462 37.2121 15.2169C37.2121 15.2169 37.1725 15.086 37.0599 15.0191C36.6129 14.7509 35.9187 14.8732 35.6566 15.0484C35.5044 15.1563 35.5726 15.3358 35.6313 15.3868C35.7882 15.5214 36.0826 15.4904 36.1622 15.3895C36.2258 15.3075 36.2948 15.1213 36.1246 15.0487L36.2268 15.0334ZM36.6152 16.0007C36.6152 16.0996 36.5946 16.1256 36.5416 16.1905C36.3531 16.3428 36.1975 16.2615 36.1442 16.1379C36.1103 16.0593 36.1292 15.9221 36.2002 15.8518C36.3388 15.7139 36.487 15.6769 36.6152 15.6646V16.0007ZM38.8199 16.3221C38.5791 16.3221 38.5755 16.2095 38.5571 16.0736L38.5641 15.4667C38.5606 15.3985 38.5814 15.3312 38.6228 15.2769C38.723 15.152 38.9825 15.0844 39.0754 15.2699C39.134 15.3355 39.1267 15.4454 39.134 15.5327V16.469H40.0111V16.3228C39.7769 16.3228 39.7553 16.2961 39.7553 16.067L39.7483 15.3508C39.7519 15.3016 39.7453 15.2522 39.729 15.2057C39.7127 15.1592 39.6869 15.1165 39.6533 15.0804C39.3845 14.7103 38.801 14.8962 38.5352 15.1097C38.5352 15.1097 38.5428 14.9055 38.5365 14.8782L37.6232 14.8912L37.6251 15.051L37.7201 15.0524C37.8273 15.044 37.8893 15.0967 37.9329 15.1889L37.9376 15.2662L37.9436 16.0743C37.9436 16.2825 37.8453 16.3481 37.6365 16.3228V16.469H38.8206V16.3221H38.8199ZM42.337 16.4757V16.3294C42.0886 16.3294 42.0592 16.2598 42.0592 16.1153V14.0784L41.1672 14.0997V14.2533C41.2855 14.2383 41.4267 14.2573 41.445 14.4218V15.043C40.8165 14.5741 39.8712 15.1889 40.1523 15.959C40.2036 16.0806 40.2816 16.1891 40.3806 16.2764C40.4796 16.3636 40.597 16.4274 40.7241 16.463C40.8511 16.4985 40.9846 16.505 41.1145 16.4818C41.2444 16.4586 41.3674 16.4064 41.4743 16.3291V16.4753L42.337 16.4757ZM41.3318 16.1699C41.2568 16.2388 41.0586 16.3441 40.8888 16.1139C40.8328 16.0377 40.8211 15.9534 40.8108 15.8231C40.7875 15.5194 40.8108 15.2409 41.0067 15.1343C41.2455 15.0041 41.432 15.2695 41.432 15.4871L41.4327 15.9131C41.432 15.9937 41.4364 16.0736 41.3318 16.1699ZM46.8721 15.7665C46.8707 15.555 47.0972 15.5467 47.2571 15.5577V15.4041H45.7952V15.5577C45.8968 15.5453 46.1902 15.5447 46.2046 15.7236C46.2135 15.8355 46.2195 16.0177 46.1832 16.1283C46.1456 16.2415 45.9294 16.3384 45.7565 16.3294C45.4561 16.3138 45.3005 16.1909 45.2303 15.9957C45.11 15.6626 45.1423 15.0667 45.2139 14.8039C45.2769 14.5711 45.4011 14.3492 45.65 14.2496C46.1299 14.0798 46.5919 14.4838 46.6805 14.9438H46.907L46.8634 14.0374H46.6586C46.6586 14.1793 46.546 14.2423 46.4171 14.191C46.3371 14.169 46.2635 14.1254 46.1836 14.1031C45.6183 13.9508 44.8888 14.2047 44.5531 14.71C44.3382 15.0347 44.3163 15.4518 44.5025 15.8211C44.8069 16.3364 45.3755 16.5889 45.9584 16.4717C46.1393 16.4354 46.2868 16.3448 46.3808 16.2961C46.4444 16.2748 46.4783 16.2871 46.539 16.3165C46.5753 16.3334 46.6639 16.4187 46.7172 16.4863H46.8707L46.8721 15.7665ZM54.8452 16.2538C54.6541 16.3058 54.3956 16.1712 54.315 15.9747C54.2817 15.8948 54.2623 15.7965 54.257 15.6982H55.4448C55.4378 15.552 55.3942 15.1446 55.0135 14.9604C54.698 14.8076 54.3889 14.8239 54.0921 14.9824C53.8423 15.1007 53.5822 15.3741 53.5555 15.6693C53.5289 15.96 53.778 16.2195 53.9536 16.3271C54.1938 16.4732 54.4801 16.5241 54.756 16.4699C55.0319 16.4158 55.2776 16.2604 55.4448 16.0343L55.2763 15.9907C55.2759 15.991 55.1673 16.1669 54.8452 16.2538ZM54.2677 15.3502C54.2767 15.3032 54.3503 15.0354 54.5181 15.0361C54.7133 15.0367 54.7673 15.2606 54.7893 15.3575C54.8139 15.4694 54.8096 15.505 54.8096 15.5317L54.248 15.5324C54.245 15.4927 54.2567 15.4094 54.2677 15.3502ZM58.2121 16.4334C58.2967 16.3631 58.3227 16.3774 58.43 16.4014C58.8886 16.503 58.9363 16.5093 59.2121 16.46C59.5105 16.3897 59.722 16.0873 59.6071 15.8308C59.5198 15.6343 59.3027 15.5577 59.1245 15.5024L58.7011 15.4001C58.5632 15.3612 58.4746 15.3332 58.4453 15.2902C58.3587 15.164 58.429 15.1047 58.5109 15.0637C58.8666 14.9211 59.1744 15.2049 59.3513 15.4871H59.5335V14.8658H59.3513C59.3363 14.9171 59.2927 14.9465 59.2414 14.9758C59.1684 14.9977 59.0808 14.9465 59.0149 14.9315C58.883 14.8945 58.7214 14.8535 58.5765 14.8878C58.3061 14.9411 57.9876 15.1043 58.0209 15.3848C58.0542 15.6653 58.2707 15.7719 58.5179 15.8305L58.9929 15.9404C59.0742 15.9594 59.1661 15.9984 59.2194 16.0646C59.3246 16.1955 59.295 16.3351 59.0515 16.3351C58.9053 16.3351 58.4609 16.2328 58.2987 16.006C58.2694 15.9547 58.2181 15.9038 58.1888 15.8455H58.0209V16.489H58.1745C58.1698 16.4893 58.2121 16.4264 58.2121 16.4334ZM34.8598 5.31981C34.5567 6.22948 35.0597 7.14381 35.7955 7.65844C36.3764 8.04016 36.9803 8.20004 37.6738 8.15574C38.5072 8.10445 39.6477 7.74637 40.1153 6.92764L39.9255 6.81805C39.612 7.24841 38.9582 7.91225 37.7104 7.7537C36.7445 7.65911 35.9707 6.80873 36.056 6.01031C36.065 5.92237 36.0703 5.72918 36.3657 5.72918L39.6843 5.72185C40.1197 5.72185 40.2126 5.56563 40.1346 5.27784C39.9674 4.66163 39.2656 3.61406 37.5485 3.60673C36.5346 3.60173 35.3568 4.06906 34.8598 5.31981ZM36.0999 5.01004C36.2045 4.38083 37.0349 3.76328 37.8397 3.91351C38.7646 4.07073 38.9419 4.95208 38.9469 4.98406C38.9788 5.17125 38.8403 5.3801 38.6071 5.37511H36.3777C36.1805 5.37577 36.0636 5.20756 36.0999 5.01004ZM23.6031 5.31981C23.2996 6.22948 23.8029 7.14381 24.5387 7.65844C25.1196 8.04016 25.7235 8.20004 26.417 8.15574C27.2501 8.10445 28.3902 7.74637 28.8582 6.92764L28.6684 6.81805C28.3556 7.24841 27.7017 7.91225 26.454 7.7537C25.4877 7.65911 24.7142 6.80873 24.7988 6.01031C24.8082 5.92237 24.8135 5.72918 25.1093 5.72918L28.4272 5.72185C28.8625 5.72185 28.9558 5.56563 28.8775 5.27784C28.7103 4.66163 28.0085 3.61406 26.2918 3.60673C25.2775 3.60173 24.0997 4.06906 23.6031 5.31981ZM24.8428 5.01004C24.9477 4.38083 25.7775 3.76328 26.5825 3.91351C27.5079 4.07073 27.6847 4.95208 27.6901 4.98406C27.7217 5.17125 27.5828 5.3801 27.35 5.37511H25.1206C24.9234 5.37577 24.8065 5.20756 24.8428 5.01004ZM49.4698 10.6999C49.1667 11.6092 49.6704 12.5236 50.4055 13.0385C50.9864 13.4199 51.5903 13.5798 52.2838 13.5355C53.1172 13.4842 54.2577 13.1261 54.7253 12.307L54.5355 12.1978C54.2227 12.6278 53.5688 13.2913 52.3211 13.1334C51.3545 13.0385 50.5807 12.1881 50.666 11.39C50.675 11.3021 50.6803 11.1089 50.9757 11.1089L54.2943 11.1013C54.7297 11.1013 54.8226 10.945 54.7447 10.6576C54.5774 10.0414 53.8756 8.99346 52.1592 8.98614C51.1443 8.98181 49.9668 9.44913 49.4698 10.6999ZM50.7096 10.3904C50.8142 9.76124 51.6446 9.14336 52.4493 9.29425C53.3743 9.45113 53.5515 10.3325 53.5572 10.3645C53.5885 10.5517 53.4499 10.7605 53.2171 10.7562H50.9877C50.7902 10.7558 50.6733 10.5876 50.7096 10.3904ZM48.0679 15.0334C48.377 15.0151 48.4699 15.066 48.4536 15.3938L48.4476 15.501C48.1458 15.5407 48.0156 15.5817 47.7717 15.6546C47.6345 15.6956 47.4933 15.7788 47.4093 15.8668C47.2674 16.0163 47.2525 16.2668 47.4979 16.3861C47.7538 16.5513 48.267 16.52 48.4849 16.2911C48.5129 16.3404 48.5478 16.3661 48.6015 16.4004C48.72 16.482 48.8661 16.5131 49.0077 16.487C49.1492 16.4609 49.2746 16.3797 49.3563 16.2612C49.4122 16.1792 49.4415 16.0973 49.4492 15.9984H49.2886C49.2763 16.0613 49.269 16.1253 49.225 16.1596C49.1514 16.2175 49.0735 16.2089 49.0668 16.0816C49.0545 15.8585 49.0655 15.2462 49.0531 15.2169C49.0531 15.2169 49.0135 15.086 48.9016 15.0191C48.4546 14.7509 47.7604 14.8732 47.4983 15.0484C47.3454 15.1563 47.4137 15.3358 47.473 15.3868C47.6298 15.5214 47.9243 15.4904 48.0032 15.3895C48.0675 15.3075 48.1358 15.1213 47.9663 15.0487L48.0679 15.0334ZM48.4562 16.0007C48.4562 16.0996 48.4356 16.1256 48.3833 16.1905C48.1948 16.3428 48.0385 16.2615 47.9853 16.1379C47.9513 16.0593 47.9703 15.9221 48.0419 15.8518C48.1804 15.7139 48.3287 15.6769 48.4562 15.6646V16.0007Z" fill="white"/>
<path fill-rule="evenodd" clip-rule="evenodd" d="M50.6988 16.3221C50.5816 16.3221 50.3474 16.3494 50.3481 16.1535V15.8251C50.3481 15.5916 50.3514 15.3638 50.5746 15.1816C50.5746 15.2259 50.6039 15.2545 50.6332 15.2915C50.8217 15.488 51.0686 15.3831 51.1555 15.3038C51.2564 15.2122 51.2524 15.0683 51.1445 14.9844C50.8647 14.7039 50.492 14.9654 50.3331 15.1966V14.8745H49.4341V15.05C49.6353 15.0417 49.7528 15.093 49.7412 15.2915V16.1392C49.7412 16.3271 49.561 16.3221 49.4341 16.3221V16.4683H50.6988V16.3221ZM53.5138 16.4756V16.3294C53.2646 16.3294 53.236 16.2598 53.236 16.1152V14.0784L52.344 14.0997V14.2533C52.4622 14.2383 52.6034 14.2573 52.6218 14.4218V15.043C51.9932 14.574 51.0472 15.1889 51.329 15.959C51.3803 16.0806 51.4583 16.1891 51.5573 16.2763C51.6563 16.3636 51.7737 16.4274 51.9008 16.4629C52.0279 16.4985 52.1613 16.5049 52.2912 16.4818C52.4211 16.4586 52.5441 16.4064 52.6511 16.3291V16.4753L53.5138 16.4756ZM52.5088 16.1699C52.4339 16.2388 52.2357 16.3441 52.0658 16.1139C52.0099 16.0376 51.9982 15.9534 51.9879 15.8231C51.9652 15.5193 51.9879 15.2409 52.1837 15.1343C52.4226 15.0041 52.6091 15.2695 52.6091 15.487L52.6098 15.9131C52.6088 15.9937 52.6128 16.0736 52.5088 16.1699ZM56.6931 16.3221C56.4523 16.3221 56.4486 16.2095 56.4296 16.0736L56.4373 15.4667C56.4332 15.3985 56.4538 15.3311 56.4953 15.2769C56.5955 15.1519 56.8557 15.0843 56.9486 15.2699C57.0072 15.3355 56.9999 15.4454 57.0072 15.5327V16.469H57.8842V16.3228C57.6494 16.3228 57.6284 16.2961 57.6284 16.0669L57.6208 15.3508C57.6247 15.3016 57.6183 15.2521 57.6019 15.2055C57.5856 15.1589 57.5597 15.1163 57.5258 15.0803C57.257 14.7103 56.6741 14.8961 56.4083 15.1096C56.4083 15.1096 56.416 14.9055 56.409 14.8781L55.4963 14.8911L55.4983 15.051L55.5933 15.0524C55.6998 15.044 55.7625 15.0967 55.8061 15.1889L55.8108 15.2662L55.8168 16.0743C55.8168 16.2825 55.7185 16.3481 55.5096 16.3228V16.469H56.6938V16.3221H56.6931ZM60.901 15.2136C61.6648 15.2136 62.3173 14.6203 62.3173 13.8083C62.3173 13.0035 61.6648 12.4103 60.901 12.4103C60.1303 12.4103 59.4778 13.0035 59.4778 13.8083C59.4774 14.6203 60.1299 15.2136 60.901 15.2136ZM59.7592 13.8083C59.7592 13.1441 60.2595 12.6438 60.901 12.6438C61.5346 12.6438 62.0356 13.1441 62.0356 13.8083C62.0356 14.4828 61.5346 14.9801 60.901 14.9801C60.2595 14.9801 59.7592 14.4831 59.7592 13.8083Z" fill="white"/>
<path fill-rule="evenodd" clip-rule="evenodd" d="M60.6042 13.9195H60.886L61.3127 14.6204H61.5865L61.1271 13.9079C61.364 13.8786 61.5462 13.7523 61.5462 13.4629C61.5462 13.1441 61.357 13.0035 60.9749 13.0035H60.3594V14.6204H60.6039V13.9195H60.6042ZM60.6042 13.7114V13.2111H60.938C61.1085 13.2111 61.29 13.248 61.29 13.4485C61.29 13.6964 61.1045 13.7114 60.897 13.7114H60.6042Z" fill="white"/>
</svg>
