<svg width="29" height="17" viewBox="0 0 29 17" fill="none" xmlns="http://www.w3.org/2000/svg">
<g clip-path="url(#clip0_143_198)">
<path d="M4.9212 0.894974V1.20277L5.20695 1.26847C5.64615 1.37827 5.7123 1.64197 5.8878 2.47672L6.345 4.82347L5.0706 11.6783L3.33495 3.06532C3.13695 2.12032 3.07125 1.41742 3.7746 1.26352L4.104 1.19782V0.894974H0V1.20277L0.4176 1.31302C0.8352 1.42282 1.0107 1.62037 1.29645 2.91682L4.08645 16.1212H4.80645L6.67395 6.14647L8.74395 16.1212H9.31545L11.9961 3.32497C12.3039 1.85347 12.4358 1.43497 12.9636 1.29997L13.3807 1.18972V0.894974H10.3657V1.20277L10.827 1.29052C11.4862 1.42237 11.6397 1.83952 11.3319 3.53152L9.6885 11.6783L8.0235 3.06532C7.8435 2.20852 7.73775 1.41742 8.46315 1.28557L8.94645 1.19782V0.890023L4.9212 0.894974ZM24.471 0.936374V1.24417L25.02 1.37602C25.5028 1.48582 25.7008 1.66177 25.7008 2.27692V12.9329C25.7008 14.1191 25.7008 15.6793 24.4701 15.6793C23.7672 15.6793 23.2191 15.0641 23.2623 14.6465C23.306 13.9657 24.4926 14.0093 24.5583 12.9109C24.6245 12.1459 24.1407 11.7859 23.6574 11.7242C22.9765 11.6365 22.1418 12.2075 22.1193 13.3501C22.0977 14.8216 23.0643 16.1617 24.7113 16.1617C26.5338 16.1617 27.7263 14.9323 27.7263 12.581L27.7267 2.29852C27.7267 1.68337 27.8806 1.48537 28.3198 1.37602L28.8 1.23922V0.931423L24.471 0.936374ZM17.0685 0.842773C15.201 0.842773 14.1466 2.40292 14.1466 4.44592C14.1466 8.24707 19.0462 9.71902 19.0462 13.1467C19.0462 14.7725 18.365 15.673 17.3813 15.673C15.9097 15.673 14.8545 13.8941 14.5912 11.0596H14.2619V16.069H14.5255C14.7451 15.349 15.0309 15.2783 15.2725 15.2783C15.6901 15.2783 16.1289 16.1558 17.4033 16.1558C19.3585 16.1558 20.6325 14.4647 20.6334 12.1346C20.6334 7.56487 15.7338 6.44437 15.7338 3.17062C15.7338 2.42362 15.9534 1.32562 17.0523 1.32562C18.6345 1.32562 19.3158 3.41272 19.579 5.93947H19.9084V0.930973H19.6447C19.5349 1.41427 19.3374 1.63387 19.0517 1.63387C18.5463 1.63387 18.2866 0.843223 17.0744 0.843223L17.0685 0.842773ZM20.6055 5.15152V5.20552L20.6158 5.19922L20.6104 5.15422L20.6055 5.15152Z" fill="white"/>
</g>
<defs>
<clipPath id="clip0_143_198">
<rect width="29" height="16" fill="white" transform="translate(0 0.5)"/>
</clipPath>
</defs>
</svg>
