<svg width="45" height="17" viewBox="0 0 45 17" fill="none" xmlns="http://www.w3.org/2000/svg">
<path fill-rule="evenodd" clip-rule="evenodd" d="M16.1314 5.31482V10.1296H17.3517H18.572V8.27778C18.572 7.05556 18.572 6.38889 18.572 6.31482C18.6102 6.12963 18.6483 5.94444 18.7627 5.7963C18.9153 5.53704 19.1822 5.42593 19.4873 5.46296C19.9068 5.5 20.1737 5.72222 20.25 6.2037C20.25 6.27778 20.25 7.01852 20.25 8.2037V10.0926H21.4703H22.6907V7.87037C22.6907 5.98148 22.6907 5.61111 22.6525 5.42593C22.5763 4.75926 22.3475 4.24074 21.928 3.87037C21.5847 3.53704 21.1653 3.35185 20.6695 3.27778C20.4788 3.24074 19.9449 3.27778 19.7924 3.31481C19.3347 3.42593 18.9915 3.57407 18.6864 3.90741L18.4958 4.05556V2.27778V0.5H17.2754H16.0551V5.31482H16.1314ZM42.0636 0.574074C41.9873 0.722223 39.5085 6.53704 39.5085 6.53704C39.5085 6.53704 40.1568 6.53704 40.9576 6.53704H42.4068L43.7034 3.53704C44.428 1.87037 45 0.5 45 0.5C45 0.5 44.3517 0.5 43.5508 0.5H42.1017L42.0636 0.574074ZM10.7924 3.31481C10.2585 3.38889 9.83898 3.53704 9.41949 3.7963C8.58051 4.31482 8.04661 5.2037 7.89407 6.24074C7.8178 6.72222 7.85593 7.31481 7.97034 7.75926C8.27542 8.90741 9.07627 9.7963 10.1059 10.1296C10.4873 10.2407 10.6398 10.2778 11.0975 10.2778C11.4407 10.2778 11.5551 10.2778 11.6695 10.2407C12.1653 10.1296 12.5085 9.94445 12.8136 9.64815L12.9661 9.5V9.7963V10.0926H14.1483H15.3305V6.75926V3.42593H14.1483H12.9661V3.72222V4.01852L12.8517 3.90741C12.5847 3.61111 12.2034 3.42593 11.7076 3.31481C11.5551 3.27778 11.4788 3.27778 11.1737 3.27778C10.9831 3.31482 10.8305 3.31481 10.7924 3.31481ZM26.3517 3.31481C25.7034 3.38889 25.017 3.68518 24.5212 4.05556C23.5678 4.83333 23.072 6.05556 23.2627 7.31482C23.4534 8.72222 24.4831 9.7963 25.9322 10.1667C26.2373 10.2407 26.5424 10.2778 26.9237 10.2778C27.6102 10.2778 28.1059 10.1667 28.6398 9.90741C29.7076 9.38889 30.3941 8.46296 30.5466 7.31482C30.5847 7.01852 30.5847 6.53704 30.5466 6.27778C30.4703 5.72222 30.2415 5.16667 29.8983 4.72222C29.7458 4.53704 29.4407 4.2037 29.25 4.05556C28.7161 3.64815 28.1059 3.38889 27.4195 3.31481C27.1525 3.27778 26.6186 3.27778 26.3517 3.31481ZM34.1314 3.31481C33.4831 3.38889 32.8347 3.64815 32.339 4.05556C32.1483 4.2037 31.8051 4.53704 31.6907 4.72222C31.3475 5.16667 31.1568 5.72222 31.0424 6.27778C31.0042 6.53704 31.0042 7.05556 31.0424 7.31482C31.2712 8.7963 32.3771 9.94444 33.9025 10.2407C34.2076 10.3148 34.3602 10.3148 34.7034 10.3148C35.3517 10.3148 35.9237 10.2037 36.4576 9.90741C37.8686 9.2037 38.6314 7.64815 38.2881 6.05556C37.9831 4.57407 36.7627 3.5 35.1992 3.31481C34.9322 3.27778 34.3983 3.27778 34.1314 3.31481ZM0 3.46296C0 3.46296 0.648305 4.98148 1.44915 6.83333C2.25 8.68519 2.89831 10.2037 2.89831 10.2037C2.89831 10.2037 2.66949 10.7593 2.36441 11.4259C2.05932 12.0926 1.83051 12.6111 1.83051 12.6481C1.83051 12.6852 2.40254 12.6481 3.12712 12.6481H4.42373L6.36864 8.09259C7.43644 5.57407 8.31356 3.53704 8.31356 3.5C8.31356 3.5 8.04661 3.46296 7.01695 3.5H5.72034L4.91949 5.42593C4.57627 6.46296 4.23305 7.35185 4.23305 7.35185C4.23305 7.35185 3.88983 6.46296 3.4322 5.42593L2.66949 3.5H1.33475C0.61017 3.46296 0 3.46296 0 3.46296ZM11.9746 5.46296C12.4703 5.57407 12.8517 5.94444 13.0042 6.42593C13.0424 6.61111 13.0424 6.94445 13.0042 7.12963C12.8898 7.61111 12.5085 7.98148 12.0127 8.09259C11.822 8.12963 11.4788 8.12963 11.2881 8.09259C10.8686 7.98148 10.4873 7.68519 10.3347 7.31482C10.1441 6.90741 10.2203 6.38889 10.4492 6.01852C10.7924 5.53704 11.3644 5.35185 11.9746 5.46296ZM27.1907 5.5C27.7246 5.57407 28.1441 5.98148 28.2585 6.5C28.2966 6.68519 28.2966 6.98148 28.2585 7.16667C28.1441 7.64815 27.7627 7.98148 27.3051 8.12963C27.1525 8.16667 26.733 8.16667 26.5805 8.12963C26.1992 8.01852 25.8941 7.75926 25.7034 7.42593C25.589 7.2037 25.589 7.09259 25.589 6.83333C25.589 6.61111 25.6271 6.5 25.7034 6.31482C25.8178 6.09259 25.9703 5.87037 26.1992 5.72222C26.428 5.5 26.8093 5.42593 27.1907 5.5ZM34.9322 5.5C35.3898 5.57407 35.7712 5.87037 35.9237 6.27778C36 6.46296 36.0381 6.57407 36.0381 6.7963C36.0381 7.05556 36 7.16667 35.9237 7.38889C35.7712 7.72222 35.428 7.98148 35.0466 8.09259C34.8941 8.12963 34.4746 8.12963 34.322 8.09259C33.8644 7.98148 33.4831 7.61111 33.3686 7.12963C33.3305 6.94445 33.3305 6.61111 33.3686 6.42593C33.5212 5.83333 34.0551 5.42593 34.6653 5.42593C34.7415 5.46296 34.8559 5.46296 34.9322 5.5ZM40.1186 7.12963C39.3941 7.2037 38.8602 7.72222 38.7076 8.38889C38.6695 8.57407 38.6695 8.90741 38.7076 9.09259C38.8602 9.68519 39.3178 10.0926 39.928 10.2407C40.0042 10.2407 40.1568 10.2778 40.2712 10.2778C40.7288 10.2778 41.1102 10.1296 41.4153 9.83333C41.7585 9.5 41.8729 9.16667 41.8729 8.72222C41.8729 8.16667 41.6059 7.68519 41.1483 7.42593C40.8432 7.16667 40.4237 7.09259 40.1186 7.12963ZM20.0212 10.7593C19.5254 10.9074 19.2966 11.463 19.5636 11.8704C19.6398 11.9815 19.7924 12.1296 19.9068 12.1667C20.0212 12.2037 20.0212 12.2037 20.25 12.2037C20.4407 12.2037 20.4788 12.2037 20.5932 12.1667C20.7458 12.0926 20.8983 11.9444 20.9746 11.7963C21.1653 11.4259 20.9746 10.9815 20.5932 10.7963C20.4788 10.7222 20.4407 10.7222 20.2881 10.7222C20.1356 10.7222 20.0975 10.7222 20.0212 10.7593ZM17.9619 10.7963C17.3136 10.9074 16.8941 11.3148 16.7034 11.9815C16.6653 12.0926 16.6653 12.2037 16.6653 12.3519V12.6111H16.3983H16.1314V13.1667V13.7222H16.3983H16.6653V15.0556V16.3889H17.3898H18.1144V15.0556V13.7222H18.6102H19.1059V13.1667V12.6111H18.6102H18.1144V12.5C18.1525 12.2407 18.2669 12.0556 18.4958 12.0185C18.6483 11.9815 18.8771 11.9815 19.0297 12.0556C19.1059 12.0926 19.1441 12.0926 19.1441 12.0926C19.1441 12.0926 19.1441 11.8333 19.1441 11.5V10.9074L19.0297 10.8704C18.8771 10.7963 18.6864 10.7963 18.4195 10.7963C18.2288 10.7593 18.0763 10.7963 17.9619 10.7963ZM23.7585 12.537C23.4534 12.6111 23.2246 12.7593 23.072 12.9444L22.9958 13.0556V12.8333V12.6111H22.2712H21.5466V14.5V16.3889H22.2712H22.9958V15.3519C22.9958 14.7593 22.9958 14.2778 22.9958 14.2037C23.0339 14.0556 23.1102 13.9074 23.1864 13.8333C23.3771 13.6852 23.7203 13.7222 23.8729 13.9074C23.9873 14.0556 23.9873 14.0556 23.9873 15.2407V16.3519H24.7119H25.4364V15.0926C25.4364 13.7593 25.4364 13.6111 25.3602 13.3519C25.2839 13.1296 25.2076 12.9444 25.0169 12.7963C24.8644 12.6481 24.7119 12.537 24.483 12.5C24.2924 12.5 23.911 12.5 23.7585 12.537ZM27.3814 12.5C27.1525 12.537 26.8093 12.6481 26.6186 12.7963C26.1992 13.0926 25.9322 13.537 25.8178 14.0926C25.7797 14.3148 25.7797 14.7222 25.8178 14.9444C25.8941 15.2778 26.0085 15.6111 26.1992 15.8333C26.4661 16.1667 26.8093 16.3889 27.2288 16.463C27.4576 16.5 27.839 16.5 28.0297 16.4259C28.2585 16.3519 28.411 16.2778 28.6017 16.1296L28.7542 15.9815V16.1667V16.3519H29.4788H30.2034V14.463V12.5741H29.4788H28.7542V12.7593V12.9444L28.6398 12.9074C28.4492 12.7222 28.1822 12.5741 27.8771 12.537C27.7627 12.5 27.4958 12.5 27.3814 12.5ZM32.911 12.537C32.6441 12.5741 32.3771 12.7593 32.2246 12.9444L32.1483 13.0185V12.7963V12.5741H31.4237H30.6992V14.463V16.3519H31.4237H32.1483V15.2778C32.1483 14.1296 32.1483 14.1296 32.2246 13.9444C32.3008 13.7963 32.4534 13.7222 32.6059 13.7222C32.7585 13.7222 32.8347 13.7593 32.9492 13.8333C33.1017 13.9815 33.1017 13.9444 33.1017 15.2037V16.3148H33.8263H34.5508V14.9444C34.5508 13.5741 34.5508 13.5741 34.5127 13.4259C34.4746 13.3519 34.4364 13.2037 34.3983 13.0926C34.322 12.9444 34.2839 12.9074 34.1695 12.7963C34.0169 12.6481 33.9025 12.5741 33.75 12.5C33.4831 12.5 33.178 12.463 32.911 12.537ZM36.6864 12.537C36.0381 12.6481 35.5424 12.9444 35.2373 13.463C35.161 13.6111 35.0847 13.7963 35.0085 13.9815C34.9703 14.1667 34.9703 14.2037 34.9703 14.5C34.9703 14.8333 34.9703 14.9444 35.0847 15.2037C35.3136 15.8333 35.8475 16.3148 36.572 16.463C36.6864 16.5 36.8008 16.5 37.0678 16.5C37.4492 16.5 37.6017 16.463 37.8686 16.3519L38.0212 16.2778V15.6481V15.0185L37.9068 15.0926C37.7161 15.2037 37.6017 15.2407 37.3729 15.2407C37.1441 15.2407 37.0297 15.2407 36.8771 15.1667C36.7246 15.0926 36.6102 14.9815 36.5339 14.8333C36.4958 14.7222 36.4958 14.7222 36.4958 14.537C36.4958 14.3889 36.4958 14.3519 36.5339 14.2407C36.6483 13.9444 36.9153 13.7963 37.2966 13.7593C37.5636 13.7593 37.678 13.7593 38.0593 13.9444C38.0593 13.9444 38.0593 13.6481 38.0593 13.3148V12.6852L37.9449 12.6481C37.5254 12.5 37.0678 12.463 36.6864 12.537ZM39.9661 12.537C38.8602 12.7222 38.1737 13.6481 38.25 14.7222C38.2881 15.0926 38.4025 15.4259 38.5932 15.6852C38.8602 16.0926 39.2797 16.3519 39.8136 16.463C40.0424 16.5 40.6525 16.5 40.9195 16.463C41.3008 16.3889 41.6441 16.2037 41.911 15.9444C42.0254 15.8333 42.2161 15.5741 42.2161 15.5741C42.2161 15.5741 41.9492 15.463 41.6059 15.3519L40.9958 15.1296L40.9195 15.2037C40.8051 15.3148 40.7288 15.3519 40.5763 15.3889C40.1568 15.5 39.7373 15.2778 39.661 14.9074V14.8333H40.9958H42.3305V14.5C42.3305 14.2778 42.3305 14.1296 42.2924 14.0556C42.2161 13.6111 42.0254 13.3148 41.7585 13.0185C41.4915 12.7593 41.1864 12.6111 40.767 12.537C40.6144 12.5 40.1568 12.5 39.9661 12.537ZM19.5254 14.5V16.3889H20.25H20.9746V14.5V12.6111H20.25H19.5254V14.5ZM40.5381 13.5741C40.6525 13.6111 40.6907 13.6481 40.8051 13.7222C40.8814 13.7963 40.9576 13.8704 40.9576 13.9815V14.0556H40.3093C39.5847 14.0556 39.6229 14.0556 39.6992 13.9074C39.8136 13.6481 40.1568 13.5 40.5381 13.5741ZM28.2203 13.7593C28.411 13.7963 28.6398 13.9815 28.7161 14.1667C28.9068 14.5741 28.7161 15.0556 28.2585 15.2037C28.1059 15.2407 27.8771 15.2407 27.7246 15.2037C27.4958 15.1296 27.267 14.9444 27.2288 14.7222C27.1907 14.6111 27.1907 14.5741 27.1907 14.463C27.1907 14.3148 27.1907 14.2778 27.267 14.1667C27.4195 13.8333 27.8008 13.6852 28.2203 13.7593Z" fill="white"/>
</svg>
