<svg width="163" height="59" viewBox="0 0 163 59" fill="none" xmlns="http://www.w3.org/2000/svg">
<path fill-rule="evenodd" clip-rule="evenodd" d="M58.4314 17.7546V35.5093H62.8517H67.272V28.6806C67.272 24.1736 67.272 21.7153 67.272 21.4421C67.4102 20.7593 67.5483 20.0764 67.9627 19.5301C68.5153 18.5741 69.4822 18.1644 70.5873 18.3009C72.1068 18.4375 73.0737 19.2569 73.35 21.0324C73.35 21.3056 73.35 24.037 73.35 28.4074V35.3727H77.7703H82.1907V27.1782C82.1907 20.213 82.1907 18.8472 82.0525 18.1644C81.7763 15.706 80.9475 13.794 79.428 12.4282C78.1847 11.1991 76.6652 10.5162 74.8695 10.2431C74.1788 10.1065 72.2449 10.2431 71.6924 10.3796C70.0347 10.7894 68.7915 11.3357 67.6864 12.5648L66.9958 13.1111V6.55556V0H62.5754H58.1551V17.7546H58.4314ZM152.364 0.273149C152.087 0.819446 143.108 22.2616 143.108 22.2616C143.108 22.2616 145.457 22.2616 148.358 22.2616H153.607L158.303 11.1991C160.928 5.05324 163 0 163 0C163 0 160.652 0 157.751 0H152.502L152.364 0.273149ZM39.0924 10.3796C37.1585 10.6528 35.639 11.1991 34.1195 12.1551C31.0805 14.0671 29.1466 17.3449 28.5941 21.169C28.3178 22.9444 28.4559 25.1296 28.8703 26.7685C29.9754 31.0023 32.8763 34.2801 36.6059 35.5093C37.9873 35.919 38.5398 36.0556 40.1975 36.0556C41.4407 36.0556 41.8551 36.0556 42.2695 35.919C44.0653 35.5093 45.3085 34.8264 46.4136 33.7338L46.9661 33.1875V34.2801V35.3727H51.2483H55.5305V23.081V10.7894H51.2483H46.9661V11.8819V12.9745L46.5517 12.5648C45.5847 11.4722 44.2034 10.7894 42.4076 10.3796C41.8551 10.2431 41.5788 10.2431 40.4737 10.2431C39.783 10.3796 39.2305 10.3796 39.0924 10.3796ZM95.4517 10.3796C93.1034 10.6528 90.617 11.7454 88.8212 13.1111C85.3678 15.9792 83.572 20.4861 84.2627 25.1296C84.9534 30.3195 88.683 34.2801 93.9322 35.6458C95.0373 35.919 96.1424 36.0556 97.5237 36.0556C100.01 36.0556 101.806 35.6458 103.74 34.6898C107.608 32.7778 110.094 29.3634 110.647 25.1296C110.785 24.037 110.785 22.2616 110.647 21.3056C110.37 19.2569 109.542 17.2083 108.298 15.5694C107.746 14.8866 106.641 13.6574 105.95 13.1111C104.016 11.6088 101.806 10.6528 99.3195 10.3796C98.3525 10.2431 96.4186 10.2431 95.4517 10.3796ZM123.631 10.3796C121.283 10.6528 118.935 11.6088 117.139 13.1111C116.448 13.6574 115.205 14.8866 114.791 15.5694C113.547 17.2083 112.857 19.2569 112.442 21.3056C112.304 22.2616 112.304 24.1736 112.442 25.1296C113.271 30.5926 117.277 34.8264 122.803 35.919C123.908 36.1921 124.46 36.1921 125.703 36.1921C128.052 36.1921 130.124 35.7824 132.058 34.6898C137.169 32.0949 139.931 26.3588 138.688 20.4861C137.583 15.0231 133.163 11.0625 127.499 10.3796C126.532 10.2431 124.598 10.2431 123.631 10.3796ZM0 10.9259C0 10.9259 2.3483 16.5255 5.24915 23.3542C8.15 30.1829 10.4983 35.7824 10.4983 35.7824C10.4983 35.7824 9.66949 37.831 8.56441 40.2894C7.45932 42.7477 6.63051 44.6597 6.63051 44.7963C6.63051 44.9329 8.70254 44.7963 11.3271 44.7963H16.0237L23.0686 27.9977C26.9364 18.7106 30.1136 11.1991 30.1136 11.0625C30.1136 11.0625 29.1466 10.9259 25.417 11.0625H20.7203L17.8195 18.1644C16.5763 21.9884 15.3331 25.2662 15.3331 25.2662C15.3331 25.2662 14.0898 21.9884 12.4322 18.1644L9.66949 11.0625H4.83475C2.21017 10.9259 0 10.9259 0 10.9259ZM43.3746 18.3009C45.1703 18.7107 46.5517 20.0764 47.1042 21.8519C47.2424 22.5347 47.2424 23.7639 47.1042 24.4468C46.6898 26.2222 45.3085 27.588 43.5127 27.9977C42.822 28.1343 41.5788 28.1343 40.8881 27.9977C39.3686 27.588 37.9873 26.4954 37.4347 25.1296C36.7441 23.6273 37.0203 21.7153 37.8492 20.3495C39.0924 18.5741 41.1644 17.8912 43.3746 18.3009ZM98.4907 18.4375C100.425 18.7106 101.944 20.213 102.358 22.125C102.497 22.8079 102.497 23.9005 102.358 24.5833C101.944 26.3588 100.563 27.588 98.9051 28.1343C98.3525 28.2708 96.833 28.2708 96.2805 28.1343C94.8991 27.7245 93.7941 26.7685 93.1034 25.5394C92.689 24.7199 92.689 24.3102 92.689 23.3542C92.689 22.5347 92.8271 22.125 93.1034 21.4421C93.5178 20.6227 94.0703 19.8032 94.8991 19.2569C95.728 18.4375 97.1093 18.1644 98.4907 18.4375ZM126.532 18.4375C128.19 18.7106 129.571 19.8032 130.124 21.3056C130.4 21.9884 130.538 22.3982 130.538 23.2176C130.538 24.1736 130.4 24.5833 130.124 25.4028C129.571 26.6319 128.328 27.588 126.947 27.9977C126.394 28.1343 124.875 28.1343 124.322 27.9977C122.664 27.588 121.283 26.2222 120.869 24.4468C120.731 23.7639 120.731 22.5347 120.869 21.8519C121.421 19.6667 123.355 18.1644 125.565 18.1644C125.842 18.3009 126.256 18.3009 126.532 18.4375ZM145.319 24.4468C142.694 24.7199 140.76 26.6319 140.208 29.0903C140.069 29.7732 140.069 31.0023 140.208 31.6852C140.76 33.8704 142.418 35.3727 144.628 35.919C144.904 35.919 145.457 36.0556 145.871 36.0556C147.529 36.0556 148.91 35.5093 150.015 34.4167C151.258 33.1875 151.673 31.9583 151.673 30.3194C151.673 28.2708 150.706 26.4954 149.048 25.5394C147.943 24.5833 146.424 24.3102 145.319 24.4468ZM72.5212 37.831C70.7254 38.3773 69.8966 40.4259 70.8636 41.9282C71.1398 42.338 71.6924 42.8843 72.1068 43.0208C72.5212 43.1574 72.5212 43.1574 73.35 43.1574C74.0407 43.1574 74.1788 43.1574 74.5932 43.0208C75.1458 42.7477 75.6983 42.2014 75.9746 41.6551C76.6653 40.2894 75.9746 38.6505 74.5932 37.9676C74.1788 37.6944 74.0407 37.6944 73.4881 37.6944C72.9356 37.6944 72.7975 37.6945 72.5212 37.831ZM65.0619 37.9676C62.7136 38.3773 61.1941 39.8796 60.5034 42.338C60.3652 42.7477 60.3653 43.1574 60.3653 43.7037V44.6597H59.3983H58.4314V46.7083V48.7569H59.3983H60.3653V53.6736V58.5903H62.9898H65.6144V53.6736V48.7569H67.4102H69.2059V46.7083V44.6597H67.4102H65.6144V44.25C65.7525 43.294 66.1669 42.6111 66.9958 42.4745C67.5483 42.338 68.3771 42.338 68.9297 42.6111C69.2059 42.7477 69.3441 42.7477 69.3441 42.7477C69.3441 42.7477 69.3441 41.7917 69.3441 40.5625V38.3773L68.9297 38.2407C68.3771 37.9676 67.6864 37.9676 66.7195 37.9676C66.0288 37.831 65.4763 37.9676 65.0619 37.9676ZM86.0585 44.3866C84.9534 44.6597 84.1246 45.206 83.572 45.8889L83.2958 46.2986V45.4792V44.6597H80.6712H78.0466V51.625V58.5903H80.6712H83.2958V54.7662C83.2958 52.581 83.2958 50.8056 83.2958 50.5324C83.4339 49.9861 83.7102 49.4398 83.9864 49.1667C84.6771 48.6204 85.9203 48.7569 86.4729 49.4398C86.8873 49.9861 86.8873 49.9861 86.8873 54.3565V58.4537H89.5119H92.1364V53.8102C92.1364 48.8935 92.1364 48.3472 91.8602 47.3912C91.5839 46.5718 91.3076 45.8889 90.6169 45.3426C90.0644 44.7963 89.5119 44.3866 88.683 44.25C87.9924 44.25 86.611 44.25 86.0585 44.3866ZM99.1814 44.25C98.3525 44.3866 97.1093 44.7963 96.4186 45.3426C94.8992 46.4352 93.9322 48.0741 93.5178 50.1227C93.3797 50.9421 93.3797 52.4445 93.5178 53.2639C93.7941 54.4931 94.2085 55.7222 94.8991 56.5417C95.8661 57.7708 97.1093 58.5903 98.6288 58.8634C99.4576 59 100.839 59 101.53 58.7269C102.358 58.4537 102.911 58.1806 103.602 57.6343L104.154 57.088V57.7708V58.4537H106.779H109.403V51.4884V44.5232H106.779H104.154V45.206V45.8889L103.74 45.7523C103.049 45.0695 102.082 44.5232 100.977 44.3866C100.563 44.25 99.5958 44.25 99.1814 44.25ZM119.211 44.3866C118.244 44.5232 117.277 45.206 116.725 45.8889L116.448 46.162V45.3426V44.5232H113.824H111.199V51.4884V58.4537H113.824H116.448V54.4931C116.448 50.2593 116.448 50.2593 116.725 49.5764C117.001 49.0301 117.553 48.7569 118.106 48.7569C118.658 48.7569 118.935 48.8935 119.349 49.1667C119.902 49.713 119.902 49.5764 119.902 54.2199V58.3171H122.526H125.151V53.2639C125.151 48.2107 125.151 48.2107 125.013 47.6644C124.875 47.3912 124.736 46.8449 124.598 46.4352C124.322 45.8889 124.184 45.7523 123.769 45.3426C123.217 44.7963 122.803 44.5232 122.25 44.25C121.283 44.25 120.178 44.1134 119.211 44.3866ZM132.886 44.3866C130.538 44.7963 128.742 45.8889 127.637 47.8009C127.361 48.3472 127.085 49.0301 126.808 49.713C126.67 50.3958 126.67 50.5324 126.67 51.625C126.67 52.8542 126.67 53.2639 127.085 54.2199C127.914 56.5417 129.847 58.3171 132.472 58.8634C132.886 59 133.301 59 134.268 59C135.649 59 136.202 58.8634 137.169 58.4537L137.721 58.1806V55.8588V53.537L137.307 53.8102C136.616 54.2199 136.202 54.3565 135.373 54.3565C134.544 54.3565 134.13 54.3565 133.577 54.0833C133.025 53.8102 132.61 53.4005 132.334 52.8542C132.196 52.4444 132.196 52.4445 132.196 51.7616C132.196 51.2153 132.196 51.0787 132.334 50.669C132.748 49.5764 133.715 49.0301 135.097 48.8935C136.064 48.8935 136.478 48.8935 137.859 49.5764C137.859 49.5764 137.859 48.4838 137.859 47.2546V44.9329L137.445 44.7963C135.925 44.25 134.268 44.1134 132.886 44.3866ZM144.766 44.3866C140.76 45.0695 138.274 48.4838 138.55 52.4445C138.688 53.8102 139.103 55.0394 139.793 55.9954C140.76 57.4977 142.28 58.4537 144.214 58.8634C145.042 59 147.253 59 148.219 58.8634C149.601 58.5903 150.844 57.9074 151.811 56.9514C152.225 56.5417 152.916 55.5857 152.916 55.5857C152.916 55.5857 151.949 55.1759 150.706 54.7662L148.496 53.9468L148.219 54.2199C147.805 54.6296 147.529 54.7662 146.976 54.9028C145.457 55.3125 143.937 54.4931 143.661 53.1273V52.8542H148.496H153.331V51.625C153.331 50.8056 153.33 50.2593 153.192 49.9861C152.916 48.3472 152.225 47.2546 151.258 46.162C150.292 45.206 149.186 44.6597 147.667 44.3866C147.114 44.25 145.457 44.25 144.766 44.3866ZM70.7254 51.625V58.5903H73.35H75.9746V51.625V44.6597H73.35H70.7254V51.625ZM146.838 48.2107C147.253 48.3472 147.391 48.4838 147.805 48.7569C148.081 49.0301 148.358 49.3032 148.358 49.713V49.9861H146.009C143.385 49.9861 143.523 49.9861 143.799 49.4398C144.214 48.4838 145.457 47.9375 146.838 48.2107ZM102.22 48.8935C102.911 49.0301 103.74 49.713 104.016 50.3958C104.707 51.8982 104.016 53.6736 102.358 54.2199C101.806 54.3565 100.977 54.3565 100.425 54.2199C99.5958 53.9468 98.7669 53.2639 98.6288 52.4445C98.4907 52.0347 98.4907 51.8982 98.4907 51.4884C98.4907 50.9421 98.4907 50.8056 98.7669 50.3958C99.3195 49.1667 100.701 48.6204 102.22 48.8935Z" fill="white"/>
</svg>
