<svg width="688" height="218" viewBox="0 0 688 218" fill="none" xmlns="http://www.w3.org/2000/svg">
<path d="M386.739 25.5769C389.461 24.491 390.793 21.3683 389.701 18.6105C388.604 15.8603 385.499 14.5142 382.771 15.6014C380.049 16.6836 378.717 19.7874 379.821 22.5451C380.911 25.2953 384.014 26.6578 386.739 25.5769Z" fill="white"/>
<path d="M393.857 37.1145C394.251 37.3418 394.685 37.4479 395.114 37.4479C395.916 37.4479 396.7 37.0741 397.203 36.3822L402.461 29.1089C402.705 28.7717 403.812 26.5898 401.894 25.3296C400.202 24.178 398.651 25.5493 398.286 26.0885L394.377 31.5055L387.972 27.9042C387.947 27.8866 387.911 27.8866 387.884 27.8752C386.784 27.2148 385.014 26.8158 383.925 26.8499C383.745 26.8562 370.887 26.841 370.887 26.841C370.1 26.841 369.36 27.1959 368.871 27.8108L362.92 35.2823C362.035 36.3923 362.219 38.0111 363.329 38.8975C363.803 39.275 364.367 39.4569 364.933 39.4569C365.693 39.4569 366.439 39.1248 366.951 38.4896L372.123 31.9929H376.426C373.56 36.117 369.688 41.7487 369.069 43.0001C368.456 43.8991 368.295 45.081 368.754 46.1569L371.517 52.6056H358.449C356.629 52.6056 355.154 54.083 355.154 55.8987C355.154 57.7209 356.629 59.1907 358.449 59.1907H376.507C377.614 59.1907 378.645 58.6363 379.255 57.7145C379.863 56.7902 379.969 55.6197 379.534 54.6019L377.208 49.1621H387.441L393.545 62.2515C393.622 62.4182 393.737 62.5495 393.838 62.696L377.988 66.9387L378.568 69.0954L397.377 64.0559L397.37 64.0294C397.554 63.9802 397.74 63.9271 397.918 63.8425C399.565 63.0773 400.28 61.1163 399.516 59.4697L392.527 44.4762C391.987 43.3183 390.822 42.5733 389.541 42.5733H383.139L388.917 34.3391L393.857 37.1145Z" fill="white"/>
<path d="M316.821 20.3475L313.885 4.42589L318.014 3.66321L320.95 19.5886L316.821 20.3475Z" fill="white"/>
<path d="M330.422 23.153L326.442 21.807L333.529 0.860962L337.509 2.20702L330.422 23.153Z" fill="white"/>
<path d="M339.228 28.2783L336.248 25.3184L347.054 14.4388L350.034 17.3987L339.228 28.2783Z" fill="white"/>
<path d="M327.53 53.2486C327.249 51.7724 325.818 50.8014 324.343 51.0855L302.239 55.3118C300.763 55.5934 299.794 57.0228 300.076 58.4989L310.25 111.7C310.53 113.175 311.962 114.146 313.436 113.864L335.539 109.635C337.016 109.354 337.984 107.923 337.702 106.449L332.915 81.4072L326.101 82.7078L325.534 79.7493L332.349 78.4423L327.53 53.2486Z" fill="white"/>
<path d="M366.204 96.3943L374.915 78.2957L357.994 70.1588L356.651 72.9595L352.1 70.7724C350.457 69.9782 348.61 69.8671 346.879 70.4732C345.155 71.0806 343.771 72.3218 342.981 73.9671C342.189 75.615 342.087 77.4661 342.688 79.191C342.725 79.3059 342.792 79.4057 342.837 79.5143L335.483 80.9171L340.269 105.959C340.823 108.848 338.917 111.65 336.029 112.204L313.925 116.43C311.036 116.983 308.233 115.08 307.68 112.191L297.507 58.99C296.953 56.1009 298.859 53.2964 301.749 52.7459L323.852 48.5183C326.741 47.9652 329.543 49.8694 330.097 52.7572L334.914 77.9548L342.275 76.5481L335.466 40.9508C335.954 40.8599 336.425 40.6465 336.829 40.3093C338.115 39.2449 338.293 37.3394 337.228 36.0514C336.803 35.54 326.655 23.5846 308.637 27.0293C308.574 27.0407 308.511 27.0558 308.445 27.0685C290.338 30.6268 285.353 45.3072 285.151 45.931C284.632 47.5169 285.498 49.2241 287.086 49.7418C287.609 49.9123 288.142 49.9212 288.647 49.8163L303.214 126L303.287 125.986V125.994H341.853V123.516H316.201L350.019 117.049L342.845 79.5307C343.489 81.0863 344.642 82.3465 346.173 83.0865L350.722 85.2735L349.287 88.2535L366.204 96.3943ZM359.795 82.0561C360.313 80.9777 361.608 80.5244 362.685 81.0384C363.764 81.5573 364.217 82.8554 363.699 83.935C363.179 85.0121 361.882 85.4655 360.806 84.9452C359.733 84.4288 359.277 83.1332 359.795 82.0561ZM320.373 44.35L303.442 47.5876L302.954 45.0193L319.883 41.7817L320.373 44.35ZM318.763 35.929L319.254 38.4973L302.323 41.7349L301.834 39.1666L318.763 35.929ZM347.706 79.9044C347.19 79.6544 346.769 79.2769 346.453 78.8223L348.036 78.518C348.86 78.3576 349.398 77.5684 349.24 76.7527C349.085 75.9332 348.29 75.394 347.472 75.5531L346.043 75.8221C346.081 75.7198 346.113 75.6036 346.163 75.5001C346.548 74.7046 347.218 74.1035 348.047 73.8131C348.872 73.5214 349.778 73.5694 350.575 73.9532L355.12 76.1403L352.254 82.0953L347.706 79.9044Z" fill="white"/>
<path d="M71.4532 173.4H88.0612C88.7332 173.4 89.2932 173.624 89.7412 174.072C90.2212 174.52 90.4612 175.08 90.4612 175.752C90.4612 176.424 90.2212 176.968 89.7412 177.384C89.2932 177.8 88.7332 178.008 88.0612 178.008H73.5652L74.0452 177.192V187.944L73.6132 187.464H85.9012C86.5732 187.464 87.1332 187.688 87.5812 188.136C88.0612 188.584 88.3012 189.16 88.3012 189.864C88.3012 190.536 88.0612 191.08 87.5812 191.496C87.1332 191.912 86.5732 192.12 85.9012 192.12H73.7092L74.0452 191.688V202.776L73.7092 202.392H88.0612C88.7332 202.392 89.2932 202.632 89.7412 203.112C90.2212 203.56 90.4612 204.088 90.4612 204.696C90.4612 205.368 90.2212 205.928 89.7412 206.376C89.2932 206.792 88.7332 207 88.0612 207H71.4532C70.7812 207 70.2052 206.776 69.7252 206.328C69.2452 205.848 69.0052 205.256 69.0052 204.552V175.848C69.0052 175.144 69.2452 174.568 69.7252 174.12C70.2052 173.64 70.7812 173.4 71.4532 173.4ZM108.571 181.32C110.939 181.32 112.763 181.912 114.043 183.096C115.323 184.248 116.171 185.816 116.587 187.8L115.819 187.56L116.155 186.792C116.571 185.96 117.195 185.128 118.027 184.296C118.891 183.432 119.915 182.728 121.099 182.184C122.283 181.608 123.547 181.32 124.891 181.32C127.099 181.32 128.811 181.8 130.027 182.76C131.243 183.688 132.091 184.952 132.571 186.552C133.051 188.12 133.291 189.88 133.291 191.832V204.552C133.291 205.256 133.067 205.848 132.619 206.328C132.171 206.776 131.595 207 130.891 207C130.219 207 129.643 206.776 129.163 206.328C128.715 205.848 128.491 205.256 128.491 204.552V191.88C128.491 190.76 128.331 189.736 128.011 188.808C127.723 187.88 127.195 187.144 126.427 186.6C125.691 186.024 124.667 185.736 123.355 185.736C122.107 185.736 120.987 186.024 119.995 186.6C119.035 187.144 118.283 187.88 117.739 188.808C117.195 189.736 116.923 190.76 116.923 191.88V204.552C116.923 205.256 116.699 205.848 116.251 206.328C115.803 206.776 115.227 207 114.523 207C113.819 207 113.243 206.776 112.795 206.328C112.347 205.848 112.123 205.256 112.123 204.552V191.832C112.123 190.712 111.963 189.688 111.643 188.76C111.355 187.832 110.843 187.096 110.107 186.552C109.371 186.008 108.347 185.736 107.035 185.736C105.787 185.736 104.683 186.008 103.723 186.552C102.763 187.096 102.011 187.832 101.467 188.76C100.955 189.688 100.699 190.712 100.699 191.832V204.552C100.699 205.256 100.459 205.848 99.9791 206.328C99.5311 206.776 98.9711 207 98.2991 207C97.5951 207 97.0191 206.776 96.5711 206.328C96.1231 205.848 95.8991 205.256 95.8991 204.552V184.2C95.8991 183.496 96.1231 182.92 96.5711 182.472C97.0191 181.992 97.5951 181.752 98.2991 181.752C98.9711 181.752 99.5311 181.992 99.9791 182.472C100.459 182.92 100.699 183.496 100.699 184.2V187.032L99.7871 187.56C100.011 186.856 100.379 186.136 100.891 185.4C101.403 184.664 102.043 183.992 102.811 183.384C103.611 182.776 104.491 182.28 105.451 181.896C106.411 181.512 107.451 181.32 108.571 181.32ZM152.728 181.176C154.968 181.176 156.952 181.736 158.68 182.856C160.44 183.976 161.832 185.528 162.856 187.512C163.88 189.464 164.392 191.72 164.392 194.28C164.392 196.84 163.88 199.112 162.856 201.096C161.832 203.08 160.456 204.648 158.728 205.8C157 206.92 155.048 207.48 152.872 207.48C151.656 207.48 150.504 207.288 149.416 206.904C148.328 206.488 147.368 205.976 146.536 205.368C145.704 204.728 145.016 204.056 144.472 203.352C143.96 202.648 143.64 201.992 143.512 201.384L144.808 200.76V204.936C144.808 205.608 144.568 206.184 144.088 206.664C143.64 207.112 143.08 207.336 142.408 207.336C141.704 207.336 141.128 207.112 140.68 206.664C140.232 206.216 140.008 205.64 140.008 204.936V173.928C140.008 173.224 140.232 172.648 140.68 172.2C141.128 171.72 141.704 171.48 142.408 171.48C143.08 171.48 143.64 171.72 144.088 172.2C144.568 172.648 144.808 173.224 144.808 173.928V187.416L144.04 186.984C144.136 186.376 144.44 185.752 144.952 185.112C145.464 184.44 146.104 183.8 146.872 183.192C147.672 182.584 148.568 182.104 149.56 181.752C150.584 181.368 151.64 181.176 152.728 181.176ZM152.2 185.592C150.664 185.592 149.32 185.976 148.168 186.744C147.048 187.512 146.168 188.552 145.528 189.864C144.888 191.144 144.568 192.616 144.568 194.28C144.568 195.944 144.888 197.448 145.528 198.792C146.168 200.104 147.048 201.144 148.168 201.912C149.32 202.68 150.664 203.064 152.2 203.064C153.704 203.064 155.016 202.68 156.136 201.912C157.256 201.144 158.136 200.088 158.776 198.744C159.448 197.4 159.784 195.912 159.784 194.28C159.784 192.616 159.448 191.144 158.776 189.864C158.136 188.552 157.256 187.512 156.136 186.744C155.016 185.976 153.704 185.592 152.2 185.592ZM172.221 207C171.517 207 170.941 206.776 170.493 206.328C170.045 205.848 169.821 205.256 169.821 204.552V184.2C169.821 183.496 170.045 182.92 170.493 182.472C170.941 181.992 171.517 181.752 172.221 181.752C172.893 181.752 173.453 181.992 173.901 182.472C174.381 182.92 174.621 183.496 174.621 184.2V189.576L174.141 187.512C174.397 186.616 174.781 185.784 175.293 185.016C175.837 184.248 176.477 183.576 177.213 183C177.949 182.424 178.765 181.976 179.661 181.656C180.589 181.336 181.549 181.176 182.541 181.176C183.373 181.176 184.093 181.4 184.701 181.848C185.309 182.296 185.613 182.856 185.613 183.528C185.613 184.392 185.389 185.032 184.941 185.448C184.493 185.832 183.997 186.024 183.453 186.024C182.973 186.024 182.509 185.928 182.061 185.736C181.613 185.512 181.085 185.4 180.477 185.4C179.805 185.4 179.117 185.576 178.413 185.928C177.709 186.28 177.069 186.808 176.493 187.512C175.917 188.184 175.453 188.984 175.101 189.912C174.781 190.84 174.621 191.88 174.621 193.032V204.552C174.621 205.256 174.381 205.848 173.901 206.328C173.453 206.776 172.893 207 172.221 207ZM210.009 181.368C210.713 181.368 211.289 181.608 211.737 182.088C212.185 182.536 212.409 183.112 212.409 183.816V204.552C212.409 205.256 212.185 205.848 211.737 206.328C211.289 206.776 210.713 207 210.009 207C209.337 207 208.761 206.776 208.281 206.328C207.833 205.848 207.609 205.256 207.609 204.552V201.096L208.617 201.24C208.617 201.816 208.377 202.456 207.897 203.16C207.449 203.864 206.825 204.552 206.025 205.224C205.225 205.864 204.281 206.408 203.193 206.856C202.105 207.272 200.937 207.48 199.689 207.48C197.481 207.48 195.497 206.92 193.737 205.8C191.977 204.648 190.585 203.08 189.561 201.096C188.537 199.112 188.025 196.856 188.025 194.328C188.025 191.736 188.537 189.464 189.561 187.512C190.585 185.528 191.961 183.976 193.689 182.856C195.449 181.736 197.401 181.176 199.545 181.176C200.921 181.176 202.185 181.4 203.337 181.848C204.521 182.296 205.545 182.872 206.409 183.576C207.273 184.28 207.929 185.032 208.377 185.832C208.857 186.6 209.097 187.336 209.097 188.04L207.609 188.184V183.816C207.609 183.144 207.833 182.568 208.281 182.088C208.761 181.608 209.337 181.368 210.009 181.368ZM200.217 203.064C201.721 203.064 203.049 202.68 204.201 201.912C205.353 201.144 206.249 200.104 206.889 198.792C207.529 197.448 207.849 195.96 207.849 194.328C207.849 192.664 207.529 191.176 206.889 189.864C206.249 188.552 205.353 187.512 204.201 186.744C203.049 185.976 201.721 185.592 200.217 185.592C198.745 185.592 197.433 185.976 196.281 186.744C195.161 187.512 194.265 188.552 193.593 189.864C192.953 191.176 192.633 192.664 192.633 194.328C192.633 195.96 192.953 197.448 193.593 198.792C194.265 200.104 195.161 201.144 196.281 201.912C197.433 202.68 198.745 203.064 200.217 203.064ZM230.317 181.176C232.045 181.176 233.581 181.368 234.925 181.752C236.269 182.104 237.309 182.616 238.045 183.288C238.813 183.928 239.197 184.68 239.197 185.544C239.197 186.088 239.037 186.6 238.717 187.08C238.397 187.528 237.917 187.752 237.277 187.752C236.829 187.752 236.445 187.672 236.125 187.512C235.837 187.352 235.565 187.16 235.309 186.936C235.053 186.712 234.733 186.488 234.349 186.264C233.997 186.072 233.469 185.912 232.765 185.784C232.093 185.656 231.485 185.592 230.941 185.592C229.245 185.592 227.773 185.976 226.525 186.744C225.309 187.512 224.349 188.552 223.645 189.864C222.973 191.176 222.637 192.664 222.637 194.328C222.637 195.992 222.973 197.48 223.645 198.792C224.349 200.104 225.293 201.144 226.477 201.912C227.693 202.68 229.101 203.064 230.701 203.064C231.661 203.064 232.445 203 233.053 202.872C233.661 202.712 234.189 202.52 234.637 202.296C235.117 202.008 235.517 201.72 235.837 201.432C236.189 201.112 236.669 200.952 237.277 200.952C237.981 200.952 238.509 201.176 238.861 201.624C239.245 202.04 239.437 202.568 239.437 203.208C239.437 203.912 239.005 204.6 238.141 205.272C237.309 205.912 236.189 206.44 234.781 206.856C233.373 207.272 231.821 207.48 230.125 207.48C227.629 207.48 225.453 206.904 223.597 205.752C221.773 204.6 220.349 203.032 219.325 201.048C218.333 199.064 217.837 196.824 217.837 194.328C217.837 191.8 218.365 189.56 219.421 187.608C220.477 185.624 221.949 184.056 223.837 182.904C225.725 181.752 227.885 181.176 230.317 181.176ZM255.784 207.48C253.128 207.48 250.824 206.936 248.872 205.848C246.92 204.728 245.4 203.208 244.312 201.288C243.256 199.336 242.728 197.112 242.728 194.616C242.728 191.8 243.288 189.4 244.408 187.416C245.56 185.4 247.048 183.864 248.872 182.808C250.696 181.72 252.632 181.176 254.68 181.176C256.248 181.176 257.736 181.496 259.144 182.136C260.552 182.744 261.8 183.608 262.888 184.728C264.008 185.816 264.888 187.112 265.528 188.616C266.168 190.088 266.504 191.704 266.536 193.464C266.504 194.104 266.248 194.632 265.768 195.048C265.288 195.464 264.728 195.672 264.088 195.672H245.416L244.264 191.592H262.312L261.4 192.456V191.256C261.336 190.136 260.968 189.16 260.296 188.328C259.624 187.464 258.792 186.808 257.8 186.36C256.808 185.88 255.768 185.64 254.68 185.64C253.72 185.64 252.792 185.8 251.896 186.12C251.032 186.408 250.248 186.888 249.544 187.56C248.872 188.232 248.328 189.128 247.912 190.248C247.528 191.336 247.336 192.696 247.336 194.328C247.336 196.088 247.704 197.624 248.44 198.936C249.176 200.248 250.168 201.272 251.416 202.008C252.664 202.712 254.04 203.064 255.544 203.064C256.728 203.064 257.704 202.952 258.472 202.728C259.24 202.472 259.88 202.168 260.392 201.816C260.904 201.464 261.352 201.128 261.736 200.808C262.216 200.52 262.696 200.376 263.176 200.376C263.752 200.376 264.232 200.584 264.616 201C265 201.384 265.192 201.848 265.192 202.392C265.192 203.096 264.84 203.736 264.136 204.312C263.272 205.144 262.072 205.88 260.536 206.52C259.032 207.16 257.448 207.48 255.784 207.48ZM284.985 182.04H296.265C296.905 182.04 297.433 182.264 297.849 182.712C298.297 183.128 298.521 183.656 298.521 184.296C298.521 184.904 298.297 185.416 297.849 185.832C297.433 186.248 296.905 186.456 296.265 186.456H284.985C284.345 186.456 283.801 186.248 283.353 185.832C282.937 185.384 282.729 184.856 282.729 184.248C282.729 183.608 282.937 183.08 283.353 182.664C283.801 182.248 284.345 182.04 284.985 182.04ZM290.025 175.8C290.729 175.8 291.305 176.04 291.753 176.52C292.201 176.968 292.425 177.544 292.425 178.248V200.52C292.425 201.096 292.521 201.56 292.713 201.912C292.905 202.264 293.161 202.504 293.481 202.632C293.833 202.76 294.185 202.824 294.537 202.824C294.889 202.824 295.193 202.76 295.449 202.632C295.737 202.504 296.073 202.44 296.457 202.44C296.841 202.44 297.193 202.616 297.513 202.968C297.833 203.32 297.993 203.8 297.993 204.408C297.993 205.176 297.577 205.8 296.745 206.28C295.913 206.76 295.017 207 294.057 207C293.513 207 292.873 206.952 292.137 206.856C291.401 206.76 290.681 206.52 289.977 206.136C289.305 205.752 288.745 205.144 288.297 204.312C287.849 203.448 287.625 202.248 287.625 200.712V178.248C287.625 177.544 287.849 176.968 288.297 176.52C288.777 176.04 289.353 175.8 290.025 175.8ZM316.557 181.32C318.765 181.32 320.477 181.8 321.693 182.76C322.909 183.688 323.757 184.952 324.237 186.552C324.749 188.152 325.005 189.912 325.005 191.832V204.552C325.005 205.256 324.765 205.848 324.285 206.328C323.837 206.776 323.277 207 322.605 207C321.901 207 321.325 206.776 320.877 206.328C320.429 205.848 320.205 205.256 320.205 204.552V191.832C320.205 190.712 320.045 189.688 319.725 188.76C319.437 187.832 318.909 187.096 318.141 186.552C317.405 186.008 316.365 185.736 315.021 185.736C313.773 185.736 312.653 186.008 311.661 186.552C310.701 187.096 309.949 187.832 309.405 188.76C308.893 189.688 308.637 190.712 308.637 191.832V204.552C308.637 205.256 308.397 205.848 307.917 206.328C307.469 206.776 306.909 207 306.237 207C305.533 207 304.957 206.776 304.509 206.328C304.061 205.848 303.837 205.256 303.837 204.552V173.928C303.837 173.224 304.061 172.648 304.509 172.2C304.957 171.72 305.533 171.48 306.237 171.48C306.909 171.48 307.469 171.72 307.917 172.2C308.397 172.648 308.637 173.224 308.637 173.928V187.032L307.773 187.512C307.997 186.808 308.365 186.088 308.877 185.352C309.421 184.616 310.077 183.944 310.845 183.336C311.645 182.728 312.525 182.248 313.485 181.896C314.445 181.512 315.469 181.32 316.557 181.32ZM343.44 207.48C340.784 207.48 338.48 206.936 336.528 205.848C334.576 204.728 333.056 203.208 331.968 201.288C330.912 199.336 330.384 197.112 330.384 194.616C330.384 191.8 330.944 189.4 332.064 187.416C333.216 185.4 334.704 183.864 336.528 182.808C338.352 181.72 340.288 181.176 342.336 181.176C343.904 181.176 345.392 181.496 346.8 182.136C348.208 182.744 349.456 183.608 350.544 184.728C351.664 185.816 352.544 187.112 353.184 188.616C353.824 190.088 354.16 191.704 354.192 193.464C354.16 194.104 353.904 194.632 353.424 195.048C352.944 195.464 352.384 195.672 351.744 195.672H333.072L331.92 191.592H349.968L349.056 192.456V191.256C348.992 190.136 348.624 189.16 347.952 188.328C347.28 187.464 346.448 186.808 345.456 186.36C344.464 185.88 343.424 185.64 342.336 185.64C341.376 185.64 340.448 185.8 339.552 186.12C338.688 186.408 337.904 186.888 337.2 187.56C336.528 188.232 335.984 189.128 335.568 190.248C335.184 191.336 334.992 192.696 334.992 194.328C334.992 196.088 335.36 197.624 336.096 198.936C336.832 200.248 337.824 201.272 339.072 202.008C340.32 202.712 341.696 203.064 343.2 203.064C344.384 203.064 345.36 202.952 346.128 202.728C346.896 202.472 347.536 202.168 348.048 201.816C348.56 201.464 349.008 201.128 349.392 200.808C349.872 200.52 350.352 200.376 350.832 200.376C351.408 200.376 351.888 200.584 352.272 201C352.656 201.384 352.848 201.848 352.848 202.392C352.848 203.096 352.496 203.736 351.792 204.312C350.928 205.144 349.728 205.88 348.192 206.52C346.688 207.16 345.104 207.48 343.44 207.48ZM387.665 173.4C390.001 173.4 392.065 173.848 393.857 174.744C395.649 175.608 397.137 176.824 398.321 178.392C399.537 179.928 400.449 181.72 401.057 183.768C401.665 185.784 401.969 187.928 401.969 190.2C401.969 193.304 401.425 196.136 400.337 198.696C399.249 201.224 397.649 203.24 395.537 204.744C393.425 206.248 390.801 207 387.665 207H375.953C375.281 207 374.705 206.776 374.225 206.328C373.745 205.848 373.505 205.256 373.505 204.552V175.848C373.505 175.144 373.745 174.568 374.225 174.12C374.705 173.64 375.281 173.4 375.953 173.4H387.665ZM387.185 202.392C389.457 202.392 391.297 201.832 392.705 200.712C394.113 199.592 395.137 198.12 395.777 196.296C396.449 194.44 396.785 192.408 396.785 190.2C396.785 188.568 396.593 187.032 396.209 185.592C395.857 184.12 395.281 182.824 394.481 181.704C393.713 180.552 392.721 179.656 391.505 179.016C390.321 178.344 388.881 178.008 387.185 178.008H378.113L378.545 177.576V202.872L378.257 202.392H387.185ZM411.849 204.552C411.849 205.256 411.625 205.848 411.177 206.328C410.729 206.776 410.153 207 409.449 207C408.777 207 408.201 206.776 407.721 206.328C407.273 205.848 407.049 205.256 407.049 204.552V184.008C407.049 183.304 407.273 182.728 407.721 182.28C408.201 181.8 408.777 181.56 409.449 181.56C410.153 181.56 410.729 181.8 411.177 182.28C411.625 182.728 411.849 183.304 411.849 184.008V204.552ZM409.401 178.392C408.473 178.392 407.801 178.232 407.385 177.912C406.969 177.56 406.761 176.984 406.761 176.184V175.416C406.761 174.616 406.985 174.056 407.433 173.736C407.881 173.416 408.553 173.256 409.449 173.256C410.409 173.256 411.097 173.432 411.513 173.784C411.929 174.104 412.137 174.648 412.137 175.416V176.184C412.137 177.016 411.913 177.592 411.465 177.912C411.049 178.232 410.361 178.392 409.401 178.392ZM416.817 203.064C416.529 202.616 416.401 202.104 416.433 201.528C416.465 200.92 416.801 200.408 417.441 199.992C417.889 199.704 418.353 199.592 418.833 199.656C419.345 199.688 419.825 199.928 420.273 200.376C421.169 201.368 422.161 202.152 423.249 202.728C424.369 203.304 425.713 203.592 427.281 203.592C427.921 203.56 428.577 203.464 429.249 203.304C429.921 203.112 430.497 202.792 430.977 202.344C431.457 201.864 431.697 201.176 431.697 200.28C431.697 199.48 431.441 198.84 430.929 198.36C430.417 197.88 429.745 197.496 428.913 197.208C428.081 196.888 427.185 196.6 426.225 196.344C425.201 196.056 424.161 195.736 423.105 195.384C422.081 195.032 421.153 194.584 420.321 194.04C419.489 193.464 418.801 192.728 418.257 191.832C417.745 190.936 417.489 189.832 417.489 188.52C417.489 187.016 417.905 185.72 418.737 184.632C419.601 183.544 420.705 182.696 422.049 182.088C423.425 181.48 424.913 181.176 426.513 181.176C427.441 181.176 428.417 181.304 429.441 181.56C430.465 181.784 431.457 182.152 432.417 182.664C433.377 183.176 434.209 183.848 434.913 184.68C435.233 185.096 435.409 185.592 435.441 186.168C435.505 186.744 435.249 187.256 434.673 187.704C434.289 188.024 433.825 188.168 433.281 188.136C432.737 188.104 432.289 187.928 431.937 187.608C431.329 186.84 430.545 186.248 429.585 185.832C428.625 185.384 427.537 185.16 426.321 185.16C425.713 185.16 425.073 185.256 424.401 185.448C423.761 185.608 423.217 185.912 422.769 186.36C422.321 186.808 422.097 187.464 422.097 188.328C422.097 189.128 422.353 189.768 422.865 190.248C423.409 190.728 424.113 191.128 424.977 191.448C425.841 191.768 426.785 192.056 427.809 192.312C428.801 192.568 429.777 192.872 430.737 193.224C431.729 193.576 432.609 194.04 433.377 194.616C434.177 195.16 434.817 195.88 435.297 196.776C435.809 197.64 436.065 198.744 436.065 200.088C436.065 201.656 435.601 203 434.673 204.12C433.777 205.208 432.625 206.04 431.217 206.616C429.841 207.192 428.385 207.48 426.849 207.48C425.025 207.48 423.201 207.16 421.377 206.52C419.585 205.848 418.065 204.696 416.817 203.064ZM452.411 181.176C454.139 181.176 455.675 181.368 457.019 181.752C458.363 182.104 459.403 182.616 460.139 183.288C460.907 183.928 461.291 184.68 461.291 185.544C461.291 186.088 461.131 186.6 460.811 187.08C460.491 187.528 460.011 187.752 459.371 187.752C458.923 187.752 458.539 187.672 458.219 187.512C457.931 187.352 457.659 187.16 457.403 186.936C457.147 186.712 456.827 186.488 456.443 186.264C456.091 186.072 455.563 185.912 454.859 185.784C454.187 185.656 453.579 185.592 453.035 185.592C451.339 185.592 449.867 185.976 448.619 186.744C447.403 187.512 446.443 188.552 445.739 189.864C445.067 191.176 444.731 192.664 444.731 194.328C444.731 195.992 445.067 197.48 445.739 198.792C446.443 200.104 447.387 201.144 448.571 201.912C449.787 202.68 451.195 203.064 452.795 203.064C453.755 203.064 454.539 203 455.147 202.872C455.755 202.712 456.283 202.52 456.731 202.296C457.211 202.008 457.611 201.72 457.931 201.432C458.283 201.112 458.763 200.952 459.371 200.952C460.075 200.952 460.603 201.176 460.955 201.624C461.339 202.04 461.531 202.568 461.531 203.208C461.531 203.912 461.099 204.6 460.235 205.272C459.403 205.912 458.283 206.44 456.875 206.856C455.467 207.272 453.915 207.48 452.219 207.48C449.723 207.48 447.547 206.904 445.691 205.752C443.867 204.6 442.443 203.032 441.419 201.048C440.427 199.064 439.931 196.824 439.931 194.328C439.931 191.8 440.459 189.56 441.515 187.608C442.571 185.624 444.043 184.056 445.931 182.904C447.819 181.752 449.979 181.176 452.411 181.176ZM490.31 194.376C490.31 196.936 489.75 199.208 488.63 201.192C487.51 203.144 485.99 204.68 484.07 205.8C482.15 206.92 479.99 207.48 477.59 207.48C475.19 207.48 473.03 206.92 471.11 205.8C469.19 204.68 467.654 203.144 466.502 201.192C465.382 199.208 464.822 196.936 464.822 194.376C464.822 191.784 465.382 189.512 466.502 187.56C467.654 185.576 469.19 184.024 471.11 182.904C473.03 181.752 475.19 181.176 477.59 181.176C479.99 181.176 482.15 181.752 484.07 182.904C485.99 184.024 487.51 185.576 488.63 187.56C489.75 189.512 490.31 191.784 490.31 194.376ZM485.51 194.376C485.51 192.616 485.158 191.096 484.454 189.816C483.75 188.504 482.79 187.48 481.574 186.744C480.39 185.976 479.062 185.592 477.59 185.592C476.118 185.592 474.774 185.976 473.558 186.744C472.342 187.48 471.382 188.504 470.678 189.816C469.974 191.096 469.622 192.616 469.622 194.376C469.622 196.072 469.974 197.576 470.678 198.888C471.382 200.2 472.342 201.224 473.558 201.96C474.774 202.696 476.118 203.064 477.59 203.064C479.062 203.064 480.39 202.696 481.574 201.96C482.79 201.224 483.75 200.2 484.454 198.888C485.158 197.576 485.51 196.072 485.51 194.376ZM508.415 181.32C510.783 181.32 512.607 181.912 513.887 183.096C515.167 184.248 516.015 185.816 516.431 187.8L515.663 187.56L515.999 186.792C516.415 185.96 517.039 185.128 517.871 184.296C518.735 183.432 519.759 182.728 520.943 182.184C522.127 181.608 523.391 181.32 524.735 181.32C526.943 181.32 528.655 181.8 529.871 182.76C531.087 183.688 531.935 184.952 532.415 186.552C532.895 188.12 533.135 189.88 533.135 191.832V204.552C533.135 205.256 532.911 205.848 532.463 206.328C532.015 206.776 531.439 207 530.735 207C530.063 207 529.487 206.776 529.007 206.328C528.559 205.848 528.335 205.256 528.335 204.552V191.88C528.335 190.76 528.175 189.736 527.855 188.808C527.567 187.88 527.039 187.144 526.271 186.6C525.535 186.024 524.511 185.736 523.199 185.736C521.951 185.736 520.831 186.024 519.839 186.6C518.879 187.144 518.127 187.88 517.583 188.808C517.039 189.736 516.767 190.76 516.767 191.88V204.552C516.767 205.256 516.543 205.848 516.095 206.328C515.647 206.776 515.071 207 514.367 207C513.663 207 513.087 206.776 512.639 206.328C512.191 205.848 511.967 205.256 511.967 204.552V191.832C511.967 190.712 511.807 189.688 511.487 188.76C511.199 187.832 510.687 187.096 509.951 186.552C509.215 186.008 508.191 185.736 506.879 185.736C505.631 185.736 504.527 186.008 503.567 186.552C502.607 187.096 501.855 187.832 501.311 188.76C500.799 189.688 500.543 190.712 500.543 191.832V204.552C500.543 205.256 500.303 205.848 499.823 206.328C499.375 206.776 498.815 207 498.143 207C497.439 207 496.863 206.776 496.415 206.328C495.967 205.848 495.743 205.256 495.743 204.552V184.2C495.743 183.496 495.967 182.92 496.415 182.472C496.863 181.992 497.439 181.752 498.143 181.752C498.815 181.752 499.375 181.992 499.823 182.472C500.303 182.92 500.543 183.496 500.543 184.2V187.032L499.631 187.56C499.855 186.856 500.223 186.136 500.735 185.4C501.247 184.664 501.887 183.992 502.655 183.384C503.455 182.776 504.335 182.28 505.295 181.896C506.255 181.512 507.295 181.32 508.415 181.32ZM551.612 171.528C552.22 171.528 552.844 171.608 553.484 171.768C554.124 171.928 554.652 172.2 555.068 172.584C555.516 172.936 555.74 173.432 555.74 174.072C555.74 174.712 555.548 175.24 555.164 175.656C554.78 176.04 554.332 176.232 553.82 176.232C553.5 176.232 553.068 176.168 552.524 176.04C551.98 175.88 551.436 175.8 550.892 175.8C550.156 175.8 549.564 175.976 549.116 176.328C548.668 176.648 548.348 177.064 548.156 177.576C547.964 178.056 547.868 178.536 547.868 179.016V204.552C547.868 205.256 547.628 205.848 547.148 206.328C546.7 206.776 546.14 207 545.468 207C544.764 207 544.188 206.776 543.74 206.328C543.292 205.848 543.068 205.256 543.068 204.552V179.064C543.068 176.856 543.788 175.048 545.228 173.64C546.7 172.232 548.828 171.528 551.612 171.528ZM552.572 182.184C553.212 182.184 553.74 182.392 554.156 182.808C554.572 183.224 554.78 183.752 554.78 184.392C554.78 185.032 554.572 185.56 554.156 185.976C553.74 186.392 553.212 186.6 552.572 186.6H540.14C539.532 186.6 539.004 186.392 538.556 185.976C538.14 185.56 537.932 185.032 537.932 184.392C537.932 183.752 538.14 183.224 538.556 182.808C539.004 182.392 539.532 182.184 540.14 182.184H552.572ZM582.232 194.376C582.232 196.936 581.672 199.208 580.552 201.192C579.432 203.144 577.912 204.68 575.992 205.8C574.072 206.92 571.912 207.48 569.512 207.48C567.112 207.48 564.952 206.92 563.032 205.8C561.112 204.68 559.576 203.144 558.424 201.192C557.304 199.208 556.744 196.936 556.744 194.376C556.744 191.784 557.304 189.512 558.424 187.56C559.576 185.576 561.112 184.024 563.032 182.904C564.952 181.752 567.112 181.176 569.512 181.176C571.912 181.176 574.072 181.752 575.992 182.904C577.912 184.024 579.432 185.576 580.552 187.56C581.672 189.512 582.232 191.784 582.232 194.376ZM577.432 194.376C577.432 192.616 577.08 191.096 576.376 189.816C575.672 188.504 574.712 187.48 573.496 186.744C572.312 185.976 570.984 185.592 569.512 185.592C568.04 185.592 566.696 185.976 565.48 186.744C564.264 187.48 563.304 188.504 562.6 189.816C561.896 191.096 561.544 192.616 561.544 194.376C561.544 196.072 561.896 197.576 562.6 198.888C563.304 200.2 564.264 201.224 565.48 201.96C566.696 202.696 568.04 203.064 569.512 203.064C570.984 203.064 572.312 202.696 573.496 201.96C574.712 201.224 575.672 200.2 576.376 198.888C577.08 197.576 577.432 196.072 577.432 194.376ZM590.065 207C589.361 207 588.785 206.776 588.337 206.328C587.889 205.848 587.665 205.256 587.665 204.552V184.2C587.665 183.496 587.889 182.92 588.337 182.472C588.785 181.992 589.361 181.752 590.065 181.752C590.737 181.752 591.297 181.992 591.745 182.472C592.225 182.92 592.465 183.496 592.465 184.2V189.576L591.985 187.512C592.241 186.616 592.625 185.784 593.137 185.016C593.681 184.248 594.321 183.576 595.057 183C595.793 182.424 596.609 181.976 597.505 181.656C598.433 181.336 599.393 181.176 600.385 181.176C601.217 181.176 601.937 181.4 602.545 181.848C603.153 182.296 603.457 182.856 603.457 183.528C603.457 184.392 603.233 185.032 602.785 185.448C602.337 185.832 601.841 186.024 601.297 186.024C600.817 186.024 600.353 185.928 599.905 185.736C599.457 185.512 598.929 185.4 598.321 185.4C597.649 185.4 596.961 185.576 596.257 185.928C595.553 186.28 594.913 186.808 594.337 187.512C593.761 188.184 593.297 188.984 592.945 189.912C592.625 190.84 592.465 191.88 592.465 193.032V204.552C592.465 205.256 592.225 205.848 591.745 206.328C591.297 206.776 590.737 207 590.065 207ZM607.391 182.04H618.671C619.311 182.04 619.839 182.264 620.255 182.712C620.703 183.128 620.927 183.656 620.927 184.296C620.927 184.904 620.703 185.416 620.255 185.832C619.839 186.248 619.311 186.456 618.671 186.456H607.391C606.751 186.456 606.207 186.248 605.759 185.832C605.343 185.384 605.135 184.856 605.135 184.248C605.135 183.608 605.343 183.08 605.759 182.664C606.207 182.248 606.751 182.04 607.391 182.04ZM612.431 175.8C613.135 175.8 613.711 176.04 614.159 176.52C614.607 176.968 614.831 177.544 614.831 178.248V200.52C614.831 201.096 614.927 201.56 615.119 201.912C615.311 202.264 615.567 202.504 615.887 202.632C616.239 202.76 616.591 202.824 616.943 202.824C617.295 202.824 617.599 202.76 617.855 202.632C618.143 202.504 618.479 202.44 618.863 202.44C619.247 202.44 619.599 202.616 619.919 202.968C620.239 203.32 620.399 203.8 620.399 204.408C620.399 205.176 619.983 205.8 619.151 206.28C618.319 206.76 617.423 207 616.463 207C615.919 207 615.279 206.952 614.543 206.856C613.807 206.76 613.087 206.52 612.383 206.136C611.711 205.752 611.151 205.144 610.703 204.312C610.255 203.448 610.031 202.248 610.031 200.712V178.248C610.031 177.544 610.255 176.968 610.703 176.52C611.183 176.04 611.759 175.8 612.431 175.8Z" fill="white"/>
</svg>
