<svg width="660" height="200" viewBox="0 0 660 200" fill="none" xmlns="http://www.w3.org/2000/svg">
<path d="M309.096 85.8155C309.612 86.1594 310.3 85.9874 310.644 85.4715L321.994 67.2422C321.478 66.8983 321.134 66.5543 320.618 66.3823C320.102 66.0384 319.586 65.8664 319.242 65.5225L307.72 83.7518C307.376 84.2677 307.548 84.9556 308.064 85.2995L309.096 85.8155Z" fill="white"/>
<path d="M409.701 0H250.452C249.249 0 248.389 1.03185 248.389 2.0637V14.6178C248.389 15.8217 249.421 16.6815 250.452 16.6815H301.013C322.338 16.6815 330.077 37.1465 330.077 54.6879C330.077 58.8153 329.733 63.1146 328.701 67.0701C327.669 65.6943 326.293 64.3185 324.573 62.9427L325.089 62.0828C325.433 61.5669 325.261 60.879 324.745 60.535L323.885 60.0191C323.37 59.6752 322.682 59.8471 322.338 60.3631L321.822 61.2229C318.382 59.5032 314.943 58.8153 312.707 59.5032C312.191 59.6752 312.191 60.3631 312.707 60.535C315.459 61.5669 318.554 63.1146 321.65 65.0064C324.057 66.5541 326.293 68.1019 328.185 69.8216C324.573 82.0318 316.319 92.0064 301.013 92.0064H297.229C298.261 90.8025 298.605 88.9108 297.745 87.3631L291.038 75.3248L288.631 66.8981C290.178 64.4904 290.866 61.3949 290.35 58.2994C289.491 53.4841 288.631 50.2166 287.943 47.8089L290.007 48.4968L294.134 54.5159C295.166 56.0637 297.401 56.5796 299.121 55.5478C300.669 54.5159 301.185 52.2803 300.153 50.5605L295.338 43.5096C294.822 42.8217 294.306 42.3057 293.618 42.1338L285.535 39.3822C283.987 38.8662 282.096 38.8662 280.548 39.3822L275.905 40.9299C274.013 41.6178 272.465 42.9936 271.605 44.7134L267.65 52.4522L262.491 56.5796C260.943 57.7834 260.771 60.0191 261.975 61.5669C262.663 62.4267 263.694 62.9427 264.726 62.9427C265.586 62.9427 266.274 62.5987 266.962 62.0828L272.637 57.4395C272.981 57.0955 273.325 56.7516 273.669 56.2357L275.045 53.4841L279 65.0064L274.185 73.2611C273.841 73.7771 273.669 74.121 273.669 74.6369L271.605 88.3949C271.433 89.5987 271.777 90.8026 272.637 91.6624H250.452C249.249 91.6624 248.389 92.6943 248.389 93.7261V105.936C248.389 107.14 249.421 108 250.452 108H409.529C410.733 108 411.592 106.968 411.592 105.936V2.23567C411.764 1.03185 410.733 0 409.701 0ZM279.688 89.9427L281.58 77.0446L282.612 75.3248L283.471 78.0764C283.471 78.4204 283.643 78.5924 283.815 78.9363L290.866 91.4904C291.038 91.6624 291.21 92.0064 291.382 92.1783H279C279.172 91.3185 279.516 90.6306 279.688 89.9427ZM394.567 47.9809L389.924 65.5223C389.58 66.8981 388.72 68.1019 387.688 68.9618L377.37 77.7325C376.166 78.7643 374.618 79.2803 372.898 79.2803H366.191C364.815 79.2803 363.268 78.7643 362.236 77.9045L352.261 70.6815C351.229 69.9936 350.37 68.7898 349.854 67.586L344.35 53.3121C343.491 51.2484 343.835 49.0127 345.038 47.121L348.822 41.1019C349.51 40.0701 349.854 38.8662 349.854 37.8344V37.1465C350.026 33.879 352.605 31.1274 355.873 30.7834L370.147 28.8917C371.178 28.7197 372.382 28.8917 373.414 29.2357L386.656 34.051C388.032 34.5669 389.236 35.4268 389.924 36.6306L393.535 42.1338C394.739 44.0255 395.083 46.0892 394.567 47.9809Z" fill="white"/>
<path d="M383.561 41.6176C382.701 40.2418 381.325 39.382 379.777 39.382H359.828C358.281 39.382 356.733 40.2418 356.045 41.6176L352.433 47.6367C351.402 49.1845 351.574 51.2482 352.777 52.624L366.191 70.8533C367.051 72.0571 368.427 72.573 369.803 72.573C371.179 72.573 372.554 71.8851 373.414 70.8533L387 52.796C388.204 51.2482 388.204 49.3565 387.344 47.6367L383.561 41.6176ZM368.083 43.1654H371.523L373.586 48.3246H366.019L368.083 43.1654ZM359.14 43.5093C359.312 43.3374 359.484 43.1654 359.828 43.1654H364.128L362.064 48.3246H356.217L359.14 43.5093ZM356.733 52.1081H362.064L365.847 63.9743L356.733 52.1081ZM369.803 64.4902L365.847 51.9361H373.758L369.803 64.4902ZM373.93 63.9743L377.714 52.1081H383.045L373.93 63.9743ZM377.542 48.3246L375.478 43.1654H379.777C380.121 43.1654 380.293 43.3374 380.465 43.5093L383.389 48.3246H377.542Z" fill="white"/>
<path d="M273.669 39.0382C277.968 39.0382 281.579 35.5987 281.579 31.1274C281.579 26.828 278.14 23.2166 273.669 23.2166C269.369 23.2166 265.758 26.656 265.758 31.1274C265.93 35.5987 269.369 39.0382 273.669 39.0382Z" fill="white"/>
<path d="M126.751 155.4C129.087 155.4 131.151 155.848 132.943 156.744C134.735 157.608 136.223 158.824 137.407 160.392C138.623 161.928 139.535 163.72 140.143 165.768C140.751 167.784 141.055 169.928 141.055 172.2C141.055 175.304 140.511 178.136 139.423 180.696C138.335 183.224 136.735 185.24 134.623 186.744C132.511 188.248 129.887 189 126.751 189H115.039C114.367 189 113.791 188.776 113.311 188.328C112.831 187.848 112.591 187.256 112.591 186.552V157.848C112.591 157.144 112.831 156.568 113.311 156.12C113.791 155.64 114.367 155.4 115.039 155.4H126.751ZM126.271 184.392C128.543 184.392 130.383 183.832 131.791 182.712C133.199 181.592 134.223 180.12 134.863 178.296C135.535 176.44 135.871 174.408 135.871 172.2C135.871 170.568 135.679 169.032 135.295 167.592C134.943 166.12 134.367 164.824 133.567 163.704C132.799 162.552 131.807 161.656 130.591 161.016C129.407 160.344 127.967 160.008 126.271 160.008H117.199L117.631 159.576V184.872L117.343 184.392H126.271ZM170.99 176.376C170.99 178.936 170.43 181.208 169.31 183.192C168.19 185.144 166.67 186.68 164.75 187.8C162.83 188.92 160.67 189.48 158.27 189.48C155.87 189.48 153.71 188.92 151.79 187.8C149.87 186.68 148.334 185.144 147.182 183.192C146.062 181.208 145.502 178.936 145.502 176.376C145.502 173.784 146.062 171.512 147.182 169.56C148.334 167.576 149.87 166.024 151.79 164.904C153.71 163.752 155.87 163.176 158.27 163.176C160.67 163.176 162.83 163.752 164.75 164.904C166.67 166.024 168.19 167.576 169.31 169.56C170.43 171.512 170.99 173.784 170.99 176.376ZM166.19 176.376C166.19 174.616 165.838 173.096 165.134 171.816C164.43 170.504 163.47 169.48 162.254 168.744C161.07 167.976 159.742 167.592 158.27 167.592C156.798 167.592 155.454 167.976 154.238 168.744C153.022 169.48 152.062 170.504 151.358 171.816C150.654 173.096 150.302 174.616 150.302 176.376C150.302 178.072 150.654 179.576 151.358 180.888C152.062 182.2 153.022 183.224 154.238 183.96C155.454 184.696 156.798 185.064 158.27 185.064C159.742 185.064 161.07 184.696 162.254 183.96C163.47 183.224 164.43 182.2 165.134 180.888C165.838 179.576 166.19 178.072 166.19 176.376ZM189.431 163.176C191.703 163.176 193.463 163.656 194.711 164.616C195.959 165.544 196.823 166.808 197.302 168.408C197.815 169.976 198.071 171.736 198.071 173.688V186.552C198.071 187.256 197.831 187.848 197.351 188.328C196.903 188.776 196.343 189 195.671 189C194.967 189 194.391 188.776 193.943 188.328C193.495 187.848 193.271 187.256 193.271 186.552V173.736C193.271 172.584 193.111 171.56 192.791 170.664C192.471 169.736 191.911 169 191.111 168.456C190.343 167.88 189.255 167.592 187.847 167.592C186.535 167.592 185.383 167.88 184.391 168.456C183.399 169 182.615 169.736 182.039 170.664C181.495 171.56 181.223 172.584 181.223 173.736V186.552C181.223 187.256 180.983 187.848 180.503 188.328C180.055 188.776 179.495 189 178.823 189C178.119 189 177.543 188.776 177.095 188.328C176.647 187.848 176.423 187.256 176.423 186.552V166.2C176.423 165.496 176.647 164.92 177.095 164.472C177.543 163.992 178.119 163.752 178.823 163.752C179.495 163.752 180.055 163.992 180.503 164.472C180.983 164.92 181.223 165.496 181.223 166.2V168.888L180.359 169.368C180.583 168.664 180.967 167.96 181.511 167.256C182.087 166.52 182.775 165.848 183.575 165.24C184.375 164.6 185.271 164.104 186.263 163.752C187.255 163.368 188.311 163.176 189.431 163.176ZM210.687 159.672C210.687 160.664 210.399 161.656 209.823 162.648C209.279 163.64 208.575 164.472 207.711 165.144C206.847 165.784 205.935 166.104 204.975 166.104C204.655 166.104 204.319 165.976 203.967 165.72C203.647 165.464 203.487 165.032 203.487 164.424C203.487 163.784 203.679 163.416 204.063 163.32C204.479 163.192 204.879 163.032 205.263 162.84C205.711 162.616 206.063 162.344 206.319 162.024C206.575 161.672 206.703 161.256 206.703 160.776C206.703 160.424 206.543 160.12 206.223 159.864C205.935 159.608 205.551 159.48 205.071 159.48C204.879 159.48 204.655 159.512 204.399 159.576C204.143 159.608 203.935 159.688 203.775 159.816C203.487 159.656 203.247 159.464 203.055 159.24C202.863 159.016 202.767 158.68 202.767 158.232C202.767 157.368 203.167 156.632 203.967 156.024C204.767 155.416 205.679 155.112 206.703 155.112C207.919 155.112 208.879 155.544 209.583 156.408C210.319 157.24 210.687 158.328 210.687 159.672ZM216.305 164.04H227.585C228.225 164.04 228.753 164.264 229.169 164.712C229.617 165.128 229.841 165.656 229.841 166.296C229.841 166.904 229.617 167.416 229.169 167.832C228.753 168.248 228.225 168.456 227.585 168.456H216.305C215.665 168.456 215.121 168.248 214.673 167.832C214.257 167.384 214.049 166.856 214.049 166.248C214.049 165.608 214.257 165.08 214.673 164.664C215.121 164.248 215.665 164.04 216.305 164.04ZM221.345 157.8C222.049 157.8 222.625 158.04 223.073 158.52C223.521 158.968 223.745 159.544 223.745 160.248V182.52C223.745 183.096 223.841 183.56 224.033 183.912C224.225 184.264 224.481 184.504 224.801 184.632C225.153 184.76 225.505 184.824 225.857 184.824C226.209 184.824 226.513 184.76 226.769 184.632C227.057 184.504 227.393 184.44 227.777 184.44C228.161 184.44 228.513 184.616 228.833 184.968C229.153 185.32 229.313 185.8 229.313 186.408C229.313 187.176 228.897 187.8 228.065 188.28C227.233 188.76 226.337 189 225.377 189C224.833 189 224.193 188.952 223.457 188.856C222.721 188.76 222.001 188.52 221.297 188.136C220.625 187.752 220.065 187.144 219.617 186.312C219.169 185.448 218.945 184.248 218.945 182.712V160.248C218.945 159.544 219.169 158.968 219.617 158.52C220.097 158.04 220.673 157.8 221.345 157.8ZM264.644 189.48C262.212 189.48 259.94 189.048 257.828 188.184C255.716 187.288 253.86 186.056 252.26 184.488C250.692 182.888 249.46 181.048 248.564 178.968C247.668 176.888 247.22 174.632 247.22 172.2C247.22 169.768 247.668 167.512 248.564 165.432C249.46 163.352 250.692 161.528 252.26 159.96C253.86 158.36 255.716 157.128 257.828 156.264C259.94 155.368 262.212 154.92 264.644 154.92C266.212 154.92 267.732 155.096 269.204 155.448C270.676 155.8 272.004 156.312 273.188 156.984C273.604 157.208 273.908 157.512 274.1 157.896C274.292 158.248 274.388 158.6 274.388 158.952C274.388 159.624 274.164 160.216 273.716 160.728C273.3 161.208 272.772 161.448 272.132 161.448C271.908 161.448 271.668 161.416 271.412 161.352C271.188 161.288 270.98 161.208 270.788 161.112C269.892 160.664 268.932 160.328 267.908 160.104C266.884 159.848 265.796 159.72 264.644 159.72C262.34 159.72 260.26 160.28 258.404 161.4C256.548 162.488 255.076 163.976 253.988 165.864C252.932 167.752 252.404 169.864 252.404 172.2C252.404 174.504 252.932 176.616 253.988 178.536C255.076 180.424 256.548 181.928 258.404 183.048C260.26 184.136 262.34 184.68 264.644 184.68C265.764 184.68 266.948 184.552 268.196 184.296C269.444 184.008 270.5 183.64 271.364 183.192L270.98 184.488V175.368L271.748 176.04H265.46C264.756 176.04 264.164 175.816 263.684 175.368C263.236 174.92 263.012 174.344 263.012 173.64C263.012 172.936 263.236 172.36 263.684 171.912C264.164 171.464 264.756 171.24 265.46 171.24H273.764C274.436 171.24 274.996 171.48 275.444 171.96C275.924 172.408 276.164 172.984 276.164 173.688V184.344C276.164 184.856 276.036 185.288 275.78 185.64C275.524 185.992 275.236 186.28 274.916 186.504C273.476 187.4 271.876 188.12 270.116 188.664C268.388 189.208 266.564 189.48 264.644 189.48ZM286.45 186.552C286.45 187.256 286.226 187.848 285.778 188.328C285.33 188.776 284.754 189 284.05 189C283.378 189 282.802 188.776 282.322 188.328C281.874 187.848 281.65 187.256 281.65 186.552V166.008C281.65 165.304 281.874 164.728 282.322 164.28C282.802 163.8 283.378 163.56 284.05 163.56C284.754 163.56 285.33 163.8 285.778 164.28C286.226 164.728 286.45 165.304 286.45 166.008V186.552ZM284.002 160.392C283.074 160.392 282.402 160.232 281.986 159.912C281.57 159.56 281.362 158.984 281.362 158.184V157.416C281.362 156.616 281.586 156.056 282.034 155.736C282.482 155.416 283.154 155.256 284.05 155.256C285.01 155.256 285.698 155.432 286.114 155.784C286.53 156.104 286.738 156.648 286.738 157.416V158.184C286.738 159.016 286.514 159.592 286.066 159.912C285.65 160.232 284.962 160.392 284.002 160.392ZM293.483 163.512C293.963 163.512 294.411 163.64 294.827 163.896C295.275 164.152 295.595 164.536 295.787 165.048L303.323 182.472L302.411 182.904L310.043 165.096C310.491 164.04 311.211 163.528 312.203 163.56C312.843 163.56 313.371 163.768 313.787 164.184C314.235 164.568 314.459 165.08 314.459 165.72C314.459 165.912 314.427 166.12 314.363 166.344C314.299 166.536 314.219 166.728 314.123 166.92L305.003 187.464C304.587 188.424 303.899 188.936 302.939 189C302.459 189.064 301.979 188.968 301.499 188.712C301.051 188.424 300.699 188.008 300.443 187.464L291.371 166.92C291.307 166.792 291.243 166.632 291.179 166.44C291.115 166.216 291.083 165.96 291.083 165.672C291.083 165.192 291.291 164.712 291.707 164.232C292.155 163.752 292.747 163.512 293.483 163.512ZM330.87 189.48C328.214 189.48 325.91 188.936 323.958 187.848C322.006 186.728 320.486 185.208 319.398 183.288C318.342 181.336 317.814 179.112 317.814 176.616C317.814 173.8 318.374 171.4 319.494 169.416C320.646 167.4 322.134 165.864 323.958 164.808C325.782 163.72 327.718 163.176 329.766 163.176C331.334 163.176 332.822 163.496 334.23 164.136C335.638 164.744 336.886 165.608 337.974 166.728C339.094 167.816 339.974 169.112 340.614 170.616C341.254 172.088 341.59 173.704 341.622 175.464C341.59 176.104 341.334 176.632 340.854 177.048C340.374 177.464 339.814 177.672 339.174 177.672H320.502L319.35 173.592H337.398L336.486 174.456V173.256C336.422 172.136 336.054 171.16 335.382 170.328C334.71 169.464 333.878 168.808 332.886 168.36C331.894 167.88 330.854 167.64 329.766 167.64C328.806 167.64 327.878 167.8 326.982 168.12C326.118 168.408 325.334 168.888 324.63 169.56C323.958 170.232 323.414 171.128 322.998 172.248C322.614 173.336 322.422 174.696 322.422 176.328C322.422 178.088 322.79 179.624 323.526 180.936C324.262 182.248 325.254 183.272 326.502 184.008C327.75 184.712 329.126 185.064 330.63 185.064C331.814 185.064 332.79 184.952 333.558 184.728C334.326 184.472 334.966 184.168 335.478 183.816C335.99 183.464 336.438 183.128 336.822 182.808C337.302 182.52 337.782 182.376 338.262 182.376C338.838 182.376 339.318 182.584 339.702 183C340.086 183.384 340.278 183.848 340.278 184.392C340.278 185.096 339.926 185.736 339.222 186.312C338.358 187.144 337.158 187.88 335.622 188.52C334.118 189.16 332.534 189.48 330.87 189.48ZM384.791 155.352C385.495 155.352 386.055 155.592 386.471 156.072C386.887 156.52 387.095 157.096 387.095 157.8V175.992C387.095 178.552 386.535 180.84 385.415 182.856C384.295 184.872 382.759 186.456 380.807 187.608C378.855 188.728 376.599 189.288 374.039 189.288C371.511 189.288 369.255 188.728 367.271 187.608C365.319 186.456 363.767 184.872 362.615 182.856C361.495 180.84 360.935 178.552 360.935 175.992V157.8C360.935 157.096 361.175 156.52 361.655 156.072C362.135 155.592 362.759 155.352 363.527 155.352C364.135 155.352 364.679 155.592 365.159 156.072C365.671 156.52 365.927 157.096 365.927 157.8V175.992C365.927 177.688 366.295 179.176 367.031 180.456C367.799 181.704 368.807 182.696 370.055 183.432C371.303 184.136 372.631 184.488 374.039 184.488C375.575 184.488 376.983 184.136 378.263 183.432C379.543 182.696 380.567 181.704 381.335 180.456C382.135 179.176 382.535 177.688 382.535 175.992V157.8C382.535 157.096 382.727 156.52 383.111 156.072C383.527 155.592 384.087 155.352 384.791 155.352ZM407.111 163.32C409.351 163.32 411.335 163.88 413.063 165C414.823 166.12 416.215 167.656 417.239 169.608C418.263 171.528 418.775 173.768 418.775 176.328C418.775 178.888 418.263 181.16 417.239 183.144C416.215 185.096 414.839 186.632 413.111 187.752C411.383 188.872 409.431 189.432 407.255 189.432C406.039 189.432 404.887 189.24 403.799 188.856C402.711 188.472 401.751 187.976 400.919 187.368C400.087 186.728 399.399 186.056 398.855 185.352C398.343 184.648 398.023 183.992 397.895 183.384L399.191 182.76V196.152C399.191 196.856 398.951 197.432 398.471 197.88C398.023 198.36 397.463 198.6 396.791 198.6C396.087 198.6 395.511 198.36 395.063 197.88C394.615 197.432 394.391 196.856 394.391 196.152V166.104C394.391 165.432 394.615 164.856 395.063 164.376C395.511 163.896 396.087 163.656 396.791 163.656C397.463 163.656 398.023 163.896 398.471 164.376C398.951 164.856 399.191 165.432 399.191 166.104V169.416L398.423 168.984C398.519 168.376 398.823 167.752 399.335 167.112C399.847 166.44 400.487 165.816 401.255 165.24C402.055 164.664 402.951 164.2 403.943 163.848C404.967 163.496 406.023 163.32 407.111 163.32ZM406.583 167.736C405.047 167.736 403.703 168.12 402.551 168.888C401.431 169.624 400.551 170.632 399.911 171.912C399.271 173.192 398.951 174.664 398.951 176.328C398.951 177.96 399.271 179.448 399.911 180.792C400.551 182.104 401.431 183.144 402.551 183.912C403.703 184.648 405.047 185.016 406.583 185.016C408.087 185.016 409.399 184.648 410.519 183.912C411.639 183.144 412.519 182.104 413.159 180.792C413.831 179.448 414.167 177.96 414.167 176.328C414.167 174.696 413.831 173.24 413.159 171.96C412.519 170.648 411.639 169.624 410.519 168.888C409.399 168.12 408.087 167.736 406.583 167.736ZM426.028 188.952C425.228 188.952 424.604 188.728 424.156 188.28C423.74 187.832 423.532 187.208 423.532 186.408V185.544C423.532 184.744 423.74 184.12 424.156 183.672C424.604 183.224 425.228 183 426.028 183H426.556C427.356 183 427.964 183.224 428.38 183.672C428.796 184.12 429.004 184.744 429.004 185.544V186.408C429.004 187.208 428.796 187.832 428.38 188.28C427.964 188.728 427.356 188.952 426.556 188.952H426.028ZM451.367 155.4H467.975C468.647 155.4 469.207 155.624 469.655 156.072C470.135 156.52 470.375 157.08 470.375 157.752C470.375 158.424 470.135 158.968 469.655 159.384C469.207 159.8 468.647 160.008 467.975 160.008H453.479L453.959 159.192V169.944L453.527 169.464H465.815C466.487 169.464 467.047 169.688 467.495 170.136C467.975 170.584 468.215 171.16 468.215 171.864C468.215 172.536 467.975 173.08 467.495 173.496C467.047 173.912 466.487 174.12 465.815 174.12H453.623L453.959 173.688V184.776L453.623 184.392H467.975C468.647 184.392 469.207 184.632 469.655 185.112C470.135 185.56 470.375 186.088 470.375 186.696C470.375 187.368 470.135 187.928 469.655 188.376C469.207 188.792 468.647 189 467.975 189H451.367C450.695 189 450.119 188.776 449.639 188.328C449.159 187.848 448.919 187.256 448.919 186.552V157.848C448.919 157.144 449.159 156.568 449.639 156.12C450.119 155.64 450.695 155.4 451.367 155.4ZM475.686 163.512C476.166 163.512 476.614 163.64 477.03 163.896C477.478 164.152 477.798 164.536 477.99 165.048L485.526 182.472L484.614 182.904L492.246 165.096C492.694 164.04 493.414 163.528 494.406 163.56C495.046 163.56 495.574 163.768 495.99 164.184C496.438 164.568 496.662 165.08 496.662 165.72C496.662 165.912 496.63 166.12 496.566 166.344C496.502 166.536 496.422 166.728 496.326 166.92L487.206 187.464C486.79 188.424 486.102 188.936 485.142 189C484.662 189.064 484.182 188.968 483.702 188.712C483.254 188.424 482.902 188.008 482.646 187.464L473.574 166.92C473.51 166.792 473.446 166.632 473.382 166.44C473.318 166.216 473.286 165.96 473.286 165.672C473.286 165.192 473.494 164.712 473.91 164.232C474.358 163.752 474.95 163.512 475.686 163.512ZM513.073 189.48C510.417 189.48 508.113 188.936 506.161 187.848C504.209 186.728 502.689 185.208 501.601 183.288C500.545 181.336 500.017 179.112 500.017 176.616C500.017 173.8 500.577 171.4 501.697 169.416C502.849 167.4 504.337 165.864 506.161 164.808C507.985 163.72 509.921 163.176 511.969 163.176C513.537 163.176 515.025 163.496 516.433 164.136C517.841 164.744 519.089 165.608 520.177 166.728C521.297 167.816 522.177 169.112 522.817 170.616C523.457 172.088 523.793 173.704 523.825 175.464C523.793 176.104 523.537 176.632 523.057 177.048C522.577 177.464 522.017 177.672 521.377 177.672H502.705L501.553 173.592H519.601L518.689 174.456V173.256C518.625 172.136 518.257 171.16 517.585 170.328C516.913 169.464 516.081 168.808 515.089 168.36C514.097 167.88 513.057 167.64 511.969 167.64C511.009 167.64 510.081 167.8 509.185 168.12C508.321 168.408 507.537 168.888 506.833 169.56C506.161 170.232 505.617 171.128 505.201 172.248C504.817 173.336 504.625 174.696 504.625 176.328C504.625 178.088 504.993 179.624 505.729 180.936C506.465 182.248 507.457 183.272 508.705 184.008C509.953 184.712 511.329 185.064 512.833 185.064C514.017 185.064 514.993 184.952 515.761 184.728C516.529 184.472 517.169 184.168 517.681 183.816C518.193 183.464 518.641 183.128 519.025 182.808C519.505 182.52 519.985 182.376 520.465 182.376C521.041 182.376 521.521 182.584 521.905 183C522.289 183.384 522.481 183.848 522.481 184.392C522.481 185.096 522.129 185.736 521.425 186.312C520.561 187.144 519.361 187.88 517.825 188.52C516.321 189.16 514.737 189.48 513.073 189.48ZM531.651 189C530.947 189 530.371 188.776 529.923 188.328C529.475 187.848 529.251 187.256 529.251 186.552V166.2C529.251 165.496 529.475 164.92 529.923 164.472C530.371 163.992 530.947 163.752 531.651 163.752C532.323 163.752 532.883 163.992 533.331 164.472C533.811 164.92 534.051 165.496 534.051 166.2V171.576L533.571 169.512C533.827 168.616 534.211 167.784 534.723 167.016C535.267 166.248 535.907 165.576 536.643 165C537.379 164.424 538.195 163.976 539.091 163.656C540.019 163.336 540.979 163.176 541.971 163.176C542.803 163.176 543.523 163.4 544.131 163.848C544.739 164.296 545.043 164.856 545.043 165.528C545.043 166.392 544.819 167.032 544.371 167.448C543.923 167.832 543.427 168.024 542.883 168.024C542.403 168.024 541.939 167.928 541.491 167.736C541.043 167.512 540.515 167.4 539.907 167.4C539.235 167.4 538.547 167.576 537.843 167.928C537.139 168.28 536.499 168.808 535.923 169.512C535.347 170.184 534.883 170.984 534.531 171.912C534.211 172.84 534.051 173.88 534.051 175.032V186.552C534.051 187.256 533.811 187.848 533.331 188.328C532.883 188.776 532.323 189 531.651 189ZM545.653 188.952C544.853 188.952 544.229 188.728 543.781 188.28C543.365 187.832 543.157 187.208 543.157 186.408V185.544C543.157 184.744 543.365 184.12 543.781 183.672C544.229 183.224 544.853 183 545.653 183H546.181C546.981 183 547.589 183.224 548.005 183.672C548.421 184.12 548.629 184.744 548.629 185.544V186.408C548.629 187.208 548.421 187.832 548.005 188.28C547.589 188.728 546.981 188.952 546.181 188.952H545.653Z" fill="white"/>
</svg>
