<svg width="660" height="258" viewBox="0 0 660 258" fill="none" xmlns="http://www.w3.org/2000/svg">
<path fill-rule="evenodd" clip-rule="evenodd" d="M383.713 42.407H383.942C387.946 42.407 391.556 41.2468 394.179 39.3954C396.61 37.6805 398.153 35.3951 398.265 32.9731V32.6809C398.265 24.3862 390.285 17.537 379.602 12.2872C363.156 4.20603 340.615 0.0814404 329.491 0.00269349C305.485 -0.17055 283.617 8.03663 271.402 17.8975C267.43 21.1051 264.53 24.4457 262.981 27.6726C261.571 30.6125 261.312 33.4386 262.446 35.927C263.697 38.6709 266.637 41.1593 271.574 43.156L271.6 43.1297C272.912 41.8155 274.739 40.9668 276.724 40.7428C294.135 38.7864 311.253 37.7522 328.324 37.726C345.403 37.698 362.365 38.6779 379.453 40.7428C381.032 40.9336 382.512 41.5146 383.713 42.407ZM276.92 66.1011C276.066 66.1133 275.299 66.4406 274.751 66.9743C274.219 67.4923 273.89 68.2168 273.89 69.041C273.89 69.8179 274.204 70.4864 274.709 70.9921C275.327 71.6116 276.221 72.0159 277.214 72.1314C293.946 74.0983 310.97 75.1237 328.201 75.1237C344.967 75.1237 361.905 74.1525 378.935 72.1314C379.934 72.0124 380.83 71.6081 381.45 70.9886C381.956 70.4829 382.269 69.8162 382.269 69.0392C382.269 68.215 381.94 67.4888 381.408 66.9708C380.865 66.4423 380.108 66.1151 379.263 66.0993C362.258 67.5028 345.197 68.1503 328.081 68.1223C310.968 68.0943 293.917 67.3925 276.92 66.0976V66.1011ZM380.305 76.3609C380.025 76.4204 379.742 76.4677 379.455 76.5009C362.229 78.5449 345.118 79.5266 328.205 79.5266C310.833 79.5266 293.642 78.4889 276.718 76.5009C275.782 76.3907 274.883 76.1439 274.055 75.7747C269.785 87.0338 275.654 95.1535 286.411 100.375C298.533 106.259 316.578 108.64 333.927 107.854C351.206 107.072 367.669 103.168 376.722 96.4746C383.499 91.4646 385.8 84.7064 380.305 76.3609ZM378.946 61.7105C378.988 61.7053 379.03 61.7018 379.072 61.7C380.003 61.6108 380.839 61.2275 381.427 60.6396C381.949 60.1181 382.272 59.4199 382.272 58.6219C382.272 57.7977 381.943 57.0714 381.411 56.5535C380.864 56.0197 380.095 55.6908 379.238 55.6803C362.57 57.3532 345.765 58.1547 328.956 58.1547C311.678 58.1547 294.295 57.3042 276.955 55.6803C276.087 55.6838 275.308 56.0127 274.753 56.5535C274.221 57.0714 273.892 57.7959 273.892 58.6201C273.892 59.4216 274.218 60.1251 274.741 60.6501C275.322 61.231 276.139 61.6108 277.051 61.6965C277.114 61.6983 277.177 61.7035 277.24 61.7123C294.244 63.0072 311.194 63.7107 328.081 63.7369C344.98 63.7632 361.935 63.1157 378.946 61.7105ZM329.087 18.013C329.382 18.9474 330.247 19.5442 331.176 19.5442L334.543 19.5372L331.79 21.5601C330.978 22.1551 330.695 23.2015 331.029 24.0992L332.037 27.2299L329.388 25.2665C328.579 24.668 327.496 24.7065 326.737 25.2927L324.122 27.2299L325.162 24.003C325.457 23.079 325.111 22.1043 324.369 21.5618L321.616 19.5372L324.983 19.5442C325.989 19.5442 326.836 18.867 327.095 17.9447L328.079 14.8491L329.087 18.013ZM330.175 6.95867L332.779 15.1536L341.254 15.1378C342.465 15.1378 343.447 16.1196 343.447 17.3305C343.447 18.0567 343.093 18.7007 342.551 19.0997V19.1032L335.665 24.1675L338.312 32.3922C338.683 33.5471 338.048 34.7826 336.893 35.1536C336.186 35.3811 335.448 35.2306 334.897 34.8141L328.081 29.762L321.247 34.8263C320.272 35.549 318.899 35.3443 318.176 34.3696C317.738 33.7799 317.64 33.0414 317.849 32.3904C318.722 29.6465 319.614 26.9061 320.496 24.1657L313.609 19.1014C312.63 18.384 312.419 17.0085 313.136 16.0303C313.595 15.4056 314.321 15.0941 315.04 15.1361L323.384 15.1518L325.991 6.94292C326.357 5.78796 327.589 5.14924 328.744 5.51498C329.454 5.74072 329.97 6.29369 330.175 6.95517V6.95867ZM274.277 46.7993C274.4 46.5964 274.547 46.4091 274.715 46.2411C275.331 45.6252 276.22 45.2227 277.207 45.1107C294.522 43.1647 311.481 42.1375 328.326 42.1113C345.16 42.085 361.95 43.058 378.939 45.1107C379.938 45.2314 380.836 45.6374 381.455 46.2569C381.959 46.7609 382.272 47.4258 382.272 48.2028C382.272 48.9903 381.954 49.6727 381.441 50.1855C380.857 50.7699 380.034 51.1584 379.117 51.2774C379.011 51.2809 378.907 51.2932 378.806 51.3107C362.369 52.9591 345.706 53.7518 328.956 53.7518C311.705 53.7518 294.461 52.9136 277.364 51.3124C277.25 51.2914 277.135 51.2792 277.016 51.2774C276.116 51.1619 275.308 50.7769 274.729 50.1977C274.212 49.6815 273.892 48.9938 273.892 48.201C273.892 47.7391 274.002 47.3138 274.198 46.9376C274.226 46.8921 274.253 46.8466 274.277 46.7993Z" fill="white"/>
<path d="M146.408 157.32C147.112 157.672 147.512 158.216 147.608 158.952C147.736 159.688 147.56 160.36 147.08 160.968C146.728 161.448 146.264 161.72 145.688 161.784C145.144 161.848 144.6 161.736 144.056 161.448C143.128 160.968 142.152 160.584 141.128 160.296C140.104 160.008 139.016 159.864 137.864 159.864C136.04 159.864 134.392 160.168 132.92 160.776C131.48 161.352 130.232 162.2 129.176 163.32C128.12 164.408 127.304 165.704 126.728 167.208C126.184 168.712 125.912 170.376 125.912 172.2C125.912 174.216 126.216 176.008 126.824 177.576C127.432 179.112 128.264 180.424 129.32 181.512C130.408 182.568 131.672 183.368 133.112 183.912C134.584 184.424 136.168 184.68 137.864 184.68C138.952 184.68 140.008 184.552 141.032 184.296C142.088 184.04 143.08 183.656 144.008 183.144C144.584 182.856 145.144 182.76 145.688 182.856C146.264 182.92 146.728 183.192 147.08 183.672C147.624 184.344 147.816 185.032 147.656 185.736C147.528 186.408 147.128 186.92 146.456 187.272C145.656 187.72 144.776 188.104 143.816 188.424C142.856 188.744 141.88 189 140.888 189.192C139.896 189.384 138.888 189.48 137.864 189.48C135.56 189.48 133.384 189.096 131.336 188.328C129.288 187.56 127.464 186.44 125.864 184.968C124.264 183.496 123 181.688 122.072 179.544C121.176 177.4 120.728 174.952 120.728 172.2C120.728 169.736 121.144 167.464 121.976 165.384C122.84 163.272 124.04 161.464 125.576 159.96C127.144 158.424 128.968 157.24 131.048 156.408C133.128 155.544 135.4 155.112 137.864 155.112C139.4 155.112 140.888 155.304 142.328 155.688C143.8 156.072 145.16 156.616 146.408 157.32ZM173.228 163.368C173.932 163.368 174.508 163.608 174.956 164.088C175.404 164.536 175.628 165.112 175.628 165.816V186.552C175.628 187.256 175.404 187.848 174.956 188.328C174.508 188.776 173.932 189 173.228 189C172.556 189 171.98 188.776 171.5 188.328C171.052 187.848 170.828 187.256 170.828 186.552V183.096L171.836 183.24C171.836 183.816 171.596 184.456 171.116 185.16C170.668 185.864 170.044 186.552 169.244 187.224C168.444 187.864 167.5 188.408 166.412 188.856C165.324 189.272 164.156 189.48 162.908 189.48C160.7 189.48 158.716 188.92 156.956 187.8C155.196 186.648 153.804 185.08 152.78 183.096C151.756 181.112 151.244 178.856 151.244 176.328C151.244 173.736 151.756 171.464 152.78 169.512C153.804 167.528 155.18 165.976 156.908 164.856C158.668 163.736 160.62 163.176 162.764 163.176C164.14 163.176 165.404 163.4 166.556 163.848C167.74 164.296 168.764 164.872 169.628 165.576C170.492 166.28 171.148 167.032 171.596 167.832C172.076 168.6 172.316 169.336 172.316 170.04L170.828 170.184V165.816C170.828 165.144 171.052 164.568 171.5 164.088C171.98 163.608 172.556 163.368 173.228 163.368ZM163.436 185.064C164.94 185.064 166.268 184.68 167.42 183.912C168.572 183.144 169.468 182.104 170.108 180.792C170.748 179.448 171.068 177.96 171.068 176.328C171.068 174.664 170.748 173.176 170.108 171.864C169.468 170.552 168.572 169.512 167.42 168.744C166.268 167.976 164.94 167.592 163.436 167.592C161.964 167.592 160.652 167.976 159.5 168.744C158.38 169.512 157.484 170.552 156.812 171.864C156.172 173.176 155.852 174.664 155.852 176.328C155.852 177.96 156.172 179.448 156.812 180.792C157.484 182.104 158.38 183.144 159.5 183.912C160.652 184.68 161.964 185.064 163.436 185.064ZM195.072 163.32C197.312 163.32 199.296 163.88 201.024 165C202.784 166.12 204.176 167.656 205.2 169.608C206.224 171.528 206.736 173.768 206.736 176.328C206.736 178.888 206.224 181.16 205.2 183.144C204.176 185.096 202.8 186.632 201.072 187.752C199.344 188.872 197.392 189.432 195.216 189.432C194 189.432 192.848 189.24 191.76 188.856C190.672 188.472 189.712 187.976 188.88 187.368C188.048 186.728 187.36 186.056 186.816 185.352C186.304 184.648 185.984 183.992 185.856 183.384L187.152 182.76V196.152C187.152 196.856 186.912 197.432 186.432 197.88C185.984 198.36 185.424 198.6 184.752 198.6C184.048 198.6 183.472 198.36 183.024 197.88C182.576 197.432 182.352 196.856 182.352 196.152V166.104C182.352 165.432 182.576 164.856 183.024 164.376C183.472 163.896 184.048 163.656 184.752 163.656C185.424 163.656 185.984 163.896 186.432 164.376C186.912 164.856 187.152 165.432 187.152 166.104V169.416L186.384 168.984C186.48 168.376 186.784 167.752 187.296 167.112C187.808 166.44 188.448 165.816 189.216 165.24C190.016 164.664 190.912 164.2 191.904 163.848C192.928 163.496 193.984 163.32 195.072 163.32ZM194.544 167.736C193.008 167.736 191.664 168.12 190.512 168.888C189.392 169.624 188.512 170.632 187.872 171.912C187.232 173.192 186.912 174.664 186.912 176.328C186.912 177.96 187.232 179.448 187.872 180.792C188.512 182.104 189.392 183.144 190.512 183.912C191.664 184.648 193.008 185.016 194.544 185.016C196.048 185.016 197.36 184.648 198.48 183.912C199.6 183.144 200.48 182.104 201.12 180.792C201.792 179.448 202.128 177.96 202.128 176.328C202.128 174.696 201.792 173.24 201.12 171.96C200.48 170.648 199.6 169.624 198.48 168.888C197.36 168.12 196.048 167.736 194.544 167.736ZM211.829 164.04H223.109C223.749 164.04 224.277 164.264 224.693 164.712C225.141 165.128 225.365 165.656 225.365 166.296C225.365 166.904 225.141 167.416 224.693 167.832C224.277 168.248 223.749 168.456 223.109 168.456H211.829C211.189 168.456 210.645 168.248 210.197 167.832C209.781 167.384 209.573 166.856 209.573 166.248C209.573 165.608 209.781 165.08 210.197 164.664C210.645 164.248 211.189 164.04 211.829 164.04ZM216.869 157.8C217.573 157.8 218.149 158.04 218.597 158.52C219.045 158.968 219.269 159.544 219.269 160.248V182.52C219.269 183.096 219.365 183.56 219.557 183.912C219.749 184.264 220.005 184.504 220.325 184.632C220.677 184.76 221.029 184.824 221.381 184.824C221.733 184.824 222.037 184.76 222.293 184.632C222.581 184.504 222.917 184.44 223.301 184.44C223.685 184.44 224.037 184.616 224.357 184.968C224.677 185.32 224.837 185.8 224.837 186.408C224.837 187.176 224.421 187.8 223.589 188.28C222.757 188.76 221.861 189 220.901 189C220.357 189 219.717 188.952 218.981 188.856C218.245 188.76 217.525 188.52 216.821 188.136C216.149 187.752 215.589 187.144 215.141 186.312C214.693 185.448 214.469 184.248 214.469 182.712V160.248C214.469 159.544 214.693 158.968 215.141 158.52C215.621 158.04 216.197 157.8 216.869 157.8ZM251.368 163.368C252.072 163.368 252.648 163.608 253.096 164.088C253.544 164.536 253.768 165.112 253.768 165.816V186.552C253.768 187.256 253.544 187.848 253.096 188.328C252.648 188.776 252.072 189 251.368 189C250.696 189 250.12 188.776 249.64 188.328C249.192 187.848 248.968 187.256 248.968 186.552V183.096L249.976 183.24C249.976 183.816 249.736 184.456 249.256 185.16C248.808 185.864 248.184 186.552 247.384 187.224C246.584 187.864 245.64 188.408 244.552 188.856C243.464 189.272 242.296 189.48 241.048 189.48C238.84 189.48 236.856 188.92 235.096 187.8C233.336 186.648 231.944 185.08 230.92 183.096C229.896 181.112 229.384 178.856 229.384 176.328C229.384 173.736 229.896 171.464 230.92 169.512C231.944 167.528 233.32 165.976 235.048 164.856C236.808 163.736 238.76 163.176 240.904 163.176C242.28 163.176 243.544 163.4 244.696 163.848C245.88 164.296 246.904 164.872 247.768 165.576C248.632 166.28 249.288 167.032 249.736 167.832C250.216 168.6 250.456 169.336 250.456 170.04L248.968 170.184V165.816C248.968 165.144 249.192 164.568 249.64 164.088C250.12 163.608 250.696 163.368 251.368 163.368ZM241.576 185.064C243.08 185.064 244.408 184.68 245.56 183.912C246.712 183.144 247.608 182.104 248.248 180.792C248.888 179.448 249.208 177.96 249.208 176.328C249.208 174.664 248.888 173.176 248.248 171.864C247.608 170.552 246.712 169.512 245.56 168.744C244.408 167.976 243.08 167.592 241.576 167.592C240.104 167.592 238.792 167.976 237.64 168.744C236.52 169.512 235.624 170.552 234.952 171.864C234.312 173.176 233.992 174.664 233.992 176.328C233.992 177.96 234.312 179.448 234.952 180.792C235.624 182.104 236.52 183.144 237.64 183.912C238.792 184.68 240.104 185.064 241.576 185.064ZM265.005 186.552C265.005 187.256 264.781 187.848 264.333 188.328C263.885 188.776 263.309 189 262.605 189C261.933 189 261.357 188.776 260.877 188.328C260.429 187.848 260.205 187.256 260.205 186.552V166.008C260.205 165.304 260.429 164.728 260.877 164.28C261.357 163.8 261.933 163.56 262.605 163.56C263.309 163.56 263.885 163.8 264.333 164.28C264.781 164.728 265.005 165.304 265.005 166.008V186.552ZM262.557 160.392C261.629 160.392 260.957 160.232 260.541 159.912C260.125 159.56 259.917 158.984 259.917 158.184V157.416C259.917 156.616 260.141 156.056 260.589 155.736C261.037 155.416 261.709 155.256 262.605 155.256C263.565 155.256 264.253 155.432 264.669 155.784C265.085 156.104 265.293 156.648 265.293 157.416V158.184C265.293 159.016 265.069 159.592 264.621 159.912C264.205 160.232 263.517 160.392 262.557 160.392ZM284.47 163.176C286.742 163.176 288.502 163.656 289.75 164.616C290.998 165.544 291.862 166.808 292.342 168.408C292.854 169.976 293.11 171.736 293.11 173.688V186.552C293.11 187.256 292.87 187.848 292.39 188.328C291.942 188.776 291.382 189 290.71 189C290.006 189 289.43 188.776 288.982 188.328C288.534 187.848 288.31 187.256 288.31 186.552V173.736C288.31 172.584 288.15 171.56 287.83 170.664C287.51 169.736 286.95 169 286.15 168.456C285.382 167.88 284.294 167.592 282.886 167.592C281.574 167.592 280.422 167.88 279.43 168.456C278.438 169 277.654 169.736 277.078 170.664C276.534 171.56 276.262 172.584 276.262 173.736V186.552C276.262 187.256 276.022 187.848 275.542 188.328C275.094 188.776 274.534 189 273.862 189C273.158 189 272.582 188.776 272.134 188.328C271.686 187.848 271.462 187.256 271.462 186.552V166.2C271.462 165.496 271.686 164.92 272.134 164.472C272.582 163.992 273.158 163.752 273.862 163.752C274.534 163.752 275.094 163.992 275.542 164.472C276.022 164.92 276.262 165.496 276.262 166.2V168.888L275.398 169.368C275.622 168.664 276.006 167.96 276.55 167.256C277.126 166.52 277.814 165.848 278.614 165.24C279.414 164.6 280.31 164.104 281.302 163.752C282.294 163.368 283.35 163.176 284.47 163.176ZM331.901 163.56C332.605 163.56 333.181 163.8 333.629 164.28C334.077 164.728 334.301 165.304 334.301 166.008V186.648C334.301 189.464 333.757 191.752 332.669 193.512C331.613 195.272 330.173 196.552 328.349 197.352C326.557 198.184 324.525 198.6 322.253 198.6C321.101 198.6 319.949 198.488 318.797 198.264C317.645 198.072 316.701 197.784 315.965 197.4C315.197 197.048 314.653 196.616 314.333 196.104C314.013 195.592 313.965 195.032 314.189 194.424C314.413 193.656 314.797 193.128 315.341 192.84C315.885 192.584 316.445 192.568 317.021 192.792C317.565 193.016 318.285 193.304 319.181 193.656C320.077 194.008 321.101 194.184 322.253 194.184C323.821 194.184 325.149 193.928 326.237 193.416C327.325 192.904 328.141 192.104 328.685 191.016C329.261 189.928 329.549 188.52 329.549 186.792V183.48L330.317 184.632C329.805 185.688 329.133 186.568 328.301 187.272C327.469 187.976 326.477 188.52 325.325 188.904C324.205 189.288 322.957 189.48 321.581 189.48C319.821 189.48 318.301 189.096 317.021 188.328C315.773 187.528 314.813 186.44 314.141 185.064C313.469 183.656 313.133 182.056 313.133 180.264V166.008C313.133 165.304 313.357 164.728 313.805 164.28C314.253 163.8 314.829 163.56 315.533 163.56C316.205 163.56 316.765 163.8 317.213 164.28C317.693 164.728 317.933 165.304 317.933 166.008V178.968C317.933 181.08 318.397 182.632 319.325 183.624C320.253 184.584 321.629 185.064 323.453 185.064C324.669 185.064 325.725 184.808 326.621 184.296C327.517 183.784 328.221 183.08 328.733 182.184C329.245 181.256 329.501 180.184 329.501 178.968V166.008C329.501 165.304 329.725 164.728 330.173 164.28C330.653 163.8 331.229 163.56 331.901 163.56ZM364.982 176.376C364.982 178.936 364.422 181.208 363.302 183.192C362.182 185.144 360.662 186.68 358.742 187.8C356.822 188.92 354.662 189.48 352.262 189.48C349.862 189.48 347.702 188.92 345.782 187.8C343.862 186.68 342.326 185.144 341.174 183.192C340.054 181.208 339.494 178.936 339.494 176.376C339.494 173.784 340.054 171.512 341.174 169.56C342.326 167.576 343.862 166.024 345.782 164.904C347.702 163.752 349.862 163.176 352.262 163.176C354.662 163.176 356.822 163.752 358.742 164.904C360.662 166.024 362.182 167.576 363.302 169.56C364.422 171.512 364.982 173.784 364.982 176.376ZM360.182 176.376C360.182 174.616 359.83 173.096 359.126 171.816C358.422 170.504 357.462 169.48 356.246 168.744C355.062 167.976 353.734 167.592 352.262 167.592C350.79 167.592 349.446 167.976 348.23 168.744C347.014 169.48 346.054 170.504 345.35 171.816C344.646 173.096 344.294 174.616 344.294 176.376C344.294 178.072 344.646 179.576 345.35 180.888C346.054 182.2 347.014 183.224 348.23 183.96C349.446 184.696 350.79 185.064 352.262 185.064C353.734 185.064 355.062 184.696 356.246 183.96C357.462 183.224 358.422 182.2 359.126 180.888C359.83 179.576 360.182 178.072 360.182 176.376ZM389.231 163.752C389.903 163.752 390.463 163.992 390.911 164.472C391.391 164.92 391.631 165.496 391.631 166.2V178.824C391.631 182.152 390.703 184.76 388.847 186.648C386.991 188.504 384.367 189.432 380.975 189.432C377.615 189.432 375.007 188.504 373.151 186.648C371.327 184.76 370.415 182.152 370.415 178.824V166.2C370.415 165.496 370.639 164.92 371.087 164.472C371.535 163.992 372.111 163.752 372.815 163.752C373.487 163.752 374.047 163.992 374.495 164.472C374.975 164.92 375.215 165.496 375.215 166.2V178.824C375.215 180.904 375.695 182.456 376.655 183.48C377.647 184.504 379.087 185.016 380.975 185.016C382.895 185.016 384.351 184.504 385.343 183.48C386.335 182.456 386.831 180.904 386.831 178.824V166.2C386.831 165.496 387.055 164.92 387.503 164.472C387.951 163.992 388.527 163.752 389.231 163.752ZM400.705 189C400.001 189 399.425 188.776 398.977 188.328C398.529 187.848 398.305 187.256 398.305 186.552V166.2C398.305 165.496 398.529 164.92 398.977 164.472C399.425 163.992 400.001 163.752 400.705 163.752C401.377 163.752 401.937 163.992 402.385 164.472C402.865 164.92 403.105 165.496 403.105 166.2V171.576L402.625 169.512C402.881 168.616 403.265 167.784 403.777 167.016C404.321 166.248 404.961 165.576 405.697 165C406.433 164.424 407.249 163.976 408.145 163.656C409.073 163.336 410.033 163.176 411.025 163.176C411.857 163.176 412.577 163.4 413.185 163.848C413.793 164.296 414.097 164.856 414.097 165.528C414.097 166.392 413.873 167.032 413.425 167.448C412.977 167.832 412.481 168.024 411.937 168.024C411.457 168.024 410.993 167.928 410.545 167.736C410.097 167.512 409.569 167.4 408.961 167.4C408.289 167.4 407.601 167.576 406.897 167.928C406.193 168.28 405.553 168.808 404.977 169.512C404.401 170.184 403.937 170.984 403.585 171.912C403.265 172.84 403.105 173.88 403.105 175.032V186.552C403.105 187.256 402.865 187.848 402.385 188.328C401.937 188.776 401.377 189 400.705 189ZM434.799 189C434.031 189 433.407 188.776 432.927 188.328C432.479 187.848 432.255 187.256 432.255 186.552V157.848C432.255 157.144 432.495 156.568 432.975 156.12C433.455 155.64 434.031 155.4 434.703 155.4H450.927C451.631 155.4 452.207 155.624 452.655 156.072C453.135 156.52 453.375 157.08 453.375 157.752C453.375 158.36 453.135 158.888 452.655 159.336C452.207 159.784 451.631 160.008 450.927 160.008H436.911L437.247 159.528V170.232L436.959 169.656H448.767C449.471 169.656 450.047 169.88 450.495 170.328C450.975 170.776 451.215 171.336 451.215 172.008C451.215 172.616 450.975 173.144 450.495 173.592C450.047 174.04 449.471 174.264 448.767 174.264H436.863L437.247 173.88V186.552C437.247 187.256 437.007 187.848 436.527 188.328C436.047 188.776 435.471 189 434.799 189ZM478.525 163.368C479.229 163.368 479.805 163.608 480.253 164.088C480.701 164.536 480.925 165.112 480.925 165.816V186.552C480.925 187.256 480.701 187.848 480.253 188.328C479.805 188.776 479.229 189 478.525 189C477.853 189 477.277 188.776 476.797 188.328C476.349 187.848 476.125 187.256 476.125 186.552V183.096L477.133 183.24C477.133 183.816 476.893 184.456 476.413 185.16C475.965 185.864 475.341 186.552 474.541 187.224C473.741 187.864 472.797 188.408 471.709 188.856C470.621 189.272 469.453 189.48 468.205 189.48C465.997 189.48 464.013 188.92 462.253 187.8C460.493 186.648 459.101 185.08 458.077 183.096C457.053 181.112 456.541 178.856 456.541 176.328C456.541 173.736 457.053 171.464 458.077 169.512C459.101 167.528 460.477 165.976 462.205 164.856C463.965 163.736 465.917 163.176 468.061 163.176C469.437 163.176 470.701 163.4 471.853 163.848C473.037 164.296 474.061 164.872 474.925 165.576C475.789 166.28 476.445 167.032 476.893 167.832C477.373 168.6 477.613 169.336 477.613 170.04L476.125 170.184V165.816C476.125 165.144 476.349 164.568 476.797 164.088C477.277 163.608 477.853 163.368 478.525 163.368ZM468.733 185.064C470.237 185.064 471.565 184.68 472.717 183.912C473.869 183.144 474.765 182.104 475.405 180.792C476.045 179.448 476.365 177.96 476.365 176.328C476.365 174.664 476.045 173.176 475.405 171.864C474.765 170.552 473.869 169.512 472.717 168.744C471.565 167.976 470.237 167.592 468.733 167.592C467.261 167.592 465.949 167.976 464.797 168.744C463.677 169.512 462.781 170.552 462.109 171.864C461.469 173.176 461.149 174.664 461.149 176.328C461.149 177.96 461.469 179.448 462.109 180.792C462.781 182.104 463.677 183.144 464.797 183.912C465.949 184.68 467.261 185.064 468.733 185.064ZM487.313 164.04H498.593C499.233 164.04 499.761 164.264 500.177 164.712C500.625 165.128 500.849 165.656 500.849 166.296C500.849 166.904 500.625 167.416 500.177 167.832C499.761 168.248 499.233 168.456 498.593 168.456H487.313C486.673 168.456 486.129 168.248 485.681 167.832C485.265 167.384 485.057 166.856 485.057 166.248C485.057 165.608 485.265 165.08 485.681 164.664C486.129 164.248 486.673 164.04 487.313 164.04ZM492.353 157.8C493.057 157.8 493.633 158.04 494.081 158.52C494.529 158.968 494.753 159.544 494.753 160.248V182.52C494.753 183.096 494.849 183.56 495.041 183.912C495.233 184.264 495.489 184.504 495.809 184.632C496.161 184.76 496.513 184.824 496.865 184.824C497.217 184.824 497.521 184.76 497.777 184.632C498.065 184.504 498.401 184.44 498.785 184.44C499.169 184.44 499.521 184.616 499.841 184.968C500.161 185.32 500.321 185.8 500.321 186.408C500.321 187.176 499.905 187.8 499.073 188.28C498.241 188.76 497.345 189 496.385 189C495.841 189 495.201 188.952 494.465 188.856C493.729 188.76 493.009 188.52 492.305 188.136C491.633 187.752 491.073 187.144 490.625 186.312C490.177 185.448 489.953 184.248 489.953 182.712V160.248C489.953 159.544 490.177 158.968 490.625 158.52C491.105 158.04 491.681 157.8 492.353 157.8ZM517.69 189.48C515.034 189.48 512.73 188.936 510.778 187.848C508.826 186.728 507.306 185.208 506.218 183.288C505.162 181.336 504.634 179.112 504.634 176.616C504.634 173.8 505.194 171.4 506.314 169.416C507.466 167.4 508.954 165.864 510.778 164.808C512.602 163.72 514.538 163.176 516.586 163.176C518.154 163.176 519.642 163.496 521.05 164.136C522.458 164.744 523.706 165.608 524.794 166.728C525.914 167.816 526.794 169.112 527.434 170.616C528.074 172.088 528.41 173.704 528.442 175.464C528.41 176.104 528.154 176.632 527.674 177.048C527.194 177.464 526.634 177.672 525.994 177.672H507.322L506.17 173.592H524.218L523.306 174.456V173.256C523.242 172.136 522.874 171.16 522.202 170.328C521.53 169.464 520.698 168.808 519.706 168.36C518.714 167.88 517.674 167.64 516.586 167.64C515.626 167.64 514.698 167.8 513.802 168.12C512.938 168.408 512.154 168.888 511.45 169.56C510.778 170.232 510.234 171.128 509.818 172.248C509.434 173.336 509.242 174.696 509.242 176.328C509.242 178.088 509.61 179.624 510.346 180.936C511.082 182.248 512.074 183.272 513.322 184.008C514.57 184.712 515.946 185.064 517.45 185.064C518.634 185.064 519.61 184.952 520.378 184.728C521.146 184.472 521.786 184.168 522.298 183.816C522.81 183.464 523.258 183.128 523.642 182.808C524.122 182.52 524.602 182.376 525.082 182.376C525.658 182.376 526.138 182.584 526.522 183C526.906 183.384 527.098 183.848 527.098 184.392C527.098 185.096 526.746 185.736 526.042 186.312C525.178 187.144 523.978 187.88 522.442 188.52C520.938 189.16 519.354 189.48 517.69 189.48ZM535.692 188.952C534.892 188.952 534.268 188.728 533.82 188.28C533.404 187.832 533.196 187.208 533.196 186.408V185.544C533.196 184.744 533.404 184.12 533.82 183.672C534.268 183.224 534.892 183 535.692 183H536.22C537.02 183 537.628 183.224 538.044 183.672C538.46 184.12 538.668 184.744 538.668 185.544V186.408C538.668 187.208 538.46 187.832 538.044 188.28C537.628 188.728 537.02 188.952 536.22 188.952H535.692ZM204.527 247.48C202.095 247.48 199.823 247.048 197.711 246.184C195.599 245.288 193.743 244.056 192.143 242.488C190.575 240.888 189.343 239.048 188.447 236.968C187.551 234.888 187.103 232.632 187.103 230.2C187.103 227.768 187.551 225.512 188.447 223.432C189.343 221.352 190.575 219.528 192.143 217.96C193.743 216.36 195.599 215.128 197.711 214.264C199.823 213.368 202.095 212.92 204.527 212.92C206.095 212.92 207.615 213.096 209.087 213.448C210.559 213.8 211.887 214.312 213.071 214.984C213.487 215.208 213.791 215.512 213.983 215.896C214.175 216.248 214.271 216.6 214.271 216.952C214.271 217.624 214.047 218.216 213.599 218.728C213.183 219.208 212.655 219.448 212.015 219.448C211.791 219.448 211.551 219.416 211.295 219.352C211.071 219.288 210.863 219.208 210.671 219.112C209.775 218.664 208.815 218.328 207.791 218.104C206.767 217.848 205.679 217.72 204.527 217.72C202.223 217.72 200.143 218.28 198.287 219.4C196.431 220.488 194.959 221.976 193.871 223.864C192.815 225.752 192.287 227.864 192.287 230.2C192.287 232.504 192.815 234.616 193.871 236.536C194.959 238.424 196.431 239.928 198.287 241.048C200.143 242.136 202.223 242.68 204.527 242.68C205.647 242.68 206.831 242.552 208.079 242.296C209.327 242.008 210.383 241.64 211.247 241.192L210.863 242.488V233.368L211.631 234.04H205.343C204.639 234.04 204.047 233.816 203.567 233.368C203.119 232.92 202.895 232.344 202.895 231.64C202.895 230.936 203.119 230.36 203.567 229.912C204.047 229.464 204.639 229.24 205.343 229.24H213.647C214.319 229.24 214.879 229.48 215.327 229.96C215.807 230.408 216.047 230.984 216.047 231.688V242.344C216.047 242.856 215.919 243.288 215.663 243.64C215.407 243.992 215.119 244.28 214.799 244.504C213.359 245.4 211.759 246.12 209.999 246.664C208.271 247.208 206.447 247.48 204.527 247.48ZM233.581 247.48C230.925 247.48 228.621 246.936 226.669 245.848C224.717 244.728 223.197 243.208 222.109 241.288C221.053 239.336 220.525 237.112 220.525 234.616C220.525 231.8 221.085 229.4 222.205 227.416C223.357 225.4 224.845 223.864 226.669 222.808C228.493 221.72 230.429 221.176 232.477 221.176C234.045 221.176 235.533 221.496 236.941 222.136C238.349 222.744 239.597 223.608 240.685 224.728C241.805 225.816 242.685 227.112 243.325 228.616C243.965 230.088 244.301 231.704 244.333 233.464C244.301 234.104 244.045 234.632 243.565 235.048C243.085 235.464 242.525 235.672 241.885 235.672H223.213L222.061 231.592H240.109L239.197 232.456V231.256C239.133 230.136 238.765 229.16 238.093 228.328C237.421 227.464 236.589 226.808 235.597 226.36C234.605 225.88 233.565 225.64 232.477 225.64C231.517 225.64 230.589 225.8 229.693 226.12C228.829 226.408 228.045 226.888 227.341 227.56C226.669 228.232 226.125 229.128 225.709 230.248C225.325 231.336 225.133 232.696 225.133 234.328C225.133 236.088 225.501 237.624 226.237 238.936C226.973 240.248 227.965 241.272 229.213 242.008C230.461 242.712 231.837 243.064 233.341 243.064C234.525 243.064 235.501 242.952 236.269 242.728C237.037 242.472 237.677 242.168 238.189 241.816C238.701 241.464 239.149 241.128 239.533 240.808C240.013 240.52 240.493 240.376 240.973 240.376C241.549 240.376 242.029 240.584 242.413 241C242.797 241.384 242.989 241.848 242.989 242.392C242.989 243.096 242.637 243.736 241.933 244.312C241.069 245.144 239.869 245.88 238.333 246.52C236.829 247.16 235.245 247.48 233.581 247.48ZM249.422 222.04H260.702C261.342 222.04 261.87 222.264 262.286 222.712C262.734 223.128 262.958 223.656 262.958 224.296C262.958 224.904 262.734 225.416 262.286 225.832C261.87 226.248 261.342 226.456 260.702 226.456H249.422C248.782 226.456 248.238 226.248 247.79 225.832C247.374 225.384 247.166 224.856 247.166 224.248C247.166 223.608 247.374 223.08 247.79 222.664C248.238 222.248 248.782 222.04 249.422 222.04ZM254.462 215.8C255.166 215.8 255.742 216.04 256.19 216.52C256.638 216.968 256.862 217.544 256.862 218.248V240.52C256.862 241.096 256.958 241.56 257.15 241.912C257.342 242.264 257.598 242.504 257.918 242.632C258.27 242.76 258.622 242.824 258.974 242.824C259.326 242.824 259.63 242.76 259.886 242.632C260.174 242.504 260.51 242.44 260.894 242.44C261.278 242.44 261.63 242.616 261.95 242.968C262.27 243.32 262.43 243.8 262.43 244.408C262.43 245.176 262.014 245.8 261.182 246.28C260.35 246.76 259.454 247 258.494 247C257.95 247 257.31 246.952 256.574 246.856C255.838 246.76 255.118 246.52 254.414 246.136C253.742 245.752 253.182 245.144 252.734 244.312C252.286 243.448 252.062 242.248 252.062 240.712V218.248C252.062 217.544 252.286 216.968 252.734 216.52C253.214 216.04 253.79 215.8 254.462 215.8ZM302.321 221.368C303.025 221.368 303.601 221.608 304.049 222.088C304.497 222.536 304.721 223.112 304.721 223.816V244.552C304.721 245.256 304.497 245.848 304.049 246.328C303.601 246.776 303.025 247 302.321 247C301.649 247 301.073 246.776 300.593 246.328C300.145 245.848 299.921 245.256 299.921 244.552V241.096L300.929 241.24C300.929 241.816 300.689 242.456 300.209 243.16C299.761 243.864 299.137 244.552 298.337 245.224C297.537 245.864 296.593 246.408 295.505 246.856C294.417 247.272 293.249 247.48 292.001 247.48C289.793 247.48 287.809 246.92 286.049 245.8C284.289 244.648 282.897 243.08 281.873 241.096C280.849 239.112 280.337 236.856 280.337 234.328C280.337 231.736 280.849 229.464 281.873 227.512C282.897 225.528 284.273 223.976 286.001 222.856C287.761 221.736 289.713 221.176 291.857 221.176C293.233 221.176 294.497 221.4 295.649 221.848C296.833 222.296 297.857 222.872 298.721 223.576C299.585 224.28 300.241 225.032 300.689 225.832C301.169 226.6 301.409 227.336 301.409 228.04L299.921 228.184V223.816C299.921 223.144 300.145 222.568 300.593 222.088C301.073 221.608 301.649 221.368 302.321 221.368ZM292.529 243.064C294.033 243.064 295.361 242.68 296.513 241.912C297.665 241.144 298.561 240.104 299.201 238.792C299.841 237.448 300.161 235.96 300.161 234.328C300.161 232.664 299.841 231.176 299.201 229.864C298.561 228.552 297.665 227.512 296.513 226.744C295.361 225.976 294.033 225.592 292.529 225.592C291.057 225.592 289.745 225.976 288.593 226.744C287.473 227.512 286.577 228.552 285.905 229.864C285.265 231.176 284.945 232.664 284.945 234.328C284.945 235.96 285.265 237.448 285.905 238.792C286.577 240.104 287.473 241.144 288.593 241.912C289.745 242.68 291.057 243.064 292.529 243.064ZM349.189 215.32C349.893 215.672 350.293 216.216 350.389 216.952C350.517 217.688 350.341 218.36 349.861 218.968C349.509 219.448 349.045 219.72 348.469 219.784C347.925 219.848 347.381 219.736 346.837 219.448C345.909 218.968 344.933 218.584 343.909 218.296C342.885 218.008 341.797 217.864 340.645 217.864C338.821 217.864 337.173 218.168 335.701 218.776C334.261 219.352 333.013 220.2 331.957 221.32C330.901 222.408 330.085 223.704 329.509 225.208C328.965 226.712 328.693 228.376 328.693 230.2C328.693 232.216 328.997 234.008 329.605 235.576C330.213 237.112 331.045 238.424 332.101 239.512C333.189 240.568 334.453 241.368 335.893 241.912C337.365 242.424 338.949 242.68 340.645 242.68C341.733 242.68 342.789 242.552 343.813 242.296C344.869 242.04 345.861 241.656 346.789 241.144C347.365 240.856 347.925 240.76 348.469 240.856C349.045 240.92 349.509 241.192 349.861 241.672C350.405 242.344 350.597 243.032 350.437 243.736C350.309 244.408 349.909 244.92 349.237 245.272C348.437 245.72 347.557 246.104 346.597 246.424C345.637 246.744 344.661 247 343.669 247.192C342.677 247.384 341.669 247.48 340.645 247.48C338.341 247.48 336.165 247.096 334.117 246.328C332.069 245.56 330.245 244.44 328.645 242.968C327.045 241.496 325.781 239.688 324.853 237.544C323.957 235.4 323.509 232.952 323.509 230.2C323.509 227.736 323.925 225.464 324.757 223.384C325.621 221.272 326.821 219.464 328.357 217.96C329.925 216.424 331.749 215.24 333.829 214.408C335.909 213.544 338.181 213.112 340.645 213.112C342.181 213.112 343.669 213.304 345.109 213.688C346.581 214.072 347.941 214.616 349.189 215.32ZM379.513 234.376C379.513 236.936 378.953 239.208 377.833 241.192C376.713 243.144 375.193 244.68 373.273 245.8C371.353 246.92 369.193 247.48 366.793 247.48C364.393 247.48 362.233 246.92 360.313 245.8C358.393 244.68 356.857 243.144 355.705 241.192C354.585 239.208 354.025 236.936 354.025 234.376C354.025 231.784 354.585 229.512 355.705 227.56C356.857 225.576 358.393 224.024 360.313 222.904C362.233 221.752 364.393 221.176 366.793 221.176C369.193 221.176 371.353 221.752 373.273 222.904C375.193 224.024 376.713 225.576 377.833 227.56C378.953 229.512 379.513 231.784 379.513 234.376ZM374.713 234.376C374.713 232.616 374.361 231.096 373.657 229.816C372.953 228.504 371.993 227.48 370.777 226.744C369.593 225.976 368.265 225.592 366.793 225.592C365.321 225.592 363.977 225.976 362.761 226.744C361.545 227.48 360.585 228.504 359.881 229.816C359.177 231.096 358.825 232.616 358.825 234.376C358.825 236.072 359.177 237.576 359.881 238.888C360.585 240.2 361.545 241.224 362.761 241.96C363.977 242.696 365.321 243.064 366.793 243.064C368.265 243.064 369.593 242.696 370.777 241.96C371.993 241.224 372.953 240.2 373.657 238.888C374.361 237.576 374.713 236.072 374.713 234.376ZM405.634 221.368C406.338 221.368 406.914 221.608 407.362 222.088C407.81 222.536 408.034 223.112 408.034 223.816V244.552C408.034 245.256 407.81 245.848 407.362 246.328C406.914 246.776 406.338 247 405.634 247C404.962 247 404.386 246.776 403.906 246.328C403.458 245.848 403.234 245.256 403.234 244.552V241.096L404.242 241.24C404.242 241.816 404.002 242.456 403.522 243.16C403.074 243.864 402.45 244.552 401.65 245.224C400.85 245.864 399.906 246.408 398.818 246.856C397.73 247.272 396.562 247.48 395.314 247.48C393.106 247.48 391.122 246.92 389.362 245.8C387.602 244.648 386.21 243.08 385.186 241.096C384.162 239.112 383.65 236.856 383.65 234.328C383.65 231.736 384.162 229.464 385.186 227.512C386.21 225.528 387.586 223.976 389.314 222.856C391.074 221.736 393.026 221.176 395.17 221.176C396.546 221.176 397.81 221.4 398.962 221.848C400.146 222.296 401.17 222.872 402.034 223.576C402.898 224.28 403.554 225.032 404.002 225.832C404.482 226.6 404.722 227.336 404.722 228.04L403.234 228.184V223.816C403.234 223.144 403.458 222.568 403.906 222.088C404.386 221.608 404.962 221.368 405.634 221.368ZM395.842 243.064C397.346 243.064 398.674 242.68 399.826 241.912C400.978 241.144 401.874 240.104 402.514 238.792C403.154 237.448 403.474 235.96 403.474 234.328C403.474 232.664 403.154 231.176 402.514 229.864C401.874 228.552 400.978 227.512 399.826 226.744C398.674 225.976 397.346 225.592 395.842 225.592C394.37 225.592 393.058 225.976 391.906 226.744C390.786 227.512 389.89 228.552 389.218 229.864C388.578 231.176 388.258 232.664 388.258 234.328C388.258 235.96 388.578 237.448 389.218 238.792C389.89 240.104 390.786 241.144 391.906 241.912C393.058 242.68 394.37 243.064 395.842 243.064ZM425.942 221.176C427.67 221.176 429.206 221.368 430.55 221.752C431.894 222.104 432.934 222.616 433.67 223.288C434.438 223.928 434.822 224.68 434.822 225.544C434.822 226.088 434.662 226.6 434.342 227.08C434.022 227.528 433.542 227.752 432.902 227.752C432.454 227.752 432.07 227.672 431.75 227.512C431.462 227.352 431.19 227.16 430.934 226.936C430.678 226.712 430.358 226.488 429.974 226.264C429.622 226.072 429.094 225.912 428.39 225.784C427.718 225.656 427.11 225.592 426.566 225.592C424.87 225.592 423.398 225.976 422.15 226.744C420.934 227.512 419.974 228.552 419.27 229.864C418.598 231.176 418.262 232.664 418.262 234.328C418.262 235.992 418.598 237.48 419.27 238.792C419.974 240.104 420.918 241.144 422.102 241.912C423.318 242.68 424.726 243.064 426.326 243.064C427.286 243.064 428.07 243 428.678 242.872C429.286 242.712 429.814 242.52 430.262 242.296C430.742 242.008 431.142 241.72 431.462 241.432C431.814 241.112 432.294 240.952 432.902 240.952C433.606 240.952 434.134 241.176 434.486 241.624C434.87 242.04 435.062 242.568 435.062 243.208C435.062 243.912 434.63 244.6 433.766 245.272C432.934 245.912 431.814 246.44 430.406 246.856C428.998 247.272 427.446 247.48 425.75 247.48C423.254 247.48 421.078 246.904 419.222 245.752C417.398 244.6 415.974 243.032 414.95 241.048C413.958 239.064 413.462 236.824 413.462 234.328C413.462 231.8 413.99 229.56 415.046 227.608C416.102 225.624 417.574 224.056 419.462 222.904C421.35 221.752 423.51 221.176 425.942 221.176ZM452.369 221.32C454.577 221.32 456.289 221.8 457.505 222.76C458.721 223.688 459.569 224.952 460.049 226.552C460.561 228.152 460.817 229.912 460.817 231.832V244.552C460.817 245.256 460.577 245.848 460.097 246.328C459.649 246.776 459.089 247 458.417 247C457.713 247 457.137 246.776 456.689 246.328C456.241 245.848 456.017 245.256 456.017 244.552V231.832C456.017 230.712 455.857 229.688 455.537 228.76C455.249 227.832 454.721 227.096 453.953 226.552C453.217 226.008 452.177 225.736 450.833 225.736C449.585 225.736 448.465 226.008 447.473 226.552C446.513 227.096 445.761 227.832 445.217 228.76C444.705 229.688 444.449 230.712 444.449 231.832V244.552C444.449 245.256 444.209 245.848 443.729 246.328C443.281 246.776 442.721 247 442.049 247C441.345 247 440.769 246.776 440.321 246.328C439.873 245.848 439.649 245.256 439.649 244.552V213.928C439.649 213.224 439.873 212.648 440.321 212.2C440.769 211.72 441.345 211.48 442.049 211.48C442.721 211.48 443.281 211.72 443.729 212.2C444.209 212.648 444.449 213.224 444.449 213.928V227.032L443.585 227.512C443.809 226.808 444.177 226.088 444.689 225.352C445.233 224.616 445.889 223.944 446.657 223.336C447.457 222.728 448.337 222.248 449.297 221.896C450.257 221.512 451.281 221.32 452.369 221.32ZM469.317 246.952C468.517 246.952 467.893 246.728 467.445 246.28C467.029 245.832 466.821 245.208 466.821 244.408V243.544C466.821 242.744 467.029 242.12 467.445 241.672C467.893 241.224 468.517 241 469.317 241H469.845C470.645 241 471.253 241.224 471.669 241.672C472.085 242.12 472.293 242.744 472.293 243.544V244.408C472.293 245.208 472.085 245.832 471.669 246.28C471.253 246.728 470.645 246.952 469.845 246.952H469.317Z" fill="white"/>
</svg>
