<svg width="529" height="258" viewBox="0 0 529 258" fill="none" xmlns="http://www.w3.org/2000/svg">
<path d="M264.499 49.7216C262.142 49.7216 260.221 51.6432 260.221 54.0001C260.221 56.3636 262.142 58.2852 264.499 58.2852C266.856 58.2852 268.778 56.3636 268.778 54.0001C268.778 51.6432 266.856 49.7216 264.499 49.7216Z" fill="white"/>
<path d="M264.5 39.3634C256.432 39.3634 249.863 45.925 249.863 54C249.863 62.0749 256.432 68.6434 264.5 68.6434C272.568 68.6434 279.137 62.0751 279.137 54C279.137 45.9319 272.568 39.3634 264.5 39.3634ZM264.5 62.3028C259.927 62.3028 256.204 58.5801 256.204 54.0002C256.204 49.4271 259.927 45.7044 264.5 45.7044C269.073 45.7044 272.796 49.4272 272.796 54.0002C272.796 58.5801 269.073 62.3028 264.5 62.3028Z" fill="white"/>
<path d="M306.08 54C306.08 52.8885 306.977 51.9913 308.088 51.9913H318.5C317.462 23.7828 294.717 1.03701 266.509 0V10.4049C266.509 11.5164 265.612 12.4137 264.5 12.4137C263.388 12.4137 262.491 11.5165 262.491 10.4049V0C234.283 1.03782 211.537 23.7828 210.5 51.9913H220.912C222.023 51.9913 222.92 52.8885 222.92 54C222.92 55.1115 222.023 56.0087 220.912 56.0087H210.5C211.538 84.2172 234.283 106.963 262.491 108V97.5884C262.491 96.4769 263.388 95.5797 264.5 95.5797C265.612 95.5797 266.509 96.4769 266.509 97.5884V108C294.717 106.962 317.463 84.2172 318.5 56.0087H308.088C306.984 56.0087 306.08 55.1115 306.08 54ZM264.5 91.7302C243.696 91.7302 226.776 74.8037 226.776 54.0069C226.776 33.2031 243.696 16.2835 264.5 16.2835C285.303 16.2835 302.223 33.2033 302.223 54.0069C302.223 74.8037 285.303 91.7302 264.5 91.7302Z" fill="white"/>
<path d="M264.5 20.2943C245.913 20.2943 230.795 35.413 230.795 53.9999C230.795 72.5868 245.914 87.7054 264.5 87.7054C283.087 87.7054 298.206 72.5868 298.206 53.9999C298.206 35.4193 283.087 20.2943 264.5 20.2943ZM264.5 72.661C254.216 72.661 245.846 64.2915 245.846 53.9999C245.846 43.7154 254.216 35.3456 264.5 35.3456C274.785 35.3456 283.155 43.7151 283.155 53.9999C283.155 64.291 274.785 72.661 264.5 72.661Z" fill="white"/>
<path d="M79.3792 172.2C79.3792 174.632 78.9792 176.904 78.1792 179.016C77.3792 181.096 76.2432 182.92 74.7712 184.488C73.3312 186.056 71.6192 187.288 69.6352 188.184C67.6512 189.048 65.4752 189.48 63.1072 189.48C60.7712 189.48 58.6112 189.048 56.6272 188.184C54.6432 187.288 52.9152 186.056 51.4432 184.488C50.0032 182.92 48.8832 181.096 48.0832 179.016C47.3152 176.904 46.9312 174.632 46.9312 172.2C46.9312 169.768 47.3152 167.512 48.0832 165.432C48.8832 163.32 50.0032 161.48 51.4432 159.912C52.9152 158.344 54.6432 157.128 56.6272 156.264C58.6112 155.368 60.7712 154.92 63.1072 154.92C65.4752 154.92 67.6512 155.368 69.6352 156.264C71.6192 157.128 73.3312 158.344 74.7712 159.912C76.2432 161.48 77.3792 163.32 78.1792 165.432C78.9792 167.512 79.3792 169.768 79.3792 172.2ZM74.1952 172.2C74.1952 169.832 73.7152 167.704 72.7552 165.816C71.8272 163.928 70.5312 162.44 68.8672 161.352C67.2032 160.264 65.2832 159.72 63.1072 159.72C60.9632 159.72 59.0592 160.264 57.3952 161.352C55.7312 162.44 54.4352 163.928 53.5072 165.816C52.5792 167.672 52.1152 169.8 52.1152 172.2C52.1152 174.568 52.5792 176.696 53.5072 178.584C54.4352 180.472 55.7312 181.96 57.3952 183.048C59.0592 184.136 60.9632 184.68 63.1072 184.68C65.2832 184.68 67.2032 184.136 68.8672 183.048C70.5312 181.96 71.8272 180.472 72.7552 178.584C73.7152 176.696 74.1952 174.568 74.1952 172.2ZM97.7508 163.176C100.023 163.176 101.783 163.656 103.031 164.616C104.279 165.544 105.143 166.808 105.623 168.408C106.135 169.976 106.391 171.736 106.391 173.688V186.552C106.391 187.256 106.151 187.848 105.671 188.328C105.223 188.776 104.663 189 103.991 189C103.287 189 102.711 188.776 102.263 188.328C101.815 187.848 101.591 187.256 101.591 186.552V173.736C101.591 172.584 101.431 171.56 101.111 170.664C100.791 169.736 100.231 169 99.4308 168.456C98.6628 167.88 97.5748 167.592 96.1668 167.592C94.8548 167.592 93.7028 167.88 92.7108 168.456C91.7188 169 90.9348 169.736 90.3588 170.664C89.8148 171.56 89.5428 172.584 89.5428 173.736V186.552C89.5428 187.256 89.3028 187.848 88.8228 188.328C88.3748 188.776 87.8148 189 87.1428 189C86.4388 189 85.8628 188.776 85.4148 188.328C84.9668 187.848 84.7428 187.256 84.7428 186.552V166.2C84.7428 165.496 84.9668 164.92 85.4148 164.472C85.8628 163.992 86.4388 163.752 87.1428 163.752C87.8148 163.752 88.3748 163.992 88.8228 164.472C89.3028 164.92 89.5428 165.496 89.5428 166.2V168.888L88.6788 169.368C88.9028 168.664 89.2868 167.96 89.8308 167.256C90.4068 166.52 91.0948 165.848 91.8948 165.24C92.6948 164.6 93.5908 164.104 94.5828 163.752C95.5748 163.368 96.6308 163.176 97.7508 163.176ZM118.239 186.552C118.239 187.256 117.999 187.848 117.519 188.328C117.071 188.776 116.511 189 115.839 189C115.167 189 114.591 188.776 114.111 188.328C113.663 187.848 113.439 187.256 113.439 186.552V155.928C113.439 155.224 113.679 154.648 114.159 154.2C114.639 153.72 115.215 153.48 115.887 153.48C116.591 153.48 117.151 153.72 117.567 154.2C118.015 154.648 118.239 155.224 118.239 155.928V186.552ZM143.448 163.56C144.152 163.56 144.728 163.8 145.176 164.28C145.624 164.728 145.848 165.304 145.848 166.008V186.648C145.848 189.464 145.304 191.752 144.216 193.512C143.16 195.272 141.72 196.552 139.896 197.352C138.104 198.184 136.072 198.6 133.8 198.6C132.648 198.6 131.496 198.488 130.344 198.264C129.192 198.072 128.248 197.784 127.512 197.4C126.744 197.048 126.2 196.616 125.88 196.104C125.56 195.592 125.512 195.032 125.736 194.424C125.96 193.656 126.344 193.128 126.888 192.84C127.432 192.584 127.992 192.568 128.568 192.792C129.112 193.016 129.832 193.304 130.728 193.656C131.624 194.008 132.648 194.184 133.8 194.184C135.368 194.184 136.696 193.928 137.784 193.416C138.872 192.904 139.688 192.104 140.232 191.016C140.808 189.928 141.096 188.52 141.096 186.792V183.48L141.864 184.632C141.352 185.688 140.68 186.568 139.848 187.272C139.016 187.976 138.024 188.52 136.872 188.904C135.752 189.288 134.504 189.48 133.128 189.48C131.368 189.48 129.848 189.096 128.568 188.328C127.32 187.528 126.36 186.44 125.688 185.064C125.016 183.656 124.68 182.056 124.68 180.264V166.008C124.68 165.304 124.904 164.728 125.352 164.28C125.8 163.8 126.376 163.56 127.08 163.56C127.752 163.56 128.312 163.8 128.76 164.28C129.24 164.728 129.48 165.304 129.48 166.008V178.968C129.48 181.08 129.944 182.632 130.872 183.624C131.8 184.584 133.176 185.064 135 185.064C136.216 185.064 137.272 184.808 138.168 184.296C139.064 183.784 139.768 183.08 140.28 182.184C140.792 181.256 141.048 180.184 141.048 178.968V166.008C141.048 165.304 141.272 164.728 141.72 164.28C142.2 163.8 142.776 163.56 143.448 163.56ZM169.002 189C168.234 189 167.61 188.776 167.13 188.328C166.682 187.848 166.458 187.256 166.458 186.552V157.848C166.458 157.144 166.698 156.568 167.178 156.12C167.658 155.64 168.234 155.4 168.906 155.4H185.13C185.834 155.4 186.41 155.624 186.858 156.072C187.338 156.52 187.578 157.08 187.578 157.752C187.578 158.36 187.338 158.888 186.858 159.336C186.41 159.784 185.834 160.008 185.13 160.008H171.114L171.45 159.528V170.232L171.162 169.656H182.97C183.674 169.656 184.25 169.88 184.698 170.328C185.178 170.776 185.418 171.336 185.418 172.008C185.418 172.616 185.178 173.144 184.698 173.592C184.25 174.04 183.674 174.264 182.97 174.264H171.066L171.45 173.88V186.552C171.45 187.256 171.21 187.848 170.73 188.328C170.25 188.776 169.674 189 169.002 189ZM216.466 176.376C216.466 178.936 215.906 181.208 214.786 183.192C213.666 185.144 212.146 186.68 210.226 187.8C208.306 188.92 206.146 189.48 203.746 189.48C201.346 189.48 199.186 188.92 197.266 187.8C195.346 186.68 193.81 185.144 192.658 183.192C191.538 181.208 190.978 178.936 190.978 176.376C190.978 173.784 191.538 171.512 192.658 169.56C193.81 167.576 195.346 166.024 197.266 164.904C199.186 163.752 201.346 163.176 203.746 163.176C206.146 163.176 208.306 163.752 210.226 164.904C212.146 166.024 213.666 167.576 214.786 169.56C215.906 171.512 216.466 173.784 216.466 176.376ZM211.666 176.376C211.666 174.616 211.314 173.096 210.61 171.816C209.906 170.504 208.946 169.48 207.73 168.744C206.546 167.976 205.218 167.592 203.746 167.592C202.274 167.592 200.93 167.976 199.714 168.744C198.498 169.48 197.538 170.504 196.834 171.816C196.13 173.096 195.778 174.616 195.778 176.376C195.778 178.072 196.13 179.576 196.834 180.888C197.538 182.2 198.498 183.224 199.714 183.96C200.93 184.696 202.274 185.064 203.746 185.064C205.218 185.064 206.546 184.696 207.73 183.96C208.946 183.224 209.906 182.2 210.61 180.888C211.314 179.576 211.666 178.072 211.666 176.376ZM233.083 163.176C234.811 163.176 236.347 163.368 237.691 163.752C239.035 164.104 240.075 164.616 240.811 165.288C241.579 165.928 241.963 166.68 241.963 167.544C241.963 168.088 241.803 168.6 241.483 169.08C241.163 169.528 240.683 169.752 240.043 169.752C239.595 169.752 239.211 169.672 238.891 169.512C238.603 169.352 238.331 169.16 238.075 168.936C237.819 168.712 237.499 168.488 237.115 168.264C236.763 168.072 236.235 167.912 235.531 167.784C234.859 167.656 234.251 167.592 233.707 167.592C232.011 167.592 230.539 167.976 229.291 168.744C228.075 169.512 227.115 170.552 226.411 171.864C225.739 173.176 225.403 174.664 225.403 176.328C225.403 177.992 225.739 179.48 226.411 180.792C227.115 182.104 228.059 183.144 229.243 183.912C230.459 184.68 231.867 185.064 233.467 185.064C234.427 185.064 235.211 185 235.819 184.872C236.427 184.712 236.955 184.52 237.403 184.296C237.883 184.008 238.283 183.72 238.603 183.432C238.955 183.112 239.435 182.952 240.043 182.952C240.747 182.952 241.275 183.176 241.627 183.624C242.011 184.04 242.203 184.568 242.203 185.208C242.203 185.912 241.771 186.6 240.907 187.272C240.075 187.912 238.955 188.44 237.547 188.856C236.139 189.272 234.587 189.48 232.891 189.48C230.395 189.48 228.219 188.904 226.363 187.752C224.539 186.6 223.115 185.032 222.091 183.048C221.099 181.064 220.603 178.824 220.603 176.328C220.603 173.8 221.131 171.56 222.187 169.608C223.243 167.624 224.715 166.056 226.603 164.904C228.491 163.752 230.651 163.176 233.083 163.176ZM265.606 163.752C266.278 163.752 266.838 163.992 267.286 164.472C267.766 164.92 268.006 165.496 268.006 166.2V178.824C268.006 182.152 267.078 184.76 265.222 186.648C263.366 188.504 260.742 189.432 257.35 189.432C253.99 189.432 251.382 188.504 249.526 186.648C247.702 184.76 246.79 182.152 246.79 178.824V166.2C246.79 165.496 247.014 164.92 247.462 164.472C247.91 163.992 248.486 163.752 249.19 163.752C249.862 163.752 250.422 163.992 250.87 164.472C251.35 164.92 251.59 165.496 251.59 166.2V178.824C251.59 180.904 252.07 182.456 253.03 183.48C254.022 184.504 255.462 185.016 257.35 185.016C259.27 185.016 260.726 184.504 261.718 183.48C262.71 182.456 263.206 180.904 263.206 178.824V166.2C263.206 165.496 263.43 164.92 263.878 164.472C264.326 163.992 264.902 163.752 265.606 163.752ZM273.192 185.064C272.904 184.616 272.776 184.104 272.808 183.528C272.84 182.92 273.176 182.408 273.816 181.992C274.264 181.704 274.728 181.592 275.208 181.656C275.72 181.688 276.2 181.928 276.648 182.376C277.544 183.368 278.536 184.152 279.624 184.728C280.744 185.304 282.088 185.592 283.656 185.592C284.296 185.56 284.952 185.464 285.624 185.304C286.296 185.112 286.872 184.792 287.352 184.344C287.832 183.864 288.072 183.176 288.072 182.28C288.072 181.48 287.816 180.84 287.304 180.36C286.792 179.88 286.12 179.496 285.288 179.208C284.456 178.888 283.56 178.6 282.6 178.344C281.576 178.056 280.536 177.736 279.48 177.384C278.456 177.032 277.528 176.584 276.696 176.04C275.864 175.464 275.176 174.728 274.632 173.832C274.12 172.936 273.864 171.832 273.864 170.52C273.864 169.016 274.28 167.72 275.112 166.632C275.976 165.544 277.08 164.696 278.424 164.088C279.8 163.48 281.288 163.176 282.888 163.176C283.816 163.176 284.792 163.304 285.816 163.56C286.84 163.784 287.832 164.152 288.792 164.664C289.752 165.176 290.584 165.848 291.288 166.68C291.608 167.096 291.784 167.592 291.816 168.168C291.88 168.744 291.624 169.256 291.048 169.704C290.664 170.024 290.2 170.168 289.656 170.136C289.112 170.104 288.664 169.928 288.312 169.608C287.704 168.84 286.92 168.248 285.96 167.832C285 167.384 283.912 167.16 282.696 167.16C282.088 167.16 281.448 167.256 280.776 167.448C280.136 167.608 279.592 167.912 279.144 168.36C278.696 168.808 278.472 169.464 278.472 170.328C278.472 171.128 278.728 171.768 279.24 172.248C279.784 172.728 280.488 173.128 281.352 173.448C282.216 173.768 283.16 174.056 284.184 174.312C285.176 174.568 286.152 174.872 287.112 175.224C288.104 175.576 288.984 176.04 289.752 176.616C290.552 177.16 291.192 177.88 291.672 178.776C292.184 179.64 292.44 180.744 292.44 182.088C292.44 183.656 291.976 185 291.048 186.12C290.152 187.208 289 188.04 287.592 188.616C286.216 189.192 284.76 189.48 283.224 189.48C281.4 189.48 279.576 189.16 277.752 188.52C275.96 187.848 274.44 186.696 273.192 185.064ZM335.154 176.376C335.154 178.936 334.594 181.208 333.474 183.192C332.354 185.144 330.834 186.68 328.914 187.8C326.994 188.92 324.834 189.48 322.434 189.48C320.034 189.48 317.874 188.92 315.954 187.8C314.034 186.68 312.498 185.144 311.346 183.192C310.226 181.208 309.666 178.936 309.666 176.376C309.666 173.784 310.226 171.512 311.346 169.56C312.498 167.576 314.034 166.024 315.954 164.904C317.874 163.752 320.034 163.176 322.434 163.176C324.834 163.176 326.994 163.752 328.914 164.904C330.834 166.024 332.354 167.576 333.474 169.56C334.594 171.512 335.154 173.784 335.154 176.376ZM330.354 176.376C330.354 174.616 330.002 173.096 329.298 171.816C328.594 170.504 327.634 169.48 326.418 168.744C325.234 167.976 323.906 167.592 322.434 167.592C320.962 167.592 319.618 167.976 318.402 168.744C317.186 169.48 316.226 170.504 315.522 171.816C314.818 173.096 314.466 174.616 314.466 176.376C314.466 178.072 314.818 179.576 315.522 180.888C316.226 182.2 317.186 183.224 318.402 183.96C319.618 184.696 320.962 185.064 322.434 185.064C323.906 185.064 325.234 184.696 326.418 183.96C327.634 183.224 328.594 182.2 329.298 180.888C330.002 179.576 330.354 178.072 330.354 176.376ZM353.595 163.176C355.867 163.176 357.627 163.656 358.875 164.616C360.123 165.544 360.987 166.808 361.467 168.408C361.979 169.976 362.235 171.736 362.235 173.688V186.552C362.235 187.256 361.995 187.848 361.515 188.328C361.067 188.776 360.507 189 359.835 189C359.131 189 358.555 188.776 358.107 188.328C357.659 187.848 357.435 187.256 357.435 186.552V173.736C357.435 172.584 357.275 171.56 356.955 170.664C356.635 169.736 356.075 169 355.275 168.456C354.507 167.88 353.419 167.592 352.011 167.592C350.699 167.592 349.547 167.88 348.555 168.456C347.563 169 346.779 169.736 346.203 170.664C345.659 171.56 345.387 172.584 345.387 173.736V186.552C345.387 187.256 345.147 187.848 344.667 188.328C344.219 188.776 343.659 189 342.987 189C342.283 189 341.707 188.776 341.259 188.328C340.811 187.848 340.587 187.256 340.587 186.552V166.2C340.587 165.496 340.811 164.92 341.259 164.472C341.707 163.992 342.283 163.752 342.987 163.752C343.659 163.752 344.219 163.992 344.667 164.472C345.147 164.92 345.387 165.496 345.387 166.2V168.888L344.523 169.368C344.747 168.664 345.131 167.96 345.675 167.256C346.251 166.52 346.939 165.848 347.739 165.24C348.539 164.6 349.435 164.104 350.427 163.752C351.419 163.368 352.475 163.176 353.595 163.176ZM401.026 163.56C401.73 163.56 402.306 163.8 402.754 164.28C403.202 164.728 403.426 165.304 403.426 166.008V186.648C403.426 189.464 402.882 191.752 401.794 193.512C400.738 195.272 399.298 196.552 397.474 197.352C395.682 198.184 393.65 198.6 391.378 198.6C390.226 198.6 389.074 198.488 387.922 198.264C386.77 198.072 385.826 197.784 385.09 197.4C384.322 197.048 383.778 196.616 383.458 196.104C383.138 195.592 383.09 195.032 383.314 194.424C383.538 193.656 383.922 193.128 384.466 192.84C385.01 192.584 385.57 192.568 386.146 192.792C386.69 193.016 387.41 193.304 388.306 193.656C389.202 194.008 390.226 194.184 391.378 194.184C392.946 194.184 394.274 193.928 395.362 193.416C396.45 192.904 397.266 192.104 397.81 191.016C398.386 189.928 398.674 188.52 398.674 186.792V183.48L399.442 184.632C398.93 185.688 398.258 186.568 397.426 187.272C396.594 187.976 395.602 188.52 394.45 188.904C393.33 189.288 392.082 189.48 390.706 189.48C388.946 189.48 387.426 189.096 386.146 188.328C384.898 187.528 383.938 186.44 383.266 185.064C382.594 183.656 382.258 182.056 382.258 180.264V166.008C382.258 165.304 382.482 164.728 382.93 164.28C383.378 163.8 383.954 163.56 384.658 163.56C385.33 163.56 385.89 163.8 386.338 164.28C386.818 164.728 387.058 165.304 387.058 166.008V178.968C387.058 181.08 387.522 182.632 388.45 183.624C389.378 184.584 390.754 185.064 392.578 185.064C393.794 185.064 394.85 184.808 395.746 184.296C396.642 183.784 397.346 183.08 397.858 182.184C398.37 181.256 398.626 180.184 398.626 178.968V166.008C398.626 165.304 398.85 164.728 399.298 164.28C399.778 163.8 400.354 163.56 401.026 163.56ZM434.107 176.376C434.107 178.936 433.547 181.208 432.427 183.192C431.307 185.144 429.787 186.68 427.867 187.8C425.947 188.92 423.787 189.48 421.387 189.48C418.987 189.48 416.827 188.92 414.907 187.8C412.987 186.68 411.451 185.144 410.299 183.192C409.179 181.208 408.619 178.936 408.619 176.376C408.619 173.784 409.179 171.512 410.299 169.56C411.451 167.576 412.987 166.024 414.907 164.904C416.827 163.752 418.987 163.176 421.387 163.176C423.787 163.176 425.947 163.752 427.867 164.904C429.787 166.024 431.307 167.576 432.427 169.56C433.547 171.512 434.107 173.784 434.107 176.376ZM429.307 176.376C429.307 174.616 428.955 173.096 428.251 171.816C427.547 170.504 426.587 169.48 425.371 168.744C424.187 167.976 422.859 167.592 421.387 167.592C419.915 167.592 418.571 167.976 417.355 168.744C416.139 169.48 415.179 170.504 414.475 171.816C413.771 173.096 413.419 174.616 413.419 176.376C413.419 178.072 413.771 179.576 414.475 180.888C415.179 182.2 416.139 183.224 417.355 183.96C418.571 184.696 419.915 185.064 421.387 185.064C422.859 185.064 424.187 184.696 425.371 183.96C426.587 183.224 427.547 182.2 428.251 180.888C428.955 179.576 429.307 178.072 429.307 176.376ZM458.356 163.752C459.028 163.752 459.588 163.992 460.036 164.472C460.516 164.92 460.756 165.496 460.756 166.2V178.824C460.756 182.152 459.828 184.76 457.972 186.648C456.116 188.504 453.492 189.432 450.1 189.432C446.74 189.432 444.132 188.504 442.276 186.648C440.452 184.76 439.54 182.152 439.54 178.824V166.2C439.54 165.496 439.764 164.92 440.212 164.472C440.66 163.992 441.236 163.752 441.94 163.752C442.612 163.752 443.172 163.992 443.62 164.472C444.1 164.92 444.34 165.496 444.34 166.2V178.824C444.34 180.904 444.82 182.456 445.78 183.48C446.772 184.504 448.212 185.016 450.1 185.016C452.02 185.016 453.476 184.504 454.468 183.48C455.46 182.456 455.956 180.904 455.956 178.824V166.2C455.956 165.496 456.18 164.92 456.628 164.472C457.076 163.992 457.652 163.752 458.356 163.752ZM469.83 189C469.126 189 468.55 188.776 468.102 188.328C467.654 187.848 467.43 187.256 467.43 186.552V166.2C467.43 165.496 467.654 164.92 468.102 164.472C468.55 163.992 469.126 163.752 469.83 163.752C470.502 163.752 471.062 163.992 471.51 164.472C471.99 164.92 472.23 165.496 472.23 166.2V171.576L471.75 169.512C472.006 168.616 472.39 167.784 472.902 167.016C473.446 166.248 474.086 165.576 474.822 165C475.558 164.424 476.374 163.976 477.27 163.656C478.198 163.336 479.158 163.176 480.15 163.176C480.982 163.176 481.702 163.4 482.31 163.848C482.918 164.296 483.222 164.856 483.222 165.528C483.222 166.392 482.998 167.032 482.55 167.448C482.102 167.832 481.606 168.024 481.062 168.024C480.582 168.024 480.118 167.928 479.67 167.736C479.222 167.512 478.694 167.4 478.086 167.4C477.414 167.4 476.726 167.576 476.022 167.928C475.318 168.28 474.678 168.808 474.102 169.512C473.526 170.184 473.062 170.984 472.71 171.912C472.39 172.84 472.23 173.88 472.23 175.032V186.552C472.23 187.256 471.99 187.848 471.51 188.328C471.062 188.776 470.502 189 469.83 189ZM181.205 213.4C181.845 213.4 182.357 213.624 182.741 214.072C183.157 214.488 183.365 215.016 183.365 215.656V244.552C183.365 245.256 183.125 245.848 182.645 246.328C182.197 246.776 181.621 247 180.917 247C180.597 247 180.245 246.936 179.861 246.808C179.509 246.68 179.237 246.504 179.045 246.28L159.317 220.696L160.421 220.072V244.792C160.421 245.4 160.213 245.928 159.797 246.376C159.381 246.792 158.853 247 158.213 247C157.541 247 156.997 246.792 156.581 246.376C156.197 245.928 156.005 245.4 156.005 244.792V215.848C156.005 215.112 156.245 214.52 156.725 214.072C157.205 213.624 157.781 213.4 158.453 213.4C158.805 213.4 159.173 213.48 159.557 213.64C159.973 213.768 160.277 213.976 160.469 214.264L179.717 239.32L178.997 239.992V215.656C178.997 215.016 179.205 214.488 179.621 214.072C180.037 213.624 180.565 213.4 181.205 213.4ZM202.44 247.48C199.784 247.48 197.48 246.936 195.528 245.848C193.576 244.728 192.056 243.208 190.968 241.288C189.912 239.336 189.384 237.112 189.384 234.616C189.384 231.8 189.944 229.4 191.064 227.416C192.216 225.4 193.704 223.864 195.528 222.808C197.352 221.72 199.288 221.176 201.336 221.176C202.904 221.176 204.392 221.496 205.8 222.136C207.208 222.744 208.456 223.608 209.544 224.728C210.664 225.816 211.544 227.112 212.184 228.616C212.824 230.088 213.16 231.704 213.192 233.464C213.16 234.104 212.904 234.632 212.424 235.048C211.944 235.464 211.384 235.672 210.744 235.672H192.072L190.92 231.592H208.968L208.056 232.456V231.256C207.992 230.136 207.624 229.16 206.952 228.328C206.28 227.464 205.448 226.808 204.456 226.36C203.464 225.88 202.424 225.64 201.336 225.64C200.376 225.64 199.448 225.8 198.552 226.12C197.688 226.408 196.904 226.888 196.2 227.56C195.528 228.232 194.984 229.128 194.568 230.248C194.184 231.336 193.992 232.696 193.992 234.328C193.992 236.088 194.36 237.624 195.096 238.936C195.832 240.248 196.824 241.272 198.072 242.008C199.32 242.712 200.696 243.064 202.2 243.064C203.384 243.064 204.36 242.952 205.128 242.728C205.896 242.472 206.536 242.168 207.048 241.816C207.56 241.464 208.008 241.128 208.392 240.808C208.872 240.52 209.352 240.376 209.832 240.376C210.408 240.376 210.888 240.584 211.272 241C211.656 241.384 211.848 241.848 211.848 242.392C211.848 243.096 211.496 243.736 210.792 244.312C209.928 245.144 208.728 245.88 207.192 246.52C205.688 247.16 204.104 247.48 202.44 247.48ZM218.62 221.608C219.42 221.608 220.076 221.944 220.588 222.616L236.956 243.256C237.308 243.672 237.484 244.152 237.484 244.696C237.484 245.336 237.228 245.896 236.716 246.376C236.204 246.856 235.644 247.096 235.036 247.096C234.268 247.096 233.612 246.76 233.068 246.088L216.7 225.448C216.348 225.032 216.172 224.552 216.172 224.008C216.172 223.336 216.412 222.776 216.892 222.328C217.404 221.848 217.98 221.608 218.62 221.608ZM218.668 247.096C218.124 247.096 217.596 246.888 217.084 246.472C216.572 246.056 216.316 245.544 216.316 244.936C216.316 244.392 216.508 243.896 216.892 243.448L224.524 233.992L226.972 237.928L220.588 246.088C220.076 246.76 219.436 247.096 218.668 247.096ZM234.988 221.608C235.66 221.608 236.204 221.832 236.62 222.28C237.068 222.696 237.292 223.192 237.292 223.768C237.292 224.024 237.244 224.296 237.148 224.584C237.084 224.84 236.94 225.08 236.716 225.304L229.18 234.76L226.684 231.208L233.068 222.712C233.612 221.976 234.252 221.608 234.988 221.608ZM243.922 222.04H255.202C255.842 222.04 256.37 222.264 256.786 222.712C257.234 223.128 257.458 223.656 257.458 224.296C257.458 224.904 257.234 225.416 256.786 225.832C256.37 226.248 255.842 226.456 255.202 226.456H243.922C243.282 226.456 242.738 226.248 242.29 225.832C241.874 225.384 241.666 224.856 241.666 224.248C241.666 223.608 241.874 223.08 242.29 222.664C242.738 222.248 243.282 222.04 243.922 222.04ZM248.962 215.8C249.666 215.8 250.242 216.04 250.69 216.52C251.138 216.968 251.362 217.544 251.362 218.248V240.52C251.362 241.096 251.458 241.56 251.65 241.912C251.842 242.264 252.098 242.504 252.418 242.632C252.77 242.76 253.122 242.824 253.474 242.824C253.826 242.824 254.13 242.76 254.386 242.632C254.674 242.504 255.01 242.44 255.394 242.44C255.778 242.44 256.13 242.616 256.45 242.968C256.77 243.32 256.93 243.8 256.93 244.408C256.93 245.176 256.514 245.8 255.682 246.28C254.85 246.76 253.954 247 252.994 247C252.45 247 251.81 246.952 251.074 246.856C250.338 246.76 249.618 246.52 248.914 246.136C248.242 245.752 247.682 245.144 247.234 244.312C246.786 243.448 246.562 242.248 246.562 240.712V218.248C246.562 217.544 246.786 216.968 247.234 216.52C247.714 216.04 248.29 215.8 248.962 215.8ZM286.981 247.48C284.677 247.48 282.629 247.16 280.837 246.52C279.045 245.88 277.333 244.824 275.701 243.352C275.349 243.096 275.077 242.792 274.885 242.44C274.725 242.056 274.645 241.672 274.645 241.288C274.645 240.68 274.869 240.136 275.317 239.656C275.765 239.176 276.325 238.936 276.997 238.936C277.509 238.936 277.989 239.112 278.437 239.464C279.653 240.584 280.917 241.432 282.229 242.008C283.573 242.584 285.141 242.872 286.933 242.872C288.213 242.872 289.381 242.664 290.437 242.248C291.525 241.832 292.389 241.272 293.029 240.568C293.669 239.864 293.989 239.048 293.989 238.12C293.989 236.968 293.653 236.024 292.981 235.288C292.341 234.52 291.397 233.896 290.149 233.416C288.933 232.904 287.461 232.472 285.733 232.12C284.133 231.832 282.693 231.432 281.413 230.92C280.165 230.408 279.093 229.768 278.197 229C277.301 228.2 276.613 227.256 276.133 226.168C275.653 225.08 275.413 223.816 275.413 222.376C275.413 220.424 275.925 218.744 276.949 217.336C277.973 215.928 279.365 214.84 281.125 214.072C282.885 213.304 284.869 212.92 287.077 212.92C289.093 212.92 290.981 213.24 292.741 213.88C294.501 214.488 295.925 215.32 297.013 216.376C297.781 217.048 298.165 217.768 298.165 218.536C298.165 219.112 297.925 219.656 297.445 220.168C296.997 220.648 296.469 220.888 295.861 220.888C295.413 220.888 295.029 220.76 294.709 220.504C294.197 219.96 293.509 219.48 292.645 219.064C291.781 218.616 290.853 218.248 289.861 217.96C288.901 217.672 287.973 217.528 287.077 217.528C285.637 217.528 284.405 217.736 283.381 218.152C282.357 218.536 281.573 219.08 281.029 219.784C280.485 220.456 280.213 221.256 280.213 222.184C280.213 223.272 280.517 224.168 281.125 224.872C281.765 225.576 282.645 226.152 283.765 226.6C284.885 227.016 286.165 227.4 287.605 227.752C289.365 228.136 290.933 228.568 292.309 229.048C293.717 229.528 294.901 230.152 295.861 230.92C296.821 231.656 297.557 232.584 298.069 233.704C298.581 234.824 298.837 236.216 298.837 237.88C298.837 239.8 298.293 241.48 297.205 242.92C296.117 244.36 294.677 245.48 292.885 246.28C291.125 247.08 289.157 247.48 286.981 247.48ZM303.876 222.04H315.156C315.796 222.04 316.324 222.264 316.74 222.712C317.188 223.128 317.412 223.656 317.412 224.296C317.412 224.904 317.188 225.416 316.74 225.832C316.324 226.248 315.796 226.456 315.156 226.456H303.876C303.236 226.456 302.692 226.248 302.244 225.832C301.828 225.384 301.62 224.856 301.62 224.248C301.62 223.608 301.828 223.08 302.244 222.664C302.692 222.248 303.236 222.04 303.876 222.04ZM308.916 215.8C309.62 215.8 310.196 216.04 310.644 216.52C311.092 216.968 311.316 217.544 311.316 218.248V240.52C311.316 241.096 311.412 241.56 311.604 241.912C311.796 242.264 312.052 242.504 312.372 242.632C312.724 242.76 313.076 242.824 313.428 242.824C313.78 242.824 314.084 242.76 314.34 242.632C314.628 242.504 314.964 242.44 315.348 242.44C315.732 242.44 316.084 242.616 316.404 242.968C316.724 243.32 316.884 243.8 316.884 244.408C316.884 245.176 316.468 245.8 315.636 246.28C314.804 246.76 313.908 247 312.948 247C312.404 247 311.764 246.952 311.028 246.856C310.292 246.76 309.572 246.52 308.868 246.136C308.196 245.752 307.636 245.144 307.188 244.312C306.74 243.448 306.516 242.248 306.516 240.712V218.248C306.516 217.544 306.74 216.968 307.188 216.52C307.668 216.04 308.244 215.8 308.916 215.8ZM334.253 247.48C331.597 247.48 329.293 246.936 327.341 245.848C325.389 244.728 323.869 243.208 322.781 241.288C321.725 239.336 321.197 237.112 321.197 234.616C321.197 231.8 321.757 229.4 322.877 227.416C324.029 225.4 325.517 223.864 327.341 222.808C329.165 221.72 331.101 221.176 333.149 221.176C334.717 221.176 336.205 221.496 337.613 222.136C339.021 222.744 340.269 223.608 341.357 224.728C342.477 225.816 343.357 227.112 343.997 228.616C344.637 230.088 344.973 231.704 345.005 233.464C344.973 234.104 344.717 234.632 344.237 235.048C343.757 235.464 343.197 235.672 342.557 235.672H323.885L322.733 231.592H340.781L339.869 232.456V231.256C339.805 230.136 339.437 229.16 338.765 228.328C338.093 227.464 337.261 226.808 336.269 226.36C335.277 225.88 334.237 225.64 333.149 225.64C332.189 225.64 331.261 225.8 330.365 226.12C329.501 226.408 328.717 226.888 328.013 227.56C327.341 228.232 326.797 229.128 326.381 230.248C325.997 231.336 325.805 232.696 325.805 234.328C325.805 236.088 326.173 237.624 326.909 238.936C327.645 240.248 328.637 241.272 329.885 242.008C331.133 242.712 332.509 243.064 334.013 243.064C335.197 243.064 336.173 242.952 336.941 242.728C337.709 242.472 338.349 242.168 338.861 241.816C339.373 241.464 339.821 241.128 340.205 240.808C340.685 240.52 341.165 240.376 341.645 240.376C342.221 240.376 342.701 240.584 343.085 241C343.469 241.384 343.661 241.848 343.661 242.392C343.661 243.096 343.309 243.736 342.605 244.312C341.741 245.144 340.541 245.88 339.005 246.52C337.501 247.16 335.917 247.48 334.253 247.48ZM363.15 221.32C365.39 221.32 367.374 221.88 369.102 223C370.862 224.12 372.254 225.656 373.278 227.608C374.302 229.528 374.814 231.768 374.814 234.328C374.814 236.888 374.302 239.16 373.278 241.144C372.254 243.096 370.878 244.632 369.15 245.752C367.422 246.872 365.47 247.432 363.294 247.432C362.078 247.432 360.926 247.24 359.838 246.856C358.75 246.472 357.79 245.976 356.958 245.368C356.126 244.728 355.438 244.056 354.894 243.352C354.382 242.648 354.062 241.992 353.934 241.384L355.23 240.76V254.152C355.23 254.856 354.99 255.432 354.51 255.88C354.062 256.36 353.502 256.6 352.83 256.6C352.126 256.6 351.55 256.36 351.102 255.88C350.654 255.432 350.43 254.856 350.43 254.152V224.104C350.43 223.432 350.654 222.856 351.102 222.376C351.55 221.896 352.126 221.656 352.83 221.656C353.502 221.656 354.062 221.896 354.51 222.376C354.99 222.856 355.23 223.432 355.23 224.104V227.416L354.462 226.984C354.558 226.376 354.862 225.752 355.374 225.112C355.886 224.44 356.526 223.816 357.294 223.24C358.094 222.664 358.99 222.2 359.982 221.848C361.006 221.496 362.062 221.32 363.15 221.32ZM362.622 225.736C361.086 225.736 359.742 226.12 358.59 226.888C357.47 227.624 356.59 228.632 355.95 229.912C355.31 231.192 354.99 232.664 354.99 234.328C354.99 235.96 355.31 237.448 355.95 238.792C356.59 240.104 357.47 241.144 358.59 241.912C359.742 242.648 361.086 243.016 362.622 243.016C364.126 243.016 365.438 242.648 366.558 241.912C367.678 241.144 368.558 240.104 369.198 238.792C369.87 237.448 370.206 235.96 370.206 234.328C370.206 232.696 369.87 231.24 369.198 229.96C368.558 228.648 367.678 227.624 366.558 226.888C365.438 226.12 364.126 225.736 362.622 225.736Z" fill="white"/>
</svg>
