<svg width="688" height="258" viewBox="0 0 688 258" fill="none" xmlns="http://www.w3.org/2000/svg">
<path d="M375.698 45.8801L378.31 38.8391C378.878 37.3627 377.742 35.7728 376.153 35.7728H326.638C318.689 35.7728 312.102 41.6782 311.307 49.6277L309.263 68.4795C309.036 70.2965 310.285 72 312.102 72.4542C314.146 72.9085 316.872 73.2492 319.597 73.5899L321.301 103.571C321.414 106.069 323.572 108 326.071 108H340.493C342.992 108 345.036 106.069 345.263 103.571L347.761 52.1261C347.761 49.5142 349.919 47.47 352.418 47.47H373.427C374.563 47.3564 375.471 46.7886 375.698 45.8801Z" fill="white"/>
<path d="M333.452 31.571C342.171 31.571 349.238 24.5036 349.238 15.7855C349.238 7.0674 342.171 0 333.452 0C324.734 0 317.667 7.0674 317.667 15.7855C317.667 24.5036 324.734 31.571 333.452 31.571Z" fill="white"/>
<path d="M378.765 67.9115C378.765 61.3247 373.427 55.9872 366.84 55.9872C360.254 55.9872 354.916 61.3247 354.916 67.9115C354.916 73.249 358.55 77.7916 363.433 79.2679V88.6938H358.891C357.414 88.6938 356.279 89.8295 356.279 91.3058C356.279 92.7821 357.414 93.9178 358.891 93.9178H363.433V97.2112H358.891C357.414 97.2112 356.279 98.3468 356.279 99.8231C356.279 101.299 357.414 102.435 358.891 102.435H363.433V103.911C363.433 105.729 364.91 107.205 366.727 107.205C368.544 107.205 370.02 105.729 370.02 103.911V79.2679C375.131 77.7916 378.765 73.3626 378.765 67.9115ZM366.84 73.1355C364.001 73.1355 361.616 70.7506 361.616 67.9115C361.616 65.0724 364.001 62.6875 366.84 62.6875C369.679 62.6875 372.064 65.0724 372.064 67.9115C372.064 70.7506 369.793 73.1355 366.84 73.1355Z" fill="white"/>
<path d="M209.882 155.4C212.826 155.4 215.05 156.12 216.554 157.56C218.09 159 218.858 161.096 218.858 163.848C218.858 165.288 218.506 166.6 217.802 167.784C217.13 168.936 216.122 169.848 214.778 170.52C213.466 171.192 211.818 171.544 209.834 171.576L209.93 169.8C210.986 169.8 212.122 169.944 213.338 170.232C214.586 170.52 215.754 171.016 216.842 171.72C217.93 172.424 218.826 173.384 219.53 174.6C220.234 175.784 220.586 177.272 220.586 179.064C220.586 181.016 220.266 182.648 219.626 183.96C218.986 185.24 218.138 186.248 217.082 186.984C216.026 187.72 214.858 188.248 213.578 188.568C212.33 188.856 211.098 189 209.882 189H197.594C196.922 189 196.346 188.776 195.866 188.328C195.386 187.848 195.146 187.256 195.146 186.552V157.848C195.146 157.144 195.386 156.568 195.866 156.12C196.346 155.64 196.922 155.4 197.594 155.4H209.882ZM209.21 160.104H199.754L200.33 159.336V169.656L199.802 169.128H209.306C210.458 169.096 211.466 168.712 212.33 167.976C213.226 167.208 213.674 166.088 213.674 164.616C213.674 163.112 213.274 161.992 212.474 161.256C211.674 160.488 210.586 160.104 209.21 160.104ZM209.546 173.832H199.994L200.33 173.496V184.824L199.946 184.392H209.834C211.498 184.392 212.842 183.96 213.866 183.096C214.89 182.2 215.402 180.856 215.402 179.064C215.402 177.56 215.098 176.44 214.49 175.704C213.882 174.968 213.13 174.472 212.234 174.216C211.338 173.96 210.442 173.832 209.546 173.832ZM237.737 189.48C235.081 189.48 232.777 188.936 230.825 187.848C228.873 186.728 227.353 185.208 226.265 183.288C225.209 181.336 224.681 179.112 224.681 176.616C224.681 173.8 225.241 171.4 226.361 169.416C227.513 167.4 229.001 165.864 230.825 164.808C232.649 163.72 234.585 163.176 236.633 163.176C238.201 163.176 239.689 163.496 241.097 164.136C242.505 164.744 243.753 165.608 244.841 166.728C245.961 167.816 246.841 169.112 247.481 170.616C248.121 172.088 248.457 173.704 248.489 175.464C248.457 176.104 248.201 176.632 247.721 177.048C247.241 177.464 246.681 177.672 246.041 177.672H227.369L226.217 173.592H244.265L243.353 174.456V173.256C243.289 172.136 242.921 171.16 242.249 170.328C241.577 169.464 240.745 168.808 239.753 168.36C238.761 167.88 237.721 167.64 236.633 167.64C235.673 167.64 234.745 167.8 233.849 168.12C232.985 168.408 232.201 168.888 231.497 169.56C230.825 170.232 230.281 171.128 229.865 172.248C229.481 173.336 229.289 174.696 229.289 176.328C229.289 178.088 229.657 179.624 230.393 180.936C231.129 182.248 232.121 183.272 233.369 184.008C234.617 184.712 235.993 185.064 237.497 185.064C238.681 185.064 239.657 184.952 240.425 184.728C241.193 184.472 241.833 184.168 242.345 183.816C242.857 183.464 243.305 183.128 243.689 182.808C244.169 182.52 244.649 182.376 245.129 182.376C245.705 182.376 246.185 182.584 246.569 183C246.953 183.384 247.145 183.848 247.145 184.392C247.145 185.096 246.793 185.736 246.089 186.312C245.225 187.144 244.025 187.88 242.489 188.52C240.985 189.16 239.401 189.48 237.737 189.48ZM287.962 163.368C288.666 163.368 289.242 163.608 289.69 164.088C290.138 164.536 290.362 165.112 290.362 165.816V186.552C290.362 187.256 290.138 187.848 289.69 188.328C289.242 188.776 288.666 189 287.962 189C287.29 189 286.714 188.776 286.234 188.328C285.786 187.848 285.562 187.256 285.562 186.552V183.096L286.57 183.24C286.57 183.816 286.33 184.456 285.85 185.16C285.402 185.864 284.778 186.552 283.978 187.224C283.178 187.864 282.234 188.408 281.146 188.856C280.058 189.272 278.89 189.48 277.642 189.48C275.434 189.48 273.45 188.92 271.69 187.8C269.93 186.648 268.538 185.08 267.514 183.096C266.49 181.112 265.978 178.856 265.978 176.328C265.978 173.736 266.49 171.464 267.514 169.512C268.538 167.528 269.914 165.976 271.642 164.856C273.402 163.736 275.354 163.176 277.498 163.176C278.874 163.176 280.138 163.4 281.29 163.848C282.474 164.296 283.498 164.872 284.362 165.576C285.226 166.28 285.882 167.032 286.33 167.832C286.81 168.6 287.05 169.336 287.05 170.04L285.562 170.184V165.816C285.562 165.144 285.786 164.568 286.234 164.088C286.714 163.608 287.29 163.368 287.962 163.368ZM278.17 185.064C279.674 185.064 281.002 184.68 282.154 183.912C283.306 183.144 284.202 182.104 284.842 180.792C285.482 179.448 285.802 177.96 285.802 176.328C285.802 174.664 285.482 173.176 284.842 171.864C284.202 170.552 283.306 169.512 282.154 168.744C281.002 167.976 279.674 167.592 278.17 167.592C276.698 167.592 275.386 167.976 274.234 168.744C273.114 169.512 272.218 170.552 271.546 171.864C270.906 173.176 270.586 174.664 270.586 176.328C270.586 177.96 270.906 179.448 271.546 180.792C272.218 182.104 273.114 183.144 274.234 183.912C275.386 184.68 276.698 185.064 278.17 185.064ZM310.095 163.176C312.367 163.176 314.127 163.656 315.375 164.616C316.623 165.544 317.487 166.808 317.967 168.408C318.479 169.976 318.735 171.736 318.735 173.688V186.552C318.735 187.256 318.495 187.848 318.015 188.328C317.567 188.776 317.007 189 316.335 189C315.631 189 315.055 188.776 314.607 188.328C314.159 187.848 313.935 187.256 313.935 186.552V173.736C313.935 172.584 313.775 171.56 313.455 170.664C313.135 169.736 312.575 169 311.775 168.456C311.007 167.88 309.919 167.592 308.511 167.592C307.199 167.592 306.047 167.88 305.055 168.456C304.063 169 303.279 169.736 302.703 170.664C302.159 171.56 301.887 172.584 301.887 173.736V186.552C301.887 187.256 301.647 187.848 301.167 188.328C300.719 188.776 300.159 189 299.487 189C298.783 189 298.207 188.776 297.759 188.328C297.311 187.848 297.087 187.256 297.087 186.552V166.2C297.087 165.496 297.311 164.92 297.759 164.472C298.207 163.992 298.783 163.752 299.487 163.752C300.159 163.752 300.719 163.992 301.167 164.472C301.647 164.92 301.887 165.496 301.887 166.2V168.888L301.023 169.368C301.247 168.664 301.631 167.96 302.175 167.256C302.751 166.52 303.439 165.848 304.239 165.24C305.039 164.6 305.935 164.104 306.927 163.752C307.919 163.368 308.975 163.176 310.095 163.176ZM369.91 172.2C369.91 174.632 369.51 176.904 368.71 179.016C367.91 181.096 366.774 182.92 365.302 184.488C363.862 186.056 362.15 187.288 360.166 188.184C358.182 189.048 356.006 189.48 353.638 189.48C351.302 189.48 349.142 189.048 347.158 188.184C345.174 187.288 343.446 186.056 341.974 184.488C340.534 182.92 339.414 181.096 338.614 179.016C337.846 176.904 337.462 174.632 337.462 172.2C337.462 169.768 337.846 167.512 338.614 165.432C339.414 163.32 340.534 161.48 341.974 159.912C343.446 158.344 345.174 157.128 347.158 156.264C349.142 155.368 351.302 154.92 353.638 154.92C356.006 154.92 358.182 155.368 360.166 156.264C362.15 157.128 363.862 158.344 365.302 159.912C366.774 161.48 367.91 163.32 368.71 165.432C369.51 167.512 369.91 169.768 369.91 172.2ZM364.726 172.2C364.726 169.832 364.246 167.704 363.286 165.816C362.358 163.928 361.062 162.44 359.398 161.352C357.734 160.264 355.814 159.72 353.638 159.72C351.494 159.72 349.59 160.264 347.926 161.352C346.262 162.44 344.966 163.928 344.038 165.816C343.11 167.672 342.646 169.8 342.646 172.2C342.646 174.568 343.11 176.696 344.038 178.584C344.966 180.472 346.262 181.96 347.926 183.048C349.59 184.136 351.494 184.68 353.638 184.68C355.814 184.68 357.734 184.136 359.398 183.048C361.062 181.96 362.358 180.472 363.286 178.584C364.246 176.696 364.726 174.568 364.726 172.2ZM404.698 163.512C405.306 163.512 405.834 163.752 406.282 164.232C406.762 164.68 407.002 165.272 407.002 166.008C407.002 166.168 406.986 166.328 406.954 166.488C406.922 166.648 406.874 166.792 406.81 166.92L399.466 187.464C399.274 188.008 398.938 188.424 398.458 188.712C397.978 188.968 397.482 189.064 396.97 189C396.042 188.936 395.354 188.424 394.906 187.464L389.482 173.064L390.586 173.16L385.594 187.464C385.146 188.424 384.458 188.936 383.53 189C383.05 189.064 382.554 188.968 382.042 188.712C381.562 188.424 381.226 188.008 381.034 187.464L373.642 166.92C373.514 166.632 373.45 166.328 373.45 166.008C373.45 165.336 373.658 164.76 374.074 164.28C374.522 163.768 375.114 163.512 375.85 163.512C376.362 163.512 376.81 163.64 377.194 163.896C377.61 164.152 377.898 164.536 378.058 165.048L384.202 182.376L383.098 182.28L388.09 169.176C388.506 168.184 389.242 167.688 390.298 167.688C390.874 167.688 391.322 167.816 391.642 168.072C391.962 168.328 392.218 168.696 392.41 169.176L397.498 182.328L396.202 182.472L402.394 165.048C402.714 164.024 403.482 163.512 404.698 163.512ZM424.891 163.176C427.163 163.176 428.923 163.656 430.171 164.616C431.419 165.544 432.283 166.808 432.763 168.408C433.275 169.976 433.531 171.736 433.531 173.688V186.552C433.531 187.256 433.291 187.848 432.811 188.328C432.363 188.776 431.803 189 431.131 189C430.427 189 429.851 188.776 429.403 188.328C428.955 187.848 428.731 187.256 428.731 186.552V173.736C428.731 172.584 428.571 171.56 428.251 170.664C427.931 169.736 427.371 169 426.571 168.456C425.803 167.88 424.715 167.592 423.307 167.592C421.995 167.592 420.843 167.88 419.851 168.456C418.859 169 418.075 169.736 417.499 170.664C416.955 171.56 416.683 172.584 416.683 173.736V186.552C416.683 187.256 416.443 187.848 415.963 188.328C415.515 188.776 414.955 189 414.283 189C413.579 189 413.003 188.776 412.555 188.328C412.107 187.848 411.883 187.256 411.883 186.552V166.2C411.883 165.496 412.107 164.92 412.555 164.472C413.003 163.992 413.579 163.752 414.283 163.752C414.955 163.752 415.515 163.992 415.963 164.472C416.443 164.92 416.683 165.496 416.683 166.2V168.888L415.819 169.368C416.043 168.664 416.427 167.96 416.971 167.256C417.547 166.52 418.235 165.848 419.035 165.24C419.835 164.6 420.731 164.104 421.723 163.752C422.715 163.368 423.771 163.176 424.891 163.176ZM451.956 189.48C449.3 189.48 446.996 188.936 445.044 187.848C443.092 186.728 441.572 185.208 440.484 183.288C439.428 181.336 438.9 179.112 438.9 176.616C438.9 173.8 439.46 171.4 440.58 169.416C441.732 167.4 443.22 165.864 445.044 164.808C446.868 163.72 448.804 163.176 450.852 163.176C452.42 163.176 453.908 163.496 455.316 164.136C456.724 164.744 457.972 165.608 459.06 166.728C460.18 167.816 461.06 169.112 461.7 170.616C462.34 172.088 462.676 173.704 462.708 175.464C462.676 176.104 462.42 176.632 461.94 177.048C461.46 177.464 460.9 177.672 460.26 177.672H441.588L440.436 173.592H458.484L457.572 174.456V173.256C457.508 172.136 457.14 171.16 456.468 170.328C455.796 169.464 454.964 168.808 453.972 168.36C452.98 167.88 451.94 167.64 450.852 167.64C449.892 167.64 448.964 167.8 448.068 168.12C447.204 168.408 446.42 168.888 445.716 169.56C445.044 170.232 444.5 171.128 444.084 172.248C443.7 173.336 443.508 174.696 443.508 176.328C443.508 178.088 443.876 179.624 444.612 180.936C445.348 182.248 446.34 183.272 447.588 184.008C448.836 184.712 450.212 185.064 451.716 185.064C452.9 185.064 453.876 184.952 454.644 184.728C455.412 184.472 456.052 184.168 456.564 183.816C457.076 183.464 457.524 183.128 457.908 182.808C458.388 182.52 458.868 182.376 459.348 182.376C459.924 182.376 460.404 182.584 460.788 183C461.172 183.384 461.364 183.848 461.364 184.392C461.364 185.096 461.012 185.736 460.308 186.312C459.444 187.144 458.244 187.88 456.708 188.52C455.204 189.16 453.62 189.48 451.956 189.48ZM470.533 189C469.829 189 469.253 188.776 468.805 188.328C468.357 187.848 468.133 187.256 468.133 186.552V166.2C468.133 165.496 468.357 164.92 468.805 164.472C469.253 163.992 469.829 163.752 470.533 163.752C471.205 163.752 471.765 163.992 472.213 164.472C472.693 164.92 472.933 165.496 472.933 166.2V171.576L472.453 169.512C472.709 168.616 473.093 167.784 473.605 167.016C474.149 166.248 474.789 165.576 475.525 165C476.261 164.424 477.077 163.976 477.973 163.656C478.901 163.336 479.861 163.176 480.853 163.176C481.685 163.176 482.405 163.4 483.013 163.848C483.621 164.296 483.925 164.856 483.925 165.528C483.925 166.392 483.701 167.032 483.253 167.448C482.805 167.832 482.309 168.024 481.765 168.024C481.285 168.024 480.821 167.928 480.373 167.736C479.925 167.512 479.397 167.4 478.789 167.4C478.117 167.4 477.429 167.576 476.725 167.928C476.021 168.28 475.381 168.808 474.805 169.512C474.229 170.184 473.765 170.984 473.413 171.912C473.093 172.84 472.933 173.88 472.933 175.032V186.552C472.933 187.256 472.693 187.848 472.213 188.328C471.765 188.776 471.205 189 470.533 189ZM494.34 188.856C494.34 189.848 494.052 190.84 493.476 191.832C492.9 192.824 492.18 193.64 491.316 194.28C490.452 194.952 489.54 195.288 488.58 195.288C488.26 195.288 487.924 195.16 487.572 194.904C487.252 194.68 487.092 194.248 487.092 193.608C487.092 192.968 487.284 192.584 487.668 192.456C488.084 192.36 488.484 192.216 488.868 192.024C489.316 191.8 489.668 191.512 489.924 191.16C490.18 190.84 490.308 190.456 490.308 190.008C490.308 189.624 490.148 189.304 489.828 189.048C489.54 188.792 489.156 188.664 488.676 188.664C488.484 188.664 488.26 188.696 488.004 188.76C487.78 188.792 487.572 188.872 487.38 189C487.092 188.84 486.852 188.648 486.66 188.424C486.468 188.2 486.372 187.864 486.372 187.416C486.404 186.584 486.804 185.864 487.572 185.256C488.372 184.616 489.284 184.296 490.308 184.296C491.524 184.296 492.5 184.728 493.236 185.592C493.972 186.456 494.34 187.544 494.34 188.856ZM225.666 213.4C226.306 213.4 226.818 213.624 227.202 214.072C227.618 214.488 227.826 215.016 227.826 215.656V244.552C227.826 245.256 227.586 245.848 227.106 246.328C226.658 246.776 226.082 247 225.378 247C225.058 247 224.706 246.936 224.322 246.808C223.97 246.68 223.698 246.504 223.506 246.28L203.778 220.696L204.882 220.072V244.792C204.882 245.4 204.674 245.928 204.258 246.376C203.842 246.792 203.314 247 202.674 247C202.002 247 201.458 246.792 201.042 246.376C200.658 245.928 200.466 245.4 200.466 244.792V215.848C200.466 215.112 200.706 214.52 201.186 214.072C201.666 213.624 202.242 213.4 202.914 213.4C203.266 213.4 203.634 213.48 204.018 213.64C204.434 213.768 204.738 213.976 204.93 214.264L224.178 239.32L223.458 239.992V215.656C223.458 215.016 223.666 214.488 224.082 214.072C224.498 213.624 225.026 213.4 225.666 213.4ZM259.333 234.376C259.333 236.936 258.773 239.208 257.653 241.192C256.533 243.144 255.013 244.68 253.093 245.8C251.173 246.92 249.013 247.48 246.613 247.48C244.213 247.48 242.053 246.92 240.133 245.8C238.213 244.68 236.677 243.144 235.525 241.192C234.405 239.208 233.845 236.936 233.845 234.376C233.845 231.784 234.405 229.512 235.525 227.56C236.677 225.576 238.213 224.024 240.133 222.904C242.053 221.752 244.213 221.176 246.613 221.176C249.013 221.176 251.173 221.752 253.093 222.904C255.013 224.024 256.533 225.576 257.653 227.56C258.773 229.512 259.333 231.784 259.333 234.376ZM254.533 234.376C254.533 232.616 254.181 231.096 253.477 229.816C252.773 228.504 251.813 227.48 250.597 226.744C249.413 225.976 248.085 225.592 246.613 225.592C245.141 225.592 243.797 225.976 242.581 226.744C241.365 227.48 240.405 228.504 239.701 229.816C238.997 231.096 238.645 232.616 238.645 234.376C238.645 236.072 238.997 237.576 239.701 238.888C240.405 240.2 241.365 241.224 242.581 241.96C243.797 242.696 245.141 243.064 246.613 243.064C248.085 243.064 249.413 242.696 250.597 241.96C251.813 241.224 252.773 240.2 253.477 238.888C254.181 237.576 254.533 236.072 254.533 234.376ZM264.43 222.04H275.71C276.35 222.04 276.878 222.264 277.294 222.712C277.742 223.128 277.966 223.656 277.966 224.296C277.966 224.904 277.742 225.416 277.294 225.832C276.878 226.248 276.35 226.456 275.71 226.456H264.43C263.79 226.456 263.246 226.248 262.798 225.832C262.382 225.384 262.174 224.856 262.174 224.248C262.174 223.608 262.382 223.08 262.798 222.664C263.246 222.248 263.79 222.04 264.43 222.04ZM269.47 215.8C270.174 215.8 270.75 216.04 271.198 216.52C271.646 216.968 271.87 217.544 271.87 218.248V240.52C271.87 241.096 271.966 241.56 272.158 241.912C272.35 242.264 272.606 242.504 272.926 242.632C273.278 242.76 273.63 242.824 273.982 242.824C274.334 242.824 274.638 242.76 274.894 242.632C275.182 242.504 275.518 242.44 275.902 242.44C276.286 242.44 276.638 242.616 276.958 242.968C277.278 243.32 277.438 243.8 277.438 244.408C277.438 245.176 277.022 245.8 276.19 246.28C275.358 246.76 274.462 247 273.502 247C272.958 247 272.318 246.952 271.582 246.856C270.846 246.76 270.126 246.52 269.422 246.136C268.75 245.752 268.19 245.144 267.742 244.312C267.294 243.448 267.07 242.248 267.07 240.712V218.248C267.07 217.544 267.294 216.968 267.742 216.52C268.222 216.04 268.798 215.8 269.47 215.8ZM317.329 221.368C318.033 221.368 318.609 221.608 319.057 222.088C319.505 222.536 319.729 223.112 319.729 223.816V244.552C319.729 245.256 319.505 245.848 319.057 246.328C318.609 246.776 318.033 247 317.329 247C316.657 247 316.081 246.776 315.601 246.328C315.153 245.848 314.929 245.256 314.929 244.552V241.096L315.937 241.24C315.937 241.816 315.697 242.456 315.217 243.16C314.769 243.864 314.145 244.552 313.345 245.224C312.545 245.864 311.601 246.408 310.513 246.856C309.425 247.272 308.257 247.48 307.009 247.48C304.801 247.48 302.817 246.92 301.057 245.8C299.297 244.648 297.905 243.08 296.881 241.096C295.857 239.112 295.345 236.856 295.345 234.328C295.345 231.736 295.857 229.464 296.881 227.512C297.905 225.528 299.281 223.976 301.009 222.856C302.769 221.736 304.721 221.176 306.865 221.176C308.241 221.176 309.505 221.4 310.657 221.848C311.841 222.296 312.865 222.872 313.729 223.576C314.593 224.28 315.249 225.032 315.697 225.832C316.177 226.6 316.417 227.336 316.417 228.04L314.929 228.184V223.816C314.929 223.144 315.153 222.568 315.601 222.088C316.081 221.608 316.657 221.368 317.329 221.368ZM307.537 243.064C309.041 243.064 310.369 242.68 311.521 241.912C312.673 241.144 313.569 240.104 314.209 238.792C314.849 237.448 315.169 235.96 315.169 234.328C315.169 232.664 314.849 231.176 314.209 229.864C313.569 228.552 312.673 227.512 311.521 226.744C310.369 225.976 309.041 225.592 307.537 225.592C306.065 225.592 304.753 225.976 303.601 226.744C302.481 227.512 301.585 228.552 300.913 229.864C300.273 231.176 299.953 232.664 299.953 234.328C299.953 235.96 300.273 237.448 300.913 238.792C301.585 240.104 302.481 241.144 303.601 241.912C304.753 242.68 306.065 243.064 307.537 243.064ZM343.221 247C342.453 247 341.781 246.776 341.205 246.328C340.629 245.848 340.341 245.256 340.341 244.552V215.848C340.341 215.144 340.581 214.568 341.061 214.12C341.541 213.64 342.117 213.4 342.789 213.4H356.325C358.053 213.4 359.637 213.832 361.077 214.696C362.517 215.528 363.669 216.696 364.533 218.2C365.429 219.672 365.877 221.368 365.877 223.288C365.877 224.568 365.621 225.8 365.109 226.984C364.597 228.136 363.909 229.16 363.045 230.056C362.181 230.952 361.205 231.624 360.117 232.072L359.589 231.16C360.581 231.512 361.445 232.024 362.181 232.696C362.917 233.336 363.493 234.104 363.909 235C364.357 235.864 364.597 236.856 364.629 237.976C364.725 238.968 364.805 239.8 364.869 240.472C364.965 241.112 365.093 241.64 365.253 242.056C365.413 242.472 365.701 242.792 366.117 243.016C366.693 243.336 367.045 243.816 367.173 244.456C367.333 245.096 367.205 245.672 366.789 246.184C366.501 246.568 366.133 246.824 365.685 246.952C365.269 247.048 364.837 247.064 364.389 247C363.941 246.904 363.557 246.776 363.237 246.616C362.725 246.296 362.197 245.848 361.653 245.272C361.141 244.664 360.725 243.832 360.405 242.776C360.085 241.72 359.925 240.328 359.925 238.6C359.925 237.8 359.797 237.112 359.541 236.536C359.285 235.96 358.933 235.496 358.485 235.144C358.037 234.76 357.509 234.488 356.901 234.328C356.293 234.136 355.621 234.04 354.885 234.04H344.709L345.381 233.08V244.552C345.381 245.256 345.189 245.848 344.805 246.328C344.421 246.776 343.893 247 343.221 247ZM344.757 229.864H356.229C356.965 229.832 357.669 229.544 358.341 229C359.045 228.424 359.605 227.656 360.021 226.696C360.469 225.736 360.693 224.648 360.693 223.432C360.693 221.896 360.229 220.616 359.301 219.592C358.405 218.536 357.333 218.008 356.085 218.008H344.853L345.381 216.76V230.872L344.757 229.864ZM384.011 247.48C381.355 247.48 379.051 246.936 377.099 245.848C375.147 244.728 373.627 243.208 372.539 241.288C371.483 239.336 370.955 237.112 370.955 234.616C370.955 231.8 371.515 229.4 372.635 227.416C373.787 225.4 375.275 223.864 377.099 222.808C378.923 221.72 380.859 221.176 382.907 221.176C384.475 221.176 385.963 221.496 387.371 222.136C388.779 222.744 390.027 223.608 391.115 224.728C392.235 225.816 393.115 227.112 393.755 228.616C394.395 230.088 394.731 231.704 394.763 233.464C394.731 234.104 394.475 234.632 393.995 235.048C393.515 235.464 392.955 235.672 392.315 235.672H373.643L372.491 231.592H390.539L389.627 232.456V231.256C389.563 230.136 389.195 229.16 388.523 228.328C387.851 227.464 387.019 226.808 386.027 226.36C385.035 225.88 383.995 225.64 382.907 225.64C381.947 225.64 381.019 225.8 380.123 226.12C379.259 226.408 378.475 226.888 377.771 227.56C377.099 228.232 376.555 229.128 376.139 230.248C375.755 231.336 375.563 232.696 375.563 234.328C375.563 236.088 375.931 237.624 376.667 238.936C377.403 240.248 378.395 241.272 379.643 242.008C380.891 242.712 382.267 243.064 383.771 243.064C384.955 243.064 385.931 242.952 386.699 242.728C387.467 242.472 388.107 242.168 388.619 241.816C389.131 241.464 389.579 241.128 389.963 240.808C390.443 240.52 390.923 240.376 391.403 240.376C391.979 240.376 392.459 240.584 392.843 241C393.227 241.384 393.419 241.848 393.419 242.392C393.419 243.096 393.067 243.736 392.363 244.312C391.499 245.144 390.299 245.88 388.763 246.52C387.259 247.16 385.675 247.48 384.011 247.48ZM413.196 221.176C415.468 221.176 417.228 221.656 418.476 222.616C419.724 223.544 420.588 224.808 421.068 226.408C421.58 227.976 421.836 229.736 421.836 231.688V244.552C421.836 245.256 421.596 245.848 421.116 246.328C420.668 246.776 420.108 247 419.436 247C418.732 247 418.156 246.776 417.708 246.328C417.26 245.848 417.036 245.256 417.036 244.552V231.736C417.036 230.584 416.876 229.56 416.556 228.664C416.236 227.736 415.676 227 414.876 226.456C414.108 225.88 413.02 225.592 411.612 225.592C410.3 225.592 409.148 225.88 408.156 226.456C407.164 227 406.38 227.736 405.804 228.664C405.26 229.56 404.988 230.584 404.988 231.736V244.552C404.988 245.256 404.748 245.848 404.268 246.328C403.82 246.776 403.26 247 402.588 247C401.884 247 401.308 246.776 400.86 246.328C400.412 245.848 400.188 245.256 400.188 244.552V224.2C400.188 223.496 400.412 222.92 400.86 222.472C401.308 221.992 401.884 221.752 402.588 221.752C403.26 221.752 403.82 221.992 404.268 222.472C404.748 222.92 404.988 223.496 404.988 224.2V226.888L404.124 227.368C404.348 226.664 404.732 225.96 405.276 225.256C405.852 224.52 406.54 223.848 407.34 223.24C408.14 222.6 409.036 222.104 410.028 221.752C411.02 221.368 412.076 221.176 413.196 221.176ZM428.165 222.04H439.445C440.085 222.04 440.613 222.264 441.029 222.712C441.477 223.128 441.701 223.656 441.701 224.296C441.701 224.904 441.477 225.416 441.029 225.832C440.613 226.248 440.085 226.456 439.445 226.456H428.165C427.525 226.456 426.981 226.248 426.533 225.832C426.117 225.384 425.909 224.856 425.909 224.248C425.909 223.608 426.117 223.08 426.533 222.664C426.981 222.248 427.525 222.04 428.165 222.04ZM433.205 215.8C433.909 215.8 434.485 216.04 434.933 216.52C435.381 216.968 435.605 217.544 435.605 218.248V240.52C435.605 241.096 435.701 241.56 435.893 241.912C436.085 242.264 436.341 242.504 436.661 242.632C437.013 242.76 437.365 242.824 437.717 242.824C438.069 242.824 438.373 242.76 438.629 242.632C438.917 242.504 439.253 242.44 439.637 242.44C440.021 242.44 440.373 242.616 440.693 242.968C441.013 243.32 441.173 243.8 441.173 244.408C441.173 245.176 440.757 245.8 439.925 246.28C439.093 246.76 438.197 247 437.237 247C436.693 247 436.053 246.952 435.317 246.856C434.581 246.76 433.861 246.52 433.157 246.136C432.485 245.752 431.925 245.144 431.477 244.312C431.029 243.448 430.805 242.248 430.805 240.712V218.248C430.805 217.544 431.029 216.968 431.477 216.52C431.957 216.04 432.533 215.8 433.205 215.8ZM458.542 247.48C455.886 247.48 453.582 246.936 451.63 245.848C449.678 244.728 448.158 243.208 447.07 241.288C446.014 239.336 445.486 237.112 445.486 234.616C445.486 231.8 446.046 229.4 447.166 227.416C448.318 225.4 449.806 223.864 451.63 222.808C453.454 221.72 455.39 221.176 457.438 221.176C459.006 221.176 460.494 221.496 461.902 222.136C463.31 222.744 464.558 223.608 465.646 224.728C466.766 225.816 467.646 227.112 468.286 228.616C468.926 230.088 469.262 231.704 469.294 233.464C469.262 234.104 469.006 234.632 468.526 235.048C468.046 235.464 467.486 235.672 466.846 235.672H448.174L447.022 231.592H465.07L464.158 232.456V231.256C464.094 230.136 463.726 229.16 463.054 228.328C462.382 227.464 461.55 226.808 460.558 226.36C459.566 225.88 458.526 225.64 457.438 225.64C456.478 225.64 455.55 225.8 454.654 226.12C453.79 226.408 453.006 226.888 452.302 227.56C451.63 228.232 451.086 229.128 450.67 230.248C450.286 231.336 450.094 232.696 450.094 234.328C450.094 236.088 450.462 237.624 451.198 238.936C451.934 240.248 452.926 241.272 454.174 242.008C455.422 242.712 456.798 243.064 458.302 243.064C459.486 243.064 460.462 242.952 461.23 242.728C461.998 242.472 462.638 242.168 463.15 241.816C463.662 241.464 464.11 241.128 464.494 240.808C464.974 240.52 465.454 240.376 465.934 240.376C466.51 240.376 466.99 240.584 467.374 241C467.758 241.384 467.95 241.848 467.95 242.392C467.95 243.096 467.598 243.736 466.894 244.312C466.03 245.144 464.83 245.88 463.294 246.52C461.79 247.16 460.206 247.48 458.542 247.48ZM477.119 247C476.415 247 475.839 246.776 475.391 246.328C474.943 245.848 474.719 245.256 474.719 244.552V224.2C474.719 223.496 474.943 222.92 475.391 222.472C475.839 221.992 476.415 221.752 477.119 221.752C477.791 221.752 478.351 221.992 478.799 222.472C479.279 222.92 479.519 223.496 479.519 224.2V229.576L479.039 227.512C479.295 226.616 479.679 225.784 480.191 225.016C480.735 224.248 481.375 223.576 482.111 223C482.847 222.424 483.663 221.976 484.559 221.656C485.487 221.336 486.447 221.176 487.439 221.176C488.271 221.176 488.991 221.4 489.599 221.848C490.207 222.296 490.511 222.856 490.511 223.528C490.511 224.392 490.287 225.032 489.839 225.448C489.391 225.832 488.895 226.024 488.351 226.024C487.871 226.024 487.407 225.928 486.959 225.736C486.511 225.512 485.983 225.4 485.375 225.4C484.703 225.4 484.015 225.576 483.311 225.928C482.607 226.28 481.967 226.808 481.391 227.512C480.815 228.184 480.351 228.984 479.999 229.912C479.679 230.84 479.519 231.88 479.519 233.032V244.552C479.519 245.256 479.279 245.848 478.799 246.328C478.351 246.776 477.791 247 477.119 247Z" fill="white"/>
</svg>
