<svg width="521" height="200" viewBox="0 0 521 200" fill="none" xmlns="http://www.w3.org/2000/svg">
<path fill-rule="evenodd" clip-rule="evenodd" d="M212.053 55.1022H201.5V108H212.053C215.745 108 218.769 104.971 218.769 101.274V61.828C218.769 58.1312 215.745 55.1022 212.053 55.1022ZM282.308 87.306C282.114 87.4297 281.883 87.5016 281.636 87.5016H251.577C249.924 87.5016 249.924 84.9874 251.577 84.9874H280.108C279.171 81.6016 276.557 79.1828 272.266 77.7313C267.083 75.9782 259.541 75.6031 249.641 76.6052C249.199 76.6673 248.738 76.4903 248.456 76.1047C242.96 68.5969 231.294 67.511 221.28 68.0149V95.9492L246.217 104.715L282.184 104.6L317.552 83.7945C318.643 82.5535 319.275 81.2444 319.449 79.8681C319.844 76.7274 317.92 72.9874 314.889 71.8153C313.412 71.2441 311.622 71.2096 309.519 71.7119L282.308 87.306ZM299.497 3.42371C296.542 0.464553 291.751 0.464553 288.796 3.42371C285.841 6.38287 285.841 11.1816 288.796 14.1408C291.751 17.1 296.542 17.1 299.497 14.1408C302.452 11.1814 302.452 6.38287 299.497 3.42371ZM277.556 54.9146C280.577 54.2197 283.485 53.2115 286.244 51.9265V40.9606C286.244 31.396 278.425 23.5659 268.874 23.5659H266.365C256.815 23.5659 248.996 31.396 248.996 40.9606V51.9265C257.875 56.0621 267.973 57.1185 277.556 54.9146ZM281.848 25.9043C283.992 21.6498 288.349 18.8745 293.206 18.8745H295.087C298.422 18.8745 301.467 20.177 303.739 22.2987C305.958 24.3706 307.442 27.222 307.742 30.4026C305.623 34.9648 302.75 39.1069 299.281 42.6684C296.206 45.8257 292.66 48.5261 288.755 50.6574V40.9608C288.754 34.9945 286.096 29.5812 281.848 25.9043ZM275.052 3.08279C270.948 -1.0276 264.292 -1.0276 260.188 3.08279C256.083 7.19319 256.083 13.8585 260.188 17.9689C264.292 22.0792 270.948 22.0792 275.052 17.9689C279.157 13.8585 279.157 7.19294 275.052 3.08279ZM253.181 26.0898C249.06 29.761 246.486 35.087 246.486 40.9606V50.6712C242.459 48.5651 238.853 45.9034 235.737 42.7537C232.24 39.2198 229.361 35.0706 227.195 30.4024C227.495 27.2217 228.978 24.3704 231.197 22.2985C233.47 20.1768 236.515 18.8742 239.85 18.8742H241.731C246.663 18.8745 251.073 21.7328 253.181 26.0898ZM240.79 1.20447C236.611 1.20447 233.223 4.59682 233.223 8.78238C233.223 12.9679 236.611 16.3603 240.79 16.3603C244.969 16.3603 248.357 12.9679 248.357 8.78238C248.357 4.59682 244.97 1.20447 240.79 1.20447Z" fill="white"/>
<path d="M54.9237 157.32C55.6277 157.672 56.0277 158.216 56.1237 158.952C56.2517 159.688 56.0757 160.36 55.5957 160.968C55.2437 161.448 54.7797 161.72 54.2037 161.784C53.6597 161.848 53.1157 161.736 52.5717 161.448C51.6437 160.968 50.6677 160.584 49.6437 160.296C48.6197 160.008 47.5317 159.864 46.3797 159.864C44.5557 159.864 42.9077 160.168 41.4357 160.776C39.9957 161.352 38.7477 162.2 37.6917 163.32C36.6357 164.408 35.8197 165.704 35.2437 167.208C34.6997 168.712 34.4277 170.376 34.4277 172.2C34.4277 174.216 34.7317 176.008 35.3397 177.576C35.9477 179.112 36.7797 180.424 37.8357 181.512C38.9237 182.568 40.1877 183.368 41.6277 183.912C43.0997 184.424 44.6837 184.68 46.3797 184.68C47.4677 184.68 48.5237 184.552 49.5477 184.296C50.6037 184.04 51.5957 183.656 52.5237 183.144C53.0997 182.856 53.6597 182.76 54.2037 182.856C54.7797 182.92 55.2437 183.192 55.5957 183.672C56.1397 184.344 56.3317 185.032 56.1717 185.736C56.0437 186.408 55.6437 186.92 54.9717 187.272C54.1717 187.72 53.2917 188.104 52.3317 188.424C51.3717 188.744 50.3957 189 49.4037 189.192C48.4117 189.384 47.4037 189.48 46.3797 189.48C44.0757 189.48 41.8997 189.096 39.8517 188.328C37.8037 187.56 35.9797 186.44 34.3797 184.968C32.7797 183.496 31.5157 181.688 30.5877 179.544C29.6917 177.4 29.2437 174.952 29.2437 172.2C29.2437 169.736 29.6597 167.464 30.4917 165.384C31.3557 163.272 32.5557 161.464 34.0917 159.96C35.6597 158.424 37.4837 157.24 39.5637 156.408C41.6437 155.544 43.9157 155.112 46.3797 155.112C47.9157 155.112 49.4037 155.304 50.8437 155.688C52.3157 156.072 53.6757 156.616 54.9237 157.32ZM79.8713 163.752C80.5433 163.752 81.1033 163.992 81.5513 164.472C82.0313 164.92 82.2713 165.496 82.2713 166.2V178.824C82.2713 182.152 81.3433 184.76 79.4873 186.648C77.6313 188.504 75.0073 189.432 71.6153 189.432C68.2553 189.432 65.6473 188.504 63.7913 186.648C61.9673 184.76 61.0553 182.152 61.0553 178.824V166.2C61.0553 165.496 61.2793 164.92 61.7273 164.472C62.1753 163.992 62.7513 163.752 63.4553 163.752C64.1273 163.752 64.6873 163.992 65.1353 164.472C65.6153 164.92 65.8553 165.496 65.8553 166.2V178.824C65.8553 180.904 66.3353 182.456 67.2953 183.48C68.2873 184.504 69.7273 185.016 71.6153 185.016C73.5353 185.016 74.9913 184.504 75.9833 183.48C76.9753 182.456 77.4713 180.904 77.4713 178.824V166.2C77.4713 165.496 77.6953 164.92 78.1433 164.472C78.5913 163.992 79.1673 163.752 79.8713 163.752ZM87.4579 185.064C87.1699 184.616 87.0419 184.104 87.0739 183.528C87.1059 182.92 87.4419 182.408 88.0819 181.992C88.5299 181.704 88.9939 181.592 89.4739 181.656C89.9859 181.688 90.4659 181.928 90.9139 182.376C91.8099 183.368 92.8019 184.152 93.8899 184.728C95.0099 185.304 96.3539 185.592 97.9219 185.592C98.5619 185.56 99.2179 185.464 99.8899 185.304C100.562 185.112 101.138 184.792 101.618 184.344C102.098 183.864 102.338 183.176 102.338 182.28C102.338 181.48 102.082 180.84 101.57 180.36C101.058 179.88 100.386 179.496 99.5539 179.208C98.7219 178.888 97.8259 178.6 96.8659 178.344C95.8419 178.056 94.8019 177.736 93.7459 177.384C92.7219 177.032 91.7939 176.584 90.9619 176.04C90.1299 175.464 89.4419 174.728 88.8979 173.832C88.3859 172.936 88.1299 171.832 88.1299 170.52C88.1299 169.016 88.5459 167.72 89.3779 166.632C90.2419 165.544 91.3459 164.696 92.6899 164.088C94.0659 163.48 95.5539 163.176 97.1539 163.176C98.0819 163.176 99.0579 163.304 100.082 163.56C101.106 163.784 102.098 164.152 103.058 164.664C104.018 165.176 104.85 165.848 105.554 166.68C105.874 167.096 106.05 167.592 106.082 168.168C106.146 168.744 105.89 169.256 105.314 169.704C104.93 170.024 104.466 170.168 103.922 170.136C103.378 170.104 102.93 169.928 102.578 169.608C101.97 168.84 101.186 168.248 100.226 167.832C99.2659 167.384 98.1779 167.16 96.9619 167.16C96.3539 167.16 95.7139 167.256 95.0419 167.448C94.4019 167.608 93.8579 167.912 93.4099 168.36C92.9619 168.808 92.7379 169.464 92.7379 170.328C92.7379 171.128 92.9939 171.768 93.5059 172.248C94.0499 172.728 94.7539 173.128 95.6179 173.448C96.4819 173.768 97.4259 174.056 98.4499 174.312C99.4419 174.568 100.418 174.872 101.378 175.224C102.37 175.576 103.25 176.04 104.018 176.616C104.818 177.16 105.458 177.88 105.938 178.776C106.45 179.64 106.706 180.744 106.706 182.088C106.706 183.656 106.242 185 105.314 186.12C104.418 187.208 103.266 188.04 101.858 188.616C100.482 189.192 99.0259 189.48 97.4899 189.48C95.6659 189.48 93.8419 189.16 92.0179 188.52C90.2259 187.848 88.7059 186.696 87.4579 185.064ZM111.532 164.04H122.812C123.452 164.04 123.98 164.264 124.396 164.712C124.844 165.128 125.068 165.656 125.068 166.296C125.068 166.904 124.844 167.416 124.396 167.832C123.98 168.248 123.452 168.456 122.812 168.456H111.532C110.892 168.456 110.348 168.248 109.9 167.832C109.484 167.384 109.276 166.856 109.276 166.248C109.276 165.608 109.484 165.08 109.9 164.664C110.348 164.248 110.892 164.04 111.532 164.04ZM116.572 157.8C117.276 157.8 117.852 158.04 118.3 158.52C118.748 158.968 118.972 159.544 118.972 160.248V182.52C118.972 183.096 119.068 183.56 119.26 183.912C119.452 184.264 119.708 184.504 120.028 184.632C120.38 184.76 120.732 184.824 121.084 184.824C121.436 184.824 121.74 184.76 121.996 184.632C122.284 184.504 122.62 184.44 123.004 184.44C123.388 184.44 123.74 184.616 124.06 184.968C124.38 185.32 124.54 185.8 124.54 186.408C124.54 187.176 124.124 187.8 123.292 188.28C122.46 188.76 121.564 189 120.604 189C120.06 189 119.42 188.952 118.684 188.856C117.948 188.76 117.228 188.52 116.524 188.136C115.852 187.752 115.292 187.144 114.844 186.312C114.396 185.448 114.172 184.248 114.172 182.712V160.248C114.172 159.544 114.396 158.968 114.844 158.52C115.324 158.04 115.9 157.8 116.572 157.8ZM154.341 176.376C154.341 178.936 153.781 181.208 152.661 183.192C151.541 185.144 150.021 186.68 148.101 187.8C146.181 188.92 144.021 189.48 141.621 189.48C139.221 189.48 137.061 188.92 135.141 187.8C133.221 186.68 131.685 185.144 130.533 183.192C129.413 181.208 128.853 178.936 128.853 176.376C128.853 173.784 129.413 171.512 130.533 169.56C131.685 167.576 133.221 166.024 135.141 164.904C137.061 163.752 139.221 163.176 141.621 163.176C144.021 163.176 146.181 163.752 148.101 164.904C150.021 166.024 151.541 167.576 152.661 169.56C153.781 171.512 154.341 173.784 154.341 176.376ZM149.541 176.376C149.541 174.616 149.189 173.096 148.485 171.816C147.781 170.504 146.821 169.48 145.605 168.744C144.421 167.976 143.093 167.592 141.621 167.592C140.149 167.592 138.805 167.976 137.589 168.744C136.373 169.48 135.413 170.504 134.709 171.816C134.005 173.096 133.653 174.616 133.653 176.376C133.653 178.072 134.005 179.576 134.709 180.888C135.413 182.2 136.373 183.224 137.589 183.96C138.805 184.696 140.149 185.064 141.621 185.064C143.093 185.064 144.421 184.696 145.605 183.96C146.821 183.224 147.781 182.2 148.485 180.888C149.189 179.576 149.541 178.072 149.541 176.376ZM172.446 163.32C174.814 163.32 176.638 163.912 177.918 165.096C179.198 166.248 180.046 167.816 180.462 169.8L179.694 169.56L180.03 168.792C180.446 167.96 181.07 167.128 181.902 166.296C182.766 165.432 183.79 164.728 184.974 164.184C186.158 163.608 187.422 163.32 188.766 163.32C190.974 163.32 192.686 163.8 193.902 164.76C195.118 165.688 195.966 166.952 196.446 168.552C196.926 170.12 197.166 171.88 197.166 173.832V186.552C197.166 187.256 196.942 187.848 196.494 188.328C196.046 188.776 195.47 189 194.766 189C194.094 189 193.518 188.776 193.038 188.328C192.59 187.848 192.366 187.256 192.366 186.552V173.88C192.366 172.76 192.206 171.736 191.886 170.808C191.598 169.88 191.07 169.144 190.302 168.6C189.566 168.024 188.542 167.736 187.23 167.736C185.982 167.736 184.862 168.024 183.87 168.6C182.91 169.144 182.158 169.88 181.614 170.808C181.07 171.736 180.798 172.76 180.798 173.88V186.552C180.798 187.256 180.574 187.848 180.126 188.328C179.678 188.776 179.102 189 178.398 189C177.694 189 177.118 188.776 176.67 188.328C176.222 187.848 175.998 187.256 175.998 186.552V173.832C175.998 172.712 175.838 171.688 175.518 170.76C175.23 169.832 174.718 169.096 173.982 168.552C173.246 168.008 172.222 167.736 170.91 167.736C169.662 167.736 168.558 168.008 167.598 168.552C166.638 169.096 165.886 169.832 165.342 170.76C164.83 171.688 164.574 172.712 164.574 173.832V186.552C164.574 187.256 164.334 187.848 163.854 188.328C163.406 188.776 162.846 189 162.174 189C161.47 189 160.894 188.776 160.446 188.328C159.998 187.848 159.774 187.256 159.774 186.552V166.2C159.774 165.496 159.998 164.92 160.446 164.472C160.894 163.992 161.47 163.752 162.174 163.752C162.846 163.752 163.406 163.992 163.854 164.472C164.334 164.92 164.574 165.496 164.574 166.2V169.032L163.662 169.56C163.886 168.856 164.254 168.136 164.766 167.4C165.278 166.664 165.918 165.992 166.686 165.384C167.486 164.776 168.366 164.28 169.326 163.896C170.286 163.512 171.326 163.32 172.446 163.32ZM215.643 189.48C212.987 189.48 210.683 188.936 208.731 187.848C206.779 186.728 205.259 185.208 204.171 183.288C203.115 181.336 202.587 179.112 202.587 176.616C202.587 173.8 203.147 171.4 204.267 169.416C205.419 167.4 206.907 165.864 208.731 164.808C210.555 163.72 212.491 163.176 214.539 163.176C216.107 163.176 217.595 163.496 219.003 164.136C220.411 164.744 221.659 165.608 222.747 166.728C223.867 167.816 224.747 169.112 225.387 170.616C226.027 172.088 226.363 173.704 226.395 175.464C226.363 176.104 226.107 176.632 225.627 177.048C225.147 177.464 224.587 177.672 223.947 177.672H205.275L204.123 173.592H222.171L221.259 174.456V173.256C221.195 172.136 220.827 171.16 220.155 170.328C219.483 169.464 218.651 168.808 217.659 168.36C216.667 167.88 215.627 167.64 214.539 167.64C213.579 167.64 212.651 167.8 211.755 168.12C210.891 168.408 210.107 168.888 209.403 169.56C208.731 170.232 208.187 171.128 207.771 172.248C207.387 173.336 207.195 174.696 207.195 176.328C207.195 178.088 207.563 179.624 208.299 180.936C209.035 182.248 210.027 183.272 211.275 184.008C212.523 184.712 213.899 185.064 215.403 185.064C216.587 185.064 217.563 184.952 218.331 184.728C219.099 184.472 219.739 184.168 220.251 183.816C220.763 183.464 221.211 183.128 221.595 182.808C222.075 182.52 222.555 182.376 223.035 182.376C223.611 182.376 224.091 182.584 224.475 183C224.859 183.384 225.051 183.848 225.051 184.392C225.051 185.096 224.699 185.736 223.995 186.312C223.131 187.144 221.931 187.88 220.395 188.52C218.891 189.16 217.307 189.48 215.643 189.48ZM234.221 189C233.517 189 232.941 188.776 232.493 188.328C232.045 187.848 231.821 187.256 231.821 186.552V166.2C231.821 165.496 232.045 164.92 232.493 164.472C232.941 163.992 233.517 163.752 234.221 163.752C234.893 163.752 235.453 163.992 235.901 164.472C236.381 164.92 236.621 165.496 236.621 166.2V171.576L236.141 169.512C236.397 168.616 236.781 167.784 237.293 167.016C237.837 166.248 238.477 165.576 239.213 165C239.949 164.424 240.765 163.976 241.661 163.656C242.589 163.336 243.549 163.176 244.541 163.176C245.373 163.176 246.093 163.4 246.701 163.848C247.309 164.296 247.613 164.856 247.613 165.528C247.613 166.392 247.389 167.032 246.941 167.448C246.493 167.832 245.997 168.024 245.453 168.024C244.973 168.024 244.509 167.928 244.061 167.736C243.613 167.512 243.085 167.4 242.477 167.4C241.805 167.4 241.117 167.576 240.413 167.928C239.709 168.28 239.069 168.808 238.493 169.512C237.917 170.184 237.453 170.984 237.101 171.912C236.781 172.84 236.621 173.88 236.621 175.032V186.552C236.621 187.256 236.381 187.848 235.901 188.328C235.453 188.776 234.893 189 234.221 189ZM296.395 172.2C296.395 174.632 295.995 176.904 295.195 179.016C294.395 181.096 293.259 182.92 291.787 184.488C290.347 186.056 288.635 187.288 286.651 188.184C284.667 189.048 282.491 189.48 280.123 189.48C277.787 189.48 275.627 189.048 273.643 188.184C271.659 187.288 269.931 186.056 268.459 184.488C267.019 182.92 265.899 181.096 265.099 179.016C264.331 176.904 263.947 174.632 263.947 172.2C263.947 169.768 264.331 167.512 265.099 165.432C265.899 163.32 267.019 161.48 268.459 159.912C269.931 158.344 271.659 157.128 273.643 156.264C275.627 155.368 277.787 154.92 280.123 154.92C282.491 154.92 284.667 155.368 286.651 156.264C288.635 157.128 290.347 158.344 291.787 159.912C293.259 161.48 294.395 163.32 295.195 165.432C295.995 167.512 296.395 169.768 296.395 172.2ZM291.211 172.2C291.211 169.832 290.731 167.704 289.771 165.816C288.843 163.928 287.547 162.44 285.883 161.352C284.219 160.264 282.299 159.72 280.123 159.72C277.979 159.72 276.075 160.264 274.411 161.352C272.747 162.44 271.451 163.928 270.523 165.816C269.595 167.672 269.131 169.8 269.131 172.2C269.131 174.568 269.595 176.696 270.523 178.584C271.451 180.472 272.747 181.96 274.411 183.048C276.075 184.136 277.979 184.68 280.123 184.68C282.299 184.68 284.219 184.136 285.883 183.048C287.547 181.96 288.843 180.472 289.771 178.584C290.731 176.696 291.211 174.568 291.211 172.2ZM314.478 163.176C316.718 163.176 318.702 163.736 320.43 164.856C322.19 165.976 323.582 167.528 324.606 169.512C325.63 171.464 326.142 173.72 326.142 176.28C326.142 178.84 325.63 181.112 324.606 183.096C323.582 185.08 322.206 186.648 320.478 187.8C318.75 188.92 316.798 189.48 314.622 189.48C313.406 189.48 312.254 189.288 311.166 188.904C310.078 188.488 309.118 187.976 308.286 187.368C307.454 186.728 306.766 186.056 306.222 185.352C305.71 184.648 305.39 183.992 305.262 183.384L306.558 182.76V186.936C306.558 187.608 306.318 188.184 305.838 188.664C305.39 189.112 304.83 189.336 304.158 189.336C303.454 189.336 302.878 189.112 302.43 188.664C301.982 188.216 301.758 187.64 301.758 186.936V155.928C301.758 155.224 301.982 154.648 302.43 154.2C302.878 153.72 303.454 153.48 304.158 153.48C304.83 153.48 305.39 153.72 305.838 154.2C306.318 154.648 306.558 155.224 306.558 155.928V169.416L305.79 168.984C305.886 168.376 306.19 167.752 306.702 167.112C307.214 166.44 307.854 165.8 308.622 165.192C309.422 164.584 310.318 164.104 311.31 163.752C312.334 163.368 313.39 163.176 314.478 163.176ZM313.95 167.592C312.414 167.592 311.07 167.976 309.918 168.744C308.798 169.512 307.918 170.552 307.278 171.864C306.638 173.144 306.318 174.616 306.318 176.28C306.318 177.944 306.638 179.448 307.278 180.792C307.918 182.104 308.798 183.144 309.918 183.912C311.07 184.68 312.414 185.064 313.95 185.064C315.454 185.064 316.766 184.68 317.886 183.912C319.006 183.144 319.886 182.088 320.526 180.744C321.198 179.4 321.534 177.912 321.534 176.28C321.534 174.616 321.198 173.144 320.526 171.864C319.886 170.552 319.006 169.512 317.886 168.744C316.766 167.976 315.454 167.592 313.95 167.592ZM330.083 185.064C329.795 184.616 329.667 184.104 329.699 183.528C329.731 182.92 330.067 182.408 330.707 181.992C331.155 181.704 331.619 181.592 332.099 181.656C332.611 181.688 333.091 181.928 333.539 182.376C334.435 183.368 335.427 184.152 336.515 184.728C337.635 185.304 338.979 185.592 340.547 185.592C341.187 185.56 341.843 185.464 342.515 185.304C343.187 185.112 343.763 184.792 344.243 184.344C344.723 183.864 344.963 183.176 344.963 182.28C344.963 181.48 344.707 180.84 344.195 180.36C343.683 179.88 343.011 179.496 342.179 179.208C341.347 178.888 340.451 178.6 339.491 178.344C338.467 178.056 337.427 177.736 336.371 177.384C335.347 177.032 334.419 176.584 333.587 176.04C332.755 175.464 332.067 174.728 331.523 173.832C331.011 172.936 330.755 171.832 330.755 170.52C330.755 169.016 331.171 167.72 332.003 166.632C332.867 165.544 333.971 164.696 335.315 164.088C336.691 163.48 338.179 163.176 339.779 163.176C340.707 163.176 341.683 163.304 342.707 163.56C343.731 163.784 344.723 164.152 345.683 164.664C346.643 165.176 347.475 165.848 348.179 166.68C348.499 167.096 348.675 167.592 348.707 168.168C348.771 168.744 348.515 169.256 347.939 169.704C347.555 170.024 347.091 170.168 346.547 170.136C346.003 170.104 345.555 169.928 345.203 169.608C344.595 168.84 343.811 168.248 342.851 167.832C341.891 167.384 340.803 167.16 339.587 167.16C338.979 167.16 338.339 167.256 337.667 167.448C337.027 167.608 336.483 167.912 336.035 168.36C335.587 168.808 335.363 169.464 335.363 170.328C335.363 171.128 335.619 171.768 336.131 172.248C336.675 172.728 337.379 173.128 338.243 173.448C339.107 173.768 340.051 174.056 341.075 174.312C342.067 174.568 343.043 174.872 344.003 175.224C344.995 175.576 345.875 176.04 346.643 176.616C347.443 177.16 348.083 177.88 348.563 178.776C349.075 179.64 349.331 180.744 349.331 182.088C349.331 183.656 348.867 185 347.939 186.12C347.043 187.208 345.891 188.04 344.483 188.616C343.107 189.192 341.651 189.48 340.115 189.48C338.291 189.48 336.467 189.16 334.643 188.52C332.851 187.848 331.331 186.696 330.083 185.064ZM366.253 189.48C363.597 189.48 361.293 188.936 359.341 187.848C357.389 186.728 355.869 185.208 354.781 183.288C353.725 181.336 353.197 179.112 353.197 176.616C353.197 173.8 353.757 171.4 354.877 169.416C356.029 167.4 357.517 165.864 359.341 164.808C361.165 163.72 363.101 163.176 365.149 163.176C366.717 163.176 368.205 163.496 369.613 164.136C371.021 164.744 372.269 165.608 373.357 166.728C374.477 167.816 375.357 169.112 375.997 170.616C376.637 172.088 376.973 173.704 377.005 175.464C376.973 176.104 376.717 176.632 376.237 177.048C375.757 177.464 375.197 177.672 374.557 177.672H355.885L354.733 173.592H372.781L371.869 174.456V173.256C371.805 172.136 371.437 171.16 370.765 170.328C370.093 169.464 369.261 168.808 368.269 168.36C367.277 167.88 366.237 167.64 365.149 167.64C364.189 167.64 363.261 167.8 362.365 168.12C361.501 168.408 360.717 168.888 360.013 169.56C359.341 170.232 358.797 171.128 358.381 172.248C357.997 173.336 357.805 174.696 357.805 176.328C357.805 178.088 358.173 179.624 358.909 180.936C359.645 182.248 360.637 183.272 361.885 184.008C363.133 184.712 364.509 185.064 366.013 185.064C367.197 185.064 368.173 184.952 368.941 184.728C369.709 184.472 370.349 184.168 370.861 183.816C371.373 183.464 371.821 183.128 372.205 182.808C372.685 182.52 373.165 182.376 373.645 182.376C374.221 182.376 374.701 182.584 375.085 183C375.469 183.384 375.661 183.848 375.661 184.392C375.661 185.096 375.309 185.736 374.605 186.312C373.741 187.144 372.541 187.88 371.005 188.52C369.501 189.16 367.917 189.48 366.253 189.48ZM380.942 185.064C380.654 184.616 380.526 184.104 380.558 183.528C380.59 182.92 380.926 182.408 381.566 181.992C382.014 181.704 382.478 181.592 382.958 181.656C383.47 181.688 383.95 181.928 384.398 182.376C385.294 183.368 386.286 184.152 387.374 184.728C388.494 185.304 389.838 185.592 391.406 185.592C392.046 185.56 392.702 185.464 393.374 185.304C394.046 185.112 394.622 184.792 395.102 184.344C395.582 183.864 395.822 183.176 395.822 182.28C395.822 181.48 395.566 180.84 395.054 180.36C394.542 179.88 393.87 179.496 393.038 179.208C392.206 178.888 391.31 178.6 390.35 178.344C389.326 178.056 388.286 177.736 387.23 177.384C386.206 177.032 385.278 176.584 384.446 176.04C383.614 175.464 382.926 174.728 382.382 173.832C381.87 172.936 381.614 171.832 381.614 170.52C381.614 169.016 382.03 167.72 382.862 166.632C383.726 165.544 384.83 164.696 386.174 164.088C387.55 163.48 389.038 163.176 390.638 163.176C391.566 163.176 392.542 163.304 393.566 163.56C394.59 163.784 395.582 164.152 396.542 164.664C397.502 165.176 398.334 165.848 399.038 166.68C399.358 167.096 399.534 167.592 399.566 168.168C399.63 168.744 399.374 169.256 398.798 169.704C398.414 170.024 397.95 170.168 397.406 170.136C396.862 170.104 396.414 169.928 396.062 169.608C395.454 168.84 394.67 168.248 393.71 167.832C392.75 167.384 391.662 167.16 390.446 167.16C389.838 167.16 389.198 167.256 388.526 167.448C387.886 167.608 387.342 167.912 386.894 168.36C386.446 168.808 386.222 169.464 386.222 170.328C386.222 171.128 386.478 171.768 386.99 172.248C387.534 172.728 388.238 173.128 389.102 173.448C389.966 173.768 390.91 174.056 391.934 174.312C392.926 174.568 393.902 174.872 394.862 175.224C395.854 175.576 396.734 176.04 397.502 176.616C398.302 177.16 398.942 177.88 399.422 178.776C399.934 179.64 400.19 180.744 400.19 182.088C400.19 183.656 399.726 185 398.798 186.12C397.902 187.208 396.75 188.04 395.342 188.616C393.966 189.192 392.51 189.48 390.974 189.48C389.15 189.48 387.326 189.16 385.502 188.52C383.71 187.848 382.19 186.696 380.942 185.064ZM403.864 185.064C403.576 184.616 403.448 184.104 403.48 183.528C403.512 182.92 403.848 182.408 404.488 181.992C404.936 181.704 405.4 181.592 405.88 181.656C406.392 181.688 406.872 181.928 407.32 182.376C408.216 183.368 409.208 184.152 410.296 184.728C411.416 185.304 412.76 185.592 414.328 185.592C414.968 185.56 415.624 185.464 416.296 185.304C416.968 185.112 417.544 184.792 418.024 184.344C418.504 183.864 418.744 183.176 418.744 182.28C418.744 181.48 418.488 180.84 417.976 180.36C417.464 179.88 416.792 179.496 415.96 179.208C415.128 178.888 414.232 178.6 413.272 178.344C412.248 178.056 411.208 177.736 410.152 177.384C409.128 177.032 408.2 176.584 407.368 176.04C406.536 175.464 405.848 174.728 405.304 173.832C404.792 172.936 404.536 171.832 404.536 170.52C404.536 169.016 404.952 167.72 405.784 166.632C406.648 165.544 407.752 164.696 409.096 164.088C410.472 163.48 411.96 163.176 413.56 163.176C414.488 163.176 415.464 163.304 416.488 163.56C417.512 163.784 418.504 164.152 419.464 164.664C420.424 165.176 421.256 165.848 421.96 166.68C422.28 167.096 422.456 167.592 422.488 168.168C422.552 168.744 422.296 169.256 421.72 169.704C421.336 170.024 420.872 170.168 420.328 170.136C419.784 170.104 419.336 169.928 418.984 169.608C418.376 168.84 417.592 168.248 416.632 167.832C415.672 167.384 414.584 167.16 413.368 167.16C412.76 167.16 412.12 167.256 411.448 167.448C410.808 167.608 410.264 167.912 409.816 168.36C409.368 168.808 409.144 169.464 409.144 170.328C409.144 171.128 409.4 171.768 409.912 172.248C410.456 172.728 411.16 173.128 412.024 173.448C412.888 173.768 413.832 174.056 414.856 174.312C415.848 174.568 416.824 174.872 417.784 175.224C418.776 175.576 419.656 176.04 420.424 176.616C421.224 177.16 421.864 177.88 422.344 178.776C422.856 179.64 423.112 180.744 423.112 182.088C423.112 183.656 422.648 185 421.72 186.12C420.824 187.208 419.672 188.04 418.264 188.616C416.888 189.192 415.432 189.48 413.896 189.48C412.072 189.48 410.248 189.16 408.424 188.52C406.632 187.848 405.112 186.696 403.864 185.064ZM432.786 186.552C432.786 187.256 432.562 187.848 432.114 188.328C431.666 188.776 431.09 189 430.386 189C429.714 189 429.138 188.776 428.658 188.328C428.21 187.848 427.986 187.256 427.986 186.552V166.008C427.986 165.304 428.21 164.728 428.658 164.28C429.138 163.8 429.714 163.56 430.386 163.56C431.09 163.56 431.666 163.8 432.114 164.28C432.562 164.728 432.786 165.304 432.786 166.008V186.552ZM430.338 160.392C429.41 160.392 428.738 160.232 428.322 159.912C427.906 159.56 427.698 158.984 427.698 158.184V157.416C427.698 156.616 427.922 156.056 428.37 155.736C428.818 155.416 429.49 155.256 430.386 155.256C431.346 155.256 432.034 155.432 432.45 155.784C432.866 156.104 433.074 156.648 433.074 157.416V158.184C433.074 159.016 432.85 159.592 432.402 159.912C431.986 160.232 431.298 160.392 430.338 160.392ZM463.435 176.376C463.435 178.936 462.875 181.208 461.755 183.192C460.635 185.144 459.115 186.68 457.195 187.8C455.275 188.92 453.115 189.48 450.715 189.48C448.315 189.48 446.155 188.92 444.235 187.8C442.315 186.68 440.779 185.144 439.627 183.192C438.507 181.208 437.947 178.936 437.947 176.376C437.947 173.784 438.507 171.512 439.627 169.56C440.779 167.576 442.315 166.024 444.235 164.904C446.155 163.752 448.315 163.176 450.715 163.176C453.115 163.176 455.275 163.752 457.195 164.904C459.115 166.024 460.635 167.576 461.755 169.56C462.875 171.512 463.435 173.784 463.435 176.376ZM458.635 176.376C458.635 174.616 458.283 173.096 457.579 171.816C456.875 170.504 455.915 169.48 454.699 168.744C453.515 167.976 452.187 167.592 450.715 167.592C449.243 167.592 447.899 167.976 446.683 168.744C445.467 169.48 444.507 170.504 443.803 171.816C443.099 173.096 442.747 174.616 442.747 176.376C442.747 178.072 443.099 179.576 443.803 180.888C444.507 182.2 445.467 183.224 446.683 183.96C447.899 184.696 449.243 185.064 450.715 185.064C452.187 185.064 453.515 184.696 454.699 183.96C455.915 183.224 456.875 182.2 457.579 180.888C458.283 179.576 458.635 178.072 458.635 176.376ZM481.876 163.176C484.148 163.176 485.908 163.656 487.156 164.616C488.404 165.544 489.268 166.808 489.748 168.408C490.26 169.976 490.516 171.736 490.516 173.688V186.552C490.516 187.256 490.276 187.848 489.796 188.328C489.348 188.776 488.788 189 488.116 189C487.412 189 486.836 188.776 486.388 188.328C485.94 187.848 485.716 187.256 485.716 186.552V173.736C485.716 172.584 485.556 171.56 485.236 170.664C484.916 169.736 484.356 169 483.556 168.456C482.788 167.88 481.7 167.592 480.292 167.592C478.98 167.592 477.828 167.88 476.836 168.456C475.844 169 475.06 169.736 474.484 170.664C473.94 171.56 473.668 172.584 473.668 173.736V186.552C473.668 187.256 473.428 187.848 472.948 188.328C472.5 188.776 471.94 189 471.268 189C470.564 189 469.988 188.776 469.54 188.328C469.092 187.848 468.868 187.256 468.868 186.552V166.2C468.868 165.496 469.092 164.92 469.54 164.472C469.988 163.992 470.564 163.752 471.268 163.752C471.94 163.752 472.5 163.992 472.948 164.472C473.428 164.92 473.668 165.496 473.668 166.2V168.888L472.804 169.368C473.028 168.664 473.412 167.96 473.956 167.256C474.532 166.52 475.22 165.848 476.02 165.24C476.82 164.6 477.716 164.104 478.708 163.752C479.7 163.368 480.756 163.176 481.876 163.176Z" fill="white"/>
</svg>
