<svg width="660" height="258" viewBox="0 0 660 258" fill="none" xmlns="http://www.w3.org/2000/svg">
<path fill-rule="evenodd" clip-rule="evenodd" d="M382.872 73.3177V108H353.187V73.3177H382.872ZM338.798 5.29352C337.845 4.82278 336.874 4.38112 335.886 3.96851L334.579 7.10095C335.503 7.48451 336.403 7.89713 337.298 8.333L338.798 5.29352ZM332.603 2.73058C331.498 2.35864 330.377 2.02158 329.244 1.71938L328.378 5.00863C329.435 5.28758 330.476 5.60141 331.522 5.95009L332.603 2.73058ZM325.821 0.940676C324.676 0.725652 323.519 0.539683 322.357 0.39439L321.944 3.75922C323.043 3.89289 324.1 4.07305 325.187 4.27064L325.821 0.940676ZM318.87 0.074763C317.696 0.0166487 316.534 -0.0124099 315.366 0.00502498L315.406 3.39307C316.505 3.37563 317.597 3.4105 318.684 3.46281L318.87 0.074763ZM311.861 0.161936C310.699 0.249109 309.531 0.37696 308.374 0.557111L308.88 3.91614C309.955 3.75923 311.042 3.62557 312.134 3.54421L311.861 0.161936ZM304.928 1.17894C303.777 1.42884 302.644 1.71941 301.523 2.04486L302.476 5.3051C303.527 4.99128 304.585 4.72976 305.649 4.4973L304.928 1.17894ZM298.193 3.14321C297.094 3.54421 296.013 3.98007 294.944 4.45661L296.321 7.54829C297.321 7.10661 298.332 6.69982 299.367 6.32206L298.193 3.14321ZM291.777 5.99091C290.742 6.53719 289.725 7.12995 288.731 7.7402L290.521 10.6227C291.451 10.0474 292.398 9.50108 293.369 8.9896L291.777 5.99091ZM265.653 64.0249C265.694 64.1934 265.741 64.3678 265.781 64.5363L269.071 63.6936C269.03 63.5367 268.989 63.3798 268.96 63.2229L265.653 64.0249ZM266.763 67.9012C267.124 69.017 267.525 70.1096 267.966 71.1904L271.105 69.9177C270.698 68.9065 270.32 67.8837 269.983 66.8376L266.763 67.9012ZM269.379 74.4101C269.89 75.462 270.436 76.4963 271.023 77.5018L273.958 75.8106C273.423 74.8692 272.906 73.8928 272.424 72.9107L269.379 74.4101ZM272.866 80.4947C273.516 81.4652 274.196 82.4183 274.911 83.3423L277.596 81.2677C276.928 80.4018 276.289 79.5126 275.69 78.6002L272.866 80.4947ZM277.149 86.0505C277.916 86.9222 278.718 87.7766 279.555 88.6017L281.937 86.1783C281.153 85.4112 280.403 84.615 279.683 83.7897L277.149 86.0505ZM282.129 90.9787C283.018 91.74 283.925 92.478 284.866 93.1813L286.895 90.4615C286.023 89.7932 285.174 89.1132 284.343 88.3984L282.129 90.9787ZM287.731 95.1977C288.708 95.8254 289.713 96.4414 290.73 97.011L292.381 94.0471C291.428 93.5241 290.486 92.9371 289.574 92.3502L287.731 95.1977ZM293.851 98.6149C294.909 99.1205 295.978 99.5855 297.076 100.01L298.308 96.8482C297.291 96.4473 296.286 96.0172 295.304 95.5523L293.851 98.6149ZM300.389 101.178C301.505 101.532 302.626 101.846 303.765 102.119L304.561 98.8301C303.492 98.5744 302.446 98.278 301.4 97.9467L300.389 101.178ZM327.696 99.2834H310.593C311.419 103.351 314.993 106.28 319.142 106.28C323.297 106.28 326.871 103.351 327.691 99.2834H327.696ZM395.307 31.8469H388.502C387.09 31.8527 385.799 32.6489 385.16 33.9099H357.405C356.487 33.8809 355.76 33.1312 355.76 32.213C355.76 31.2948 356.486 30.5451 357.405 30.5161H361.374C359.131 28.7726 356.01 28.7028 353.691 30.3417C351.372 31.9864 350.402 34.9503 351.303 37.6409C352.198 40.3375 354.755 42.1274 357.597 42.046C360.432 41.9646 362.885 40.0409 363.635 37.298H367.104C366.32 41.7612 362.583 45.1145 358.061 45.4108C353.54 45.7072 349.402 42.8828 348.037 38.559C346.671 34.2353 348.438 29.5454 352.308 27.1917C356.184 24.8381 361.159 25.4366 364.367 28.6388C364.931 29.2083 365.419 29.836 365.837 30.5217H371.033C368.458 23.6177 361.13 19.7297 353.97 21.4732C346.81 23.2109 342.085 30.0278 342.963 37.3445C343.846 44.6554 350.059 50.1589 357.428 50.1473C364.791 50.1357 370.986 44.6206 371.852 37.3039H375.269H375.263C374.392 46.4977 366.68 53.5173 357.445 53.5292C348.21 53.535 340.481 46.5264 339.592 37.3381C338.697 28.1501 344.938 19.7872 353.998 18.0212C363.064 16.2545 371.985 21.665 374.607 30.5217H379.459C377.739 23.0306 372.334 16.9286 365.105 14.3127C357.881 11.6918 349.821 12.918 343.701 17.5672C337.58 22.2164 334.239 29.6493 334.815 37.3095C335.396 44.9748 339.824 51.8208 346.571 55.4942C353.324 59.1672 361.479 59.1612 368.226 55.4884C374.972 51.8156 379.401 44.9638 379.976 37.3037H385.16C385.799 38.559 387.09 39.3552 388.502 39.361H395.307V37.2979H398.44C399.375 37.2979 400.136 36.5424 400.136 35.601C400.136 34.6653 399.375 33.9099 398.44 33.9099H395.307L395.307 31.8469ZM335.105 22.1707C330.253 19.3638 324.744 17.8935 319.136 17.9051C309.553 17.9109 300.475 22.2171 294.414 29.6443C288.353 37.0714 285.953 46.8233 287.87 56.2139C289.788 65.6053 295.826 73.6369 304.311 78.0882C306.165 79.0413 307.717 80.4942 308.804 82.2725C309.693 83.7486 310.227 85.4108 310.367 87.1251H313.017L313.023 51.6989H308.978C308.042 51.6989 307.281 50.9376 307.281 50.002C307.281 49.0664 308.042 48.3051 308.978 48.3051H329.289C330.224 48.3051 330.986 49.0664 330.986 50.002C330.986 50.9376 330.224 51.6989 329.289 51.6989H325.25V87.131H327.9C328.045 85.4167 328.58 83.7546 329.469 82.2785C330.556 80.4944 332.107 79.0472 333.955 78.0942C341.121 74.3224 346.595 67.9821 349.28 60.3394C341.755 57.8637 335.763 52.0929 333.008 44.666C330.247 37.2389 331.02 28.9629 335.106 22.1758L335.105 22.1707ZM283.86 51.0255C283.442 51.0662 283.035 51.0778 282.634 51.0778H282.628C278.868 51.0778 275.305 49.3693 272.946 46.4345C270.587 43.4996 269.686 39.6582 270.499 35.9796C271.307 32.3009 273.736 29.1918 277.113 27.5181C280.484 25.8444 284.43 25.7862 287.853 27.367C288.823 27.8261 289.736 28.4014 290.567 29.0871C292.618 26.2686 295.076 23.7638 297.854 21.66L296.889 20.7069L293.362 22.5026H293.368C292.862 22.7583 292.263 22.7467 291.77 22.4677C290.485 21.7413 289.12 21.1776 287.696 20.7766C287.114 20.643 286.644 20.2129 286.464 19.6434L285.237 15.8834L280.019 15.8892L278.798 19.6492V19.6434C278.624 20.1838 278.182 20.6023 277.636 20.7534C276.915 20.951 276.212 21.1951 275.521 21.4798C274.875 21.7471 274.242 22.0551 273.626 22.3922C273.115 22.7409 272.452 22.7874 271.894 22.5084L268.367 20.6952L264.682 24.3855L266.483 27.9131C266.745 28.4129 266.733 29.0173 266.454 29.5055C266.077 30.1563 265.751 30.8305 265.466 31.5279C265.193 32.1962 264.955 32.8703 264.752 33.5619C264.624 34.1431 264.194 34.6138 263.63 34.7998L259.864 36.026V41.2679L263.63 42.4883C264.171 42.6627 264.589 43.0986 264.734 43.6507C264.932 44.3713 265.176 45.0745 265.466 45.7661C265.74 46.4228 266.053 47.0679 266.396 47.6897C266.728 48.2011 266.762 48.8462 266.489 49.3867L264.682 52.92L268.378 56.6046L271.906 54.8089L271.912 54.8147C272.411 54.559 273.01 54.5706 273.498 54.8496C274.161 55.2157 274.841 55.5469 275.538 55.8375C276.2 56.1107 276.88 56.3431 277.572 56.5407C278.153 56.6744 278.618 57.1044 278.804 57.6681L280.024 61.4281H285.243L285.516 60.6029C284.522 57.5054 283.965 54.28 283.86 51.0255ZM288.695 31.9348H288.689C288.015 31.3304 287.254 30.8306 286.429 30.4471C283.947 29.2964 281.07 29.3312 278.618 30.5458C276.16 31.7663 274.393 34.0269 273.8 36.7002C273.213 39.3793 273.864 42.1747 275.584 44.3133C277.299 46.4461 279.891 47.6897 282.628 47.6897C283.046 47.6955 283.471 47.6665 283.883 47.6084H283.907C284.244 42.0817 285.882 36.7117 288.695 31.9348ZM316.422 87.1331H321.856V51.701H316.422V87.1331ZM310.425 95.8968H327.86V90.5328H310.425V95.8968ZM360.456 102.766C359.521 102.766 358.759 102.005 358.759 101.063C358.759 100.128 359.521 99.3664 360.456 99.3664H375.602C376.543 99.3664 377.304 100.128 377.304 101.063C377.304 102.005 376.543 102.766 375.602 102.766H360.456ZM360.456 95.8329C359.521 95.8329 358.759 95.0715 358.759 94.1301C358.759 93.1945 359.521 92.4332 360.456 92.4332H375.602C376.543 92.4332 377.304 93.1945 377.304 94.1301C377.304 95.0716 376.543 95.8329 375.602 95.8329H360.456ZM360.456 88.8881C360.003 88.8997 359.555 88.7311 359.224 88.4115C358.899 88.0919 358.713 87.6502 358.713 87.1911C358.713 86.732 358.899 86.2961 359.224 85.9765C359.555 85.6569 360.003 85.4825 360.456 85.5H375.602C376.52 85.5232 377.246 86.2787 377.246 87.1911C377.246 88.1093 376.52 88.859 375.602 88.888L360.456 88.8881ZM360.456 81.9549C360.003 81.9665 359.555 81.798 359.224 81.4783C358.899 81.1587 358.713 80.717 358.713 80.2579C358.713 79.7988 358.899 79.363 359.224 79.0433C359.555 78.7237 360.003 78.5493 360.456 78.561H375.602C376.52 78.59 377.246 79.3397 377.246 80.2579C377.246 81.1761 376.52 81.9258 375.602 81.9548L360.456 81.9549Z" fill="white"/>
<path d="M88.0039 189C87.2359 189 86.6119 188.776 86.1319 188.328C85.6839 187.848 85.4599 187.256 85.4599 186.552V157.8H90.5959V186.552C90.5959 187.256 90.3399 187.848 89.8279 188.328C89.3479 188.776 88.7399 189 88.0039 189ZM77.1079 160.008C76.4359 160.008 75.8599 159.8 75.3799 159.384C74.8999 158.936 74.6599 158.36 74.6599 157.656C74.6599 156.984 74.8999 156.44 75.3799 156.024C75.8599 155.608 76.4359 155.4 77.1079 155.4H98.9479C99.6199 155.4 100.18 155.624 100.628 156.072C101.108 156.488 101.348 157.032 101.348 157.704C101.348 158.408 101.108 158.968 100.628 159.384C100.18 159.8 99.6199 160.008 98.9479 160.008H77.1079ZM118.971 163.32C121.179 163.32 122.891 163.8 124.107 164.76C125.323 165.688 126.171 166.952 126.651 168.552C127.163 170.152 127.419 171.912 127.419 173.832V186.552C127.419 187.256 127.179 187.848 126.699 188.328C126.251 188.776 125.691 189 125.019 189C124.315 189 123.739 188.776 123.291 188.328C122.843 187.848 122.619 187.256 122.619 186.552V173.832C122.619 172.712 122.459 171.688 122.139 170.76C121.851 169.832 121.323 169.096 120.555 168.552C119.819 168.008 118.779 167.736 117.435 167.736C116.187 167.736 115.067 168.008 114.075 168.552C113.115 169.096 112.363 169.832 111.819 170.76C111.307 171.688 111.051 172.712 111.051 173.832V186.552C111.051 187.256 110.811 187.848 110.331 188.328C109.883 188.776 109.323 189 108.651 189C107.947 189 107.371 188.776 106.923 188.328C106.475 187.848 106.251 187.256 106.251 186.552V155.928C106.251 155.224 106.475 154.648 106.923 154.2C107.371 153.72 107.947 153.48 108.651 153.48C109.323 153.48 109.883 153.72 110.331 154.2C110.811 154.648 111.051 155.224 111.051 155.928V169.032L110.187 169.512C110.411 168.808 110.779 168.088 111.291 167.352C111.835 166.616 112.491 165.944 113.259 165.336C114.059 164.728 114.939 164.248 115.899 163.896C116.859 163.512 117.883 163.32 118.971 163.32ZM138.606 186.552C138.606 187.256 138.382 187.848 137.934 188.328C137.486 188.776 136.91 189 136.206 189C135.534 189 134.958 188.776 134.478 188.328C134.03 187.848 133.806 187.256 133.806 186.552V166.008C133.806 165.304 134.03 164.728 134.478 164.28C134.958 163.8 135.534 163.56 136.206 163.56C136.91 163.56 137.486 163.8 137.934 164.28C138.382 164.728 138.606 165.304 138.606 166.008V186.552ZM136.158 160.392C135.23 160.392 134.558 160.232 134.142 159.912C133.726 159.56 133.518 158.984 133.518 158.184V157.416C133.518 156.616 133.742 156.056 134.19 155.736C134.638 155.416 135.31 155.256 136.206 155.256C137.166 155.256 137.854 155.432 138.27 155.784C138.686 156.104 138.894 156.648 138.894 157.416V158.184C138.894 159.016 138.67 159.592 138.222 159.912C137.806 160.232 137.118 160.392 136.158 160.392ZM158.071 163.176C160.343 163.176 162.103 163.656 163.351 164.616C164.599 165.544 165.463 166.808 165.943 168.408C166.455 169.976 166.711 171.736 166.711 173.688V186.552C166.711 187.256 166.471 187.848 165.991 188.328C165.543 188.776 164.983 189 164.311 189C163.607 189 163.031 188.776 162.583 188.328C162.135 187.848 161.911 187.256 161.911 186.552V173.736C161.911 172.584 161.751 171.56 161.431 170.664C161.111 169.736 160.551 169 159.751 168.456C158.983 167.88 157.895 167.592 156.487 167.592C155.175 167.592 154.023 167.88 153.031 168.456C152.039 169 151.255 169.736 150.679 170.664C150.135 171.56 149.863 172.584 149.863 173.736V186.552C149.863 187.256 149.623 187.848 149.143 188.328C148.695 188.776 148.135 189 147.463 189C146.759 189 146.183 188.776 145.735 188.328C145.287 187.848 145.063 187.256 145.063 186.552V166.2C145.063 165.496 145.287 164.92 145.735 164.472C146.183 163.992 146.759 163.752 147.463 163.752C148.135 163.752 148.695 163.992 149.143 164.472C149.623 164.92 149.863 165.496 149.863 166.2V168.888L148.999 169.368C149.223 168.664 149.607 167.96 150.151 167.256C150.727 166.52 151.415 165.848 152.215 165.24C153.015 164.6 153.911 164.104 154.903 163.752C155.895 163.368 156.951 163.176 158.071 163.176ZM176.16 189C175.488 189 174.912 188.776 174.432 188.328C173.984 187.848 173.76 187.256 173.76 186.552V155.928C173.76 155.224 173.984 154.648 174.432 154.2C174.912 153.72 175.488 153.48 176.16 153.48C176.864 153.48 177.44 153.72 177.888 154.2C178.336 154.648 178.56 155.224 178.56 155.928V186.552C178.56 187.256 178.336 187.848 177.888 188.328C177.44 188.776 176.864 189 176.16 189ZM191.808 163.656C192.416 163.656 192.944 163.912 193.392 164.424C193.84 164.936 194.064 165.448 194.064 165.96C194.064 166.6 193.76 167.192 193.152 167.736L178.128 181.176L177.936 175.656L190.032 164.424C190.544 163.912 191.136 163.656 191.808 163.656ZM192.384 188.952C191.712 188.952 191.136 188.68 190.656 188.136L181.056 178.008L184.704 174.648L194.064 184.776C194.576 185.32 194.832 185.928 194.832 186.6C194.832 187.304 194.544 187.88 193.968 188.328C193.424 188.744 192.896 188.952 192.384 188.952ZM228.765 155.4C231.709 155.4 233.933 156.12 235.437 157.56C236.973 159 237.741 161.096 237.741 163.848C237.741 165.288 237.389 166.6 236.685 167.784C236.013 168.936 235.005 169.848 233.661 170.52C232.349 171.192 230.701 171.544 228.717 171.576L228.813 169.8C229.869 169.8 231.005 169.944 232.221 170.232C233.469 170.52 234.637 171.016 235.725 171.72C236.813 172.424 237.709 173.384 238.413 174.6C239.117 175.784 239.469 177.272 239.469 179.064C239.469 181.016 239.149 182.648 238.509 183.96C237.869 185.24 237.021 186.248 235.965 186.984C234.909 187.72 233.741 188.248 232.461 188.568C231.213 188.856 229.981 189 228.765 189H216.477C215.805 189 215.229 188.776 214.749 188.328C214.269 187.848 214.029 187.256 214.029 186.552V157.848C214.029 157.144 214.269 156.568 214.749 156.12C215.229 155.64 215.805 155.4 216.477 155.4H228.765ZM228.093 160.104H218.637L219.213 159.336V169.656L218.685 169.128H228.189C229.341 169.096 230.349 168.712 231.213 167.976C232.109 167.208 232.557 166.088 232.557 164.616C232.557 163.112 232.157 161.992 231.357 161.256C230.557 160.488 229.469 160.104 228.093 160.104ZM228.429 173.832H218.877L219.213 173.496V184.824L218.829 184.392H228.717C230.381 184.392 231.725 183.96 232.749 183.096C233.773 182.2 234.285 180.856 234.285 179.064C234.285 177.56 233.981 176.44 233.373 175.704C232.765 174.968 232.013 174.472 231.117 174.216C230.221 173.96 229.325 173.832 228.429 173.832ZM249.419 186.552C249.419 187.256 249.195 187.848 248.747 188.328C248.299 188.776 247.723 189 247.019 189C246.347 189 245.771 188.776 245.291 188.328C244.843 187.848 244.619 187.256 244.619 186.552V166.008C244.619 165.304 244.843 164.728 245.291 164.28C245.771 163.8 246.347 163.56 247.019 163.56C247.723 163.56 248.299 163.8 248.747 164.28C249.195 164.728 249.419 165.304 249.419 166.008V186.552ZM246.971 160.392C246.043 160.392 245.371 160.232 244.955 159.912C244.539 159.56 244.331 158.984 244.331 158.184V157.416C244.331 156.616 244.555 156.056 245.003 155.736C245.451 155.416 246.123 155.256 247.019 155.256C247.979 155.256 248.667 155.432 249.083 155.784C249.499 156.104 249.707 156.648 249.707 157.416V158.184C249.707 159.016 249.483 159.592 249.035 159.912C248.619 160.232 247.931 160.392 246.971 160.392ZM266.388 163.176C267.764 163.176 269.028 163.4 270.18 163.848C271.332 164.296 272.324 164.872 273.156 165.576C274.02 166.248 274.692 166.952 275.172 167.688C275.652 168.424 275.892 169.064 275.892 169.608L274.788 169.656V165.816C274.788 165.144 275.012 164.568 275.46 164.088C275.908 163.608 276.484 163.368 277.188 163.368C277.892 163.368 278.468 163.608 278.916 164.088C279.364 164.536 279.588 165.112 279.588 165.816V186.984C279.588 189.704 279.012 191.912 277.86 193.608C276.708 195.336 275.172 196.6 273.252 197.4C271.364 198.2 269.284 198.6 267.012 198.6C266.212 198.6 265.268 198.488 264.18 198.264C263.092 198.072 262.084 197.832 261.156 197.544C260.26 197.256 259.636 196.968 259.284 196.68C258.548 196.296 258.052 195.848 257.796 195.336C257.572 194.824 257.572 194.312 257.796 193.8C258.116 193.096 258.548 192.664 259.092 192.504C259.636 192.344 260.26 192.392 260.964 192.648C261.284 192.744 261.78 192.92 262.452 193.176C263.124 193.432 263.876 193.656 264.708 193.848C265.54 194.072 266.324 194.184 267.06 194.184C269.62 194.184 271.54 193.592 272.82 192.408C274.132 191.224 274.788 189.608 274.788 187.56V183.24L275.316 183.576C275.22 184.248 274.916 184.936 274.404 185.64C273.924 186.312 273.284 186.936 272.484 187.512C271.684 188.088 270.756 188.568 269.7 188.952C268.676 189.304 267.62 189.48 266.532 189.48C264.26 189.48 262.228 188.92 260.436 187.8C258.644 186.648 257.22 185.096 256.164 183.144C255.108 181.16 254.58 178.888 254.58 176.328C254.58 173.768 255.108 171.512 256.164 169.56C257.22 167.576 258.628 166.024 260.388 164.904C262.18 163.752 264.18 163.176 266.388 163.176ZM267.108 167.592C265.54 167.592 264.164 167.976 262.98 168.744C261.796 169.512 260.868 170.552 260.196 171.864C259.524 173.176 259.188 174.664 259.188 176.328C259.188 177.992 259.524 179.48 260.196 180.792C260.868 182.104 261.796 183.144 262.98 183.912C264.164 184.68 265.54 185.064 267.108 185.064C268.676 185.064 270.052 184.696 271.236 183.96C272.42 183.192 273.348 182.152 274.02 180.84C274.692 179.496 275.028 177.992 275.028 176.328C275.028 174.664 274.692 173.176 274.02 171.864C273.348 170.52 272.42 169.48 271.236 168.744C270.052 167.976 268.676 167.592 267.108 167.592ZM288.075 188.952C287.275 188.952 286.651 188.728 286.203 188.28C285.787 187.832 285.579 187.208 285.579 186.408V185.544C285.579 184.744 285.787 184.12 286.203 183.672C286.651 183.224 287.275 183 288.075 183H288.603C289.403 183 290.011 183.224 290.427 183.672C290.843 184.12 291.051 184.744 291.051 185.544V186.408C291.051 187.208 290.843 187.832 290.427 188.28C290.011 188.728 289.403 188.952 288.603 188.952H288.075ZM321.286 189.48C318.982 189.48 316.934 189.16 315.142 188.52C313.35 187.88 311.638 186.824 310.006 185.352C309.654 185.096 309.382 184.792 309.19 184.44C309.03 184.056 308.95 183.672 308.95 183.288C308.95 182.68 309.174 182.136 309.622 181.656C310.07 181.176 310.63 180.936 311.302 180.936C311.814 180.936 312.294 181.112 312.742 181.464C313.958 182.584 315.222 183.432 316.534 184.008C317.878 184.584 319.446 184.872 321.238 184.872C322.518 184.872 323.686 184.664 324.742 184.248C325.83 183.832 326.694 183.272 327.334 182.568C327.974 181.864 328.294 181.048 328.294 180.12C328.294 178.968 327.958 178.024 327.286 177.288C326.646 176.52 325.702 175.896 324.454 175.416C323.238 174.904 321.766 174.472 320.038 174.12C318.438 173.832 316.998 173.432 315.718 172.92C314.47 172.408 313.398 171.768 312.502 171C311.606 170.2 310.918 169.256 310.438 168.168C309.958 167.08 309.718 165.816 309.718 164.376C309.718 162.424 310.23 160.744 311.254 159.336C312.278 157.928 313.67 156.84 315.43 156.072C317.19 155.304 319.174 154.92 321.382 154.92C323.398 154.92 325.286 155.24 327.046 155.88C328.806 156.488 330.23 157.32 331.318 158.376C332.086 159.048 332.47 159.768 332.47 160.536C332.47 161.112 332.23 161.656 331.75 162.168C331.302 162.648 330.774 162.888 330.166 162.888C329.718 162.888 329.334 162.76 329.014 162.504C328.502 161.96 327.814 161.48 326.95 161.064C326.086 160.616 325.158 160.248 324.166 159.96C323.206 159.672 322.278 159.528 321.382 159.528C319.942 159.528 318.71 159.736 317.686 160.152C316.662 160.536 315.878 161.08 315.334 161.784C314.79 162.456 314.518 163.256 314.518 164.184C314.518 165.272 314.822 166.168 315.43 166.872C316.07 167.576 316.95 168.152 318.07 168.6C319.19 169.016 320.47 169.4 321.91 169.752C323.67 170.136 325.238 170.568 326.614 171.048C328.022 171.528 329.206 172.152 330.166 172.92C331.126 173.656 331.862 174.584 332.374 175.704C332.886 176.824 333.142 178.216 333.142 179.88C333.142 181.8 332.598 183.48 331.51 184.92C330.422 186.36 328.982 187.48 327.19 188.28C325.43 189.08 323.462 189.48 321.286 189.48ZM338.18 164.04H349.46C350.1 164.04 350.628 164.264 351.044 164.712C351.492 165.128 351.716 165.656 351.716 166.296C351.716 166.904 351.492 167.416 351.044 167.832C350.628 168.248 350.1 168.456 349.46 168.456H338.18C337.54 168.456 336.996 168.248 336.548 167.832C336.132 167.384 335.924 166.856 335.924 166.248C335.924 165.608 336.132 165.08 336.548 164.664C336.996 164.248 337.54 164.04 338.18 164.04ZM343.22 157.8C343.924 157.8 344.5 158.04 344.948 158.52C345.396 158.968 345.62 159.544 345.62 160.248V182.52C345.62 183.096 345.716 183.56 345.908 183.912C346.1 184.264 346.356 184.504 346.676 184.632C347.028 184.76 347.38 184.824 347.732 184.824C348.084 184.824 348.388 184.76 348.644 184.632C348.932 184.504 349.268 184.44 349.652 184.44C350.036 184.44 350.388 184.616 350.708 184.968C351.028 185.32 351.188 185.8 351.188 186.408C351.188 187.176 350.772 187.8 349.94 188.28C349.108 188.76 348.212 189 347.252 189C346.708 189 346.068 188.952 345.332 188.856C344.596 188.76 343.876 188.52 343.172 188.136C342.5 187.752 341.94 187.144 341.492 186.312C341.044 185.448 340.82 184.248 340.82 182.712V160.248C340.82 159.544 341.044 158.968 341.492 158.52C341.972 158.04 342.548 157.8 343.22 157.8ZM377.72 163.368C378.424 163.368 379 163.608 379.448 164.088C379.896 164.536 380.12 165.112 380.12 165.816V186.552C380.12 187.256 379.896 187.848 379.448 188.328C379 188.776 378.424 189 377.72 189C377.048 189 376.472 188.776 375.992 188.328C375.544 187.848 375.32 187.256 375.32 186.552V183.096L376.328 183.24C376.328 183.816 376.088 184.456 375.608 185.16C375.16 185.864 374.536 186.552 373.736 187.224C372.936 187.864 371.992 188.408 370.904 188.856C369.816 189.272 368.648 189.48 367.4 189.48C365.192 189.48 363.208 188.92 361.448 187.8C359.688 186.648 358.296 185.08 357.272 183.096C356.248 181.112 355.736 178.856 355.736 176.328C355.736 173.736 356.248 171.464 357.272 169.512C358.296 167.528 359.672 165.976 361.4 164.856C363.16 163.736 365.112 163.176 367.256 163.176C368.632 163.176 369.896 163.4 371.048 163.848C372.232 164.296 373.256 164.872 374.12 165.576C374.984 166.28 375.64 167.032 376.088 167.832C376.568 168.6 376.808 169.336 376.808 170.04L375.32 170.184V165.816C375.32 165.144 375.544 164.568 375.992 164.088C376.472 163.608 377.048 163.368 377.72 163.368ZM367.928 185.064C369.432 185.064 370.76 184.68 371.912 183.912C373.064 183.144 373.96 182.104 374.6 180.792C375.24 179.448 375.56 177.96 375.56 176.328C375.56 174.664 375.24 173.176 374.6 171.864C373.96 170.552 373.064 169.512 371.912 168.744C370.76 167.976 369.432 167.592 367.928 167.592C366.456 167.592 365.144 167.976 363.992 168.744C362.872 169.512 361.976 170.552 361.304 171.864C360.664 173.176 360.344 174.664 360.344 176.328C360.344 177.96 360.664 179.448 361.304 180.792C361.976 182.104 362.872 183.144 363.992 183.912C365.144 184.68 366.456 185.064 367.928 185.064ZM389.244 189C388.54 189 387.964 188.776 387.516 188.328C387.068 187.848 386.844 187.256 386.844 186.552V166.2C386.844 165.496 387.068 164.92 387.516 164.472C387.964 163.992 388.54 163.752 389.244 163.752C389.916 163.752 390.476 163.992 390.924 164.472C391.404 164.92 391.644 165.496 391.644 166.2V171.576L391.164 169.512C391.42 168.616 391.804 167.784 392.316 167.016C392.86 166.248 393.5 165.576 394.236 165C394.972 164.424 395.788 163.976 396.684 163.656C397.612 163.336 398.572 163.176 399.564 163.176C400.396 163.176 401.116 163.4 401.724 163.848C402.332 164.296 402.636 164.856 402.636 165.528C402.636 166.392 402.412 167.032 401.964 167.448C401.516 167.832 401.02 168.024 400.476 168.024C399.996 168.024 399.532 167.928 399.084 167.736C398.636 167.512 398.108 167.4 397.5 167.4C396.828 167.4 396.14 167.576 395.436 167.928C394.732 168.28 394.092 168.808 393.516 169.512C392.94 170.184 392.476 170.984 392.124 171.912C391.804 172.84 391.644 173.88 391.644 175.032V186.552C391.644 187.256 391.404 187.848 390.924 188.328C390.476 188.776 389.916 189 389.244 189ZM406.571 164.04H417.851C418.491 164.04 419.019 164.264 419.435 164.712C419.883 165.128 420.107 165.656 420.107 166.296C420.107 166.904 419.883 167.416 419.435 167.832C419.019 168.248 418.491 168.456 417.851 168.456H406.571C405.931 168.456 405.387 168.248 404.939 167.832C404.523 167.384 404.315 166.856 404.315 166.248C404.315 165.608 404.523 165.08 404.939 164.664C405.387 164.248 405.931 164.04 406.571 164.04ZM411.611 157.8C412.315 157.8 412.891 158.04 413.339 158.52C413.787 158.968 414.011 159.544 414.011 160.248V182.52C414.011 183.096 414.107 183.56 414.299 183.912C414.491 184.264 414.747 184.504 415.067 184.632C415.419 184.76 415.771 184.824 416.123 184.824C416.475 184.824 416.779 184.76 417.035 184.632C417.323 184.504 417.659 184.44 418.043 184.44C418.427 184.44 418.779 184.616 419.099 184.968C419.419 185.32 419.579 185.8 419.579 186.408C419.579 187.176 419.163 187.8 418.331 188.28C417.499 188.76 416.603 189 415.643 189C415.099 189 414.459 188.952 413.723 188.856C412.987 188.76 412.267 188.52 411.563 188.136C410.891 187.752 410.331 187.144 409.883 186.312C409.435 185.448 409.211 184.248 409.211 182.712V160.248C409.211 159.544 409.435 158.968 409.883 158.52C410.363 158.04 410.939 157.8 411.611 157.8ZM449.63 189.48C447.326 189.48 445.278 189.16 443.486 188.52C441.694 187.88 439.982 186.824 438.35 185.352C437.998 185.096 437.726 184.792 437.534 184.44C437.374 184.056 437.294 183.672 437.294 183.288C437.294 182.68 437.518 182.136 437.966 181.656C438.414 181.176 438.974 180.936 439.646 180.936C440.158 180.936 440.638 181.112 441.086 181.464C442.302 182.584 443.566 183.432 444.878 184.008C446.222 184.584 447.79 184.872 449.582 184.872C450.862 184.872 452.03 184.664 453.086 184.248C454.174 183.832 455.038 183.272 455.678 182.568C456.318 181.864 456.638 181.048 456.638 180.12C456.638 178.968 456.302 178.024 455.63 177.288C454.99 176.52 454.046 175.896 452.798 175.416C451.582 174.904 450.11 174.472 448.382 174.12C446.782 173.832 445.342 173.432 444.062 172.92C442.814 172.408 441.742 171.768 440.846 171C439.95 170.2 439.262 169.256 438.782 168.168C438.302 167.08 438.062 165.816 438.062 164.376C438.062 162.424 438.574 160.744 439.598 159.336C440.622 157.928 442.014 156.84 443.774 156.072C445.534 155.304 447.518 154.92 449.726 154.92C451.742 154.92 453.63 155.24 455.39 155.88C457.15 156.488 458.574 157.32 459.662 158.376C460.43 159.048 460.814 159.768 460.814 160.536C460.814 161.112 460.574 161.656 460.094 162.168C459.646 162.648 459.118 162.888 458.51 162.888C458.062 162.888 457.678 162.76 457.358 162.504C456.846 161.96 456.158 161.48 455.294 161.064C454.43 160.616 453.502 160.248 452.51 159.96C451.55 159.672 450.622 159.528 449.726 159.528C448.286 159.528 447.054 159.736 446.03 160.152C445.006 160.536 444.222 161.08 443.678 161.784C443.134 162.456 442.862 163.256 442.862 164.184C442.862 165.272 443.166 166.168 443.774 166.872C444.414 167.576 445.294 168.152 446.414 168.6C447.534 169.016 448.814 169.4 450.254 169.752C452.014 170.136 453.582 170.568 454.958 171.048C456.366 171.528 457.55 172.152 458.51 172.92C459.47 173.656 460.206 174.584 460.718 175.704C461.23 176.824 461.486 178.216 461.486 179.88C461.486 181.8 460.942 183.48 459.854 184.92C458.766 186.36 457.326 187.48 455.534 188.28C453.774 189.08 451.806 189.48 449.63 189.48ZM479.532 163.32C481.9 163.32 483.724 163.912 485.004 165.096C486.284 166.248 487.132 167.816 487.548 169.8L486.78 169.56L487.116 168.792C487.532 167.96 488.156 167.128 488.988 166.296C489.852 165.432 490.876 164.728 492.06 164.184C493.244 163.608 494.508 163.32 495.852 163.32C498.06 163.32 499.772 163.8 500.988 164.76C502.204 165.688 503.052 166.952 503.532 168.552C504.012 170.12 504.252 171.88 504.252 173.832V186.552C504.252 187.256 504.028 187.848 503.58 188.328C503.132 188.776 502.556 189 501.852 189C501.18 189 500.604 188.776 500.124 188.328C499.676 187.848 499.452 187.256 499.452 186.552V173.88C499.452 172.76 499.292 171.736 498.972 170.808C498.684 169.88 498.156 169.144 497.388 168.6C496.652 168.024 495.628 167.736 494.316 167.736C493.068 167.736 491.948 168.024 490.956 168.6C489.996 169.144 489.244 169.88 488.7 170.808C488.156 171.736 487.884 172.76 487.884 173.88V186.552C487.884 187.256 487.66 187.848 487.212 188.328C486.764 188.776 486.188 189 485.484 189C484.78 189 484.204 188.776 483.756 188.328C483.308 187.848 483.084 187.256 483.084 186.552V173.832C483.084 172.712 482.924 171.688 482.604 170.76C482.316 169.832 481.804 169.096 481.068 168.552C480.332 168.008 479.308 167.736 477.996 167.736C476.748 167.736 475.644 168.008 474.684 168.552C473.724 169.096 472.972 169.832 472.428 170.76C471.916 171.688 471.66 172.712 471.66 173.832V186.552C471.66 187.256 471.42 187.848 470.94 188.328C470.492 188.776 469.932 189 469.26 189C468.556 189 467.98 188.776 467.532 188.328C467.084 187.848 466.86 187.256 466.86 186.552V166.2C466.86 165.496 467.084 164.92 467.532 164.472C467.98 163.992 468.556 163.752 469.26 163.752C469.932 163.752 470.492 163.992 470.94 164.472C471.42 164.92 471.66 165.496 471.66 166.2V169.032L470.748 169.56C470.972 168.856 471.34 168.136 471.852 167.4C472.364 166.664 473.004 165.992 473.772 165.384C474.572 164.776 475.452 164.28 476.412 163.896C477.372 163.512 478.412 163.32 479.532 163.32ZM531.657 163.368C532.361 163.368 532.937 163.608 533.385 164.088C533.833 164.536 534.057 165.112 534.057 165.816V186.552C534.057 187.256 533.833 187.848 533.385 188.328C532.937 188.776 532.361 189 531.657 189C530.985 189 530.409 188.776 529.929 188.328C529.481 187.848 529.257 187.256 529.257 186.552V183.096L530.265 183.24C530.265 183.816 530.025 184.456 529.545 185.16C529.097 185.864 528.473 186.552 527.673 187.224C526.873 187.864 525.929 188.408 524.841 188.856C523.753 189.272 522.585 189.48 521.337 189.48C519.129 189.48 517.145 188.92 515.385 187.8C513.625 186.648 512.233 185.08 511.209 183.096C510.185 181.112 509.673 178.856 509.673 176.328C509.673 173.736 510.185 171.464 511.209 169.512C512.233 167.528 513.609 165.976 515.337 164.856C517.097 163.736 519.049 163.176 521.193 163.176C522.569 163.176 523.833 163.4 524.985 163.848C526.169 164.296 527.193 164.872 528.057 165.576C528.921 166.28 529.577 167.032 530.025 167.832C530.505 168.6 530.745 169.336 530.745 170.04L529.257 170.184V165.816C529.257 165.144 529.481 164.568 529.929 164.088C530.409 163.608 530.985 163.368 531.657 163.368ZM521.865 185.064C523.369 185.064 524.697 184.68 525.849 183.912C527.001 183.144 527.897 182.104 528.537 180.792C529.177 179.448 529.497 177.96 529.497 176.328C529.497 174.664 529.177 173.176 528.537 171.864C527.897 170.552 527.001 169.512 525.849 168.744C524.697 167.976 523.369 167.592 521.865 167.592C520.393 167.592 519.081 167.976 517.929 168.744C516.809 169.512 515.913 170.552 515.241 171.864C514.601 173.176 514.281 174.664 514.281 176.328C514.281 177.96 514.601 179.448 515.241 180.792C515.913 182.104 516.809 183.144 517.929 183.912C519.081 184.68 520.393 185.064 521.865 185.064ZM543.182 189C542.478 189 541.902 188.776 541.454 188.328C541.006 187.848 540.782 187.256 540.782 186.552V166.2C540.782 165.496 541.006 164.92 541.454 164.472C541.902 163.992 542.478 163.752 543.182 163.752C543.854 163.752 544.414 163.992 544.862 164.472C545.342 164.92 545.582 165.496 545.582 166.2V171.576L545.102 169.512C545.358 168.616 545.742 167.784 546.254 167.016C546.798 166.248 547.438 165.576 548.174 165C548.91 164.424 549.726 163.976 550.622 163.656C551.55 163.336 552.51 163.176 553.502 163.176C554.334 163.176 555.054 163.4 555.662 163.848C556.27 164.296 556.574 164.856 556.574 165.528C556.574 166.392 556.35 167.032 555.902 167.448C555.454 167.832 554.958 168.024 554.414 168.024C553.934 168.024 553.47 167.928 553.022 167.736C552.574 167.512 552.046 167.4 551.438 167.4C550.766 167.4 550.078 167.576 549.374 167.928C548.67 168.28 548.03 168.808 547.454 169.512C546.878 170.184 546.414 170.984 546.062 171.912C545.742 172.84 545.582 173.88 545.582 175.032V186.552C545.582 187.256 545.342 187.848 544.862 188.328C544.414 188.776 543.854 189 543.182 189ZM560.508 164.04H571.788C572.428 164.04 572.956 164.264 573.372 164.712C573.82 165.128 574.044 165.656 574.044 166.296C574.044 166.904 573.82 167.416 573.372 167.832C572.956 168.248 572.428 168.456 571.788 168.456H560.508C559.868 168.456 559.324 168.248 558.876 167.832C558.46 167.384 558.252 166.856 558.252 166.248C558.252 165.608 558.46 165.08 558.876 164.664C559.324 164.248 559.868 164.04 560.508 164.04ZM565.548 157.8C566.252 157.8 566.828 158.04 567.276 158.52C567.724 158.968 567.948 159.544 567.948 160.248V182.52C567.948 183.096 568.044 183.56 568.236 183.912C568.428 184.264 568.684 184.504 569.004 184.632C569.356 184.76 569.708 184.824 570.06 184.824C570.412 184.824 570.716 184.76 570.972 184.632C571.26 184.504 571.596 184.44 571.98 184.44C572.364 184.44 572.716 184.616 573.036 184.968C573.356 185.32 573.516 185.8 573.516 186.408C573.516 187.176 573.1 187.8 572.268 188.28C571.436 188.76 570.54 189 569.58 189C569.036 189 568.396 188.952 567.66 188.856C566.924 188.76 566.204 188.52 565.5 188.136C564.828 187.752 564.268 187.144 563.82 186.312C563.372 185.448 563.148 184.248 563.148 182.712V160.248C563.148 159.544 563.372 158.968 563.82 158.52C564.3 158.04 564.876 157.8 565.548 157.8ZM581.184 188.952C580.384 188.952 579.76 188.728 579.312 188.28C578.896 187.832 578.688 187.208 578.688 186.408V185.544C578.688 184.744 578.896 184.12 579.312 183.672C579.76 183.224 580.384 183 581.184 183H581.712C582.512 183 583.12 183.224 583.536 183.672C583.952 184.12 584.16 184.744 584.16 185.544V186.408C584.16 187.208 583.952 187.832 583.536 188.28C583.12 188.728 582.512 188.952 581.712 188.952H581.184ZM67.8096 247.48C65.5056 247.48 63.4576 247.16 61.6656 246.52C59.8736 245.88 58.1616 244.824 56.5296 243.352C56.1776 243.096 55.9056 242.792 55.7136 242.44C55.5536 242.056 55.4736 241.672 55.4736 241.288C55.4736 240.68 55.6976 240.136 56.1456 239.656C56.5936 239.176 57.1536 238.936 57.8256 238.936C58.3376 238.936 58.8176 239.112 59.2656 239.464C60.4816 240.584 61.7456 241.432 63.0576 242.008C64.4016 242.584 65.9696 242.872 67.7616 242.872C69.0416 242.872 70.2096 242.664 71.2656 242.248C72.3536 241.832 73.2176 241.272 73.8576 240.568C74.4976 239.864 74.8176 239.048 74.8176 238.12C74.8176 236.968 74.4816 236.024 73.8096 235.288C73.1696 234.52 72.2256 233.896 70.9776 233.416C69.7616 232.904 68.2896 232.472 66.5616 232.12C64.9616 231.832 63.5216 231.432 62.2416 230.92C60.9936 230.408 59.9216 229.768 59.0256 229C58.1296 228.2 57.4416 227.256 56.9616 226.168C56.4816 225.08 56.2416 223.816 56.2416 222.376C56.2416 220.424 56.7536 218.744 57.7776 217.336C58.8016 215.928 60.1936 214.84 61.9536 214.072C63.7136 213.304 65.6976 212.92 67.9056 212.92C69.9216 212.92 71.8096 213.24 73.5696 213.88C75.3296 214.488 76.7536 215.32 77.8416 216.376C78.6096 217.048 78.9936 217.768 78.9936 218.536C78.9936 219.112 78.7536 219.656 78.2736 220.168C77.8256 220.648 77.2976 220.888 76.6896 220.888C76.2416 220.888 75.8576 220.76 75.5376 220.504C75.0256 219.96 74.3376 219.48 73.4736 219.064C72.6096 218.616 71.6816 218.248 70.6896 217.96C69.7296 217.672 68.8016 217.528 67.9056 217.528C66.4656 217.528 65.2336 217.736 64.2096 218.152C63.1856 218.536 62.4016 219.08 61.8576 219.784C61.3136 220.456 61.0416 221.256 61.0416 222.184C61.0416 223.272 61.3456 224.168 61.9536 224.872C62.5936 225.576 63.4736 226.152 64.5936 226.6C65.7136 227.016 66.9936 227.4 68.4336 227.752C70.1936 228.136 71.7616 228.568 73.1376 229.048C74.5456 229.528 75.7296 230.152 76.6896 230.92C77.6496 231.656 78.3856 232.584 78.8976 233.704C79.4096 234.824 79.6656 236.216 79.6656 237.88C79.6656 239.8 79.1216 241.48 78.0336 242.92C76.9456 244.36 75.5056 245.48 73.7136 246.28C71.9536 247.08 69.9856 247.48 67.8096 247.48ZM96.2237 221.176C97.9517 221.176 99.4877 221.368 100.832 221.752C102.176 222.104 103.216 222.616 103.952 223.288C104.72 223.928 105.104 224.68 105.104 225.544C105.104 226.088 104.944 226.6 104.624 227.08C104.304 227.528 103.824 227.752 103.184 227.752C102.736 227.752 102.352 227.672 102.032 227.512C101.744 227.352 101.472 227.16 101.216 226.936C100.96 226.712 100.64 226.488 100.256 226.264C99.9037 226.072 99.3757 225.912 98.6717 225.784C97.9997 225.656 97.3917 225.592 96.8477 225.592C95.1517 225.592 93.6797 225.976 92.4317 226.744C91.2157 227.512 90.2557 228.552 89.5517 229.864C88.8797 231.176 88.5437 232.664 88.5437 234.328C88.5437 235.992 88.8797 237.48 89.5517 238.792C90.2557 240.104 91.1997 241.144 92.3837 241.912C93.5997 242.68 95.0077 243.064 96.6077 243.064C97.5677 243.064 98.3517 243 98.9597 242.872C99.5677 242.712 100.096 242.52 100.544 242.296C101.024 242.008 101.424 241.72 101.744 241.432C102.096 241.112 102.576 240.952 103.184 240.952C103.888 240.952 104.416 241.176 104.768 241.624C105.152 242.04 105.344 242.568 105.344 243.208C105.344 243.912 104.912 244.6 104.048 245.272C103.216 245.912 102.096 246.44 100.688 246.856C99.2797 247.272 97.7277 247.48 96.0317 247.48C93.5357 247.48 91.3597 246.904 89.5037 245.752C87.6797 244.6 86.2557 243.032 85.2317 241.048C84.2397 239.064 83.7437 236.824 83.7437 234.328C83.7437 231.8 84.2717 229.56 85.3277 227.608C86.3837 225.624 87.8557 224.056 89.7437 222.904C91.6317 221.752 93.7917 221.176 96.2237 221.176ZM130.618 221.368C131.322 221.368 131.898 221.608 132.346 222.088C132.794 222.536 133.018 223.112 133.018 223.816V244.552C133.018 245.256 132.794 245.848 132.346 246.328C131.898 246.776 131.322 247 130.618 247C129.946 247 129.37 246.776 128.89 246.328C128.442 245.848 128.218 245.256 128.218 244.552V241.096L129.226 241.24C129.226 241.816 128.986 242.456 128.506 243.16C128.058 243.864 127.434 244.552 126.634 245.224C125.834 245.864 124.89 246.408 123.802 246.856C122.714 247.272 121.546 247.48 120.298 247.48C118.09 247.48 116.106 246.92 114.346 245.8C112.586 244.648 111.194 243.08 110.17 241.096C109.146 239.112 108.634 236.856 108.634 234.328C108.634 231.736 109.146 229.464 110.17 227.512C111.194 225.528 112.57 223.976 114.298 222.856C116.058 221.736 118.01 221.176 120.154 221.176C121.53 221.176 122.794 221.4 123.946 221.848C125.13 222.296 126.154 222.872 127.018 223.576C127.882 224.28 128.538 225.032 128.986 225.832C129.466 226.6 129.706 227.336 129.706 228.04L128.218 228.184V223.816C128.218 223.144 128.442 222.568 128.89 222.088C129.37 221.608 129.946 221.368 130.618 221.368ZM120.826 243.064C122.33 243.064 123.658 242.68 124.81 241.912C125.962 241.144 126.858 240.104 127.498 238.792C128.138 237.448 128.458 235.96 128.458 234.328C128.458 232.664 128.138 231.176 127.498 229.864C126.858 228.552 125.962 227.512 124.81 226.744C123.658 225.976 122.33 225.592 120.826 225.592C119.354 225.592 118.042 225.976 116.89 226.744C115.77 227.512 114.874 228.552 114.202 229.864C113.562 231.176 113.242 232.664 113.242 234.328C113.242 235.96 113.562 237.448 114.202 238.792C114.874 240.104 115.77 241.144 116.89 241.912C118.042 242.68 119.354 243.064 120.826 243.064ZM144.927 244.552C144.927 245.256 144.687 245.848 144.207 246.328C143.759 246.776 143.199 247 142.527 247C141.855 247 141.279 246.776 140.799 246.328C140.351 245.848 140.127 245.256 140.127 244.552V213.928C140.127 213.224 140.367 212.648 140.847 212.2C141.327 211.72 141.903 211.48 142.575 211.48C143.279 211.48 143.839 211.72 144.255 212.2C144.703 212.648 144.927 213.224 144.927 213.928V244.552ZM163.362 247.48C160.706 247.48 158.402 246.936 156.45 245.848C154.498 244.728 152.978 243.208 151.89 241.288C150.834 239.336 150.306 237.112 150.306 234.616C150.306 231.8 150.866 229.4 151.986 227.416C153.138 225.4 154.626 223.864 156.45 222.808C158.274 221.72 160.21 221.176 162.258 221.176C163.826 221.176 165.314 221.496 166.722 222.136C168.13 222.744 169.378 223.608 170.466 224.728C171.586 225.816 172.466 227.112 173.106 228.616C173.746 230.088 174.082 231.704 174.114 233.464C174.082 234.104 173.826 234.632 173.346 235.048C172.866 235.464 172.306 235.672 171.666 235.672H152.994L151.842 231.592H169.89L168.978 232.456V231.256C168.914 230.136 168.546 229.16 167.874 228.328C167.202 227.464 166.37 226.808 165.378 226.36C164.386 225.88 163.346 225.64 162.258 225.64C161.298 225.64 160.37 225.8 159.474 226.12C158.61 226.408 157.826 226.888 157.122 227.56C156.45 228.232 155.906 229.128 155.49 230.248C155.106 231.336 154.914 232.696 154.914 234.328C154.914 236.088 155.282 237.624 156.018 238.936C156.754 240.248 157.746 241.272 158.994 242.008C160.242 242.712 161.618 243.064 163.122 243.064C164.306 243.064 165.282 242.952 166.05 242.728C166.818 242.472 167.458 242.168 167.97 241.816C168.482 241.464 168.93 241.128 169.314 240.808C169.794 240.52 170.274 240.376 170.754 240.376C171.33 240.376 171.81 240.584 172.194 241C172.578 241.384 172.77 241.848 172.77 242.392C172.77 243.096 172.418 243.736 171.714 244.312C170.85 245.144 169.65 245.88 168.114 246.52C166.61 247.16 165.026 247.48 163.362 247.48ZM195.971 247C195.203 247 194.579 246.776 194.099 246.328C193.651 245.848 193.427 245.256 193.427 244.552V215.848C193.427 215.144 193.667 214.568 194.147 214.12C194.627 213.64 195.203 213.4 195.875 213.4H212.099C212.803 213.4 213.379 213.624 213.827 214.072C214.307 214.52 214.547 215.08 214.547 215.752C214.547 216.36 214.307 216.888 213.827 217.336C213.379 217.784 212.803 218.008 212.099 218.008H198.083L198.419 217.528V228.232L198.131 227.656H209.939C210.643 227.656 211.219 227.88 211.667 228.328C212.147 228.776 212.387 229.336 212.387 230.008C212.387 230.616 212.147 231.144 211.667 231.592C211.219 232.04 210.643 232.264 209.939 232.264H198.035L198.419 231.88V244.552C198.419 245.256 198.179 245.848 197.699 246.328C197.219 246.776 196.643 247 195.971 247ZM239.696 221.368C240.4 221.368 240.976 221.608 241.424 222.088C241.872 222.536 242.096 223.112 242.096 223.816V244.552C242.096 245.256 241.872 245.848 241.424 246.328C240.976 246.776 240.4 247 239.696 247C239.024 247 238.448 246.776 237.968 246.328C237.52 245.848 237.296 245.256 237.296 244.552V241.096L238.304 241.24C238.304 241.816 238.064 242.456 237.584 243.16C237.136 243.864 236.512 244.552 235.712 245.224C234.912 245.864 233.968 246.408 232.88 246.856C231.792 247.272 230.624 247.48 229.376 247.48C227.168 247.48 225.184 246.92 223.424 245.8C221.664 244.648 220.272 243.08 219.248 241.096C218.224 239.112 217.712 236.856 217.712 234.328C217.712 231.736 218.224 229.464 219.248 227.512C220.272 225.528 221.648 223.976 223.376 222.856C225.136 221.736 227.088 221.176 229.232 221.176C230.608 221.176 231.872 221.4 233.024 221.848C234.208 222.296 235.232 222.872 236.096 223.576C236.96 224.28 237.616 225.032 238.064 225.832C238.544 226.6 238.784 227.336 238.784 228.04L237.296 228.184V223.816C237.296 223.144 237.52 222.568 237.968 222.088C238.448 221.608 239.024 221.368 239.696 221.368ZM229.904 243.064C231.408 243.064 232.736 242.68 233.888 241.912C235.04 241.144 235.936 240.104 236.576 238.792C237.216 237.448 237.536 235.96 237.536 234.328C237.536 232.664 237.216 231.176 236.576 229.864C235.936 228.552 235.04 227.512 233.888 226.744C232.736 225.976 231.408 225.592 229.904 225.592C228.432 225.592 227.12 225.976 225.968 226.744C224.848 227.512 223.952 228.552 223.28 229.864C222.64 231.176 222.32 232.664 222.32 234.328C222.32 235.96 222.64 237.448 223.28 238.792C223.952 240.104 224.848 241.144 225.968 241.912C227.12 242.68 228.432 243.064 229.904 243.064ZM247.333 243.064C247.045 242.616 246.917 242.104 246.949 241.528C246.981 240.92 247.317 240.408 247.957 239.992C248.405 239.704 248.869 239.592 249.349 239.656C249.861 239.688 250.341 239.928 250.789 240.376C251.685 241.368 252.677 242.152 253.765 242.728C254.885 243.304 256.229 243.592 257.797 243.592C258.437 243.56 259.093 243.464 259.765 243.304C260.437 243.112 261.013 242.792 261.493 242.344C261.973 241.864 262.213 241.176 262.213 240.28C262.213 239.48 261.957 238.84 261.445 238.36C260.933 237.88 260.261 237.496 259.429 237.208C258.597 236.888 257.701 236.6 256.741 236.344C255.717 236.056 254.677 235.736 253.621 235.384C252.597 235.032 251.669 234.584 250.837 234.04C250.005 233.464 249.317 232.728 248.773 231.832C248.261 230.936 248.005 229.832 248.005 228.52C248.005 227.016 248.421 225.72 249.253 224.632C250.117 223.544 251.221 222.696 252.565 222.088C253.941 221.48 255.429 221.176 257.029 221.176C257.957 221.176 258.933 221.304 259.957 221.56C260.981 221.784 261.973 222.152 262.933 222.664C263.893 223.176 264.725 223.848 265.429 224.68C265.749 225.096 265.925 225.592 265.957 226.168C266.021 226.744 265.765 227.256 265.189 227.704C264.805 228.024 264.341 228.168 263.797 228.136C263.253 228.104 262.805 227.928 262.453 227.608C261.845 226.84 261.061 226.248 260.101 225.832C259.141 225.384 258.053 225.16 256.837 225.16C256.229 225.16 255.589 225.256 254.917 225.448C254.277 225.608 253.733 225.912 253.285 226.36C252.837 226.808 252.613 227.464 252.613 228.328C252.613 229.128 252.869 229.768 253.381 230.248C253.925 230.728 254.629 231.128 255.493 231.448C256.357 231.768 257.301 232.056 258.325 232.312C259.317 232.568 260.293 232.872 261.253 233.224C262.245 233.576 263.125 234.04 263.893 234.616C264.693 235.16 265.333 235.88 265.813 236.776C266.325 237.64 266.581 238.744 266.581 240.088C266.581 241.656 266.117 243 265.189 244.12C264.293 245.208 263.141 246.04 261.733 246.616C260.357 247.192 258.901 247.48 257.365 247.48C255.541 247.48 253.717 247.16 251.893 246.52C250.101 245.848 248.581 244.696 247.333 243.064ZM271.407 222.04H282.687C283.327 222.04 283.855 222.264 284.271 222.712C284.719 223.128 284.943 223.656 284.943 224.296C284.943 224.904 284.719 225.416 284.271 225.832C283.855 226.248 283.327 226.456 282.687 226.456H271.407C270.767 226.456 270.223 226.248 269.775 225.832C269.359 225.384 269.151 224.856 269.151 224.248C269.151 223.608 269.359 223.08 269.775 222.664C270.223 222.248 270.767 222.04 271.407 222.04ZM276.447 215.8C277.151 215.8 277.727 216.04 278.175 216.52C278.623 216.968 278.847 217.544 278.847 218.248V240.52C278.847 241.096 278.943 241.56 279.135 241.912C279.327 242.264 279.583 242.504 279.903 242.632C280.255 242.76 280.607 242.824 280.959 242.824C281.311 242.824 281.615 242.76 281.871 242.632C282.159 242.504 282.495 242.44 282.879 242.44C283.263 242.44 283.615 242.616 283.935 242.968C284.255 243.32 284.415 243.8 284.415 244.408C284.415 245.176 283.999 245.8 283.167 246.28C282.335 246.76 281.439 247 280.479 247C279.935 247 279.295 246.952 278.559 246.856C277.823 246.76 277.103 246.52 276.399 246.136C275.727 245.752 275.167 245.144 274.719 244.312C274.271 243.448 274.047 242.248 274.047 240.712V218.248C274.047 217.544 274.271 216.968 274.719 216.52C275.199 216.04 275.775 215.8 276.447 215.8ZM292.082 246.952C291.282 246.952 290.658 246.728 290.21 246.28C289.794 245.832 289.586 245.208 289.586 244.408V243.544C289.586 242.744 289.794 242.12 290.21 241.672C290.658 241.224 291.282 241 292.082 241H292.61C293.41 241 294.018 241.224 294.434 241.672C294.85 242.12 295.058 242.744 295.058 243.544V244.408C295.058 245.208 294.85 245.832 294.434 246.28C294.018 246.728 293.41 246.952 292.61 246.952H292.082ZM317.518 247C316.75 247 316.126 246.776 315.646 246.328C315.198 245.848 314.974 245.256 314.974 244.552V215.848C314.974 215.144 315.214 214.568 315.694 214.12C316.174 213.64 316.75 213.4 317.422 213.4H333.646C334.35 213.4 334.926 213.624 335.374 214.072C335.854 214.52 336.094 215.08 336.094 215.752C336.094 216.36 335.854 216.888 335.374 217.336C334.926 217.784 334.35 218.008 333.646 218.008H319.63L319.966 217.528V228.232L319.678 227.656H331.486C332.19 227.656 332.766 227.88 333.214 228.328C333.694 228.776 333.934 229.336 333.934 230.008C333.934 230.616 333.694 231.144 333.214 231.592C332.766 232.04 332.19 232.264 331.486 232.264H319.582L319.966 231.88V244.552C319.966 245.256 319.726 245.848 319.246 246.328C318.766 246.776 318.19 247 317.518 247ZM346.005 244.552C346.005 245.256 345.781 245.848 345.333 246.328C344.885 246.776 344.309 247 343.605 247C342.933 247 342.357 246.776 341.877 246.328C341.429 245.848 341.205 245.256 341.205 244.552V224.008C341.205 223.304 341.429 222.728 341.877 222.28C342.357 221.8 342.933 221.56 343.605 221.56C344.309 221.56 344.885 221.8 345.333 222.28C345.781 222.728 346.005 223.304 346.005 224.008V244.552ZM343.557 218.392C342.629 218.392 341.957 218.232 341.541 217.912C341.125 217.56 340.917 216.984 340.917 216.184V215.416C340.917 214.616 341.141 214.056 341.589 213.736C342.037 213.416 342.709 213.256 343.605 213.256C344.565 213.256 345.253 213.432 345.669 213.784C346.085 214.104 346.293 214.648 346.293 215.416V216.184C346.293 217.016 346.069 217.592 345.621 217.912C345.205 218.232 344.517 218.392 343.557 218.392ZM365.47 221.176C367.742 221.176 369.502 221.656 370.75 222.616C371.998 223.544 372.862 224.808 373.342 226.408C373.854 227.976 374.11 229.736 374.11 231.688V244.552C374.11 245.256 373.87 245.848 373.39 246.328C372.942 246.776 372.382 247 371.71 247C371.006 247 370.43 246.776 369.982 246.328C369.534 245.848 369.31 245.256 369.31 244.552V231.736C369.31 230.584 369.15 229.56 368.83 228.664C368.51 227.736 367.95 227 367.15 226.456C366.382 225.88 365.294 225.592 363.886 225.592C362.574 225.592 361.422 225.88 360.43 226.456C359.438 227 358.654 227.736 358.078 228.664C357.534 229.56 357.262 230.584 357.262 231.736V244.552C357.262 245.256 357.022 245.848 356.542 246.328C356.094 246.776 355.534 247 354.862 247C354.158 247 353.582 246.776 353.134 246.328C352.686 245.848 352.462 245.256 352.462 244.552V224.2C352.462 223.496 352.686 222.92 353.134 222.472C353.582 221.992 354.158 221.752 354.862 221.752C355.534 221.752 356.094 221.992 356.542 222.472C357.022 222.92 357.262 223.496 357.262 224.2V226.888L356.398 227.368C356.622 226.664 357.006 225.96 357.55 225.256C358.126 224.52 358.814 223.848 359.614 223.24C360.414 222.6 361.31 222.104 362.302 221.752C363.294 221.368 364.35 221.176 365.47 221.176ZM385.286 244.552C385.286 245.256 385.062 245.848 384.614 246.328C384.166 246.776 383.59 247 382.886 247C382.214 247 381.638 246.776 381.158 246.328C380.71 245.848 380.486 245.256 380.486 244.552V224.008C380.486 223.304 380.71 222.728 381.158 222.28C381.638 221.8 382.214 221.56 382.886 221.56C383.59 221.56 384.166 221.8 384.614 222.28C385.062 222.728 385.286 223.304 385.286 224.008V244.552ZM382.838 218.392C381.91 218.392 381.238 218.232 380.822 217.912C380.406 217.56 380.198 216.984 380.198 216.184V215.416C380.198 214.616 380.422 214.056 380.87 213.736C381.318 213.416 381.99 213.256 382.886 213.256C383.846 213.256 384.534 213.432 384.95 213.784C385.366 214.104 385.574 214.648 385.574 215.416V216.184C385.574 217.016 385.35 217.592 384.902 217.912C384.486 218.232 383.798 218.392 382.838 218.392ZM390.255 243.064C389.967 242.616 389.839 242.104 389.871 241.528C389.903 240.92 390.239 240.408 390.879 239.992C391.327 239.704 391.791 239.592 392.271 239.656C392.783 239.688 393.263 239.928 393.711 240.376C394.607 241.368 395.599 242.152 396.687 242.728C397.807 243.304 399.151 243.592 400.719 243.592C401.359 243.56 402.015 243.464 402.687 243.304C403.359 243.112 403.935 242.792 404.415 242.344C404.895 241.864 405.135 241.176 405.135 240.28C405.135 239.48 404.879 238.84 404.367 238.36C403.855 237.88 403.183 237.496 402.351 237.208C401.519 236.888 400.623 236.6 399.663 236.344C398.639 236.056 397.599 235.736 396.543 235.384C395.519 235.032 394.591 234.584 393.759 234.04C392.927 233.464 392.239 232.728 391.695 231.832C391.183 230.936 390.927 229.832 390.927 228.52C390.927 227.016 391.343 225.72 392.175 224.632C393.039 223.544 394.143 222.696 395.487 222.088C396.863 221.48 398.351 221.176 399.951 221.176C400.879 221.176 401.855 221.304 402.879 221.56C403.903 221.784 404.895 222.152 405.855 222.664C406.815 223.176 407.647 223.848 408.351 224.68C408.671 225.096 408.847 225.592 408.879 226.168C408.943 226.744 408.687 227.256 408.111 227.704C407.727 228.024 407.263 228.168 406.719 228.136C406.175 228.104 405.727 227.928 405.375 227.608C404.767 226.84 403.983 226.248 403.023 225.832C402.063 225.384 400.975 225.16 399.759 225.16C399.151 225.16 398.511 225.256 397.839 225.448C397.199 225.608 396.655 225.912 396.207 226.36C395.759 226.808 395.535 227.464 395.535 228.328C395.535 229.128 395.791 229.768 396.303 230.248C396.847 230.728 397.551 231.128 398.415 231.448C399.279 231.768 400.223 232.056 401.247 232.312C402.239 232.568 403.215 232.872 404.175 233.224C405.167 233.576 406.047 234.04 406.815 234.616C407.615 235.16 408.255 235.88 408.735 236.776C409.247 237.64 409.503 238.744 409.503 240.088C409.503 241.656 409.039 243 408.111 244.12C407.215 245.208 406.063 246.04 404.655 246.616C403.279 247.192 401.823 247.48 400.287 247.48C398.463 247.48 396.639 247.16 394.815 246.52C393.023 245.848 391.503 244.696 390.255 243.064ZM427.385 221.32C429.593 221.32 431.305 221.8 432.521 222.76C433.737 223.688 434.585 224.952 435.065 226.552C435.577 228.152 435.833 229.912 435.833 231.832V244.552C435.833 245.256 435.593 245.848 435.113 246.328C434.665 246.776 434.105 247 433.433 247C432.729 247 432.153 246.776 431.705 246.328C431.257 245.848 431.033 245.256 431.033 244.552V231.832C431.033 230.712 430.873 229.688 430.553 228.76C430.265 227.832 429.737 227.096 428.969 226.552C428.233 226.008 427.193 225.736 425.849 225.736C424.601 225.736 423.481 226.008 422.489 226.552C421.529 227.096 420.777 227.832 420.233 228.76C419.721 229.688 419.465 230.712 419.465 231.832V244.552C419.465 245.256 419.225 245.848 418.745 246.328C418.297 246.776 417.737 247 417.065 247C416.361 247 415.785 246.776 415.337 246.328C414.889 245.848 414.665 245.256 414.665 244.552V213.928C414.665 213.224 414.889 212.648 415.337 212.2C415.785 211.72 416.361 211.48 417.065 211.48C417.737 211.48 418.297 211.72 418.745 212.2C419.225 212.648 419.465 213.224 419.465 213.928V227.032L418.601 227.512C418.825 226.808 419.193 226.088 419.705 225.352C420.249 224.616 420.905 223.944 421.673 223.336C422.473 222.728 423.353 222.248 424.313 221.896C425.273 221.512 426.297 221.32 427.385 221.32ZM466.716 247.48C464.412 247.48 462.364 247.16 460.572 246.52C458.78 245.88 457.068 244.824 455.436 243.352C455.084 243.096 454.812 242.792 454.62 242.44C454.46 242.056 454.38 241.672 454.38 241.288C454.38 240.68 454.604 240.136 455.052 239.656C455.5 239.176 456.06 238.936 456.732 238.936C457.244 238.936 457.724 239.112 458.172 239.464C459.388 240.584 460.652 241.432 461.964 242.008C463.308 242.584 464.876 242.872 466.668 242.872C467.948 242.872 469.116 242.664 470.172 242.248C471.26 241.832 472.124 241.272 472.764 240.568C473.404 239.864 473.724 239.048 473.724 238.12C473.724 236.968 473.388 236.024 472.716 235.288C472.076 234.52 471.132 233.896 469.884 233.416C468.668 232.904 467.196 232.472 465.468 232.12C463.868 231.832 462.428 231.432 461.148 230.92C459.9 230.408 458.828 229.768 457.932 229C457.036 228.2 456.348 227.256 455.868 226.168C455.388 225.08 455.148 223.816 455.148 222.376C455.148 220.424 455.66 218.744 456.684 217.336C457.708 215.928 459.1 214.84 460.86 214.072C462.62 213.304 464.604 212.92 466.812 212.92C468.828 212.92 470.716 213.24 472.476 213.88C474.236 214.488 475.66 215.32 476.748 216.376C477.516 217.048 477.9 217.768 477.9 218.536C477.9 219.112 477.66 219.656 477.18 220.168C476.732 220.648 476.204 220.888 475.596 220.888C475.148 220.888 474.764 220.76 474.444 220.504C473.932 219.96 473.244 219.48 472.38 219.064C471.516 218.616 470.588 218.248 469.596 217.96C468.636 217.672 467.708 217.528 466.812 217.528C465.372 217.528 464.14 217.736 463.116 218.152C462.092 218.536 461.308 219.08 460.764 219.784C460.22 220.456 459.948 221.256 459.948 222.184C459.948 223.272 460.252 224.168 460.86 224.872C461.5 225.576 462.38 226.152 463.5 226.6C464.62 227.016 465.9 227.4 467.34 227.752C469.1 228.136 470.668 228.568 472.044 229.048C473.452 229.528 474.636 230.152 475.596 230.92C476.556 231.656 477.292 232.584 477.804 233.704C478.316 234.824 478.572 236.216 478.572 237.88C478.572 239.8 478.028 241.48 476.94 242.92C475.852 244.36 474.412 245.48 472.62 246.28C470.86 247.08 468.892 247.48 466.716 247.48ZM483.61 222.04H494.89C495.53 222.04 496.058 222.264 496.474 222.712C496.922 223.128 497.146 223.656 497.146 224.296C497.146 224.904 496.922 225.416 496.474 225.832C496.058 226.248 495.53 226.456 494.89 226.456H483.61C482.97 226.456 482.426 226.248 481.978 225.832C481.562 225.384 481.354 224.856 481.354 224.248C481.354 223.608 481.562 223.08 481.978 222.664C482.426 222.248 482.97 222.04 483.61 222.04ZM488.65 215.8C489.354 215.8 489.93 216.04 490.378 216.52C490.826 216.968 491.05 217.544 491.05 218.248V240.52C491.05 241.096 491.146 241.56 491.338 241.912C491.53 242.264 491.786 242.504 492.106 242.632C492.458 242.76 492.81 242.824 493.162 242.824C493.514 242.824 493.818 242.76 494.074 242.632C494.362 242.504 494.698 242.44 495.082 242.44C495.466 242.44 495.818 242.616 496.138 242.968C496.458 243.32 496.618 243.8 496.618 244.408C496.618 245.176 496.202 245.8 495.37 246.28C494.538 246.76 493.642 247 492.682 247C492.138 247 491.498 246.952 490.762 246.856C490.026 246.76 489.306 246.52 488.602 246.136C487.93 245.752 487.37 245.144 486.922 244.312C486.474 243.448 486.25 242.248 486.25 240.712V218.248C486.25 217.544 486.474 216.968 486.922 216.52C487.402 216.04 487.978 215.8 488.65 215.8ZM504.862 247C504.158 247 503.582 246.776 503.134 246.328C502.686 245.848 502.462 245.256 502.462 244.552V224.2C502.462 223.496 502.686 222.92 503.134 222.472C503.582 221.992 504.158 221.752 504.862 221.752C505.534 221.752 506.094 221.992 506.542 222.472C507.022 222.92 507.262 223.496 507.262 224.2V229.576L506.782 227.512C507.038 226.616 507.422 225.784 507.934 225.016C508.478 224.248 509.118 223.576 509.854 223C510.59 222.424 511.406 221.976 512.302 221.656C513.23 221.336 514.19 221.176 515.182 221.176C516.014 221.176 516.734 221.4 517.342 221.848C517.95 222.296 518.254 222.856 518.254 223.528C518.254 224.392 518.03 225.032 517.582 225.448C517.134 225.832 516.638 226.024 516.094 226.024C515.614 226.024 515.15 225.928 514.702 225.736C514.254 225.512 513.726 225.4 513.118 225.4C512.446 225.4 511.758 225.576 511.054 225.928C510.35 226.28 509.71 226.808 509.134 227.512C508.558 228.184 508.094 228.984 507.742 229.912C507.422 230.84 507.262 231.88 507.262 233.032V244.552C507.262 245.256 507.022 245.848 506.542 246.328C506.094 246.776 505.534 247 504.862 247ZM545.638 234.376C545.638 236.936 545.078 239.208 543.958 241.192C542.838 243.144 541.318 244.68 539.398 245.8C537.478 246.92 535.318 247.48 532.918 247.48C530.518 247.48 528.358 246.92 526.438 245.8C524.518 244.68 522.982 243.144 521.83 241.192C520.71 239.208 520.15 236.936 520.15 234.376C520.15 231.784 520.71 229.512 521.83 227.56C522.982 225.576 524.518 224.024 526.438 222.904C528.358 221.752 530.518 221.176 532.918 221.176C535.318 221.176 537.478 221.752 539.398 222.904C541.318 224.024 542.838 225.576 543.958 227.56C545.078 229.512 545.638 231.784 545.638 234.376ZM540.838 234.376C540.838 232.616 540.486 231.096 539.782 229.816C539.078 228.504 538.118 227.48 536.902 226.744C535.718 225.976 534.39 225.592 532.918 225.592C531.446 225.592 530.102 225.976 528.886 226.744C527.67 227.48 526.71 228.504 526.006 229.816C525.302 231.096 524.95 232.616 524.95 234.376C524.95 236.072 525.302 237.576 526.006 238.888C526.71 240.2 527.67 241.224 528.886 241.96C530.102 242.696 531.446 243.064 532.918 243.064C534.39 243.064 535.718 242.696 536.902 241.96C538.118 241.224 539.078 240.2 539.782 238.888C540.486 237.576 540.838 236.072 540.838 234.376ZM564.079 221.176C566.351 221.176 568.111 221.656 569.359 222.616C570.607 223.544 571.471 224.808 571.951 226.408C572.463 227.976 572.719 229.736 572.719 231.688V244.552C572.719 245.256 572.479 245.848 571.999 246.328C571.551 246.776 570.991 247 570.319 247C569.615 247 569.039 246.776 568.591 246.328C568.143 245.848 567.919 245.256 567.919 244.552V231.736C567.919 230.584 567.759 229.56 567.439 228.664C567.119 227.736 566.559 227 565.759 226.456C564.991 225.88 563.903 225.592 562.495 225.592C561.183 225.592 560.031 225.88 559.039 226.456C558.047 227 557.263 227.736 556.687 228.664C556.143 229.56 555.871 230.584 555.871 231.736V244.552C555.871 245.256 555.631 245.848 555.151 246.328C554.703 246.776 554.143 247 553.471 247C552.767 247 552.191 246.776 551.743 246.328C551.295 245.848 551.071 245.256 551.071 244.552V224.2C551.071 223.496 551.295 222.92 551.743 222.472C552.191 221.992 552.767 221.752 553.471 221.752C554.143 221.752 554.703 221.992 555.151 222.472C555.631 222.92 555.871 223.496 555.871 224.2V226.888L555.007 227.368C555.231 226.664 555.615 225.96 556.159 225.256C556.735 224.52 557.423 223.848 558.223 223.24C559.023 222.6 559.919 222.104 560.911 221.752C561.903 221.368 562.959 221.176 564.079 221.176ZM589.895 221.176C591.271 221.176 592.535 221.4 593.687 221.848C594.839 222.296 595.831 222.872 596.663 223.576C597.527 224.248 598.199 224.952 598.679 225.688C599.159 226.424 599.399 227.064 599.399 227.608L598.295 227.656V223.816C598.295 223.144 598.519 222.568 598.967 222.088C599.415 221.608 599.991 221.368 600.695 221.368C601.399 221.368 601.975 221.608 602.423 222.088C602.871 222.536 603.095 223.112 603.095 223.816V244.984C603.095 247.704 602.519 249.912 601.367 251.608C600.215 253.336 598.679 254.6 596.759 255.4C594.871 256.2 592.791 256.6 590.519 256.6C589.719 256.6 588.775 256.488 587.687 256.264C586.599 256.072 585.591 255.832 584.663 255.544C583.767 255.256 583.143 254.968 582.791 254.68C582.055 254.296 581.559 253.848 581.303 253.336C581.079 252.824 581.079 252.312 581.303 251.8C581.623 251.096 582.055 250.664 582.599 250.504C583.143 250.344 583.767 250.392 584.471 250.648C584.791 250.744 585.287 250.92 585.959 251.176C586.631 251.432 587.383 251.656 588.215 251.848C589.047 252.072 589.831 252.184 590.567 252.184C593.127 252.184 595.047 251.592 596.327 250.408C597.639 249.224 598.295 247.608 598.295 245.56V241.24L598.823 241.576C598.727 242.248 598.423 242.936 597.911 243.64C597.431 244.312 596.791 244.936 595.991 245.512C595.191 246.088 594.263 246.568 593.207 246.952C592.183 247.304 591.127 247.48 590.039 247.48C587.767 247.48 585.735 246.92 583.943 245.8C582.151 244.648 580.727 243.096 579.671 241.144C578.615 239.16 578.087 236.888 578.087 234.328C578.087 231.768 578.615 229.512 579.671 227.56C580.727 225.576 582.135 224.024 583.895 222.904C585.687 221.752 587.687 221.176 589.895 221.176ZM590.615 225.592C589.047 225.592 587.671 225.976 586.487 226.744C585.303 227.512 584.375 228.552 583.703 229.864C583.031 231.176 582.695 232.664 582.695 234.328C582.695 235.992 583.031 237.48 583.703 238.792C584.375 240.104 585.303 241.144 586.487 241.912C587.671 242.68 589.047 243.064 590.615 243.064C592.183 243.064 593.559 242.696 594.743 241.96C595.927 241.192 596.855 240.152 597.527 238.84C598.199 237.496 598.535 235.992 598.535 234.328C598.535 232.664 598.199 231.176 597.527 229.864C596.855 228.52 595.927 227.48 594.743 226.744C593.559 225.976 592.183 225.592 590.615 225.592Z" fill="white"/>
</svg>
