<svg width="530" height="258" viewBox="0 0 530 258" fill="none" xmlns="http://www.w3.org/2000/svg">
<path d="M236.733 10.6558C235.782 9.02225 235.519 7.08877 236.004 5.26137C237.014 1.47284 240.918 -0.765314 244.688 0.240708C250.775 1.86504 251.864 10.0651 246.414 13.2259C243.032 15.1871 238.703 14.0383 236.733 10.6558ZM229.017 86.45L243.553 31.9753C243.706 31.4215 244.375 31.2508 244.767 31.6153L251.698 37.9788C253.101 39.2662 255.011 38.551 256.4 37.6604L269.736 29.142C273.876 26.3825 269.58 20.7065 265.754 23.1338L254.924 30.0187C254.638 30.1987 254.264 30.1664 254.015 29.9403L246.147 22.7139C245.994 22.5754 245.902 22.3816 245.902 22.1739C245.87 18.9945 243.719 16.2027 240.641 15.3859C236.867 14.3799 232.981 16.6226 231.971 20.4066L224.071 49.9906C223.494 52.1548 223.969 54.4114 225.344 56.1788C225.487 56.3634 225.529 56.6126 225.473 56.8341L218.316 83.6031C217.938 85.0243 218.155 86.5241 218.888 87.7977C221.38 92.1031 227.767 91.1338 229.017 86.45ZM285.859 62.2374L252.385 90.7737C252.205 90.926 251.951 90.986 251.716 90.926L241.596 88.3048L213.452 108L244.97 96.8604C245.173 96.7866 245.395 96.8096 245.575 96.9112L264.246 107.303L259.612 95.9099C259.479 95.5822 259.594 95.2131 259.885 95.0146L278.846 82.0472C279.225 81.7934 279.737 81.9272 279.935 82.324L287.919 98.1102L291.121 84.4233C291.241 83.9156 291.827 83.6849 292.275 83.9803L316.547 100.219L285.859 62.2374ZM241.107 74.8493C240.756 76.1599 240.945 77.5489 241.624 78.7209C243.894 82.6295 249.778 81.8265 250.941 77.475L254.904 62.6304C255.578 60.1108 255.689 56.9914 253.105 55.5008L240.728 48.3666L238.001 58.551L243.967 61.9889C244.258 62.155 244.41 62.4965 244.318 62.8195L241.107 74.8493Z" fill="white"/>
<path d="M34.0347 155.4C34.6747 155.4 35.2347 155.64 35.7147 156.12C36.2267 156.568 36.4827 157.144 36.4827 157.848V186.552C36.4507 187.256 36.1787 187.848 35.6667 188.328C35.1867 188.776 34.6107 189 33.9387 189C33.2027 189 32.5947 188.776 32.1147 188.328C31.6667 187.848 31.4427 187.256 31.4427 186.552V157.848C31.4427 157.144 31.6827 156.568 32.1627 156.12C32.6427 155.64 33.2667 155.4 34.0347 155.4ZM55.6827 155.4C56.4507 155.4 57.0587 155.64 57.5067 156.12C57.9547 156.568 58.1787 157.144 58.1787 157.848V186.552C58.1787 187.256 57.9387 187.848 57.4587 188.328C57.0107 188.776 56.4027 189 55.6347 189C54.9627 189 54.3867 188.776 53.9067 188.328C53.4267 187.848 53.1867 187.256 53.1867 186.552V157.848C53.1867 157.144 53.4267 156.568 53.9067 156.12C54.4187 155.64 55.0107 155.4 55.6827 155.4ZM33.8427 169.704H55.7307L55.6827 174.312H33.7947L33.8427 169.704ZM86.1027 163.368C86.8067 163.368 87.3827 163.608 87.8307 164.088C88.2787 164.536 88.5027 165.112 88.5027 165.816V186.552C88.5027 187.256 88.2787 187.848 87.8307 188.328C87.3827 188.776 86.8067 189 86.1027 189C85.4307 189 84.8547 188.776 84.3747 188.328C83.9267 187.848 83.7027 187.256 83.7027 186.552V183.096L84.7107 183.24C84.7107 183.816 84.4707 184.456 83.9907 185.16C83.5427 185.864 82.9187 186.552 82.1187 187.224C81.3187 187.864 80.3747 188.408 79.2867 188.856C78.1987 189.272 77.0307 189.48 75.7827 189.48C73.5747 189.48 71.5907 188.92 69.8307 187.8C68.0707 186.648 66.6787 185.08 65.6547 183.096C64.6307 181.112 64.1187 178.856 64.1187 176.328C64.1187 173.736 64.6307 171.464 65.6547 169.512C66.6787 167.528 68.0547 165.976 69.7827 164.856C71.5427 163.736 73.4947 163.176 75.6387 163.176C77.0147 163.176 78.2787 163.4 79.4307 163.848C80.6147 164.296 81.6387 164.872 82.5027 165.576C83.3667 166.28 84.0227 167.032 84.4707 167.832C84.9507 168.6 85.1907 169.336 85.1907 170.04L83.7027 170.184V165.816C83.7027 165.144 83.9267 164.568 84.3747 164.088C84.8547 163.608 85.4307 163.368 86.1027 163.368ZM76.3107 185.064C77.8147 185.064 79.1427 184.68 80.2947 183.912C81.4467 183.144 82.3427 182.104 82.9827 180.792C83.6227 179.448 83.9427 177.96 83.9427 176.328C83.9427 174.664 83.6227 173.176 82.9827 171.864C82.3427 170.552 81.4467 169.512 80.2947 168.744C79.1427 167.976 77.8147 167.592 76.3107 167.592C74.8387 167.592 73.5267 167.976 72.3747 168.744C71.2547 169.512 70.3587 170.552 69.6867 171.864C69.0467 173.176 68.7267 174.664 68.7267 176.328C68.7267 177.96 69.0467 179.448 69.6867 180.792C70.3587 182.104 71.2547 183.144 72.3747 183.912C73.5267 184.68 74.8387 185.064 76.3107 185.064ZM95.2407 163.512C95.7207 163.512 96.1687 163.64 96.5847 163.896C97.0327 164.152 97.3527 164.536 97.5447 165.048L105.081 182.472L104.169 182.904L111.801 165.096C112.249 164.04 112.969 163.528 113.961 163.56C114.601 163.56 115.129 163.768 115.545 164.184C115.993 164.568 116.217 165.08 116.217 165.72C116.217 165.912 116.185 166.12 116.121 166.344C116.057 166.536 115.977 166.728 115.881 166.92L106.761 187.464C106.345 188.424 105.657 188.936 104.697 189C104.217 189.064 103.737 188.968 103.257 188.712C102.809 188.424 102.457 188.008 102.201 187.464L93.1287 166.92C93.0647 166.792 93.0007 166.632 92.9367 166.44C92.8727 166.216 92.8407 165.96 92.8407 165.672C92.8407 165.192 93.0487 164.712 93.4647 164.232C93.9127 163.752 94.5047 163.512 95.2407 163.512ZM132.628 189.48C129.972 189.48 127.668 188.936 125.716 187.848C123.764 186.728 122.244 185.208 121.156 183.288C120.1 181.336 119.572 179.112 119.572 176.616C119.572 173.8 120.132 171.4 121.252 169.416C122.404 167.4 123.892 165.864 125.716 164.808C127.54 163.72 129.476 163.176 131.524 163.176C133.092 163.176 134.58 163.496 135.988 164.136C137.396 164.744 138.644 165.608 139.732 166.728C140.852 167.816 141.732 169.112 142.372 170.616C143.012 172.088 143.348 173.704 143.38 175.464C143.348 176.104 143.092 176.632 142.612 177.048C142.132 177.464 141.572 177.672 140.932 177.672H122.26L121.108 173.592H139.156L138.244 174.456V173.256C138.18 172.136 137.812 171.16 137.14 170.328C136.468 169.464 135.636 168.808 134.644 168.36C133.652 167.88 132.612 167.64 131.524 167.64C130.564 167.64 129.636 167.8 128.74 168.12C127.876 168.408 127.092 168.888 126.388 169.56C125.716 170.232 125.172 171.128 124.756 172.248C124.372 173.336 124.18 174.696 124.18 176.328C124.18 178.088 124.548 179.624 125.284 180.936C126.02 182.248 127.012 183.272 128.26 184.008C129.508 184.712 130.884 185.064 132.388 185.064C133.572 185.064 134.548 184.952 135.316 184.728C136.084 184.472 136.724 184.168 137.236 183.816C137.748 183.464 138.196 183.128 138.58 182.808C139.06 182.52 139.54 182.376 140.02 182.376C140.596 182.376 141.076 182.584 141.46 183C141.844 183.384 142.036 183.848 142.036 184.392C142.036 185.096 141.684 185.736 140.98 186.312C140.116 187.144 138.916 187.88 137.38 188.52C135.876 189.16 134.292 189.48 132.628 189.48ZM161.829 164.04H173.109C173.749 164.04 174.277 164.264 174.693 164.712C175.141 165.128 175.365 165.656 175.365 166.296C175.365 166.904 175.141 167.416 174.693 167.832C174.277 168.248 173.749 168.456 173.109 168.456H161.829C161.189 168.456 160.645 168.248 160.197 167.832C159.781 167.384 159.573 166.856 159.573 166.248C159.573 165.608 159.781 165.08 160.197 164.664C160.645 164.248 161.189 164.04 161.829 164.04ZM166.869 157.8C167.573 157.8 168.149 158.04 168.597 158.52C169.045 158.968 169.269 159.544 169.269 160.248V182.52C169.269 183.096 169.365 183.56 169.557 183.912C169.749 184.264 170.005 184.504 170.325 184.632C170.677 184.76 171.029 184.824 171.381 184.824C171.733 184.824 172.037 184.76 172.293 184.632C172.581 184.504 172.917 184.44 173.301 184.44C173.685 184.44 174.037 184.616 174.357 184.968C174.677 185.32 174.837 185.8 174.837 186.408C174.837 187.176 174.421 187.8 173.589 188.28C172.757 188.76 171.861 189 170.901 189C170.357 189 169.717 188.952 168.981 188.856C168.245 188.76 167.525 188.52 166.821 188.136C166.149 187.752 165.589 187.144 165.141 186.312C164.693 185.448 164.469 184.248 164.469 182.712V160.248C164.469 159.544 164.693 158.968 165.141 158.52C165.621 158.04 166.197 157.8 166.869 157.8ZM193.4 163.32C195.608 163.32 197.32 163.8 198.536 164.76C199.752 165.688 200.6 166.952 201.08 168.552C201.592 170.152 201.848 171.912 201.848 173.832V186.552C201.848 187.256 201.608 187.848 201.128 188.328C200.68 188.776 200.12 189 199.448 189C198.744 189 198.168 188.776 197.72 188.328C197.272 187.848 197.048 187.256 197.048 186.552V173.832C197.048 172.712 196.888 171.688 196.568 170.76C196.28 169.832 195.752 169.096 194.984 168.552C194.248 168.008 193.208 167.736 191.864 167.736C190.616 167.736 189.496 168.008 188.504 168.552C187.544 169.096 186.792 169.832 186.248 170.76C185.736 171.688 185.48 172.712 185.48 173.832V186.552C185.48 187.256 185.24 187.848 184.76 188.328C184.312 188.776 183.752 189 183.08 189C182.376 189 181.8 188.776 181.352 188.328C180.904 187.848 180.68 187.256 180.68 186.552V155.928C180.68 155.224 180.904 154.648 181.352 154.2C181.8 153.72 182.376 153.48 183.08 153.48C183.752 153.48 184.312 153.72 184.76 154.2C185.24 154.648 185.48 155.224 185.48 155.928V169.032L184.616 169.512C184.84 168.808 185.208 168.088 185.72 167.352C186.264 166.616 186.92 165.944 187.688 165.336C188.488 164.728 189.368 164.248 190.328 163.896C191.288 163.512 192.312 163.32 193.4 163.32ZM220.284 189.48C217.628 189.48 215.324 188.936 213.372 187.848C211.42 186.728 209.9 185.208 208.812 183.288C207.756 181.336 207.228 179.112 207.228 176.616C207.228 173.8 207.788 171.4 208.908 169.416C210.06 167.4 211.548 165.864 213.372 164.808C215.196 163.72 217.132 163.176 219.18 163.176C220.748 163.176 222.236 163.496 223.644 164.136C225.052 164.744 226.3 165.608 227.388 166.728C228.508 167.816 229.388 169.112 230.028 170.616C230.668 172.088 231.004 173.704 231.036 175.464C231.004 176.104 230.748 176.632 230.268 177.048C229.788 177.464 229.228 177.672 228.588 177.672H209.916L208.764 173.592H226.812L225.9 174.456V173.256C225.836 172.136 225.468 171.16 224.796 170.328C224.124 169.464 223.292 168.808 222.3 168.36C221.308 167.88 220.268 167.64 219.18 167.64C218.22 167.64 217.292 167.8 216.396 168.12C215.532 168.408 214.748 168.888 214.044 169.56C213.372 170.232 212.828 171.128 212.412 172.248C212.028 173.336 211.836 174.696 211.836 176.328C211.836 178.088 212.204 179.624 212.94 180.936C213.676 182.248 214.668 183.272 215.916 184.008C217.164 184.712 218.54 185.064 220.044 185.064C221.228 185.064 222.204 184.952 222.972 184.728C223.74 184.472 224.38 184.168 224.892 183.816C225.404 183.464 225.852 183.128 226.236 182.808C226.716 182.52 227.196 182.376 227.676 182.376C228.252 182.376 228.732 182.584 229.116 183C229.5 183.384 229.692 183.848 229.692 184.392C229.692 185.096 229.34 185.736 228.636 186.312C227.772 187.144 226.572 187.88 225.036 188.52C223.532 189.16 221.948 189.48 220.284 189.48ZM274.205 157.32C274.909 157.672 275.309 158.216 275.405 158.952C275.533 159.688 275.357 160.36 274.877 160.968C274.525 161.448 274.061 161.72 273.485 161.784C272.941 161.848 272.397 161.736 271.853 161.448C270.925 160.968 269.949 160.584 268.925 160.296C267.901 160.008 266.813 159.864 265.661 159.864C263.837 159.864 262.189 160.168 260.717 160.776C259.277 161.352 258.029 162.2 256.973 163.32C255.917 164.408 255.101 165.704 254.525 167.208C253.981 168.712 253.709 170.376 253.709 172.2C253.709 174.216 254.013 176.008 254.621 177.576C255.229 179.112 256.061 180.424 257.117 181.512C258.205 182.568 259.469 183.368 260.909 183.912C262.381 184.424 263.965 184.68 265.661 184.68C266.749 184.68 267.805 184.552 268.829 184.296C269.885 184.04 270.877 183.656 271.805 183.144C272.381 182.856 272.941 182.76 273.485 182.856C274.061 182.92 274.525 183.192 274.877 183.672C275.421 184.344 275.613 185.032 275.453 185.736C275.325 186.408 274.925 186.92 274.253 187.272C273.453 187.72 272.573 188.104 271.613 188.424C270.653 188.744 269.677 189 268.685 189.192C267.693 189.384 266.685 189.48 265.661 189.48C263.357 189.48 261.181 189.096 259.133 188.328C257.085 187.56 255.261 186.44 253.661 184.968C252.061 183.496 250.797 181.688 249.869 179.544C248.973 177.4 248.525 174.952 248.525 172.2C248.525 169.736 248.941 167.464 249.773 165.384C250.637 163.272 251.837 161.464 253.373 159.96C254.941 158.424 256.765 157.24 258.845 156.408C260.925 155.544 263.197 155.112 265.661 155.112C267.197 155.112 268.685 155.304 270.125 155.688C271.597 156.072 272.957 156.616 274.205 157.32ZM304.529 176.376C304.529 178.936 303.969 181.208 302.849 183.192C301.729 185.144 300.209 186.68 298.289 187.8C296.369 188.92 294.209 189.48 291.809 189.48C289.409 189.48 287.249 188.92 285.329 187.8C283.409 186.68 281.873 185.144 280.721 183.192C279.601 181.208 279.041 178.936 279.041 176.376C279.041 173.784 279.601 171.512 280.721 169.56C281.873 167.576 283.409 166.024 285.329 164.904C287.249 163.752 289.409 163.176 291.809 163.176C294.209 163.176 296.369 163.752 298.289 164.904C300.209 166.024 301.729 167.576 302.849 169.56C303.969 171.512 304.529 173.784 304.529 176.376ZM299.729 176.376C299.729 174.616 299.377 173.096 298.673 171.816C297.969 170.504 297.009 169.48 295.793 168.744C294.609 167.976 293.281 167.592 291.809 167.592C290.337 167.592 288.993 167.976 287.777 168.744C286.561 169.48 285.601 170.504 284.897 171.816C284.193 173.096 283.841 174.616 283.841 176.376C283.841 178.072 284.193 179.576 284.897 180.888C285.601 182.2 286.561 183.224 287.777 183.96C288.993 184.696 290.337 185.064 291.809 185.064C293.281 185.064 294.609 184.696 295.793 183.96C297.009 183.224 297.969 182.2 298.673 180.888C299.377 179.576 299.729 178.072 299.729 176.376ZM328.778 163.752C329.45 163.752 330.01 163.992 330.458 164.472C330.938 164.92 331.178 165.496 331.178 166.2V178.824C331.178 182.152 330.25 184.76 328.394 186.648C326.538 188.504 323.914 189.432 320.522 189.432C317.162 189.432 314.554 188.504 312.698 186.648C310.874 184.76 309.962 182.152 309.962 178.824V166.2C309.962 165.496 310.186 164.92 310.634 164.472C311.082 163.992 311.658 163.752 312.362 163.752C313.034 163.752 313.594 163.992 314.042 164.472C314.522 164.92 314.762 165.496 314.762 166.2V178.824C314.762 180.904 315.242 182.456 316.202 183.48C317.194 184.504 318.634 185.016 320.522 185.016C322.442 185.016 323.898 184.504 324.89 183.48C325.882 182.456 326.378 180.904 326.378 178.824V166.2C326.378 165.496 326.602 164.92 327.05 164.472C327.498 163.992 328.074 163.752 328.778 163.752ZM340.252 189C339.548 189 338.972 188.776 338.524 188.328C338.076 187.848 337.852 187.256 337.852 186.552V166.2C337.852 165.496 338.076 164.92 338.524 164.472C338.972 163.992 339.548 163.752 340.252 163.752C340.924 163.752 341.484 163.992 341.932 164.472C342.412 164.92 342.652 165.496 342.652 166.2V171.576L342.172 169.512C342.428 168.616 342.812 167.784 343.324 167.016C343.868 166.248 344.508 165.576 345.244 165C345.98 164.424 346.796 163.976 347.692 163.656C348.62 163.336 349.58 163.176 350.572 163.176C351.404 163.176 352.124 163.4 352.732 163.848C353.34 164.296 353.644 164.856 353.644 165.528C353.644 166.392 353.42 167.032 352.972 167.448C352.524 167.832 352.028 168.024 351.484 168.024C351.004 168.024 350.54 167.928 350.092 167.736C349.644 167.512 349.116 167.4 348.508 167.4C347.836 167.4 347.148 167.576 346.444 167.928C345.74 168.28 345.1 168.808 344.524 169.512C343.948 170.184 343.484 170.984 343.132 171.912C342.812 172.84 342.652 173.88 342.652 175.032V186.552C342.652 187.256 342.412 187.848 341.932 188.328C341.484 188.776 340.924 189 340.252 189ZM378.04 163.368C378.744 163.368 379.32 163.608 379.768 164.088C380.216 164.536 380.44 165.112 380.44 165.816V186.552C380.44 187.256 380.216 187.848 379.768 188.328C379.32 188.776 378.744 189 378.04 189C377.368 189 376.792 188.776 376.312 188.328C375.864 187.848 375.64 187.256 375.64 186.552V183.096L376.648 183.24C376.648 183.816 376.408 184.456 375.928 185.16C375.48 185.864 374.856 186.552 374.056 187.224C373.256 187.864 372.312 188.408 371.224 188.856C370.136 189.272 368.968 189.48 367.72 189.48C365.512 189.48 363.528 188.92 361.768 187.8C360.008 186.648 358.616 185.08 357.592 183.096C356.568 181.112 356.056 178.856 356.056 176.328C356.056 173.736 356.568 171.464 357.592 169.512C358.616 167.528 359.992 165.976 361.72 164.856C363.48 163.736 365.432 163.176 367.576 163.176C368.952 163.176 370.216 163.4 371.368 163.848C372.552 164.296 373.576 164.872 374.44 165.576C375.304 166.28 375.96 167.032 376.408 167.832C376.888 168.6 377.128 169.336 377.128 170.04L375.64 170.184V165.816C375.64 165.144 375.864 164.568 376.312 164.088C376.792 163.608 377.368 163.368 378.04 163.368ZM368.248 185.064C369.752 185.064 371.08 184.68 372.232 183.912C373.384 183.144 374.28 182.104 374.92 180.792C375.56 179.448 375.88 177.96 375.88 176.328C375.88 174.664 375.56 173.176 374.92 171.864C374.28 170.552 373.384 169.512 372.232 168.744C371.08 167.976 369.752 167.592 368.248 167.592C366.776 167.592 365.464 167.976 364.312 168.744C363.192 169.512 362.296 170.552 361.624 171.864C360.984 173.176 360.664 174.664 360.664 176.328C360.664 177.96 360.984 179.448 361.624 180.792C362.296 182.104 363.192 183.144 364.312 183.912C365.464 184.68 366.776 185.064 368.248 185.064ZM397.677 163.176C399.053 163.176 400.317 163.4 401.469 163.848C402.621 164.296 403.613 164.872 404.445 165.576C405.309 166.248 405.981 166.952 406.461 167.688C406.941 168.424 407.181 169.064 407.181 169.608L406.077 169.656V165.816C406.077 165.144 406.301 164.568 406.749 164.088C407.197 163.608 407.773 163.368 408.477 163.368C409.181 163.368 409.757 163.608 410.205 164.088C410.653 164.536 410.877 165.112 410.877 165.816V186.984C410.877 189.704 410.301 191.912 409.149 193.608C407.997 195.336 406.461 196.6 404.541 197.4C402.653 198.2 400.573 198.6 398.301 198.6C397.501 198.6 396.557 198.488 395.469 198.264C394.381 198.072 393.373 197.832 392.445 197.544C391.549 197.256 390.925 196.968 390.573 196.68C389.837 196.296 389.341 195.848 389.085 195.336C388.861 194.824 388.861 194.312 389.085 193.8C389.405 193.096 389.837 192.664 390.381 192.504C390.925 192.344 391.549 192.392 392.253 192.648C392.573 192.744 393.069 192.92 393.741 193.176C394.413 193.432 395.165 193.656 395.997 193.848C396.829 194.072 397.613 194.184 398.349 194.184C400.909 194.184 402.829 193.592 404.109 192.408C405.421 191.224 406.077 189.608 406.077 187.56V183.24L406.605 183.576C406.509 184.248 406.205 184.936 405.693 185.64C405.213 186.312 404.573 186.936 403.773 187.512C402.973 188.088 402.045 188.568 400.989 188.952C399.965 189.304 398.909 189.48 397.821 189.48C395.549 189.48 393.517 188.92 391.725 187.8C389.933 186.648 388.509 185.096 387.453 183.144C386.397 181.16 385.869 178.888 385.869 176.328C385.869 173.768 386.397 171.512 387.453 169.56C388.509 167.576 389.917 166.024 391.677 164.904C393.469 163.752 395.469 163.176 397.677 163.176ZM398.397 167.592C396.829 167.592 395.453 167.976 394.269 168.744C393.085 169.512 392.157 170.552 391.485 171.864C390.813 173.176 390.477 174.664 390.477 176.328C390.477 177.992 390.813 179.48 391.485 180.792C392.157 182.104 393.085 183.144 394.269 183.912C395.453 184.68 396.829 185.064 398.397 185.064C399.965 185.064 401.341 184.696 402.525 183.96C403.709 183.192 404.637 182.152 405.309 180.84C405.981 179.496 406.317 177.992 406.317 176.328C406.317 174.664 405.981 173.176 405.309 171.864C404.637 170.52 403.709 169.48 402.525 168.744C401.341 167.976 399.965 167.592 398.397 167.592ZM428.362 189.48C425.706 189.48 423.402 188.936 421.45 187.848C419.498 186.728 417.978 185.208 416.89 183.288C415.834 181.336 415.306 179.112 415.306 176.616C415.306 173.8 415.866 171.4 416.986 169.416C418.138 167.4 419.626 165.864 421.45 164.808C423.274 163.72 425.21 163.176 427.258 163.176C428.826 163.176 430.314 163.496 431.722 164.136C433.13 164.744 434.378 165.608 435.466 166.728C436.586 167.816 437.466 169.112 438.106 170.616C438.746 172.088 439.082 173.704 439.114 175.464C439.082 176.104 438.826 176.632 438.346 177.048C437.866 177.464 437.306 177.672 436.666 177.672H417.994L416.842 173.592H434.89L433.978 174.456V173.256C433.914 172.136 433.546 171.16 432.874 170.328C432.202 169.464 431.37 168.808 430.378 168.36C429.386 167.88 428.346 167.64 427.258 167.64C426.298 167.64 425.37 167.8 424.474 168.12C423.61 168.408 422.826 168.888 422.122 169.56C421.45 170.232 420.906 171.128 420.49 172.248C420.106 173.336 419.914 174.696 419.914 176.328C419.914 178.088 420.282 179.624 421.018 180.936C421.754 182.248 422.746 183.272 423.994 184.008C425.242 184.712 426.618 185.064 428.122 185.064C429.306 185.064 430.282 184.952 431.05 184.728C431.818 184.472 432.458 184.168 432.97 183.816C433.482 183.464 433.93 183.128 434.314 182.808C434.794 182.52 435.274 182.376 435.754 182.376C436.33 182.376 436.81 182.584 437.194 183C437.578 183.384 437.77 183.848 437.77 184.392C437.77 185.096 437.418 185.736 436.714 186.312C435.85 187.144 434.65 187.88 433.114 188.52C431.61 189.16 430.026 189.48 428.362 189.48ZM457.563 164.04H468.843C469.483 164.04 470.011 164.264 470.427 164.712C470.875 165.128 471.099 165.656 471.099 166.296C471.099 166.904 470.875 167.416 470.427 167.832C470.011 168.248 469.483 168.456 468.843 168.456H457.563C456.923 168.456 456.379 168.248 455.931 167.832C455.515 167.384 455.307 166.856 455.307 166.248C455.307 165.608 455.515 165.08 455.931 164.664C456.379 164.248 456.923 164.04 457.563 164.04ZM462.603 157.8C463.307 157.8 463.883 158.04 464.331 158.52C464.779 158.968 465.003 159.544 465.003 160.248V182.52C465.003 183.096 465.099 183.56 465.291 183.912C465.483 184.264 465.739 184.504 466.059 184.632C466.411 184.76 466.763 184.824 467.115 184.824C467.467 184.824 467.771 184.76 468.027 184.632C468.315 184.504 468.651 184.44 469.035 184.44C469.419 184.44 469.771 184.616 470.091 184.968C470.411 185.32 470.571 185.8 470.571 186.408C470.571 187.176 470.155 187.8 469.323 188.28C468.491 188.76 467.595 189 466.635 189C466.091 189 465.451 188.952 464.715 188.856C463.979 188.76 463.259 188.52 462.555 188.136C461.883 187.752 461.323 187.144 460.875 186.312C460.427 185.448 460.203 184.248 460.203 182.712V160.248C460.203 159.544 460.427 158.968 460.875 158.52C461.355 158.04 461.931 157.8 462.603 157.8ZM500.372 176.376C500.372 178.936 499.812 181.208 498.692 183.192C497.572 185.144 496.052 186.68 494.132 187.8C492.212 188.92 490.052 189.48 487.652 189.48C485.252 189.48 483.092 188.92 481.172 187.8C479.252 186.68 477.716 185.144 476.564 183.192C475.444 181.208 474.884 178.936 474.884 176.376C474.884 173.784 475.444 171.512 476.564 169.56C477.716 167.576 479.252 166.024 481.172 164.904C483.092 163.752 485.252 163.176 487.652 163.176C490.052 163.176 492.212 163.752 494.132 164.904C496.052 166.024 497.572 167.576 498.692 169.56C499.812 171.512 500.372 173.784 500.372 176.376ZM495.572 176.376C495.572 174.616 495.22 173.096 494.516 171.816C493.812 170.504 492.852 169.48 491.636 168.744C490.452 167.976 489.124 167.592 487.652 167.592C486.18 167.592 484.836 167.976 483.62 168.744C482.404 169.48 481.444 170.504 480.74 171.816C480.036 173.096 479.684 174.616 479.684 176.376C479.684 178.072 480.036 179.576 480.74 180.888C481.444 182.2 482.404 183.224 483.62 183.96C484.836 184.696 486.18 185.064 487.652 185.064C489.124 185.064 490.452 184.696 491.636 183.96C492.852 183.224 493.812 182.2 494.516 180.888C495.22 179.576 495.572 178.072 495.572 176.376ZM158.033 221.176C160.273 221.176 162.257 221.736 163.985 222.856C165.745 223.976 167.137 225.528 168.161 227.512C169.185 229.464 169.697 231.72 169.697 234.28C169.697 236.84 169.185 239.112 168.161 241.096C167.137 243.08 165.761 244.648 164.033 245.8C162.305 246.92 160.353 247.48 158.177 247.48C156.961 247.48 155.809 247.288 154.721 246.904C153.633 246.488 152.673 245.976 151.841 245.368C151.009 244.728 150.321 244.056 149.777 243.352C149.265 242.648 148.945 241.992 148.817 241.384L150.113 240.76V244.936C150.113 245.608 149.873 246.184 149.393 246.664C148.945 247.112 148.385 247.336 147.713 247.336C147.009 247.336 146.433 247.112 145.985 246.664C145.537 246.216 145.313 245.64 145.313 244.936V213.928C145.313 213.224 145.537 212.648 145.985 212.2C146.433 211.72 147.009 211.48 147.713 211.48C148.385 211.48 148.945 211.72 149.393 212.2C149.873 212.648 150.113 213.224 150.113 213.928V227.416L149.345 226.984C149.441 226.376 149.745 225.752 150.257 225.112C150.769 224.44 151.409 223.8 152.177 223.192C152.977 222.584 153.873 222.104 154.865 221.752C155.889 221.368 156.945 221.176 158.033 221.176ZM157.505 225.592C155.969 225.592 154.625 225.976 153.473 226.744C152.353 227.512 151.473 228.552 150.833 229.864C150.193 231.144 149.873 232.616 149.873 234.28C149.873 235.944 150.193 237.448 150.833 238.792C151.473 240.104 152.353 241.144 153.473 241.912C154.625 242.68 155.969 243.064 157.505 243.064C159.009 243.064 160.321 242.68 161.441 241.912C162.561 241.144 163.441 240.088 164.081 238.744C164.753 237.4 165.089 235.912 165.089 234.28C165.089 232.616 164.753 231.144 164.081 229.864C163.441 228.552 162.561 227.512 161.441 226.744C160.321 225.976 159.009 225.592 157.505 225.592ZM186.886 247.48C184.23 247.48 181.926 246.936 179.974 245.848C178.022 244.728 176.502 243.208 175.414 241.288C174.358 239.336 173.83 237.112 173.83 234.616C173.83 231.8 174.39 229.4 175.51 227.416C176.662 225.4 178.15 223.864 179.974 222.808C181.798 221.72 183.734 221.176 185.782 221.176C187.35 221.176 188.838 221.496 190.246 222.136C191.654 222.744 192.902 223.608 193.99 224.728C195.11 225.816 195.99 227.112 196.63 228.616C197.27 230.088 197.606 231.704 197.638 233.464C197.606 234.104 197.35 234.632 196.87 235.048C196.39 235.464 195.83 235.672 195.19 235.672H176.518L175.366 231.592H193.414L192.502 232.456V231.256C192.438 230.136 192.07 229.16 191.398 228.328C190.726 227.464 189.894 226.808 188.902 226.36C187.91 225.88 186.87 225.64 185.782 225.64C184.822 225.64 183.894 225.8 182.998 226.12C182.134 226.408 181.35 226.888 180.646 227.56C179.974 228.232 179.43 229.128 179.014 230.248C178.63 231.336 178.438 232.696 178.438 234.328C178.438 236.088 178.806 237.624 179.542 238.936C180.278 240.248 181.27 241.272 182.518 242.008C183.766 242.712 185.142 243.064 186.646 243.064C187.83 243.064 188.806 242.952 189.574 242.728C190.342 242.472 190.982 242.168 191.494 241.816C192.006 241.464 192.454 241.128 192.838 240.808C193.318 240.52 193.798 240.376 194.278 240.376C194.854 240.376 195.334 240.584 195.718 241C196.102 241.384 196.294 241.848 196.294 242.392C196.294 243.096 195.942 243.736 195.238 244.312C194.374 245.144 193.174 245.88 191.638 246.52C190.134 247.16 188.55 247.48 186.886 247.48ZM231.111 213.4C233.447 213.4 235.511 213.848 237.302 214.744C239.095 215.608 240.583 216.824 241.767 218.392C242.983 219.928 243.895 221.72 244.503 223.768C245.111 225.784 245.415 227.928 245.415 230.2C245.415 233.304 244.871 236.136 243.783 238.696C242.695 241.224 241.095 243.24 238.983 244.744C236.871 246.248 234.247 247 231.111 247H219.398C218.727 247 218.151 246.776 217.671 246.328C217.191 245.848 216.951 245.256 216.951 244.552V215.848C216.951 215.144 217.191 214.568 217.671 214.12C218.151 213.64 218.727 213.4 219.398 213.4H231.111ZM230.631 242.392C232.903 242.392 234.743 241.832 236.151 240.712C237.559 239.592 238.583 238.12 239.223 236.296C239.895 234.44 240.231 232.408 240.231 230.2C240.231 228.568 240.039 227.032 239.655 225.592C239.303 224.12 238.727 222.824 237.927 221.704C237.159 220.552 236.167 219.656 234.951 219.016C233.767 218.344 232.327 218.008 230.631 218.008H221.559L221.991 217.576V242.872L221.703 242.392H230.631ZM255.294 244.552C255.294 245.256 255.07 245.848 254.622 246.328C254.174 246.776 253.598 247 252.894 247C252.222 247 251.646 246.776 251.166 246.328C250.718 245.848 250.494 245.256 250.494 244.552V224.008C250.494 223.304 250.718 222.728 251.166 222.28C251.646 221.8 252.222 221.56 252.894 221.56C253.598 221.56 254.174 221.8 254.622 222.28C255.07 222.728 255.294 223.304 255.294 224.008V244.552ZM252.846 218.392C251.918 218.392 251.246 218.232 250.83 217.912C250.414 217.56 250.206 216.984 250.206 216.184V215.416C250.206 214.616 250.43 214.056 250.878 213.736C251.326 213.416 251.998 213.256 252.894 213.256C253.854 213.256 254.542 213.432 254.958 213.784C255.374 214.104 255.582 214.648 255.582 215.416V216.184C255.582 217.016 255.358 217.592 254.91 217.912C254.494 218.232 253.806 218.392 252.846 218.392ZM260.263 243.064C259.975 242.616 259.847 242.104 259.879 241.528C259.911 240.92 260.247 240.408 260.887 239.992C261.335 239.704 261.799 239.592 262.279 239.656C262.791 239.688 263.271 239.928 263.719 240.376C264.615 241.368 265.607 242.152 266.695 242.728C267.815 243.304 269.159 243.592 270.727 243.592C271.367 243.56 272.023 243.464 272.695 243.304C273.367 243.112 273.943 242.792 274.423 242.344C274.903 241.864 275.143 241.176 275.143 240.28C275.143 239.48 274.887 238.84 274.375 238.36C273.863 237.88 273.191 237.496 272.359 237.208C271.527 236.888 270.631 236.6 269.671 236.344C268.647 236.056 267.607 235.736 266.551 235.384C265.527 235.032 264.599 234.584 263.767 234.04C262.935 233.464 262.247 232.728 261.703 231.832C261.191 230.936 260.935 229.832 260.935 228.52C260.935 227.016 261.351 225.72 262.183 224.632C263.047 223.544 264.151 222.696 265.495 222.088C266.871 221.48 268.359 221.176 269.959 221.176C270.887 221.176 271.863 221.304 272.887 221.56C273.911 221.784 274.903 222.152 275.863 222.664C276.823 223.176 277.655 223.848 278.359 224.68C278.679 225.096 278.855 225.592 278.887 226.168C278.951 226.744 278.695 227.256 278.119 227.704C277.735 228.024 277.271 228.168 276.727 228.136C276.183 228.104 275.735 227.928 275.383 227.608C274.775 226.84 273.991 226.248 273.031 225.832C272.071 225.384 270.983 225.16 269.767 225.16C269.159 225.16 268.519 225.256 267.847 225.448C267.207 225.608 266.663 225.912 266.215 226.36C265.767 226.808 265.543 227.464 265.543 228.328C265.543 229.128 265.799 229.768 266.311 230.248C266.855 230.728 267.559 231.128 268.423 231.448C269.287 231.768 270.231 232.056 271.255 232.312C272.247 232.568 273.223 232.872 274.183 233.224C275.175 233.576 276.055 234.04 276.823 234.616C277.623 235.16 278.263 235.88 278.743 236.776C279.255 237.64 279.511 238.744 279.511 240.088C279.511 241.656 279.047 243 278.119 244.12C277.223 245.208 276.071 246.04 274.663 246.616C273.287 247.192 271.831 247.48 270.295 247.48C268.471 247.48 266.647 247.16 264.823 246.52C263.031 245.848 261.511 244.696 260.263 243.064ZM289.857 244.552C289.857 245.256 289.617 245.848 289.137 246.328C288.689 246.776 288.129 247 287.457 247C286.785 247 286.209 246.776 285.729 246.328C285.281 245.848 285.057 245.256 285.057 244.552V213.928C285.057 213.224 285.297 212.648 285.777 212.2C286.257 211.72 286.833 211.48 287.505 211.48C288.209 211.48 288.769 211.72 289.185 212.2C289.633 212.648 289.857 213.224 289.857 213.928V244.552ZM301.513 244.552C301.513 245.256 301.289 245.848 300.841 246.328C300.393 246.776 299.817 247 299.113 247C298.441 247 297.865 246.776 297.385 246.328C296.937 245.848 296.713 245.256 296.713 244.552V224.008C296.713 223.304 296.937 222.728 297.385 222.28C297.865 221.8 298.441 221.56 299.113 221.56C299.817 221.56 300.393 221.8 300.841 222.28C301.289 222.728 301.513 223.304 301.513 224.008V244.552ZM299.065 218.392C298.137 218.392 297.465 218.232 297.049 217.912C296.633 217.56 296.425 216.984 296.425 216.184V215.416C296.425 214.616 296.649 214.056 297.097 213.736C297.545 213.416 298.217 213.256 299.113 213.256C300.073 213.256 300.761 213.432 301.177 213.784C301.593 214.104 301.801 214.648 301.801 215.416V216.184C301.801 217.016 301.577 217.592 301.129 217.912C300.713 218.232 300.025 218.392 299.065 218.392ZM310.753 247C310.081 247 309.505 246.776 309.025 246.328C308.577 245.848 308.353 245.256 308.353 244.552V213.928C308.353 213.224 308.577 212.648 309.025 212.2C309.505 211.72 310.081 211.48 310.753 211.48C311.457 211.48 312.033 211.72 312.481 212.2C312.929 212.648 313.153 213.224 313.153 213.928V244.552C313.153 245.256 312.929 245.848 312.481 246.328C312.033 246.776 311.457 247 310.753 247ZM326.401 221.656C327.009 221.656 327.537 221.912 327.985 222.424C328.433 222.936 328.657 223.448 328.657 223.96C328.657 224.6 328.353 225.192 327.745 225.736L312.721 239.176L312.529 233.656L324.625 222.424C325.137 221.912 325.729 221.656 326.401 221.656ZM326.977 246.952C326.305 246.952 325.729 246.68 325.249 246.136L315.649 236.008L319.297 232.648L328.657 242.776C329.169 243.32 329.425 243.928 329.425 244.6C329.425 245.304 329.137 245.88 328.561 246.328C328.017 246.744 327.489 246.952 326.977 246.952ZM345.417 247.48C342.761 247.48 340.457 246.936 338.505 245.848C336.553 244.728 335.033 243.208 333.945 241.288C332.889 239.336 332.361 237.112 332.361 234.616C332.361 231.8 332.921 229.4 334.041 227.416C335.193 225.4 336.681 223.864 338.505 222.808C340.329 221.72 342.265 221.176 344.313 221.176C345.881 221.176 347.369 221.496 348.777 222.136C350.185 222.744 351.433 223.608 352.521 224.728C353.641 225.816 354.521 227.112 355.161 228.616C355.801 230.088 356.137 231.704 356.169 233.464C356.137 234.104 355.881 234.632 355.401 235.048C354.921 235.464 354.361 235.672 353.721 235.672H335.049L333.897 231.592H351.945L351.033 232.456V231.256C350.969 230.136 350.601 229.16 349.929 228.328C349.257 227.464 348.425 226.808 347.433 226.36C346.441 225.88 345.401 225.64 344.313 225.64C343.353 225.64 342.425 225.8 341.529 226.12C340.665 226.408 339.881 226.888 339.177 227.56C338.505 228.232 337.961 229.128 337.545 230.248C337.161 231.336 336.969 232.696 336.969 234.328C336.969 236.088 337.337 237.624 338.073 238.936C338.809 240.248 339.801 241.272 341.049 242.008C342.297 242.712 343.673 243.064 345.177 243.064C346.361 243.064 347.337 242.952 348.105 242.728C348.873 242.472 349.513 242.168 350.025 241.816C350.537 241.464 350.985 241.128 351.369 240.808C351.849 240.52 352.329 240.376 352.809 240.376C353.385 240.376 353.865 240.584 354.249 241C354.633 241.384 354.825 241.848 354.825 242.392C354.825 243.096 354.473 243.736 353.769 244.312C352.905 245.144 351.705 245.88 350.169 246.52C348.665 247.16 347.081 247.48 345.417 247.48ZM382.282 211.48C382.986 211.48 383.562 211.704 384.01 212.152C384.458 212.6 384.682 213.192 384.682 213.928V244.552C384.682 245.256 384.458 245.848 384.01 246.328C383.562 246.776 382.986 247 382.282 247C381.61 247 381.034 246.776 380.554 246.328C380.106 245.848 379.882 245.256 379.882 244.552V241.096L380.89 241.144C380.89 241.72 380.65 242.376 380.17 243.112C379.722 243.816 379.098 244.504 378.298 245.176C377.498 245.848 376.554 246.408 375.466 246.856C374.378 247.272 373.21 247.48 371.962 247.48C369.754 247.48 367.77 246.92 366.01 245.8C364.25 244.648 362.858 243.096 361.834 241.144C360.81 239.16 360.298 236.888 360.298 234.328C360.298 231.768 360.81 229.512 361.834 227.56C362.858 225.576 364.234 224.024 365.962 222.904C367.722 221.752 369.674 221.176 371.818 221.176C373.162 221.176 374.41 221.4 375.562 221.848C376.746 222.296 377.77 222.872 378.634 223.576C379.498 224.28 380.17 225.032 380.65 225.832C381.13 226.6 381.37 227.336 381.37 228.04L379.882 228.184V213.928C379.882 213.224 380.106 212.648 380.554 212.2C381.034 211.72 381.61 211.48 382.282 211.48ZM372.49 243.064C374.026 243.064 375.354 242.68 376.474 241.912C377.626 241.144 378.522 240.104 379.162 238.792C379.802 237.48 380.122 235.992 380.122 234.328C380.122 232.664 379.802 231.176 379.162 229.864C378.522 228.552 377.626 227.512 376.474 226.744C375.322 225.976 373.994 225.592 372.49 225.592C371.018 225.592 369.706 225.976 368.554 226.744C367.434 227.512 366.538 228.552 365.866 229.864C365.226 231.176 364.906 232.664 364.906 234.328C364.906 235.992 365.226 237.48 365.866 238.792C366.538 240.104 367.434 241.144 368.554 241.912C369.706 242.68 371.018 243.064 372.49 243.064Z" fill="white"/>
</svg>
