<svg width="660" height="258" viewBox="0 0 660 258" fill="none" xmlns="http://www.w3.org/2000/svg">
<path fill-rule="evenodd" clip-rule="evenodd" d="M332.573 102.659C329.523 103.279 326.355 102.93 323.513 101.659C323.315 101.58 323.139 101.453 323.002 101.289C322.865 101.125 322.771 100.93 322.727 100.721C322.684 100.512 322.693 100.295 322.754 100.09C322.815 99.8857 322.926 99.6993 323.076 99.5477L341.899 80.557C342.009 80.4476 342.138 80.3587 342.279 80.2943C342.433 80.2238 342.6 80.1844 342.769 80.1783C342.939 80.1723 343.108 80.1997 343.267 80.2589C343.426 80.3182 343.571 80.4082 343.696 80.5238C343.82 80.6394 343.92 80.7783 343.99 80.9326C345.297 83.7881 345.7 86.975 345.145 90.0661C344.59 93.1572 343.103 96.0046 340.884 98.2266C338.612 100.492 335.72 102.035 332.573 102.659ZM326.334 99.9377C328.21 100.441 330.178 100.502 332.082 100.118C334.723 99.5936 337.15 98.2993 339.056 96.398C340.674 94.7828 341.829 92.7634 342.402 90.5501C342.974 88.3368 342.942 86.0105 342.31 83.8135L326.329 99.9377H326.334ZM336.793 75.4419C336.914 75.3216 337.009 75.1788 337.074 75.0217C337.14 74.8645 337.173 74.6959 337.173 74.5258C337.173 74.3556 337.14 74.1871 337.074 74.0299C337.009 73.8727 336.914 73.7299 336.793 73.6097C336.657 73.4717 336.49 73.3667 336.307 73.3025C333.451 72.019 330.271 71.6373 327.193 72.2083C324.114 72.7793 321.282 74.2759 319.077 76.4982C316.871 78.7206 315.395 81.563 314.847 84.6459C314.299 87.7289 314.704 90.9057 316.009 93.7522C316.096 93.9413 316.227 94.1065 316.392 94.234C316.556 94.3614 316.749 94.4473 316.954 94.4843C317.159 94.5212 317.369 94.5083 317.568 94.4464C317.767 94.3846 317.948 94.2757 318.095 94.129L336.788 75.4419H336.793ZM317.69 90.8761L333.528 75.0375C331.331 74.408 329.006 74.3779 326.793 74.9503C324.58 75.5228 322.561 76.6769 320.945 78.293C319.329 79.9091 318.175 81.9282 317.603 84.1409C317.03 86.3535 317.06 88.679 317.69 90.8761ZM351.582 95.9756H377.687C379.092 95.9533 380.433 95.3853 381.427 94.3916C382.42 93.398 382.988 92.0567 383.011 90.6517V5.20752C383.011 4.52428 382.877 3.8476 382.616 3.21629C382.355 2.58499 381.971 2.01148 381.488 1.52866C381.006 1.04388 380.433 0.659238 379.801 0.396887C379.17 0.134535 378.493 -0.000348334 377.809 6.75564e-07L282.153 0.0635948C281.474 0.0637668 280.802 0.199622 280.177 0.463171C279.551 0.72672 278.985 1.11264 278.511 1.59825C277.533 2.59323 276.986 3.93341 276.988 5.32871V90.6517C277.011 92.0567 277.579 93.398 278.572 94.3916C279.566 95.3853 280.907 95.9533 282.312 95.9756H308.417C307.009 92.4497 306.486 88.6325 306.895 84.858C307.303 81.0834 308.63 77.4663 310.759 74.3231C312.889 71.1798 315.756 68.6062 319.11 66.8272C322.464 65.0482 326.203 64.118 329.999 64.118C333.796 64.118 337.535 65.0482 340.889 66.8272C344.243 68.6062 347.11 71.1798 349.239 74.3231C351.369 77.4663 352.696 81.0834 353.104 84.858C353.512 88.6325 352.99 92.4497 351.582 95.9756ZM299.318 39.318C299.657 39.1955 300.012 39.1219 300.372 39.0996C301.068 39.055 301.763 39.2138 302.371 39.5568L302.484 39.618C303.048 39.9617 303.508 40.4523 303.815 41.0373C304.122 41.6223 304.264 42.2797 304.226 42.9393V57.4219L304.311 57.3212C304.901 56.3391 305.835 55.6119 306.932 55.2813C308.064 54.9055 309.297 54.9763 310.379 55.4793C311.39 55.9764 312.17 56.8467 312.552 57.9069C312.935 58.9672 312.892 60.1345 312.431 61.1632L308.067 70.9135C307.504 72.9354 306.275 74.7078 304.578 75.9432C302.882 77.1786 300.818 77.8045 298.721 77.7193L289.482 77.7121C287.539 77.6221 285.706 76.7858 284.365 75.3775C283.023 73.9692 282.277 72.0976 282.282 70.1528V70.0508V45.2947V45.2083C282.324 44.7385 282.459 44.2816 282.679 43.8645C282.899 43.4473 283.199 43.0781 283.564 42.7785C284.284 42.1566 285.199 41.8072 286.151 41.791C286.501 41.7908 286.849 41.8417 287.184 41.9422V41.371V41.2846C287.249 40.3647 287.657 39.5026 288.326 38.868C288.804 38.409 289.4 38.0914 290.048 37.9505C290.696 37.8096 291.37 37.851 291.995 38.0701C292.217 37.4213 292.612 36.8455 293.138 36.4047C293.852 35.7844 294.762 35.4348 295.708 35.4172C296.616 35.4182 297.491 35.7601 298.16 36.3753C298.829 36.9906 299.242 37.8343 299.318 38.7397C299.324 38.8095 299.324 38.8797 299.318 38.9496V39.318ZM287.178 45.3558V56.8232C287.178 57.1669 287.314 57.4965 287.557 57.7395C287.8 57.9825 288.13 58.1191 288.474 58.1191C288.817 58.1191 289.147 57.9825 289.39 57.7395C289.633 57.4965 289.77 57.1669 289.77 56.8232V41.4034C289.802 41.15 289.922 40.9158 290.108 40.7411C290.295 40.5616 290.544 40.461 290.803 40.4603C291.065 40.4588 291.317 40.5572 291.509 40.7356C291.701 40.9139 291.818 41.1588 291.836 41.4202V56.8172C291.836 57.1609 291.972 57.4905 292.215 57.7335C292.458 57.9766 292.788 58.1131 293.132 58.1131C293.475 58.1131 293.805 57.9766 294.048 57.7335C294.291 57.4905 294.427 57.1609 294.427 56.8172V38.9832C294.481 38.7394 294.619 38.522 294.816 38.3689C295.062 38.1487 295.377 38.0213 295.707 38.0089C295.966 38.0081 296.216 38.1051 296.407 38.2806C296.598 38.4561 296.715 38.6972 296.736 38.9556L296.744 42.7041C296.737 42.832 296.737 42.9602 296.744 43.0881V56.8172C296.744 57.1609 296.881 57.4905 297.124 57.7335C297.367 57.9766 297.697 58.1131 298.04 58.1131C298.384 58.1131 298.714 57.9766 298.957 57.7335C299.2 57.4905 299.336 57.1609 299.336 56.8172V43.0869V43.0113V42.8577C299.345 42.6902 299.39 42.5265 299.467 42.3777L299.508 42.3153C299.619 42.1333 299.772 41.9807 299.954 41.8702C300.13 41.7617 300.329 41.6971 300.535 41.6818C300.73 41.6704 300.924 41.7118 301.096 41.8018L301.159 41.8414C301.32 41.9378 301.452 42.0764 301.54 42.2421C301.628 42.4119 301.67 42.6019 301.66 42.7929V60.9916C301.661 61.2564 301.743 61.5148 301.895 61.7315C302.047 61.9482 302.262 62.1128 302.511 62.203C302.76 62.2932 303.031 62.3045 303.287 62.2355C303.542 62.1664 303.77 62.0204 303.94 61.8171L306.34 58.9374C306.422 58.851 306.491 58.7537 306.546 58.6482C306.811 58.2109 307.233 57.8921 307.726 57.7579C308.221 57.581 308.766 57.5972 309.25 57.8035C309.66 58.0063 309.975 58.3593 310.132 58.789C310.288 59.2186 310.273 59.6921 310.09 60.1109L305.667 69.9536C305.639 70.0195 305.615 70.0872 305.596 70.1564C305.208 71.6298 304.326 72.9252 303.097 73.8256C301.863 74.7392 300.355 75.2048 298.821 75.1455L289.591 75.1383C288.317 75.0762 287.116 74.5273 286.236 73.6051C285.355 72.6829 284.863 71.4578 284.86 70.1828V70.0628V45.345C284.91 45.1098 285.043 44.8999 285.233 44.7523C285.484 44.5306 285.804 44.4033 286.139 44.3923C286.401 44.3917 286.654 44.4908 286.845 44.6695C287.037 44.8465 287.153 45.0899 287.171 45.3498V45.3558H287.178ZM332.43 12.6324C332.786 12.5036 333.159 12.4256 333.537 12.4009C334.253 12.3518 334.968 12.5235 335.584 12.8928C336.118 13.2159 336.561 13.6703 336.87 14.2127L336.922 14.3015C337.213 14.8519 337.355 15.4692 337.333 16.0917V30.6908L337.41 30.5984C337.965 29.6345 338.855 28.9084 339.911 28.5586C340.707 28.2829 341.566 28.245 342.383 28.4495C343.2 28.6539 343.94 29.0918 344.513 29.7098C345.085 30.3278 345.466 31.0991 345.607 31.9295C345.749 32.76 345.646 33.6137 345.31 34.3865L345.279 34.462L340.932 44.2759C340.38 46.2644 339.17 48.0066 337.499 49.2171C335.811 50.4403 333.766 51.0691 331.683 51.0049H322.553H322.498C320.505 50.9086 318.625 50.0524 317.245 48.6124C315.894 47.2271 315.137 45.3704 315.133 43.436V43.334V18.5695V18.4831C315.174 18.0135 315.309 17.5569 315.528 17.1397C315.748 16.7226 316.048 16.3533 316.412 16.0533C317.132 15.4318 318.048 15.0828 318.999 15.067C319.349 15.0666 319.697 15.1171 320.032 15.217V14.6459V14.5607C320.077 13.8946 320.31 13.255 320.705 12.7165C321.099 12.1779 321.639 11.7626 322.26 11.5189C322.765 11.305 323.306 11.1913 323.854 11.1842C324.265 11.1772 324.675 11.2335 325.069 11.351C325.208 10.8401 325.459 10.3666 325.804 9.96485C326.149 9.56306 326.578 9.24303 327.062 9.02797L327.146 8.99318C327.639 8.78138 328.17 8.6712 328.706 8.66921C329.277 8.66289 329.842 8.78295 330.361 9.02077C330.952 9.29396 331.457 9.72413 331.821 10.2645C332.185 10.8048 332.394 11.4346 332.424 12.0853V12.1921V12.63L332.43 12.6324ZM320.032 18.6259V30.092C320.032 30.4357 320.168 30.7653 320.412 31.0084C320.655 31.2514 320.984 31.3879 321.328 31.3879C321.672 31.3879 322.001 31.2514 322.244 31.0084C322.487 30.7653 322.624 30.4357 322.624 30.092V14.6807C322.653 14.5047 322.729 14.3398 322.843 14.2026C322.957 14.0654 323.105 13.9608 323.273 13.8995C323.466 13.8167 323.673 13.7718 323.884 13.7675C324.072 13.7632 324.259 13.7992 324.432 13.8731C324.585 13.9475 324.714 14.0642 324.803 14.2094C324.892 14.3546 324.938 14.5223 324.935 14.6927V30.092C324.935 30.4357 325.071 30.7653 325.314 31.0084C325.557 31.2514 325.887 31.3879 326.231 31.3879C326.574 31.3879 326.904 31.2514 327.147 31.0084C327.39 30.7653 327.526 30.4357 327.526 30.092V12.2521C327.544 12.0651 327.61 11.886 327.719 11.7328C327.828 11.5797 327.975 11.4579 328.146 11.3798L328.189 11.3582C328.357 11.2898 328.536 11.254 328.717 11.2526C328.907 11.2516 329.096 11.2926 329.269 11.3726C329.433 11.4554 329.572 11.5802 329.672 11.7343C329.772 11.8883 329.83 12.0662 329.839 12.2497V30.092C329.839 30.4357 329.975 30.7653 330.218 31.0084C330.461 31.2514 330.791 31.3879 331.135 31.3879C331.478 31.3879 331.808 31.2514 332.051 31.0084C332.294 30.7653 332.43 30.4357 332.43 30.092V15.9429C332.447 15.8449 332.483 15.7511 332.536 15.667C332.657 15.4767 332.821 15.3179 333.016 15.2038C333.219 15.0781 333.449 15.0024 333.687 14.983C333.881 14.9677 334.076 15.0121 334.245 15.1102C334.392 15.1988 334.516 15.3224 334.605 15.4702L334.629 15.517C334.707 15.6607 334.748 15.8215 334.749 15.9849V16.1181V34.2605C334.749 34.5253 334.831 34.7836 334.983 35.0003C335.135 35.217 335.35 35.3817 335.599 35.4718C335.848 35.562 336.119 35.5733 336.375 35.5043C336.63 35.4353 336.859 35.2892 337.028 35.086L339.428 32.2062C339.51 32.1198 339.58 32.0225 339.636 31.9171C339.872 31.4854 340.264 31.1607 340.732 31.01C341.177 30.8507 341.667 30.8736 342.094 31.0736C342.498 31.2735 342.81 31.6191 342.969 32.0404C343.127 32.4617 343.12 32.9275 342.949 33.3438L342.911 33.4205L338.535 43.2992C338.507 43.3629 338.485 43.4287 338.467 43.496C338.083 44.9532 337.204 46.2318 335.982 47.1137C334.761 47.9996 333.281 48.4572 331.773 48.4156C331.724 48.4156 331.676 48.4084 331.626 48.4084H322.554C321.245 48.3272 320.015 47.7557 319.108 46.8077C318.228 45.9094 317.729 44.7057 317.715 43.448V43.328V18.6103C317.766 18.3753 317.898 18.1657 318.088 18.0188C318.339 17.7965 318.659 17.6691 318.994 17.6588C319.256 17.6576 319.508 17.7562 319.7 17.9345C319.892 18.1128 320.008 18.3575 320.026 18.6187V18.6295L320.032 18.6259ZM367.9 39.318C368.239 39.1955 368.594 39.1219 368.954 39.0996C369.65 39.055 370.345 39.2138 370.953 39.5568L371.066 39.618C371.63 39.9617 372.09 40.4523 372.397 41.0373C372.704 41.6223 372.846 42.2797 372.808 42.9393V57.4219L372.893 57.3212C373.483 56.3391 374.417 55.6119 375.514 55.2813C376.646 54.9055 377.879 54.9763 378.961 55.4793C379.973 55.9764 380.752 56.8467 381.135 57.9069C381.517 58.9672 381.474 60.1345 381.013 61.1632L376.649 70.9135C376.086 72.9354 374.857 74.7078 373.16 75.9432C371.464 77.1786 369.4 77.8045 367.303 77.7193L358.064 77.7121C356.121 77.6221 354.288 76.7858 352.947 75.3775C351.605 73.9692 350.859 72.0976 350.864 70.1528V70.0508V45.2947V45.2083C350.906 44.7386 351.04 44.2819 351.26 43.8648C351.479 43.4476 351.78 43.0783 352.143 42.7785C352.864 42.1566 353.779 41.8072 354.73 41.791C355.08 41.7908 355.428 41.8417 355.763 41.9422V41.371V41.2846C355.829 40.3647 356.237 39.5026 356.906 38.868C357.384 38.409 357.98 38.0914 358.628 37.9505C359.275 37.8096 359.949 37.851 360.575 38.0701C360.797 37.4213 361.192 36.8455 361.717 36.4047C362.432 35.7844 363.341 35.4348 364.287 35.4172C365.196 35.4182 366.071 35.7601 366.74 36.3753C367.408 36.9906 367.822 37.8343 367.898 38.7397C367.903 38.8095 367.903 38.8797 367.898 38.9496V39.318H367.9ZM355.76 45.3558V56.8232C355.76 57.1669 355.896 57.4965 356.139 57.7395C356.382 57.9825 356.712 58.1191 357.056 58.1191C357.399 58.1191 357.729 57.9825 357.972 57.7395C358.215 57.4965 358.352 57.1669 358.352 56.8232V41.4034C358.384 41.15 358.504 40.9158 358.69 40.7411C358.877 40.5616 359.126 40.461 359.385 40.4603C359.647 40.4588 359.9 40.5572 360.091 40.7356C360.283 40.9139 360.4 41.1588 360.418 41.4202V56.8172C360.418 57.1609 360.554 57.4905 360.797 57.7335C361.04 57.9766 361.37 58.1131 361.714 58.1131C362.057 58.1131 362.387 57.9766 362.63 57.7335C362.873 57.4905 363.01 57.1609 363.01 56.8172V38.9832C363.064 38.7394 363.201 38.522 363.398 38.3689C363.644 38.1487 363.959 38.0213 364.289 38.0089C364.548 38.0081 364.798 38.1051 364.989 38.2806C365.18 38.4561 365.297 38.6972 365.318 38.9556L365.327 42.7041C365.319 42.832 365.319 42.9602 365.327 43.0881V56.8172C365.327 57.1609 365.463 57.4905 365.706 57.7335C365.949 57.9766 366.279 58.1131 366.622 58.1131C366.966 58.1131 367.296 57.9766 367.539 57.7335C367.782 57.4905 367.918 57.1609 367.918 56.8172V43.0869V43.0113V42.8577C367.927 42.6902 367.972 42.5265 368.049 42.3777L368.09 42.3153C368.201 42.1333 368.354 41.9807 368.536 41.8702C368.712 41.7617 368.911 41.6971 369.117 41.6818C369.312 41.6704 369.506 41.7118 369.679 41.8018L369.741 41.8414C369.902 41.9378 370.034 42.0764 370.123 42.2421C370.211 42.4119 370.252 42.6019 370.243 42.7929V60.9916C370.243 61.2564 370.325 61.5148 370.477 61.7315C370.629 61.9482 370.844 62.1128 371.093 62.203C371.342 62.2932 371.613 62.3045 371.869 62.2355C372.124 62.1664 372.353 62.0204 372.522 61.8171L374.922 58.9374C375.004 58.851 375.073 58.7537 375.129 58.6482C375.393 58.2109 375.815 57.8921 376.308 57.7579C376.804 57.581 377.348 57.5972 377.832 57.8035C378.242 58.0063 378.558 58.3593 378.714 58.789C378.87 59.2186 378.855 59.6921 378.672 60.1109L374.249 69.9536C374.221 70.0195 374.197 70.0872 374.178 70.1564C373.79 71.6298 372.908 72.9252 371.679 73.8256C370.445 74.7392 368.937 75.2048 367.404 75.1455L358.173 75.1383C356.899 75.0762 355.698 74.5273 354.818 73.6051C353.937 72.6829 353.445 71.4578 353.442 70.1828V70.0628V45.345C353.493 45.1098 353.625 44.8999 353.815 44.7523C354.066 44.5306 354.386 44.4033 354.721 44.3923C354.983 44.3917 355.236 44.4908 355.428 44.6695C355.619 44.8465 355.735 45.0899 355.753 45.3498V45.3558H355.76ZM350.647 87.352C350.647 82.5751 348.991 77.9459 345.96 74.2533C342.93 70.5607 338.713 68.0331 334.027 67.1012C329.342 66.1694 324.479 66.8908 320.266 69.1427C316.053 71.3946 312.751 75.0376 310.923 79.4509C309.095 83.8643 308.854 88.7749 310.241 93.3462C311.628 97.9174 314.556 101.866 318.528 104.52C322.5 107.174 327.27 108.369 332.023 107.901C336.777 107.432 341.222 105.33 344.6 101.952C346.521 100.036 348.044 97.7586 349.082 95.2512C350.12 92.7439 350.652 90.0561 350.647 87.3424V87.352Z" fill="white"/>
<path d="M163.786 189.48C161.482 189.48 159.434 189.16 157.642 188.52C155.85 187.88 154.138 186.824 152.506 185.352C152.154 185.096 151.882 184.792 151.69 184.44C151.53 184.056 151.45 183.672 151.45 183.288C151.45 182.68 151.674 182.136 152.122 181.656C152.57 181.176 153.13 180.936 153.802 180.936C154.314 180.936 154.794 181.112 155.242 181.464C156.458 182.584 157.722 183.432 159.034 184.008C160.378 184.584 161.946 184.872 163.738 184.872C165.018 184.872 166.186 184.664 167.242 184.248C168.33 183.832 169.194 183.272 169.834 182.568C170.474 181.864 170.794 181.048 170.794 180.12C170.794 178.968 170.458 178.024 169.786 177.288C169.146 176.52 168.202 175.896 166.954 175.416C165.738 174.904 164.266 174.472 162.538 174.12C160.938 173.832 159.498 173.432 158.218 172.92C156.97 172.408 155.898 171.768 155.002 171C154.106 170.2 153.418 169.256 152.938 168.168C152.458 167.08 152.218 165.816 152.218 164.376C152.218 162.424 152.73 160.744 153.754 159.336C154.778 157.928 156.17 156.84 157.93 156.072C159.69 155.304 161.674 154.92 163.882 154.92C165.898 154.92 167.786 155.24 169.546 155.88C171.306 156.488 172.73 157.32 173.818 158.376C174.586 159.048 174.97 159.768 174.97 160.536C174.97 161.112 174.73 161.656 174.25 162.168C173.802 162.648 173.274 162.888 172.666 162.888C172.218 162.888 171.834 162.76 171.514 162.504C171.002 161.96 170.314 161.48 169.45 161.064C168.586 160.616 167.658 160.248 166.666 159.96C165.706 159.672 164.778 159.528 163.882 159.528C162.442 159.528 161.21 159.736 160.186 160.152C159.162 160.536 158.378 161.08 157.834 161.784C157.29 162.456 157.018 163.256 157.018 164.184C157.018 165.272 157.322 166.168 157.93 166.872C158.57 167.576 159.45 168.152 160.57 168.6C161.69 169.016 162.97 169.4 164.41 169.752C166.17 170.136 167.738 170.568 169.114 171.048C170.522 171.528 171.706 172.152 172.666 172.92C173.626 173.656 174.362 174.584 174.874 175.704C175.386 176.824 175.642 178.216 175.642 179.88C175.642 181.8 175.098 183.48 174.01 184.92C172.922 186.36 171.482 187.48 169.69 188.28C167.93 189.08 165.962 189.48 163.786 189.48ZM180.68 164.04H191.96C192.6 164.04 193.128 164.264 193.544 164.712C193.992 165.128 194.216 165.656 194.216 166.296C194.216 166.904 193.992 167.416 193.544 167.832C193.128 168.248 192.6 168.456 191.96 168.456H180.68C180.04 168.456 179.496 168.248 179.048 167.832C178.632 167.384 178.424 166.856 178.424 166.248C178.424 165.608 178.632 165.08 179.048 164.664C179.496 164.248 180.04 164.04 180.68 164.04ZM185.72 157.8C186.424 157.8 187 158.04 187.448 158.52C187.896 158.968 188.12 159.544 188.12 160.248V182.52C188.12 183.096 188.216 183.56 188.408 183.912C188.6 184.264 188.856 184.504 189.176 184.632C189.528 184.76 189.88 184.824 190.232 184.824C190.584 184.824 190.888 184.76 191.144 184.632C191.432 184.504 191.768 184.44 192.152 184.44C192.536 184.44 192.888 184.616 193.208 184.968C193.528 185.32 193.688 185.8 193.688 186.408C193.688 187.176 193.272 187.8 192.44 188.28C191.608 188.76 190.712 189 189.752 189C189.208 189 188.568 188.952 187.832 188.856C187.096 188.76 186.376 188.52 185.672 188.136C185 187.752 184.44 187.144 183.992 186.312C183.544 185.448 183.32 184.248 183.32 182.712V160.248C183.32 159.544 183.544 158.968 183.992 158.52C184.472 158.04 185.048 157.8 185.72 157.8ZM223.49 176.376C223.49 178.936 222.93 181.208 221.81 183.192C220.69 185.144 219.17 186.68 217.25 187.8C215.33 188.92 213.17 189.48 210.77 189.48C208.37 189.48 206.21 188.92 204.29 187.8C202.37 186.68 200.834 185.144 199.682 183.192C198.562 181.208 198.002 178.936 198.002 176.376C198.002 173.784 198.562 171.512 199.682 169.56C200.834 167.576 202.37 166.024 204.29 164.904C206.21 163.752 208.37 163.176 210.77 163.176C213.17 163.176 215.33 163.752 217.25 164.904C219.17 166.024 220.69 167.576 221.81 169.56C222.93 171.512 223.49 173.784 223.49 176.376ZM218.69 176.376C218.69 174.616 218.338 173.096 217.634 171.816C216.93 170.504 215.97 169.48 214.754 168.744C213.57 167.976 212.242 167.592 210.77 167.592C209.298 167.592 207.954 167.976 206.738 168.744C205.522 169.48 204.562 170.504 203.858 171.816C203.154 173.096 202.802 174.616 202.802 176.376C202.802 178.072 203.154 179.576 203.858 180.888C204.562 182.2 205.522 183.224 206.738 183.96C207.954 184.696 209.298 185.064 210.77 185.064C212.242 185.064 213.57 184.696 214.754 183.96C215.97 183.224 216.93 182.2 217.634 180.888C218.338 179.576 218.69 178.072 218.69 176.376ZM241.643 163.32C243.883 163.32 245.867 163.88 247.595 165C249.355 166.12 250.747 167.656 251.771 169.608C252.795 171.528 253.307 173.768 253.307 176.328C253.307 178.888 252.795 181.16 251.771 183.144C250.747 185.096 249.371 186.632 247.643 187.752C245.915 188.872 243.963 189.432 241.787 189.432C240.571 189.432 239.419 189.24 238.331 188.856C237.243 188.472 236.283 187.976 235.451 187.368C234.619 186.728 233.931 186.056 233.387 185.352C232.875 184.648 232.555 183.992 232.427 183.384L233.723 182.76V196.152C233.723 196.856 233.483 197.432 233.003 197.88C232.555 198.36 231.995 198.6 231.323 198.6C230.619 198.6 230.043 198.36 229.595 197.88C229.147 197.432 228.923 196.856 228.923 196.152V166.104C228.923 165.432 229.147 164.856 229.595 164.376C230.043 163.896 230.619 163.656 231.323 163.656C231.995 163.656 232.555 163.896 233.003 164.376C233.483 164.856 233.723 165.432 233.723 166.104V169.416L232.955 168.984C233.051 168.376 233.355 167.752 233.867 167.112C234.379 166.44 235.019 165.816 235.787 165.24C236.587 164.664 237.483 164.2 238.475 163.848C239.499 163.496 240.555 163.32 241.643 163.32ZM241.115 167.736C239.579 167.736 238.235 168.12 237.083 168.888C235.963 169.624 235.083 170.632 234.443 171.912C233.803 173.192 233.483 174.664 233.483 176.328C233.483 177.96 233.803 179.448 234.443 180.792C235.083 182.104 235.963 183.144 237.083 183.912C238.235 184.648 239.579 185.016 241.115 185.016C242.619 185.016 243.931 184.648 245.051 183.912C246.171 183.144 247.051 182.104 247.691 180.792C248.363 179.448 248.699 177.96 248.699 176.328C248.699 174.696 248.363 173.24 247.691 171.96C247.051 170.648 246.171 169.624 245.051 168.888C243.931 168.12 242.619 167.736 241.115 167.736ZM283.566 189C282.798 189 282.174 188.776 281.694 188.328C281.246 187.848 281.022 187.256 281.022 186.552V157.8H286.158V186.552C286.158 187.256 285.902 187.848 285.39 188.328C284.91 188.776 284.302 189 283.566 189ZM272.67 160.008C271.998 160.008 271.422 159.8 270.942 159.384C270.462 158.936 270.222 158.36 270.222 157.656C270.222 156.984 270.462 156.44 270.942 156.024C271.422 155.608 271.998 155.4 272.67 155.4H294.51C295.182 155.4 295.742 155.624 296.19 156.072C296.67 156.488 296.91 157.032 296.91 157.704C296.91 158.408 296.67 158.968 296.19 159.384C295.742 159.8 295.182 160.008 294.51 160.008H272.67ZM320.24 176.376C320.24 178.936 319.68 181.208 318.56 183.192C317.44 185.144 315.92 186.68 314 187.8C312.08 188.92 309.92 189.48 307.52 189.48C305.12 189.48 302.96 188.92 301.04 187.8C299.12 186.68 297.584 185.144 296.432 183.192C295.312 181.208 294.752 178.936 294.752 176.376C294.752 173.784 295.312 171.512 296.432 169.56C297.584 167.576 299.12 166.024 301.04 164.904C302.96 163.752 305.12 163.176 307.52 163.176C309.92 163.176 312.08 163.752 314 164.904C315.92 166.024 317.44 167.576 318.56 169.56C319.68 171.512 320.24 173.784 320.24 176.376ZM315.44 176.376C315.44 174.616 315.088 173.096 314.384 171.816C313.68 170.504 312.72 169.48 311.504 168.744C310.32 167.976 308.992 167.592 307.52 167.592C306.048 167.592 304.704 167.976 303.488 168.744C302.272 169.48 301.312 170.504 300.608 171.816C299.904 173.096 299.552 174.616 299.552 176.376C299.552 178.072 299.904 179.576 300.608 180.888C301.312 182.2 302.272 183.224 303.488 183.96C304.704 184.696 306.048 185.064 307.52 185.064C308.992 185.064 310.32 184.696 311.504 183.96C312.72 183.224 313.68 182.2 314.384 180.888C315.088 179.576 315.44 178.072 315.44 176.376ZM330.857 186.552C330.857 187.256 330.617 187.848 330.137 188.328C329.689 188.776 329.129 189 328.457 189C327.785 189 327.209 188.776 326.729 188.328C326.281 187.848 326.057 187.256 326.057 186.552V155.928C326.057 155.224 326.297 154.648 326.777 154.2C327.257 153.72 327.833 153.48 328.505 153.48C329.209 153.48 329.769 153.72 330.185 154.2C330.633 154.648 330.857 155.224 330.857 155.928V186.552ZM349.292 189.48C346.636 189.48 344.332 188.936 342.38 187.848C340.428 186.728 338.908 185.208 337.82 183.288C336.764 181.336 336.236 179.112 336.236 176.616C336.236 173.8 336.796 171.4 337.916 169.416C339.068 167.4 340.556 165.864 342.38 164.808C344.204 163.72 346.14 163.176 348.188 163.176C349.756 163.176 351.244 163.496 352.652 164.136C354.06 164.744 355.308 165.608 356.396 166.728C357.516 167.816 358.396 169.112 359.036 170.616C359.676 172.088 360.012 173.704 360.044 175.464C360.012 176.104 359.756 176.632 359.276 177.048C358.796 177.464 358.236 177.672 357.596 177.672H338.924L337.772 173.592H355.82L354.908 174.456V173.256C354.844 172.136 354.476 171.16 353.804 170.328C353.132 169.464 352.3 168.808 351.308 168.36C350.316 167.88 349.276 167.64 348.188 167.64C347.228 167.64 346.3 167.8 345.404 168.12C344.54 168.408 343.756 168.888 343.052 169.56C342.38 170.232 341.836 171.128 341.42 172.248C341.036 173.336 340.844 174.696 340.844 176.328C340.844 178.088 341.212 179.624 341.948 180.936C342.684 182.248 343.676 183.272 344.924 184.008C346.172 184.712 347.548 185.064 349.052 185.064C350.236 185.064 351.212 184.952 351.98 184.728C352.748 184.472 353.388 184.168 353.9 183.816C354.412 183.464 354.86 183.128 355.244 182.808C355.724 182.52 356.204 182.376 356.684 182.376C357.26 182.376 357.74 182.584 358.124 183C358.508 183.384 358.7 183.848 358.7 184.392C358.7 185.096 358.348 185.736 357.644 186.312C356.78 187.144 355.58 187.88 354.044 188.52C352.54 189.16 350.956 189.48 349.292 189.48ZM367.869 189C367.165 189 366.589 188.776 366.141 188.328C365.693 187.848 365.469 187.256 365.469 186.552V166.2C365.469 165.496 365.693 164.92 366.141 164.472C366.589 163.992 367.165 163.752 367.869 163.752C368.541 163.752 369.101 163.992 369.549 164.472C370.029 164.92 370.269 165.496 370.269 166.2V171.576L369.789 169.512C370.045 168.616 370.429 167.784 370.941 167.016C371.485 166.248 372.125 165.576 372.861 165C373.597 164.424 374.413 163.976 375.309 163.656C376.237 163.336 377.197 163.176 378.189 163.176C379.021 163.176 379.741 163.4 380.349 163.848C380.957 164.296 381.261 164.856 381.261 165.528C381.261 166.392 381.037 167.032 380.589 167.448C380.141 167.832 379.645 168.024 379.101 168.024C378.621 168.024 378.157 167.928 377.709 167.736C377.261 167.512 376.733 167.4 376.125 167.4C375.453 167.4 374.765 167.576 374.061 167.928C373.357 168.28 372.717 168.808 372.141 169.512C371.565 170.184 371.101 170.984 370.749 171.912C370.429 172.84 370.269 173.88 370.269 175.032V186.552C370.269 187.256 370.029 187.848 369.549 188.328C369.101 188.776 368.541 189 367.869 189ZM405.657 163.368C406.361 163.368 406.937 163.608 407.385 164.088C407.833 164.536 408.057 165.112 408.057 165.816V186.552C408.057 187.256 407.833 187.848 407.385 188.328C406.937 188.776 406.361 189 405.657 189C404.985 189 404.409 188.776 403.929 188.328C403.481 187.848 403.257 187.256 403.257 186.552V183.096L404.265 183.24C404.265 183.816 404.025 184.456 403.545 185.16C403.097 185.864 402.473 186.552 401.673 187.224C400.873 187.864 399.929 188.408 398.841 188.856C397.753 189.272 396.585 189.48 395.337 189.48C393.129 189.48 391.145 188.92 389.385 187.8C387.625 186.648 386.233 185.08 385.209 183.096C384.185 181.112 383.673 178.856 383.673 176.328C383.673 173.736 384.185 171.464 385.209 169.512C386.233 167.528 387.609 165.976 389.337 164.856C391.097 163.736 393.049 163.176 395.193 163.176C396.569 163.176 397.833 163.4 398.985 163.848C400.169 164.296 401.193 164.872 402.057 165.576C402.921 166.28 403.577 167.032 404.025 167.832C404.505 168.6 404.745 169.336 404.745 170.04L403.257 170.184V165.816C403.257 165.144 403.481 164.568 403.929 164.088C404.409 163.608 404.985 163.368 405.657 163.368ZM395.865 185.064C397.369 185.064 398.697 184.68 399.849 183.912C401.001 183.144 401.897 182.104 402.537 180.792C403.177 179.448 403.497 177.96 403.497 176.328C403.497 174.664 403.177 173.176 402.537 171.864C401.897 170.552 401.001 169.512 399.849 168.744C398.697 167.976 397.369 167.592 395.865 167.592C394.393 167.592 393.081 167.976 391.929 168.744C390.809 169.512 389.913 170.552 389.241 171.864C388.601 173.176 388.281 174.664 388.281 176.328C388.281 177.96 388.601 179.448 389.241 180.792C389.913 182.104 390.809 183.144 391.929 183.912C393.081 184.68 394.393 185.064 395.865 185.064ZM414.446 164.04H425.726C426.366 164.04 426.894 164.264 427.31 164.712C427.758 165.128 427.982 165.656 427.982 166.296C427.982 166.904 427.758 167.416 427.31 167.832C426.894 168.248 426.366 168.456 425.726 168.456H414.446C413.806 168.456 413.262 168.248 412.814 167.832C412.398 167.384 412.19 166.856 412.19 166.248C412.19 165.608 412.398 165.08 412.814 164.664C413.262 164.248 413.806 164.04 414.446 164.04ZM419.486 157.8C420.19 157.8 420.766 158.04 421.214 158.52C421.662 158.968 421.886 159.544 421.886 160.248V182.52C421.886 183.096 421.982 183.56 422.174 183.912C422.366 184.264 422.622 184.504 422.942 184.632C423.294 184.76 423.646 184.824 423.998 184.824C424.35 184.824 424.654 184.76 424.91 184.632C425.198 184.504 425.534 184.44 425.918 184.44C426.302 184.44 426.654 184.616 426.974 184.968C427.294 185.32 427.454 185.8 427.454 186.408C427.454 187.176 427.038 187.8 426.206 188.28C425.374 188.76 424.478 189 423.518 189C422.974 189 422.334 188.952 421.598 188.856C420.862 188.76 420.142 188.52 419.438 188.136C418.766 187.752 418.206 187.144 417.758 186.312C417.31 185.448 417.086 184.248 417.086 182.712V160.248C417.086 159.544 417.31 158.968 417.758 158.52C418.238 158.04 418.814 157.8 419.486 157.8ZM437.81 186.552C437.81 187.256 437.586 187.848 437.138 188.328C436.69 188.776 436.114 189 435.41 189C434.738 189 434.162 188.776 433.682 188.328C433.234 187.848 433.01 187.256 433.01 186.552V166.008C433.01 165.304 433.234 164.728 433.682 164.28C434.162 163.8 434.738 163.56 435.41 163.56C436.114 163.56 436.69 163.8 437.138 164.28C437.586 164.728 437.81 165.304 437.81 166.008V186.552ZM435.362 160.392C434.434 160.392 433.762 160.232 433.346 159.912C432.93 159.56 432.722 158.984 432.722 158.184V157.416C432.722 156.616 432.946 156.056 433.394 155.736C433.842 155.416 434.514 155.256 435.41 155.256C436.37 155.256 437.058 155.432 437.474 155.784C437.89 156.104 438.098 156.648 438.098 157.416V158.184C438.098 159.016 437.874 159.592 437.426 159.912C437.01 160.232 436.322 160.392 435.362 160.392ZM457.274 163.176C459.546 163.176 461.306 163.656 462.554 164.616C463.802 165.544 464.666 166.808 465.146 168.408C465.658 169.976 465.914 171.736 465.914 173.688V186.552C465.914 187.256 465.674 187.848 465.194 188.328C464.746 188.776 464.186 189 463.514 189C462.81 189 462.234 188.776 461.786 188.328C461.338 187.848 461.114 187.256 461.114 186.552V173.736C461.114 172.584 460.954 171.56 460.634 170.664C460.314 169.736 459.754 169 458.954 168.456C458.186 167.88 457.098 167.592 455.69 167.592C454.378 167.592 453.226 167.88 452.234 168.456C451.242 169 450.458 169.736 449.882 170.664C449.338 171.56 449.066 172.584 449.066 173.736V186.552C449.066 187.256 448.826 187.848 448.346 188.328C447.898 188.776 447.338 189 446.666 189C445.962 189 445.386 188.776 444.938 188.328C444.49 187.848 444.266 187.256 444.266 186.552V166.2C444.266 165.496 444.49 164.92 444.938 164.472C445.386 163.992 445.962 163.752 446.666 163.752C447.338 163.752 447.898 163.992 448.346 164.472C448.826 164.92 449.066 165.496 449.066 166.2V168.888L448.202 169.368C448.426 168.664 448.81 167.96 449.354 167.256C449.93 166.52 450.618 165.848 451.418 165.24C452.218 164.6 453.114 164.104 454.106 163.752C455.098 163.368 456.154 163.176 457.274 163.176ZM483.091 163.176C484.467 163.176 485.731 163.4 486.883 163.848C488.035 164.296 489.027 164.872 489.859 165.576C490.723 166.248 491.395 166.952 491.875 167.688C492.355 168.424 492.595 169.064 492.595 169.608L491.491 169.656V165.816C491.491 165.144 491.715 164.568 492.163 164.088C492.611 163.608 493.187 163.368 493.891 163.368C494.595 163.368 495.171 163.608 495.619 164.088C496.067 164.536 496.291 165.112 496.291 165.816V186.984C496.291 189.704 495.715 191.912 494.563 193.608C493.411 195.336 491.875 196.6 489.955 197.4C488.067 198.2 485.987 198.6 483.715 198.6C482.915 198.6 481.971 198.488 480.883 198.264C479.795 198.072 478.787 197.832 477.859 197.544C476.963 197.256 476.339 196.968 475.987 196.68C475.251 196.296 474.755 195.848 474.499 195.336C474.275 194.824 474.275 194.312 474.499 193.8C474.819 193.096 475.251 192.664 475.795 192.504C476.339 192.344 476.963 192.392 477.667 192.648C477.987 192.744 478.483 192.92 479.155 193.176C479.827 193.432 480.579 193.656 481.411 193.848C482.243 194.072 483.027 194.184 483.763 194.184C486.323 194.184 488.243 193.592 489.523 192.408C490.835 191.224 491.491 189.608 491.491 187.56V183.24L492.019 183.576C491.923 184.248 491.619 184.936 491.107 185.64C490.627 186.312 489.987 186.936 489.187 187.512C488.387 188.088 487.459 188.568 486.403 188.952C485.379 189.304 484.323 189.48 483.235 189.48C480.963 189.48 478.931 188.92 477.139 187.8C475.347 186.648 473.923 185.096 472.867 183.144C471.811 181.16 471.283 178.888 471.283 176.328C471.283 173.768 471.811 171.512 472.867 169.56C473.923 167.576 475.331 166.024 477.091 164.904C478.883 163.752 480.883 163.176 483.091 163.176ZM483.811 167.592C482.243 167.592 480.867 167.976 479.683 168.744C478.499 169.512 477.571 170.552 476.899 171.864C476.227 173.176 475.891 174.664 475.891 176.328C475.891 177.992 476.227 179.48 476.899 180.792C477.571 182.104 478.499 183.144 479.683 183.912C480.867 184.68 482.243 185.064 483.811 185.064C485.379 185.064 486.755 184.696 487.939 183.96C489.123 183.192 490.051 182.152 490.723 180.84C491.395 179.496 491.731 177.992 491.731 176.328C491.731 174.664 491.395 173.176 490.723 171.864C490.051 170.52 489.123 169.48 487.939 168.744C486.755 167.976 485.379 167.592 483.811 167.592ZM504.778 188.952C503.978 188.952 503.354 188.728 502.906 188.28C502.49 187.832 502.282 187.208 502.282 186.408V185.544C502.282 184.744 502.49 184.12 502.906 183.672C503.354 183.224 503.978 183 504.778 183H505.306C506.106 183 506.714 183.224 507.13 183.672C507.546 184.12 507.754 184.744 507.754 185.544V186.408C507.754 187.208 507.546 187.832 507.13 188.28C506.714 188.728 506.106 188.952 505.306 188.952H504.778ZM168.427 247.48C166.123 247.48 164.075 247.16 162.283 246.52C160.491 245.88 158.779 244.824 157.147 243.352C156.795 243.096 156.523 242.792 156.331 242.44C156.171 242.056 156.091 241.672 156.091 241.288C156.091 240.68 156.315 240.136 156.763 239.656C157.211 239.176 157.771 238.936 158.443 238.936C158.955 238.936 159.435 239.112 159.883 239.464C161.099 240.584 162.363 241.432 163.675 242.008C165.019 242.584 166.587 242.872 168.379 242.872C169.659 242.872 170.827 242.664 171.883 242.248C172.971 241.832 173.835 241.272 174.475 240.568C175.115 239.864 175.435 239.048 175.435 238.12C175.435 236.968 175.099 236.024 174.427 235.288C173.787 234.52 172.843 233.896 171.595 233.416C170.379 232.904 168.907 232.472 167.179 232.12C165.579 231.832 164.139 231.432 162.859 230.92C161.611 230.408 160.539 229.768 159.643 229C158.747 228.2 158.059 227.256 157.579 226.168C157.099 225.08 156.859 223.816 156.859 222.376C156.859 220.424 157.371 218.744 158.395 217.336C159.419 215.928 160.811 214.84 162.571 214.072C164.331 213.304 166.315 212.92 168.523 212.92C170.539 212.92 172.427 213.24 174.187 213.88C175.947 214.488 177.371 215.32 178.459 216.376C179.227 217.048 179.611 217.768 179.611 218.536C179.611 219.112 179.371 219.656 178.891 220.168C178.443 220.648 177.915 220.888 177.307 220.888C176.859 220.888 176.475 220.76 176.155 220.504C175.643 219.96 174.955 219.48 174.091 219.064C173.227 218.616 172.299 218.248 171.307 217.96C170.347 217.672 169.419 217.528 168.523 217.528C167.083 217.528 165.851 217.736 164.827 218.152C163.803 218.536 163.019 219.08 162.475 219.784C161.931 220.456 161.659 221.256 161.659 222.184C161.659 223.272 161.963 224.168 162.571 224.872C163.211 225.576 164.091 226.152 165.211 226.6C166.331 227.016 167.611 227.4 169.051 227.752C170.811 228.136 172.379 228.568 173.755 229.048C175.163 229.528 176.347 230.152 177.307 230.92C178.267 231.656 179.003 232.584 179.515 233.704C180.027 234.824 180.283 236.216 180.283 237.88C180.283 239.8 179.739 241.48 178.651 242.92C177.563 244.36 176.123 245.48 174.331 246.28C172.571 247.08 170.603 247.48 168.427 247.48ZM185.321 222.04H196.601C197.241 222.04 197.769 222.264 198.185 222.712C198.633 223.128 198.857 223.656 198.857 224.296C198.857 224.904 198.633 225.416 198.185 225.832C197.769 226.248 197.241 226.456 196.601 226.456H185.321C184.681 226.456 184.137 226.248 183.689 225.832C183.273 225.384 183.065 224.856 183.065 224.248C183.065 223.608 183.273 223.08 183.689 222.664C184.137 222.248 184.681 222.04 185.321 222.04ZM190.361 215.8C191.065 215.8 191.641 216.04 192.089 216.52C192.537 216.968 192.761 217.544 192.761 218.248V240.52C192.761 241.096 192.857 241.56 193.049 241.912C193.241 242.264 193.497 242.504 193.817 242.632C194.169 242.76 194.521 242.824 194.873 242.824C195.225 242.824 195.529 242.76 195.785 242.632C196.073 242.504 196.409 242.44 196.793 242.44C197.177 242.44 197.529 242.616 197.849 242.968C198.169 243.32 198.329 243.8 198.329 244.408C198.329 245.176 197.913 245.8 197.081 246.28C196.249 246.76 195.353 247 194.393 247C193.849 247 193.209 246.952 192.473 246.856C191.737 246.76 191.017 246.52 190.313 246.136C189.641 245.752 189.081 245.144 188.633 244.312C188.185 243.448 187.961 242.248 187.961 240.712V218.248C187.961 217.544 188.185 216.968 188.633 216.52C189.113 216.04 189.689 215.8 190.361 215.8ZM228.13 234.376C228.13 236.936 227.57 239.208 226.45 241.192C225.33 243.144 223.81 244.68 221.89 245.8C219.97 246.92 217.81 247.48 215.41 247.48C213.01 247.48 210.85 246.92 208.93 245.8C207.01 244.68 205.474 243.144 204.322 241.192C203.202 239.208 202.642 236.936 202.642 234.376C202.642 231.784 203.202 229.512 204.322 227.56C205.474 225.576 207.01 224.024 208.93 222.904C210.85 221.752 213.01 221.176 215.41 221.176C217.81 221.176 219.97 221.752 221.89 222.904C223.81 224.024 225.33 225.576 226.45 227.56C227.57 229.512 228.13 231.784 228.13 234.376ZM223.33 234.376C223.33 232.616 222.978 231.096 222.274 229.816C221.57 228.504 220.61 227.48 219.394 226.744C218.21 225.976 216.882 225.592 215.41 225.592C213.938 225.592 212.594 225.976 211.378 226.744C210.162 227.48 209.202 228.504 208.498 229.816C207.794 231.096 207.442 232.616 207.442 234.376C207.442 236.072 207.794 237.576 208.498 238.888C209.202 240.2 210.162 241.224 211.378 241.96C212.594 242.696 213.938 243.064 215.41 243.064C216.882 243.064 218.21 242.696 219.394 241.96C220.61 241.224 221.57 240.2 222.274 238.888C222.978 237.576 223.33 236.072 223.33 234.376ZM246.283 221.32C248.523 221.32 250.507 221.88 252.235 223C253.995 224.12 255.387 225.656 256.411 227.608C257.435 229.528 257.947 231.768 257.947 234.328C257.947 236.888 257.435 239.16 256.411 241.144C255.387 243.096 254.011 244.632 252.283 245.752C250.555 246.872 248.603 247.432 246.427 247.432C245.211 247.432 244.059 247.24 242.971 246.856C241.883 246.472 240.923 245.976 240.091 245.368C239.259 244.728 238.571 244.056 238.027 243.352C237.515 242.648 237.195 241.992 237.067 241.384L238.363 240.76V254.152C238.363 254.856 238.123 255.432 237.643 255.88C237.195 256.36 236.635 256.6 235.963 256.6C235.259 256.6 234.683 256.36 234.235 255.88C233.787 255.432 233.563 254.856 233.563 254.152V224.104C233.563 223.432 233.787 222.856 234.235 222.376C234.683 221.896 235.259 221.656 235.963 221.656C236.635 221.656 237.195 221.896 237.643 222.376C238.123 222.856 238.363 223.432 238.363 224.104V227.416L237.595 226.984C237.691 226.376 237.995 225.752 238.507 225.112C239.019 224.44 239.659 223.816 240.427 223.24C241.227 222.664 242.123 222.2 243.115 221.848C244.139 221.496 245.195 221.32 246.283 221.32ZM245.755 225.736C244.219 225.736 242.875 226.12 241.723 226.888C240.603 227.624 239.723 228.632 239.083 229.912C238.443 231.192 238.123 232.664 238.123 234.328C238.123 235.96 238.443 237.448 239.083 238.792C239.723 240.104 240.603 241.144 241.723 241.912C242.875 242.648 244.219 243.016 245.755 243.016C247.259 243.016 248.571 242.648 249.691 241.912C250.811 241.144 251.691 240.104 252.331 238.792C253.003 237.448 253.339 235.96 253.339 234.328C253.339 232.696 253.003 231.24 252.331 229.96C251.691 228.648 250.811 227.624 249.691 226.888C248.571 226.12 247.259 225.736 245.755 225.736ZM279.711 213.4H296.319C296.991 213.4 297.551 213.624 297.999 214.072C298.479 214.52 298.719 215.08 298.719 215.752C298.719 216.424 298.479 216.968 297.999 217.384C297.551 217.8 296.991 218.008 296.319 218.008H281.823L282.303 217.192V227.944L281.871 227.464H294.159C294.831 227.464 295.391 227.688 295.839 228.136C296.319 228.584 296.559 229.16 296.559 229.864C296.559 230.536 296.319 231.08 295.839 231.496C295.391 231.912 294.831 232.12 294.159 232.12H281.967L282.303 231.688V242.776L281.967 242.392H296.319C296.991 242.392 297.551 242.632 297.999 243.112C298.479 243.56 298.719 244.088 298.719 244.696C298.719 245.368 298.479 245.928 297.999 246.376C297.551 246.792 296.991 247 296.319 247H279.711C279.039 247 278.463 246.776 277.983 246.328C277.503 245.848 277.263 245.256 277.263 244.552V215.848C277.263 215.144 277.503 214.568 277.983 214.12C278.463 213.64 279.039 213.4 279.711 213.4ZM304.253 221.608C305.053 221.608 305.709 221.944 306.221 222.616L322.589 243.256C322.941 243.672 323.117 244.152 323.117 244.696C323.117 245.336 322.861 245.896 322.349 246.376C321.837 246.856 321.277 247.096 320.669 247.096C319.901 247.096 319.245 246.76 318.701 246.088L302.333 225.448C301.981 225.032 301.805 224.552 301.805 224.008C301.805 223.336 302.045 222.776 302.525 222.328C303.037 221.848 303.613 221.608 304.253 221.608ZM304.301 247.096C303.757 247.096 303.229 246.888 302.717 246.472C302.205 246.056 301.949 245.544 301.949 244.936C301.949 244.392 302.141 243.896 302.525 243.448L310.157 233.992L312.605 237.928L306.221 246.088C305.709 246.76 305.069 247.096 304.301 247.096ZM320.621 221.608C321.293 221.608 321.837 221.832 322.253 222.28C322.701 222.696 322.925 223.192 322.925 223.768C322.925 224.024 322.877 224.296 322.781 224.584C322.717 224.84 322.573 225.08 322.349 225.304L314.813 234.76L312.317 231.208L318.701 222.712C319.245 221.976 319.885 221.608 320.621 221.608ZM340.221 221.32C342.461 221.32 344.445 221.88 346.173 223C347.933 224.12 349.325 225.656 350.349 227.608C351.373 229.528 351.885 231.768 351.885 234.328C351.885 236.888 351.373 239.16 350.349 241.144C349.325 243.096 347.949 244.632 346.221 245.752C344.493 246.872 342.541 247.432 340.365 247.432C339.149 247.432 337.997 247.24 336.909 246.856C335.821 246.472 334.861 245.976 334.029 245.368C333.197 244.728 332.509 244.056 331.965 243.352C331.453 242.648 331.133 241.992 331.005 241.384L332.301 240.76V254.152C332.301 254.856 332.061 255.432 331.581 255.88C331.133 256.36 330.573 256.6 329.901 256.6C329.197 256.6 328.621 256.36 328.173 255.88C327.725 255.432 327.501 254.856 327.501 254.152V224.104C327.501 223.432 327.725 222.856 328.173 222.376C328.621 221.896 329.197 221.656 329.901 221.656C330.573 221.656 331.133 221.896 331.581 222.376C332.061 222.856 332.301 223.432 332.301 224.104V227.416L331.533 226.984C331.629 226.376 331.933 225.752 332.445 225.112C332.957 224.44 333.597 223.816 334.365 223.24C335.165 222.664 336.061 222.2 337.053 221.848C338.077 221.496 339.133 221.32 340.221 221.32ZM339.693 225.736C338.157 225.736 336.813 226.12 335.661 226.888C334.541 227.624 333.661 228.632 333.021 229.912C332.381 231.192 332.061 232.664 332.061 234.328C332.061 235.96 332.381 237.448 333.021 238.792C333.661 240.104 334.541 241.144 335.661 241.912C336.813 242.648 338.157 243.016 339.693 243.016C341.197 243.016 342.509 242.648 343.629 241.912C344.749 241.144 345.629 240.104 346.269 238.792C346.941 237.448 347.277 235.96 347.277 234.328C347.277 232.696 346.941 231.24 346.269 229.96C345.629 228.648 344.749 227.624 343.629 226.888C342.509 226.12 341.197 225.736 339.693 225.736ZM369.073 247.48C366.417 247.48 364.113 246.936 362.161 245.848C360.209 244.728 358.689 243.208 357.601 241.288C356.545 239.336 356.017 237.112 356.017 234.616C356.017 231.8 356.577 229.4 357.697 227.416C358.849 225.4 360.337 223.864 362.161 222.808C363.985 221.72 365.921 221.176 367.969 221.176C369.537 221.176 371.025 221.496 372.433 222.136C373.841 222.744 375.089 223.608 376.177 224.728C377.297 225.816 378.177 227.112 378.817 228.616C379.457 230.088 379.793 231.704 379.825 233.464C379.793 234.104 379.537 234.632 379.057 235.048C378.577 235.464 378.017 235.672 377.377 235.672H358.705L357.553 231.592H375.601L374.689 232.456V231.256C374.625 230.136 374.257 229.16 373.585 228.328C372.913 227.464 372.081 226.808 371.089 226.36C370.097 225.88 369.057 225.64 367.969 225.64C367.009 225.64 366.081 225.8 365.185 226.12C364.321 226.408 363.537 226.888 362.833 227.56C362.161 228.232 361.617 229.128 361.201 230.248C360.817 231.336 360.625 232.696 360.625 234.328C360.625 236.088 360.993 237.624 361.729 238.936C362.465 240.248 363.457 241.272 364.705 242.008C365.953 242.712 367.329 243.064 368.833 243.064C370.017 243.064 370.993 242.952 371.761 242.728C372.529 242.472 373.169 242.168 373.681 241.816C374.193 241.464 374.641 241.128 375.025 240.808C375.505 240.52 375.985 240.376 376.465 240.376C377.041 240.376 377.521 240.584 377.905 241C378.289 241.384 378.481 241.848 378.481 242.392C378.481 243.096 378.129 243.736 377.425 244.312C376.561 245.144 375.361 245.88 373.825 246.52C372.321 247.16 370.737 247.48 369.073 247.48ZM396.435 221.176C398.163 221.176 399.699 221.368 401.043 221.752C402.387 222.104 403.427 222.616 404.163 223.288C404.931 223.928 405.315 224.68 405.315 225.544C405.315 226.088 405.155 226.6 404.835 227.08C404.515 227.528 404.035 227.752 403.395 227.752C402.947 227.752 402.563 227.672 402.243 227.512C401.955 227.352 401.683 227.16 401.427 226.936C401.171 226.712 400.851 226.488 400.467 226.264C400.115 226.072 399.587 225.912 398.883 225.784C398.211 225.656 397.603 225.592 397.059 225.592C395.363 225.592 393.891 225.976 392.643 226.744C391.427 227.512 390.467 228.552 389.763 229.864C389.091 231.176 388.755 232.664 388.755 234.328C388.755 235.992 389.091 237.48 389.763 238.792C390.467 240.104 391.411 241.144 392.595 241.912C393.811 242.68 395.219 243.064 396.819 243.064C397.779 243.064 398.563 243 399.171 242.872C399.779 242.712 400.307 242.52 400.755 242.296C401.235 242.008 401.635 241.72 401.955 241.432C402.307 241.112 402.787 240.952 403.395 240.952C404.099 240.952 404.627 241.176 404.979 241.624C405.363 242.04 405.555 242.568 405.555 243.208C405.555 243.912 405.123 244.6 404.259 245.272C403.427 245.912 402.307 246.44 400.899 246.856C399.491 247.272 397.939 247.48 396.243 247.48C393.747 247.48 391.571 246.904 389.715 245.752C387.891 244.6 386.467 243.032 385.443 241.048C384.451 239.064 383.955 236.824 383.955 234.328C383.955 231.8 384.483 229.56 385.539 227.608C386.595 225.624 388.067 224.056 389.955 222.904C391.843 221.752 394.003 221.176 396.435 221.176ZM409.805 222.04H421.085C421.725 222.04 422.253 222.264 422.669 222.712C423.117 223.128 423.341 223.656 423.341 224.296C423.341 224.904 423.117 225.416 422.669 225.832C422.253 226.248 421.725 226.456 421.085 226.456H409.805C409.165 226.456 408.621 226.248 408.173 225.832C407.757 225.384 407.549 224.856 407.549 224.248C407.549 223.608 407.757 223.08 408.173 222.664C408.621 222.248 409.165 222.04 409.805 222.04ZM414.845 215.8C415.549 215.8 416.125 216.04 416.573 216.52C417.021 216.968 417.245 217.544 417.245 218.248V240.52C417.245 241.096 417.341 241.56 417.533 241.912C417.725 242.264 417.981 242.504 418.301 242.632C418.653 242.76 419.005 242.824 419.357 242.824C419.709 242.824 420.013 242.76 420.269 242.632C420.557 242.504 420.893 242.44 421.277 242.44C421.661 242.44 422.013 242.616 422.333 242.968C422.653 243.32 422.813 243.8 422.813 244.408C422.813 245.176 422.397 245.8 421.565 246.28C420.733 246.76 419.837 247 418.877 247C418.333 247 417.693 246.952 416.957 246.856C416.221 246.76 415.501 246.52 414.797 246.136C414.125 245.752 413.565 245.144 413.117 244.312C412.669 243.448 412.445 242.248 412.445 240.712V218.248C412.445 217.544 412.669 216.968 413.117 216.52C413.597 216.04 414.173 215.8 414.845 215.8ZM433.169 244.552C433.169 245.256 432.945 245.848 432.497 246.328C432.049 246.776 431.473 247 430.769 247C430.097 247 429.521 246.776 429.041 246.328C428.593 245.848 428.369 245.256 428.369 244.552V224.008C428.369 223.304 428.593 222.728 429.041 222.28C429.521 221.8 430.097 221.56 430.769 221.56C431.473 221.56 432.049 221.8 432.497 222.28C432.945 222.728 433.169 223.304 433.169 224.008V244.552ZM430.721 218.392C429.793 218.392 429.121 218.232 428.705 217.912C428.289 217.56 428.081 216.984 428.081 216.184V215.416C428.081 214.616 428.305 214.056 428.753 213.736C429.201 213.416 429.873 213.256 430.769 213.256C431.729 213.256 432.417 213.432 432.833 213.784C433.249 214.104 433.457 214.648 433.457 215.416V216.184C433.457 217.016 433.233 217.592 432.785 217.912C432.369 218.232 431.681 218.392 430.721 218.392ZM452.634 221.176C454.906 221.176 456.666 221.656 457.914 222.616C459.162 223.544 460.026 224.808 460.506 226.408C461.018 227.976 461.274 229.736 461.274 231.688V244.552C461.274 245.256 461.034 245.848 460.554 246.328C460.106 246.776 459.546 247 458.874 247C458.17 247 457.594 246.776 457.146 246.328C456.698 245.848 456.474 245.256 456.474 244.552V231.736C456.474 230.584 456.314 229.56 455.994 228.664C455.674 227.736 455.114 227 454.314 226.456C453.546 225.88 452.458 225.592 451.05 225.592C449.738 225.592 448.586 225.88 447.594 226.456C446.602 227 445.818 227.736 445.242 228.664C444.698 229.56 444.426 230.584 444.426 231.736V244.552C444.426 245.256 444.186 245.848 443.706 246.328C443.258 246.776 442.698 247 442.026 247C441.322 247 440.746 246.776 440.298 246.328C439.85 245.848 439.626 245.256 439.626 244.552V224.2C439.626 223.496 439.85 222.92 440.298 222.472C440.746 221.992 441.322 221.752 442.026 221.752C442.698 221.752 443.258 221.992 443.706 222.472C444.186 222.92 444.426 223.496 444.426 224.2V226.888L443.562 227.368C443.786 226.664 444.17 225.96 444.714 225.256C445.29 224.52 445.978 223.848 446.778 223.24C447.578 222.6 448.474 222.104 449.466 221.752C450.458 221.368 451.514 221.176 452.634 221.176ZM478.45 221.176C479.826 221.176 481.09 221.4 482.242 221.848C483.394 222.296 484.386 222.872 485.218 223.576C486.082 224.248 486.754 224.952 487.234 225.688C487.714 226.424 487.954 227.064 487.954 227.608L486.85 227.656V223.816C486.85 223.144 487.074 222.568 487.522 222.088C487.97 221.608 488.546 221.368 489.25 221.368C489.954 221.368 490.53 221.608 490.978 222.088C491.426 222.536 491.65 223.112 491.65 223.816V244.984C491.65 247.704 491.074 249.912 489.922 251.608C488.77 253.336 487.234 254.6 485.314 255.4C483.426 256.2 481.346 256.6 479.074 256.6C478.274 256.6 477.33 256.488 476.242 256.264C475.154 256.072 474.146 255.832 473.218 255.544C472.322 255.256 471.698 254.968 471.346 254.68C470.61 254.296 470.114 253.848 469.858 253.336C469.634 252.824 469.634 252.312 469.858 251.8C470.178 251.096 470.61 250.664 471.154 250.504C471.698 250.344 472.322 250.392 473.026 250.648C473.346 250.744 473.842 250.92 474.514 251.176C475.186 251.432 475.938 251.656 476.77 251.848C477.602 252.072 478.386 252.184 479.122 252.184C481.682 252.184 483.602 251.592 484.882 250.408C486.194 249.224 486.85 247.608 486.85 245.56V241.24L487.378 241.576C487.282 242.248 486.978 242.936 486.466 243.64C485.986 244.312 485.346 244.936 484.546 245.512C483.746 246.088 482.818 246.568 481.762 246.952C480.738 247.304 479.682 247.48 478.594 247.48C476.322 247.48 474.29 246.92 472.498 245.8C470.706 244.648 469.282 243.096 468.226 241.144C467.17 239.16 466.642 236.888 466.642 234.328C466.642 231.768 467.17 229.512 468.226 227.56C469.282 225.576 470.69 224.024 472.45 222.904C474.242 221.752 476.242 221.176 478.45 221.176ZM479.17 225.592C477.602 225.592 476.226 225.976 475.042 226.744C473.858 227.512 472.93 228.552 472.258 229.864C471.586 231.176 471.25 232.664 471.25 234.328C471.25 235.992 471.586 237.48 472.258 238.792C472.93 240.104 473.858 241.144 475.042 241.912C476.226 242.68 477.602 243.064 479.17 243.064C480.738 243.064 482.114 242.696 483.298 241.96C484.482 241.192 485.41 240.152 486.082 238.84C486.754 237.496 487.09 235.992 487.09 234.328C487.09 232.664 486.754 231.176 486.082 229.864C485.41 228.52 484.482 227.48 483.298 226.744C482.114 225.976 480.738 225.592 479.17 225.592ZM500.137 246.952C499.337 246.952 498.713 246.728 498.265 246.28C497.849 245.832 497.641 245.208 497.641 244.408V243.544C497.641 242.744 497.849 242.12 498.265 241.672C498.713 241.224 499.337 241 500.137 241H500.665C501.465 241 502.073 241.224 502.489 241.672C502.905 242.12 503.113 242.744 503.113 243.544V244.408C503.113 245.208 502.905 245.832 502.489 246.28C502.073 246.728 501.465 246.952 500.665 246.952H500.137Z" fill="white"/>
</svg>
