<svg width="19" height="20" viewBox="0 0 19 20" fill="none" xmlns="http://www.w3.org/2000/svg">
<path d="M14.353 6.07852H3.17649M14.353 6.07852C14.6 6.07852 14.8369 6.17664 15.0115 6.35131C15.1862 6.52598 15.2843 6.76287 15.2843 7.00989V9.43146M14.353 6.07852L10.6275 2.35303M3.17649 6.07852C2.92947 6.07852 2.69258 6.17664 2.51791 6.35131C2.34324 6.52598 2.24512 6.76287 2.24512 7.00989V16.3236C2.24512 16.5706 2.34324 16.8075 2.51791 16.9822C2.69258 17.1569 2.92947 17.255 3.17649 17.255H14.353C14.6 17.255 14.8369 17.1569 15.0115 16.9822C15.1862 16.8075 15.2843 16.5706 15.2843 16.3236V13.902M3.17649 6.07852L6.90198 2.35303L10.6275 6.07852M16.2157 9.80401H12.4902C11.9962 9.80401 11.5224 10.0003 11.1731 10.3496C10.8237 10.6989 10.6275 11.1727 10.6275 11.6668C10.6275 12.1608 10.8237 12.6346 11.1731 12.9839C11.5224 13.3332 11.9962 13.5295 12.4902 13.5295H16.2157C16.4627 13.5295 16.6996 13.4314 16.8743 13.2567C17.049 13.082 17.1471 12.8451 17.1471 12.5981V10.7354C17.1471 10.4884 17.049 10.2515 16.8743 10.0768C16.6996 9.90213 16.4627 9.80401 16.2157 9.80401Z" stroke="white" stroke-width="0.876586" stroke-linecap="round" stroke-linejoin="round"/>
</svg>
