<svg width="20" height="20" viewBox="0 0 20 20" fill="none" xmlns="http://www.w3.org/2000/svg">
<g clip-path="url(#clip0_21_2894)">
<path d="M5.83329 8.33317V18.3332M12.5 4.89984L11.6666 8.33317H16.525C16.7837 8.33317 17.0389 8.39341 17.2703 8.50913C17.5017 8.62484 17.703 8.79284 17.8583 8.99984C18.0135 9.20683 18.1185 9.44713 18.1647 9.7017C18.211 9.95626 18.1974 10.2181 18.125 10.4665L16.1833 17.1332C16.0823 17.4794 15.8718 17.7835 15.5833 17.9998C15.2948 18.2162 14.9439 18.3332 14.5833 18.3332H3.33329C2.89127 18.3332 2.46734 18.1576 2.15478 17.845C1.84222 17.5325 1.66663 17.1085 1.66663 16.6665V9.99984C1.66663 9.55781 1.84222 9.13389 2.15478 8.82133C2.46734 8.50877 2.89127 8.33317 3.33329 8.33317H5.63329C5.94336 8.33301 6.24724 8.24635 6.51076 8.08294C6.77427 7.91953 6.98698 7.68585 7.12496 7.40817L9.99996 1.6665C10.3929 1.67137 10.7797 1.76498 11.1315 1.94033C11.4832 2.11569 11.7907 2.36826 12.0311 2.67917C12.2715 2.99009 12.4386 3.3513 12.5197 3.73584C12.6009 4.12037 12.5942 4.51828 12.5 4.89984Z" stroke="white" stroke-width="1.66667" stroke-linecap="round" stroke-linejoin="round"/>
</g>
<defs>
<clipPath id="clip0_21_2894">
<rect width="20" height="20" fill="white"/>
</clipPath>
</defs>
</svg>
