<svg width="21" height="20" viewBox="0 0 21 20" fill="none" xmlns="http://www.w3.org/2000/svg">
<path d="M10.6961 17.5C10.4461 17.5 10.2067 17.455 9.97779 17.365C9.7489 17.275 9.5439 17.1394 9.36279 16.9583L4.09196 11.6667H6.44613L10.5503 15.7708C10.5781 15.7986 10.6025 15.8161 10.6236 15.8233C10.6447 15.8306 10.6689 15.8339 10.6961 15.8333C10.7233 15.8328 10.7478 15.8294 10.7695 15.8233C10.7911 15.8172 10.8153 15.7997 10.842 15.7708L16.4045 10.1875C16.7239 9.86806 16.967 9.48972 17.1336 9.0525C17.3003 8.61528 17.3836 8.16722 17.3836 7.70833C17.3558 6.75 17.0364 5.92694 16.4253 5.23917C15.8142 4.55139 15.0503 4.20778 14.1336 4.20833C13.7031 4.20833 13.29 4.29167 12.8945 4.45833C12.4989 4.625 12.155 4.86806 11.8628 5.1875L11.3003 5.79167C11.2308 5.875 11.1406 5.94111 11.0295 5.99C10.9183 6.03889 10.8072 6.06306 10.6961 6.0625C10.585 6.06194 10.4739 6.03778 10.3628 5.99C10.2517 5.94222 10.1545 5.87611 10.0711 5.79167L9.50863 5.1875C9.21696 4.86806 8.87668 4.61806 8.48779 4.4375C8.0989 4.25694 7.68224 4.16667 7.23779 4.16667C6.48779 4.16667 5.83863 4.40639 5.29029 4.88583C4.74196 5.36528 4.37001 5.95889 4.17446 6.66667H2.46613C2.70224 5.48611 3.25446 4.49667 4.12279 3.69833C4.99113 2.9 6.02946 2.50056 7.23779 2.5C7.90446 2.5 8.53307 2.63194 9.12363 2.89583C9.71418 3.15972 10.2383 3.52778 10.6961 4C11.1406 3.52778 11.6581 3.15972 12.2486 2.89583C12.8392 2.63194 13.4675 2.5 14.1336 2.5C15.5225 2.5 16.6858 3.01389 17.6236 4.04167C18.5614 5.06944 19.03 6.29167 19.0295 7.70833C19.0295 8.38889 18.9114 9.04167 18.6753 9.66667C18.4392 10.2917 18.085 10.8472 17.6128 11.3333L12.0086 16.9583C11.8281 17.1389 11.6267 17.2744 11.4045 17.365C11.1822 17.4556 10.9461 17.5006 10.6961 17.5ZM10.592 10H2.36279V8.33333H13.9253C14.1614 8.33333 14.3595 8.25333 14.5195 8.09333C14.6795 7.93333 14.7589 7.73556 14.7578 7.5C14.7567 7.26444 14.6767 7.06667 14.5178 6.90667C14.3589 6.74667 14.1614 6.66667 13.9253 6.66667C13.7308 6.66667 13.5572 6.71889 13.4045 6.82333C13.2517 6.92778 13.1545 7.07694 13.1128 7.27083L11.5086 6.83333C11.6614 6.29167 11.96 5.85056 12.4045 5.51C12.8489 5.16944 13.3558 4.99944 13.9253 5C14.6197 5 15.21 5.24306 15.6961 5.72917C16.1822 6.21528 16.4253 6.80556 16.4253 7.5C16.4253 8.19444 16.1822 8.78472 15.6961 9.27083C15.21 9.75694 14.6197 10 13.9253 10H12.9461C12.9878 10.1389 13.0225 10.2744 13.0503 10.4067C13.0781 10.5389 13.092 10.6811 13.092 10.8333C13.092 11.5278 12.8489 12.1181 12.3628 12.6042C11.8767 13.0903 11.2864 13.3333 10.592 13.3333C10.0225 13.3333 9.51557 13.1633 9.07113 12.8233C8.62668 12.4833 8.32807 12.0422 8.17529 11.5L9.77946 11.0625C9.82113 11.2569 9.91835 11.4064 10.0711 11.5108C10.2239 11.6153 10.3975 11.6672 10.592 11.6667C10.8281 11.6667 11.0261 11.5867 11.1861 11.4267C11.3461 11.2667 11.4258 11.0689 11.4253 10.8333C11.4247 10.5978 11.3447 10.4 11.1853 10.24C11.0258 10.08 10.8281 10 10.592 10Z" fill="white"/>
</svg>
