<svg width="53" height="52" viewBox="0 0 53 52" fill="none" xmlns="http://www.w3.org/2000/svg">
<path id="Vector" fill-rule="evenodd" clip-rule="evenodd" d="M23.4503 0.0910568C14.4266 1.07482 6.60617 6.51296 2.67255 14.5395C-3.66411 27.469 1.64648 42.9661 14.5951 49.332C20.7133 52.3398 27.6757 52.8214 34.2432 50.6908C45.2702 47.1135 52.6774 36.4291 52.1483 24.8639C52.0247 22.1629 51.3339 18.6737 50.7525 17.8134C49.9598 16.6403 48.257 16.659 47.4523 17.8498C47.0829 18.3964 47.0898 18.9876 47.4839 20.5366C49.2015 27.288 47.6098 34.4867 43.2046 39.8902C41.7324 41.6961 39.4724 43.6513 37.4434 44.8744C31.077 48.7122 22.9173 49.0273 16.2697 45.6923C6.58471 40.8333 1.84125 29.9164 4.9516 19.6441C6.44566 14.7097 9.56932 10.5236 13.9276 7.61536C16.0088 6.2265 18.9016 5.00973 21.4142 4.46635C24.0018 3.90671 27.2909 3.834 29.788 4.28139C31.1116 4.51854 31.6983 4.47111 32.2451 4.08291C32.7835 3.70059 33.1631 2.82934 33.0519 2.23127C32.9336 1.59429 32.5329 0.991845 32.0684 0.752319C31 0.201434 25.9748 -0.184135 23.4503 0.0910568ZM50.2442 1.51708C50.0372 1.61081 47.7228 3.83212 45.1013 6.45339L40.335 11.2193L38.1989 9.10232C37.0241 7.93798 35.9039 6.92519 35.7096 6.8516C34.8015 6.50808 33.653 6.90754 33.2209 7.7171C32.9615 8.20328 32.9149 9.09293 33.127 9.51067C33.3249 9.90036 39.0065 15.5837 39.4137 15.7993C39.8489 16.0296 40.8103 16.0298 41.246 15.7995C41.4324 15.7011 44.1076 13.0965 47.1911 10.0116C51.992 5.20846 52.8161 4.33082 52.9278 3.9022C53.1786 2.93921 52.7627 2.01528 51.8884 1.59316C51.2766 1.29782 50.7792 1.2748 50.2442 1.51708ZM25.27 8.14609C24.8085 8.35058 24.3898 8.79134 24.2117 9.26025C24.138 9.45398 24.0778 10.4536 24.0778 11.4816V13.3506L23.6699 13.3527C23.4457 13.354 22.8667 13.4373 22.3836 13.5381C19.6121 14.1157 17.3193 16.4022 16.7367 19.1698C16.3805 20.8619 16.5459 22.2133 17.3087 23.8427C17.6924 24.6625 17.993 25.0805 18.7099 25.7907C19.2119 26.2879 19.9415 26.8749 20.3313 27.0952C21.133 27.5481 22.7188 27.9925 23.5331 27.9925H24.0778V31.3088V34.6251H23.7869C22.17 34.6251 20.5639 33.0218 20.5639 31.4077C20.5639 30.832 20.2947 30.2541 19.818 29.8071C19.4557 29.4672 19.3385 29.4316 18.579 29.4316C17.9382 29.4316 17.6591 29.4907 17.3969 29.6819C16.9228 30.0276 16.5479 30.8375 16.5479 31.516C16.5479 32.329 16.9779 33.8898 17.4497 34.7896C18.0327 35.9012 19.4125 37.2306 20.5762 37.8017C21.4962 38.2532 22.8829 38.6234 23.6699 38.6276L24.0778 38.6297V40.5109C24.0778 42.6651 24.1773 43.0367 24.9018 43.5877C25.2974 43.8885 25.4957 43.9484 26.0982 43.9484C26.8782 43.9484 27.2825 43.7404 27.7722 43.0872C28.0045 42.7774 28.035 42.5316 28.0708 40.6859L28.1107 38.6297L28.51 38.6276C29.2904 38.6234 30.6798 38.251 31.6077 37.7977C32.7715 37.229 34.1263 35.9196 34.7207 34.7896C35.2341 33.8134 35.6237 32.3116 35.6237 31.3088C35.6237 30.3005 35.2324 28.799 34.7169 27.8288C34.4909 27.4033 33.9388 26.685 33.4902 26.2323C32.2294 24.9604 30.9874 24.3569 29.0748 24.0872L28.0938 23.9488V20.652C28.0938 16.9056 27.9907 17.1895 29.219 17.5533C30.4859 17.9284 31.6077 19.4142 31.6077 20.7168C31.6077 21.3506 32.0547 22.1815 32.5648 22.4959C33.1534 22.8586 34.078 22.8586 34.6666 22.4959C35.2128 22.1592 35.6237 21.3408 35.6237 20.5894C35.6237 19.7905 35.2099 18.2733 34.7366 17.3372C34.1573 16.1911 32.6968 14.7754 31.4822 14.1823C30.5847 13.744 29.17 13.3575 28.4473 13.3527L28.1107 13.3506L28.0708 11.3067C28.0313 9.27402 28.029 9.2605 27.6693 8.79059C27.086 8.02883 26.12 7.76928 25.27 8.14609ZM22.9335 17.528C20.4852 18.4004 19.7718 21.3406 21.5882 23.0734C22.1229 23.5836 23.0043 23.9816 23.6072 23.9851L24.0778 23.9879V20.6715V17.3552L23.7327 17.3607C23.5429 17.3637 23.1833 17.4391 22.9335 17.528ZM28.0938 31.2945V34.6251H28.3847C29.1124 34.6251 30.013 34.2249 30.5982 33.6415C32.1895 32.0547 31.8453 29.5212 29.8954 28.4685C29.5602 28.2876 29.0178 28.1001 28.6899 28.0518L28.0938 27.9641V31.2945Z" fill="white"/>
</svg>
